<?xml version='1.0' encoding='utf-8'?>
<svg width="699.70mm" height="437.80mm" viewBox="0.0 0.0 699.70 437.80" xmlns="http://www.w3.org/2000/svg" xmlns:dc="http://purl.org/dc/elements/1.1/" xmlns:cc="http://creativecommons.org/ns#" xmlns:rdf="http://www.w3.org/1999/02/22-rdf-syntax-ns#" xmlns:svg="http://www.w3.org/2000/svg" xmlns:xlink="http://www.w3.org/1999/xlink" xmlns:inkscape="http://www.inkscape.org/namespaces/inkscape">
<!--
BasedBox - Fully closed box on a base


This box is more of a building block than a finished item.
Use a vector graphics program (like Inkscape) to add holes or adjust the base
plate. The width of the "brim" can also be adjusted with the **edge_width**
 parameter in the **Finger Joints Settings**.
 
See ClosedBox for variant without a base.



Created with Boxes.py (https://festi.info/boxes.py)
Creation date: 2023-11-08 19:42:26
Command line (remove spaces between dashes): boxes BasedBox - -x=320.0 - -h=125.0 - -outside=0 - -thickness=6
Url: http://festi.info/boxes.py/BasedBox?FingerJoint_angle=90.0&FingerJoint_style=rectangular&FingerJoint_surroundingspaces=2.0&FingerJoint_bottom_lip=0.0&FingerJoint_edge_width=1.0&FingerJoint_extra_length=0.0&FingerJoint_finger=2.0&FingerJoint_play=0.0&FingerJoint_space=2.0&FingerJoint_width=1.0&x=320.0&y=100.0&h=125.0&outside=0&thickness=6&format=svg&tabs=0.0&qr_code=0&debug=0&labels=0&labels=1&reference=100&inner_corners=loop&burn=0.1&language=de&render=2
Url short: http://festi.info/boxes.py/BasedBox?x=320.0&h=125.0&outside=0&thickness=6
SettingsUrl: http://festi.info/boxes.py/BasedBox?FingerJoint_angle=90.0&FingerJoint_style=rectangular&FingerJoint_surroundingspaces=2.0&FingerJoint_bottom_lip=0.0&FingerJoint_edge_width=1.0&FingerJoint_extra_length=0.0&FingerJoint_finger=2.0&FingerJoint_play=0.0&FingerJoint_space=2.0&FingerJoint_width=1.0&x=320.0&y=100.0&h=125.0&outside=0&thickness=6&format=svg&tabs=0.0&qr_code=0&debug=0&labels=0&labels=1&reference=100&inner_corners=loop&burn=0.1&language=de&render=2
SettingsUrl short: http://festi.info/boxes.py/BasedBox?x=320.0&h=125.0&outside=0&thickness=6
-->
<title>BasedBox</title>
<metadata>
<rdf:RDF><cc:Work>
<dc:title>Box - BasedBox</dc:title>
<dc:date>2023-11-08 19:42:26</dc:date>
<dc:source>http://festi.info/boxes.py/BasedBox?FingerJoint_angle=90.0&amp;FingerJoint_style=rectangular&amp;FingerJoint_surroundingspaces=2.0&amp;FingerJoint_bottom_lip=0.0&amp;FingerJoint_edge_width=1.0&amp;FingerJoint_extra_length=0.0&amp;FingerJoint_finger=2.0&amp;FingerJoint_play=0.0&amp;FingerJoint_space=2.0&amp;FingerJoint_width=1.0&amp;x=320.0&amp;y=100.0&amp;h=125.0&amp;outside=0&amp;thickness=6&amp;format=svg&amp;tabs=0.0&amp;qr_code=0&amp;debug=0&amp;labels=0&amp;labels=1&amp;reference=100&amp;inner_corners=loop&amp;burn=0.1&amp;language=de&amp;render=2</dc:source>
<dc:source>http://festi.info/boxes.py/BasedBox?x=320.0&amp;h=125.0&amp;outside=0&amp;thickness=6</dc:source>
<dc:description>Fully closed box on a base

This box is more of a building block than a finished item.
Use a vector graphics program (like Inkscape) to add holes or adjust the base
plate. The width of the "brim" can also be adjusted with the **edge_width**
 parameter in the **Finger Joints Settings**.
 
See ClosedBox for variant without a base.


Created with Boxes.py (https://festi.info/boxes.py)
Command line: boxes BasedBox --FingerJoint_angle=90.0 --FingerJoint_style=rectangular --FingerJoint_surroundingspaces=2.0 --FingerJoint_bottom_lip=0.0 --FingerJoint_edge_width=1.0 --FingerJoint_extra_length=0.0 --FingerJoint_finger=2.0 --FingerJoint_play=0.0 --FingerJoint_space=2.0 --FingerJoint_width=1.0 --x=320.0 --y=100.0 --h=125.0 --outside=0 --thickness=6 --format=svg --tabs=0.0 --qr_code=0 --debug=0 --labels=0 --labels=1 --reference=100 --inner_corners=loop --burn=0.1
Command line short: boxes BasedBox --x=320.0 --h=125.0 --outside=0 --thickness=6
Url: http://festi.info/boxes.py/BasedBox?FingerJoint_angle=90.0&amp;FingerJoint_style=rectangular&amp;FingerJoint_surroundingspaces=2.0&amp;FingerJoint_bottom_lip=0.0&amp;FingerJoint_edge_width=1.0&amp;FingerJoint_extra_length=0.0&amp;FingerJoint_finger=2.0&amp;FingerJoint_play=0.0&amp;FingerJoint_space=2.0&amp;FingerJoint_width=1.0&amp;x=320.0&amp;y=100.0&amp;h=125.0&amp;outside=0&amp;thickness=6&amp;format=svg&amp;tabs=0.0&amp;qr_code=0&amp;debug=0&amp;labels=0&amp;labels=1&amp;reference=100&amp;inner_corners=loop&amp;burn=0.1&amp;language=de&amp;render=2
Url short: http://festi.info/boxes.py/BasedBox?x=320.0&amp;h=125.0&amp;outside=0&amp;thickness=6
SettingsUrl: http://festi.info/boxes.py/BasedBox?FingerJoint_angle=90.0&amp;FingerJoint_style=rectangular&amp;FingerJoint_surroundingspaces=2.0&amp;FingerJoint_bottom_lip=0.0&amp;FingerJoint_edge_width=1.0&amp;FingerJoint_extra_length=0.0&amp;FingerJoint_finger=2.0&amp;FingerJoint_play=0.0&amp;FingerJoint_space=2.0&amp;FingerJoint_width=1.0&amp;x=320.0&amp;y=100.0&amp;h=125.0&amp;outside=0&amp;thickness=6&amp;format=svg&amp;tabs=0.0&amp;qr_code=0&amp;debug=0&amp;labels=0&amp;labels=1&amp;reference=100&amp;inner_corners=loop&amp;burn=0.1&amp;language=de&amp;render=2
SettingsUrl short: http://festi.info/boxes.py/BasedBox?x=320.0&amp;h=125.0&amp;outside=0&amp;thickness=6
</dc:description>
</cc:Work></rdf:RDF></metadata>
<g id="p-0" style="fill:none;stroke-linecap:round;stroke-linejoin:round;">
  <path d="M 10.400 427.800 H 110.400 V 417.800 H 10.400 V 427.800 Z" stroke="rgb(0,0,0)" stroke-width="0.20" />
  <text transform="matrix( 1.000 0.000 0.000 1.000 60.400 418.800 )" style="font-family: sans-serif ; font-weight: normal; font-style: normal; fill: rgb(255,0,0)" font-size="8px" text-anchor="middle" dominant-baseline="hanging">100mm, burn:0.10mm</text>
</g>
<g id="p-1" style="fill:none;stroke-linecap:round;stroke-linejoin:round;">
  <text transform="matrix( 1.000 0.000 0.000 1.000 176.400 344.100 )" style="font-family: sans-serif ; font-weight: normal; font-style: normal; fill: rgb(255,0,0)" font-size="4px" text-anchor="middle" dominant-baseline="hanging">Wall 1</text><path d="M 16.400 408.600 H 38.300 C 38.400 408.600 38.300 408.500 38.300 408.600 V 414.500 C 38.300 414.555 38.345 414.600 38.400 414.600 H 50.400 C 50.455 414.600 50.500 414.555 50.500 414.500 V 408.600 C 50.500 408.500 50.400 408.600 50.500 408.600 H 62.300 C 62.400 408.600 62.300 408.500 62.300 408.600 V 414.500 C 62.300 414.555 62.345 414.600 62.400 414.600 H 74.400 C 74.455 414.600 74.500 414.555 74.500 414.500 V 408.600 C 74.500 408.500 74.400 408.600 74.500 408.600 H 86.300 C 86.400 408.600 86.300 408.500 86.300 408.600 V 414.500 C 86.300 414.555 86.345 414.600 86.400 414.600 H 98.400 C 98.455 414.600 98.500 414.555 98.500 414.500 V 408.600 C 98.500 408.500 98.400 408.600 98.500 408.600 H 110.300 C 110.400 408.600 110.300 408.500 110.300 408.600 V 414.500 C 110.300 414.555 110.345 414.600 110.400 414.600 H 122.400 C 122.455 414.600 122.500 414.555 122.500 414.500 V 408.600 C 122.500 408.500 122.400 408.600 122.500 408.600 H 134.300 C 134.400 408.600 134.300 408.500 134.300 408.600 V 414.500 C 134.300 414.555 134.345 414.600 134.400 414.600 H 146.400 C 146.455 414.600 146.500 414.555 146.500 414.500 V 408.600 C 146.500 408.500 146.400 408.600 146.500 408.600 H 158.300 C 158.400 408.600 158.300 408.500 158.300 408.600 V 414.500 C 158.300 414.555 158.345 414.600 158.400 414.600 H 170.400 C 170.455 414.600 170.500 414.555 170.500 414.500 V 408.600 C 170.500 408.500 170.400 408.600 170.500 408.600 H 182.300 C 182.400 408.600 182.300 408.500 182.300 408.600 V 414.500 C 182.300 414.555 182.345 414.600 182.400 414.600 H 194.400 C 194.455 414.600 194.500 414.555 194.500 414.500 V 408.600 C 194.500 408.500 194.400 408.600 194.500 408.600 H 206.300 C 206.400 408.600 206.300 408.500 206.300 408.600 V 414.500 C 206.300 414.555 206.345 414.600 206.400 414.600 H 218.400 C 218.455 414.600 218.500 414.555 218.500 414.500 V 408.600 C 218.500 408.500 218.400 408.600 218.500 408.600 H 230.300 C 230.400 408.600 230.300 408.500 230.300 408.600 V 414.500 C 230.300 414.555 230.345 414.600 230.400 414.600 H 242.400 C 242.455 414.600 242.500 414.555 242.500 414.500 V 408.600 C 242.500 408.500 242.400 408.600 242.500 408.600 H 254.300 C 254.400 408.600 254.300 408.500 254.300 408.600 V 414.500 C 254.300 414.555 254.345 414.600 254.400 414.600 H 266.400 C 266.455 414.600 266.500 414.555 266.500 414.500 V 408.600 C 266.500 408.500 266.400 408.600 266.500 408.600 H 278.300 C 278.400 408.600 278.300 408.500 278.300 408.600 V 414.500 C 278.300 414.555 278.345 414.600 278.400 414.600 H 290.400 C 290.455 414.600 290.500 414.555 290.500 414.500 V 408.600 C 290.500 408.500 290.400 408.600 290.500 408.600 H 302.300 C 302.400 408.600 302.300 408.500 302.300 408.600 V 414.500 C 302.300 414.555 302.345 414.600 302.400 414.600 H 314.400 C 314.455 414.600 314.500 414.555 314.500 414.500 V 408.600 C 314.500 408.500 314.400 408.600 314.500 408.600 H 336.400 H 342.400 C 342.455 408.600 342.500 408.555 342.500 408.500 V 388.000 C 342.500 387.945 342.455 387.900 342.400 387.900 H 336.500 C 336.400 387.900 336.500 388.000 336.500 387.900 V 376.100 C 336.500 376.000 336.400 376.100 336.500 376.100 H 342.400 C 342.455 376.100 342.500 376.055 342.500 376.000 V 364.000 C 342.500 363.945 342.455 363.900 342.400 363.900 H 336.500 C 336.400 363.900 336.500 364.000 336.500 363.900 V 352.100 C 336.500 352.000 336.400 352.100 336.500 352.100 H 342.400 C 342.455 352.100 342.500 352.055 342.500 352.000 V 340.000 C 342.500 339.945 342.455 339.900 342.400 339.900 H 336.500 C 336.400 339.900 336.500 340.000 336.500 339.900 V 328.100 C 336.500 328.000 336.400 328.100 336.500 328.100 H 342.400 C 342.455 328.100 342.500 328.055 342.500 328.000 V 316.000 C 342.500 315.945 342.455 315.900 342.400 315.900 H 336.500 C 336.400 315.900 336.500 316.000 336.500 315.900 V 304.100 C 336.500 304.000 336.400 304.100 336.500 304.100 H 342.400 C 342.455 304.100 342.500 304.055 342.500 304.000 V 283.500 V 277.500 C 342.500 277.445 342.455 277.400 342.400 277.400 H 336.400 H 314.400 C 314.345 277.400 314.300 277.445 314.300 277.500 V 283.400 C 314.300 283.500 314.400 283.400 314.300 283.400 H 302.500 C 302.400 283.400 302.500 283.500 302.500 283.400 V 277.500 C 302.500 277.445 302.455 277.400 302.400 277.400 H 290.400 C 290.345 277.400 290.300 277.445 290.300 277.500 V 283.400 C 290.300 283.500 290.400 283.400 290.300 283.400 H 278.500 C 278.400 283.400 278.500 283.500 278.500 283.400 V 277.500 C 278.500 277.445 278.455 277.400 278.400 277.400 H 266.400 C 266.345 277.400 266.300 277.445 266.300 277.500 V 283.400 C 266.300 283.500 266.400 283.400 266.300 283.400 H 254.500 C 254.400 283.400 254.500 283.500 254.500 283.400 V 277.500 C 254.500 277.445 254.455 277.400 254.400 277.400 H 242.400 C 242.345 277.400 242.300 277.445 242.300 277.500 V 283.400 C 242.300 283.500 242.400 283.400 242.300 283.400 H 230.500 C 230.400 283.400 230.500 283.500 230.500 283.400 V 277.500 C 230.500 277.445 230.455 277.400 230.400 277.400 H 218.400 C 218.345 277.400 218.300 277.445 218.300 277.500 V 283.400 C 218.300 283.500 218.400 283.400 218.300 283.400 H 206.500 C 206.400 283.400 206.500 283.500 206.500 283.400 V 277.500 C 206.500 277.445 206.455 277.400 206.400 277.400 H 194.400 C 194.345 277.400 194.300 277.445 194.300 277.500 V 283.400 C 194.300 283.500 194.400 283.400 194.300 283.400 H 182.500 C 182.400 283.400 182.500 283.500 182.500 283.400 V 277.500 C 182.500 277.445 182.455 277.400 182.400 277.400 H 170.400 C 170.345 277.400 170.300 277.445 170.300 277.500 V 283.400 C 170.300 283.500 170.400 283.400 170.300 283.400 H 158.500 C 158.400 283.400 158.500 283.500 158.500 283.400 V 277.500 C 158.500 277.445 158.455 277.400 158.400 277.400 H 146.400 C 146.345 277.400 146.300 277.445 146.300 277.500 V 283.400 C 146.300 283.500 146.400 283.400 146.300 283.400 H 134.500 C 134.400 283.400 134.500 283.500 134.500 283.400 V 277.500 C 134.500 277.445 134.455 277.400 134.400 277.400 H 122.400 C 122.345 277.400 122.300 277.445 122.300 277.500 V 283.400 C 122.300 283.500 122.400 283.400 122.300 283.400 H 110.500 C 110.400 283.400 110.500 283.500 110.500 283.400 V 277.500 C 110.500 277.445 110.455 277.400 110.400 277.400 H 98.400 C 98.345 277.400 98.300 277.445 98.300 277.500 V 283.400 C 98.300 283.500 98.400 283.400 98.300 283.400 H 86.500 C 86.400 283.400 86.500 283.500 86.500 283.400 V 277.500 C 86.500 277.445 86.455 277.400 86.400 277.400 H 74.400 C 74.345 277.400 74.300 277.445 74.300 277.500 V 283.400 C 74.300 283.500 74.400 283.400 74.300 283.400 H 62.500 C 62.400 283.400 62.500 283.500 62.500 283.400 V 277.500 C 62.500 277.445 62.455 277.400 62.400 277.400 H 50.400 C 50.345 277.400 50.300 277.445 50.300 277.500 V 283.400 C 50.300 283.500 50.400 283.400 50.300 283.400 H 38.500 C 38.400 283.400 38.500 283.500 38.500 283.400 V 277.500 C 38.500 277.445 38.455 277.400 38.400 277.400 H 16.400 H 10.400 C 10.345 277.400 10.300 277.445 10.300 277.500 V 283.500 V 304.000 C 10.300 304.055 10.345 304.100 10.400 304.100 H 16.300 C 16.400 304.100 16.300 304.000 16.300 304.100 V 315.900 C 16.300 316.000 16.400 315.900 16.300 315.900 H 10.400 C 10.345 315.900 10.300 315.945 10.300 316.000 V 328.000 C 10.300 328.055 10.345 328.100 10.400 328.100 H 16.300 C 16.400 328.100 16.300 328.000 16.300 328.100 V 339.900 C 16.300 340.000 16.400 339.900 16.300 339.900 H 10.400 C 10.345 339.900 10.300 339.945 10.300 340.000 V 352.000 C 10.300 352.055 10.345 352.100 10.400 352.100 H 16.300 C 16.400 352.100 16.300 352.000 16.300 352.100 V 363.900 C 16.300 364.000 16.400 363.900 16.300 363.900 H 10.400 C 10.345 363.900 10.300 363.945 10.300 364.000 V 376.000 C 10.300 376.055 10.345 376.100 10.400 376.100 H 16.300 C 16.400 376.100 16.300 376.000 16.300 376.100 V 387.900 C 16.300 388.000 16.400 387.900 16.300 387.900 H 10.400 C 10.345 387.900 10.300 387.945 10.300 388.000 V 408.500 C 10.300 408.555 10.345 408.600 10.400 408.600 H 16.400" stroke="rgb(0,0,0)" stroke-width="0.20" />
</g>
<g id="p-2" style="fill:none;stroke-linecap:round;stroke-linejoin:round;">
  <text transform="matrix( 1.000 0.000 0.000 1.000 401.600 344.100 )" style="font-family: sans-serif ; font-weight: normal; font-style: normal; fill: rgb(255,0,0)" font-size="4px" text-anchor="middle" dominant-baseline="hanging">Wall 2</text><path d="M 351.600 408.600 H 371.500 C 371.600 408.600 371.500 408.500 371.500 408.600 V 414.500 C 371.500 414.555 371.545 414.600 371.600 414.600 H 383.600 C 383.655 414.600 383.700 414.555 383.700 414.500 V 408.600 C 383.700 408.500 383.600 408.600 383.700 408.600 H 395.500 C 395.600 408.600 395.500 408.500 395.500 408.600 V 414.500 C 395.500 414.555 395.545 414.600 395.600 414.600 H 407.600 C 407.655 414.600 407.700 414.555 407.700 414.500 V 408.600 C 407.700 408.500 407.600 408.600 407.700 408.600 H 419.500 C 419.600 408.600 419.500 408.500 419.500 408.600 V 414.500 C 419.500 414.555 419.545 414.600 419.600 414.600 H 431.600 C 431.655 414.600 431.700 414.555 431.700 414.500 V 408.600 C 431.700 408.500 431.600 408.600 431.700 408.600 H 451.600 C 451.655 408.600 451.700 408.555 451.700 408.500 V 388.100 C 451.700 388.000 451.600 388.100 451.700 388.100 H 457.600 C 457.655 388.100 457.700 388.055 457.700 388.000 V 376.000 C 457.700 375.945 457.655 375.900 457.600 375.900 H 451.700 C 451.600 375.900 451.700 376.000 451.700 375.900 V 364.100 C 451.700 364.000 451.600 364.100 451.700 364.100 H 457.600 C 457.655 364.100 457.700 364.055 457.700 364.000 V 352.000 C 457.700 351.945 457.655 351.900 457.600 351.900 H 451.700 C 451.600 351.900 451.700 352.000 451.700 351.900 V 340.100 C 451.700 340.000 451.600 340.100 451.700 340.100 H 457.600 C 457.655 340.100 457.700 340.055 457.700 340.000 V 328.000 C 457.700 327.945 457.655 327.900 457.600 327.900 H 451.700 C 451.600 327.900 451.700 328.000 451.700 327.900 V 316.100 C 451.700 316.000 451.600 316.100 451.700 316.100 H 457.600 C 457.655 316.100 457.700 316.055 457.700 316.000 V 304.000 C 457.700 303.945 457.655 303.900 457.600 303.900 H 451.700 C 451.600 303.900 451.700 304.000 451.700 303.900 V 283.500 V 277.500 C 451.700 277.445 451.655 277.400 451.600 277.400 H 431.600 C 431.545 277.400 431.500 277.445 431.500 277.500 V 283.400 C 431.500 283.500 431.600 283.400 431.500 283.400 H 419.700 C 419.600 283.400 419.700 283.500 419.700 283.400 V 277.500 C 419.700 277.445 419.655 277.400 419.600 277.400 H 407.600 C 407.545 277.400 407.500 277.445 407.500 277.500 V 283.400 C 407.500 283.500 407.600 283.400 407.500 283.400 H 395.700 C 395.600 283.400 395.700 283.500 395.700 283.400 V 277.500 C 395.700 277.445 395.655 277.400 395.600 277.400 H 383.600 C 383.545 277.400 383.500 277.445 383.500 277.500 V 283.400 C 383.500 283.500 383.600 283.400 383.500 283.400 H 371.700 C 371.600 283.400 371.700 283.500 371.700 283.400 V 277.500 C 371.700 277.445 371.655 277.400 371.600 277.400 H 351.600 C 351.545 277.400 351.500 277.445 351.500 277.500 V 283.500 V 303.900 C 351.500 304.000 351.600 303.900 351.500 303.900 H 345.600 C 345.545 303.900 345.500 303.945 345.500 304.000 V 316.000 C 345.500 316.055 345.545 316.100 345.600 316.100 H 351.500 C 351.600 316.100 351.500 316.000 351.500 316.100 V 327.900 C 351.500 328.000 351.600 327.900 351.500 327.900 H 345.600 C 345.545 327.900 345.500 327.945 345.500 328.000 V 340.000 C 345.500 340.055 345.545 340.100 345.600 340.100 H 351.500 C 351.600 340.100 351.500 340.000 351.500 340.100 V 351.900 C 351.500 352.000 351.600 351.900 351.500 351.900 H 345.600 C 345.545 351.900 345.500 351.945 345.500 352.000 V 364.000 C 345.500 364.055 345.545 364.100 345.600 364.100 H 351.500 C 351.600 364.100 351.500 364.000 351.500 364.100 V 375.900 C 351.500 376.000 351.600 375.900 351.500 375.900 H 345.600 C 345.545 375.900 345.500 375.945 345.500 376.000 V 388.000 C 345.500 388.055 345.545 388.100 345.600 388.100 H 351.500 C 351.600 388.100 351.500 388.000 351.500 388.100 V 408.500 C 351.500 408.555 351.545 408.600 351.600 408.600" stroke="rgb(0,0,0)" stroke-width="0.20" />
</g>
<g id="p-3" style="fill:none;stroke-linecap:round;stroke-linejoin:round;">
  <text transform="matrix( 1.000 0.000 0.000 1.000 401.600 203.900 )" style="font-family: sans-serif ; font-weight: normal; font-style: normal; fill: rgb(255,0,0)" font-size="4px" text-anchor="middle" dominant-baseline="hanging">Wall 4</text><path d="M 351.600 268.400 H 371.500 C 371.600 268.400 371.500 268.300 371.500 268.400 V 274.300 C 371.500 274.355 371.545 274.400 371.600 274.400 H 383.600 C 383.655 274.400 383.700 274.355 383.700 274.300 V 268.400 C 383.700 268.300 383.600 268.400 383.700 268.400 H 395.500 C 395.600 268.400 395.500 268.300 395.500 268.400 V 274.300 C 395.500 274.355 395.545 274.400 395.600 274.400 H 407.600 C 407.655 274.400 407.700 274.355 407.700 274.300 V 268.400 C 407.700 268.300 407.600 268.400 407.700 268.400 H 419.500 C 419.600 268.400 419.500 268.300 419.500 268.400 V 274.300 C 419.500 274.355 419.545 274.400 419.600 274.400 H 431.600 C 431.655 274.400 431.700 274.355 431.700 274.300 V 268.400 C 431.700 268.300 431.600 268.400 431.700 268.400 H 451.600 C 451.655 268.400 451.700 268.355 451.700 268.300 V 247.900 C 451.700 247.800 451.600 247.900 451.700 247.900 H 457.600 C 457.655 247.900 457.700 247.855 457.700 247.800 V 235.800 C 457.700 235.745 457.655 235.700 457.600 235.700 H 451.700 C 451.600 235.700 451.700 235.800 451.700 235.700 V 223.900 C 451.700 223.800 451.600 223.900 451.700 223.900 H 457.600 C 457.655 223.900 457.700 223.855 457.700 223.800 V 211.800 C 457.700 211.745 457.655 211.700 457.600 211.700 H 451.700 C 451.600 211.700 451.700 211.800 451.700 211.700 V 199.900 C 451.700 199.800 451.600 199.900 451.700 199.900 H 457.600 C 457.655 199.900 457.700 199.855 457.700 199.800 V 187.800 C 457.700 187.745 457.655 187.700 457.600 187.700 H 451.700 C 451.600 187.700 451.700 187.800 451.700 187.700 V 175.900 C 451.700 175.800 451.600 175.900 451.700 175.900 H 457.600 C 457.655 175.900 457.700 175.855 457.700 175.800 V 163.800 C 457.700 163.745 457.655 163.700 457.600 163.700 H 451.700 C 451.600 163.700 451.700 163.800 451.700 163.700 V 143.300 V 137.300 C 451.700 137.245 451.655 137.200 451.600 137.200 H 431.600 C 431.545 137.200 431.500 137.245 431.500 137.300 V 143.200 C 431.500 143.300 431.600 143.200 431.500 143.200 H 419.700 C 419.600 143.200 419.700 143.300 419.700 143.200 V 137.300 C 419.700 137.245 419.655 137.200 419.600 137.200 H 407.600 C 407.545 137.200 407.500 137.245 407.500 137.300 V 143.200 C 407.500 143.300 407.600 143.200 407.500 143.200 H 395.700 C 395.600 143.200 395.700 143.300 395.700 143.200 V 137.300 C 395.700 137.245 395.655 137.200 395.600 137.200 H 383.600 C 383.545 137.200 383.500 137.245 383.500 137.300 V 143.200 C 383.500 143.300 383.600 143.200 383.500 143.200 H 371.700 C 371.600 143.200 371.700 143.300 371.700 143.200 V 137.300 C 371.700 137.245 371.655 137.200 371.600 137.200 H 351.600 C 351.545 137.200 351.500 137.245 351.500 137.300 V 143.300 V 163.700 C 351.500 163.800 351.600 163.700 351.500 163.700 H 345.600 C 345.545 163.700 345.500 163.745 345.500 163.800 V 175.800 C 345.500 175.855 345.545 175.900 345.600 175.900 H 351.500 C 351.600 175.900 351.500 175.800 351.500 175.900 V 187.700 C 351.500 187.800 351.600 187.700 351.500 187.700 H 345.600 C 345.545 187.700 345.500 187.745 345.500 187.800 V 199.800 C 345.500 199.855 345.545 199.900 345.600 199.900 H 351.500 C 351.600 199.900 351.500 199.800 351.500 199.900 V 211.700 C 351.500 211.800 351.600 211.700 351.500 211.700 H 345.600 C 345.545 211.700 345.500 211.745 345.500 211.800 V 223.800 C 345.500 223.855 345.545 223.900 345.600 223.900 H 351.500 C 351.600 223.900 351.500 223.800 351.500 223.900 V 235.700 C 351.500 235.800 351.600 235.700 351.500 235.700 H 345.600 C 345.545 235.700 345.500 235.745 345.500 235.800 V 247.800 C 345.500 247.855 345.545 247.900 345.600 247.900 H 351.500 C 351.600 247.900 351.500 247.800 351.500 247.900 V 268.300 C 351.500 268.355 351.545 268.400 351.600 268.400" stroke="rgb(0,0,0)" stroke-width="0.20" />
</g>
<g id="p-4" style="fill:none;stroke-linecap:round;stroke-linejoin:round;">
  <text transform="matrix( 1.000 0.000 0.000 1.000 176.400 203.900 )" style="font-family: sans-serif ; font-weight: normal; font-style: normal; fill: rgb(255,0,0)" font-size="4px" text-anchor="middle" dominant-baseline="hanging">Wall 3</text><path d="M 16.400 268.400 H 38.300 C 38.400 268.400 38.300 268.300 38.300 268.400 V 274.300 C 38.300 274.355 38.345 274.400 38.400 274.400 H 50.400 C 50.455 274.400 50.500 274.355 50.500 274.300 V 268.400 C 50.500 268.300 50.400 268.400 50.500 268.400 H 62.300 C 62.400 268.400 62.300 268.300 62.300 268.400 V 274.300 C 62.300 274.355 62.345 274.400 62.400 274.400 H 74.400 C 74.455 274.400 74.500 274.355 74.500 274.300 V 268.400 C 74.500 268.300 74.400 268.400 74.500 268.400 H 86.300 C 86.400 268.400 86.300 268.300 86.300 268.400 V 274.300 C 86.300 274.355 86.345 274.400 86.400 274.400 H 98.400 C 98.455 274.400 98.500 274.355 98.500 274.300 V 268.400 C 98.500 268.300 98.400 268.400 98.500 268.400 H 110.300 C 110.400 268.400 110.300 268.300 110.300 268.400 V 274.300 C 110.300 274.355 110.345 274.400 110.400 274.400 H 122.400 C 122.455 274.400 122.500 274.355 122.500 274.300 V 268.400 C 122.500 268.300 122.400 268.400 122.500 268.400 H 134.300 C 134.400 268.400 134.300 268.300 134.300 268.400 V 274.300 C 134.300 274.355 134.345 274.400 134.400 274.400 H 146.400 C 146.455 274.400 146.500 274.355 146.500 274.300 V 268.400 C 146.500 268.300 146.400 268.400 146.500 268.400 H 158.300 C 158.400 268.400 158.300 268.300 158.300 268.400 V 274.300 C 158.300 274.355 158.345 274.400 158.400 274.400 H 170.400 C 170.455 274.400 170.500 274.355 170.500 274.300 V 268.400 C 170.500 268.300 170.400 268.400 170.500 268.400 H 182.300 C 182.400 268.400 182.300 268.300 182.300 268.400 V 274.300 C 182.300 274.355 182.345 274.400 182.400 274.400 H 194.400 C 194.455 274.400 194.500 274.355 194.500 274.300 V 268.400 C 194.500 268.300 194.400 268.400 194.500 268.400 H 206.300 C 206.400 268.400 206.300 268.300 206.300 268.400 V 274.300 C 206.300 274.355 206.345 274.400 206.400 274.400 H 218.400 C 218.455 274.400 218.500 274.355 218.500 274.300 V 268.400 C 218.500 268.300 218.400 268.400 218.500 268.400 H 230.300 C 230.400 268.400 230.300 268.300 230.300 268.400 V 274.300 C 230.300 274.355 230.345 274.400 230.400 274.400 H 242.400 C 242.455 274.400 242.500 274.355 242.500 274.300 V 268.400 C 242.500 268.300 242.400 268.400 242.500 268.400 H 254.300 C 254.400 268.400 254.300 268.300 254.300 268.400 V 274.300 C 254.300 274.355 254.345 274.400 254.400 274.400 H 266.400 C 266.455 274.400 266.500 274.355 266.500 274.300 V 268.400 C 266.500 268.300 266.400 268.400 266.500 268.400 H 278.300 C 278.400 268.400 278.300 268.300 278.300 268.400 V 274.300 C 278.300 274.355 278.345 274.400 278.400 274.400 H 290.400 C 290.455 274.400 290.500 274.355 290.500 274.300 V 268.400 C 290.500 268.300 290.400 268.400 290.500 268.400 H 302.300 C 302.400 268.400 302.300 268.300 302.300 268.400 V 274.300 C 302.300 274.355 302.345 274.400 302.400 274.400 H 314.400 C 314.455 274.400 314.500 274.355 314.500 274.300 V 268.400 C 314.500 268.300 314.400 268.400 314.500 268.400 H 336.400 H 342.400 C 342.455 268.400 342.500 268.355 342.500 268.300 V 247.800 C 342.500 247.745 342.455 247.700 342.400 247.700 H 336.500 C 336.400 247.700 336.500 247.800 336.500 247.700 V 235.900 C 336.500 235.800 336.400 235.900 336.500 235.900 H 342.400 C 342.455 235.900 342.500 235.855 342.500 235.800 V 223.800 C 342.500 223.745 342.455 223.700 342.400 223.700 H 336.500 C 336.400 223.700 336.500 223.800 336.500 223.700 V 211.900 C 336.500 211.800 336.400 211.900 336.500 211.900 H 342.400 C 342.455 211.900 342.500 211.855 342.500 211.800 V 199.800 C 342.500 199.745 342.455 199.700 342.400 199.700 H 336.500 C 336.400 199.700 336.500 199.800 336.500 199.700 V 187.900 C 336.500 187.800 336.400 187.900 336.500 187.900 H 342.400 C 342.455 187.900 342.500 187.855 342.500 187.800 V 175.800 C 342.500 175.745 342.455 175.700 342.400 175.700 H 336.500 C 336.400 175.700 336.500 175.800 336.500 175.700 V 163.900 C 336.500 163.800 336.400 163.900 336.500 163.900 H 342.400 C 342.455 163.900 342.500 163.855 342.500 163.800 V 143.300 V 137.300 C 342.500 137.245 342.455 137.200 342.400 137.200 H 336.400 H 314.400 C 314.345 137.200 314.300 137.245 314.300 137.300 V 143.200 C 314.300 143.300 314.400 143.200 314.300 143.200 H 302.500 C 302.400 143.200 302.500 143.300 302.500 143.200 V 137.300 C 302.500 137.245 302.455 137.200 302.400 137.200 H 290.400 C 290.345 137.200 290.300 137.245 290.300 137.300 V 143.200 C 290.300 143.300 290.400 143.200 290.300 143.200 H 278.500 C 278.400 143.200 278.500 143.300 278.500 143.200 V 137.300 C 278.500 137.245 278.455 137.200 278.400 137.200 H 266.400 C 266.345 137.200 266.300 137.245 266.300 137.300 V 143.200 C 266.300 143.300 266.400 143.200 266.300 143.200 H 254.500 C 254.400 143.200 254.500 143.300 254.500 143.200 V 137.300 C 254.500 137.245 254.455 137.200 254.400 137.200 H 242.400 C 242.345 137.200 242.300 137.245 242.300 137.300 V 143.200 C 242.300 143.300 242.400 143.200 242.300 143.200 H 230.500 C 230.400 143.200 230.500 143.300 230.500 143.200 V 137.300 C 230.500 137.245 230.455 137.200 230.400 137.200 H 218.400 C 218.345 137.200 218.300 137.245 218.300 137.300 V 143.200 C 218.300 143.300 218.400 143.200 218.300 143.200 H 206.500 C 206.400 143.200 206.500 143.300 206.500 143.200 V 137.300 C 206.500 137.245 206.455 137.200 206.400 137.200 H 194.400 C 194.345 137.200 194.300 137.245 194.300 137.300 V 143.200 C 194.300 143.300 194.400 143.200 194.300 143.200 H 182.500 C 182.400 143.200 182.500 143.300 182.500 143.200 V 137.300 C 182.500 137.245 182.455 137.200 182.400 137.200 H 170.400 C 170.345 137.200 170.300 137.245 170.300 137.300 V 143.200 C 170.300 143.300 170.400 143.200 170.300 143.200 H 158.500 C 158.400 143.200 158.500 143.300 158.500 143.200 V 137.300 C 158.500 137.245 158.455 137.200 158.400 137.200 H 146.400 C 146.345 137.200 146.300 137.245 146.300 137.300 V 143.200 C 146.300 143.300 146.400 143.200 146.300 143.200 H 134.500 C 134.400 143.200 134.500 143.300 134.500 143.200 V 137.300 C 134.500 137.245 134.455 137.200 134.400 137.200 H 122.400 C 122.345 137.200 122.300 137.245 122.300 137.300 V 143.200 C 122.300 143.300 122.400 143.200 122.300 143.200 H 110.500 C 110.400 143.200 110.500 143.300 110.500 143.200 V 137.300 C 110.500 137.245 110.455 137.200 110.400 137.200 H 98.400 C 98.345 137.200 98.300 137.245 98.300 137.300 V 143.200 C 98.300 143.300 98.400 143.200 98.300 143.200 H 86.500 C 86.400 143.200 86.500 143.300 86.500 143.200 V 137.300 C 86.500 137.245 86.455 137.200 86.400 137.200 H 74.400 C 74.345 137.200 74.300 137.245 74.300 137.300 V 143.200 C 74.300 143.300 74.400 143.200 74.300 143.200 H 62.500 C 62.400 143.200 62.500 143.300 62.500 143.200 V 137.300 C 62.500 137.245 62.455 137.200 62.400 137.200 H 50.400 C 50.345 137.200 50.300 137.245 50.300 137.300 V 143.200 C 50.300 143.300 50.400 143.200 50.300 143.200 H 38.500 C 38.400 143.200 38.500 143.300 38.500 143.200 V 137.300 C 38.500 137.245 38.455 137.200 38.400 137.200 H 16.400 H 10.400 C 10.345 137.200 10.300 137.245 10.300 137.300 V 143.300 V 163.800 C 10.300 163.855 10.345 163.900 10.400 163.900 H 16.300 C 16.400 163.900 16.300 163.800 16.300 163.900 V 175.700 C 16.300 175.800 16.400 175.700 16.300 175.700 H 10.400 C 10.345 175.700 10.300 175.745 10.300 175.800 V 187.800 C 10.300 187.855 10.345 187.900 10.400 187.900 H 16.300 C 16.400 187.900 16.300 187.800 16.300 187.900 V 199.700 C 16.300 199.800 16.400 199.700 16.300 199.700 H 10.400 C 10.345 199.700 10.300 199.745 10.300 199.800 V 211.800 C 10.300 211.855 10.345 211.900 10.400 211.900 H 16.300 C 16.400 211.900 16.300 211.800 16.300 211.900 V 223.700 C 16.300 223.800 16.400 223.700 16.300 223.700 H 10.400 C 10.345 223.700 10.300 223.745 10.300 223.800 V 235.800 C 10.300 235.855 10.345 235.900 10.400 235.900 H 16.300 C 16.400 235.900 16.300 235.800 16.300 235.900 V 247.700 C 16.300 247.800 16.400 247.700 16.300 247.700 H 10.400 C 10.345 247.700 10.300 247.745 10.300 247.800 V 268.300 C 10.300 268.355 10.345 268.400 10.400 268.400 H 16.400" stroke="rgb(0,0,0)" stroke-width="0.20" />
</g>
<g id="p-5" style="fill:none;stroke-linecap:round;stroke-linejoin:round;">
  <text transform="matrix( 1.000 0.000 0.000 1.000 176.400 76.200 )" style="font-family: sans-serif ; font-weight: normal; font-style: normal; fill: rgb(255,0,0)" font-size="4px" text-anchor="middle" dominant-baseline="hanging">Top</text><path d="M 16.400 128.200 H 38.300 C 38.400 128.200 38.300 128.100 38.300 128.200 V 134.100 C 38.300 134.155 38.345 134.200 38.400 134.200 H 50.400 C 50.455 134.200 50.500 134.155 50.500 134.100 V 128.200 C 50.500 128.100 50.400 128.200 50.500 128.200 H 62.300 C 62.400 128.200 62.300 128.100 62.300 128.200 V 134.100 C 62.300 134.155 62.345 134.200 62.400 134.200 H 74.400 C 74.455 134.200 74.500 134.155 74.500 134.100 V 128.200 C 74.500 128.100 74.400 128.200 74.500 128.200 H 86.300 C 86.400 128.200 86.300 128.100 86.300 128.200 V 134.100 C 86.300 134.155 86.345 134.200 86.400 134.200 H 98.400 C 98.455 134.200 98.500 134.155 98.500 134.100 V 128.200 C 98.500 128.100 98.400 128.200 98.500 128.200 H 110.300 C 110.400 128.200 110.300 128.100 110.300 128.200 V 134.100 C 110.300 134.155 110.345 134.200 110.400 134.200 H 122.400 C 122.455 134.200 122.500 134.155 122.500 134.100 V 128.200 C 122.500 128.100 122.400 128.200 122.500 128.200 H 134.300 C 134.400 128.200 134.300 128.100 134.300 128.200 V 134.100 C 134.300 134.155 134.345 134.200 134.400 134.200 H 146.400 C 146.455 134.200 146.500 134.155 146.500 134.100 V 128.200 C 146.500 128.100 146.400 128.200 146.500 128.200 H 158.300 C 158.400 128.200 158.300 128.100 158.300 128.200 V 134.100 C 158.300 134.155 158.345 134.200 158.400 134.200 H 170.400 C 170.455 134.200 170.500 134.155 170.500 134.100 V 128.200 C 170.500 128.100 170.400 128.200 170.500 128.200 H 182.300 C 182.400 128.200 182.300 128.100 182.300 128.200 V 134.100 C 182.300 134.155 182.345 134.200 182.400 134.200 H 194.400 C 194.455 134.200 194.500 134.155 194.500 134.100 V 128.200 C 194.500 128.100 194.400 128.200 194.500 128.200 H 206.300 C 206.400 128.200 206.300 128.100 206.300 128.200 V 134.100 C 206.300 134.155 206.345 134.200 206.400 134.200 H 218.400 C 218.455 134.200 218.500 134.155 218.500 134.100 V 128.200 C 218.500 128.100 218.400 128.200 218.500 128.200 H 230.300 C 230.400 128.200 230.300 128.100 230.300 128.200 V 134.100 C 230.300 134.155 230.345 134.200 230.400 134.200 H 242.400 C 242.455 134.200 242.500 134.155 242.500 134.100 V 128.200 C 242.500 128.100 242.400 128.200 242.500 128.200 H 254.300 C 254.400 128.200 254.300 128.100 254.300 128.200 V 134.100 C 254.300 134.155 254.345 134.200 254.400 134.200 H 266.400 C 266.455 134.200 266.500 134.155 266.500 134.100 V 128.200 C 266.500 128.100 266.400 128.200 266.500 128.200 H 278.300 C 278.400 128.200 278.300 128.100 278.300 128.200 V 134.100 C 278.300 134.155 278.345 134.200 278.400 134.200 H 290.400 C 290.455 134.200 290.500 134.155 290.500 134.100 V 128.200 C 290.500 128.100 290.400 128.200 290.500 128.200 H 302.300 C 302.400 128.200 302.300 128.100 302.300 128.200 V 134.100 C 302.300 134.155 302.345 134.200 302.400 134.200 H 314.400 C 314.455 134.200 314.500 134.155 314.500 134.100 V 128.200 C 314.500 128.100 314.400 128.200 314.500 128.200 H 336.400 C 336.455 128.200 336.500 128.155 336.500 128.100 V 108.200 C 336.500 108.100 336.400 108.200 336.500 108.200 H 342.400 C 342.455 108.200 342.500 108.155 342.500 108.100 V 96.100 C 342.500 96.045 342.455 96.000 342.400 96.000 H 336.500 C 336.400 96.000 336.500 96.100 336.500 96.000 V 84.200 C 336.500 84.100 336.400 84.200 336.500 84.200 H 342.400 C 342.455 84.200 342.500 84.155 342.500 84.100 V 72.100 C 342.500 72.045 342.455 72.000 342.400 72.000 H 336.500 C 336.400 72.000 336.500 72.100 336.500 72.000 V 60.200 C 336.500 60.100 336.400 60.200 336.500 60.200 H 342.400 C 342.455 60.200 342.500 60.155 342.500 60.100 V 48.100 C 342.500 48.045 342.455 48.000 342.400 48.000 H 336.500 C 336.400 48.000 336.500 48.100 336.500 48.000 V 28.100 C 336.500 28.045 336.455 28.000 336.400 28.000 H 314.500 C 314.400 28.000 314.500 28.100 314.500 28.000 V 22.100 C 314.500 22.045 314.455 22.000 314.400 22.000 H 302.400 C 302.345 22.000 302.300 22.045 302.300 22.100 V 28.000 C 302.300 28.100 302.400 28.000 302.300 28.000 H 290.500 C 290.400 28.000 290.500 28.100 290.500 28.000 V 22.100 C 290.500 22.045 290.455 22.000 290.400 22.000 H 278.400 C 278.345 22.000 278.300 22.045 278.300 22.100 V 28.000 C 278.300 28.100 278.400 28.000 278.300 28.000 H 266.500 C 266.400 28.000 266.500 28.100 266.500 28.000 V 22.100 C 266.500 22.045 266.455 22.000 266.400 22.000 H 254.400 C 254.345 22.000 254.300 22.045 254.300 22.100 V 28.000 C 254.300 28.100 254.400 28.000 254.300 28.000 H 242.500 C 242.400 28.000 242.500 28.100 242.500 28.000 V 22.100 C 242.500 22.045 242.455 22.000 242.400 22.000 H 230.400 C 230.345 22.000 230.300 22.045 230.300 22.100 V 28.000 C 230.300 28.100 230.400 28.000 230.300 28.000 H 218.500 C 218.400 28.000 218.500 28.100 218.500 28.000 V 22.100 C 218.500 22.045 218.455 22.000 218.400 22.000 H 206.400 C 206.345 22.000 206.300 22.045 206.300 22.100 V 28.000 C 206.300 28.100 206.400 28.000 206.300 28.000 H 194.500 C 194.400 28.000 194.500 28.100 194.500 28.000 V 22.100 C 194.500 22.045 194.455 22.000 194.400 22.000 H 182.400 C 182.345 22.000 182.300 22.045 182.300 22.100 V 28.000 C 182.300 28.100 182.400 28.000 182.300 28.000 H 170.500 C 170.400 28.000 170.500 28.100 170.500 28.000 V 22.100 C 170.500 22.045 170.455 22.000 170.400 22.000 H 158.400 C 158.345 22.000 158.300 22.045 158.300 22.100 V 28.000 C 158.300 28.100 158.400 28.000 158.300 28.000 H 146.500 C 146.400 28.000 146.500 28.100 146.500 28.000 V 22.100 C 146.500 22.045 146.455 22.000 146.400 22.000 H 134.400 C 134.345 22.000 134.300 22.045 134.300 22.100 V 28.000 C 134.300 28.100 134.400 28.000 134.300 28.000 H 122.500 C 122.400 28.000 122.500 28.100 122.500 28.000 V 22.100 C 122.500 22.045 122.455 22.000 122.400 22.000 H 110.400 C 110.345 22.000 110.300 22.045 110.300 22.100 V 28.000 C 110.300 28.100 110.400 28.000 110.300 28.000 H 98.500 C 98.400 28.000 98.500 28.100 98.500 28.000 V 22.100 C 98.500 22.045 98.455 22.000 98.400 22.000 H 86.400 C 86.345 22.000 86.300 22.045 86.300 22.100 V 28.000 C 86.300 28.100 86.400 28.000 86.300 28.000 H 74.500 C 74.400 28.000 74.500 28.100 74.500 28.000 V 22.100 C 74.500 22.045 74.455 22.000 74.400 22.000 H 62.400 C 62.345 22.000 62.300 22.045 62.300 22.100 V 28.000 C 62.300 28.100 62.400 28.000 62.300 28.000 H 50.500 C 50.400 28.000 50.500 28.100 50.500 28.000 V 22.100 C 50.500 22.045 50.455 22.000 50.400 22.000 H 38.400 C 38.345 22.000 38.300 22.045 38.300 22.100 V 28.000 C 38.300 28.100 38.400 28.000 38.300 28.000 H 16.400 C 16.345 28.000 16.300 28.045 16.300 28.100 V 48.000 C 16.300 48.100 16.400 48.000 16.300 48.000 H 10.400 C 10.345 48.000 10.300 48.045 10.300 48.100 V 60.100 C 10.300 60.155 10.345 60.200 10.400 60.200 H 16.300 C 16.400 60.200 16.300 60.100 16.300 60.200 V 72.000 C 16.300 72.100 16.400 72.000 16.300 72.000 H 10.400 C 10.345 72.000 10.300 72.045 10.300 72.100 V 84.100 C 10.300 84.155 10.345 84.200 10.400 84.200 H 16.300 C 16.400 84.200 16.300 84.100 16.300 84.200 V 96.000 C 16.300 96.100 16.400 96.000 16.300 96.000 H 10.400 C 10.345 96.000 10.300 96.045 10.300 96.100 V 108.100 C 10.300 108.155 10.345 108.200 10.400 108.200 H 16.300 C 16.400 108.200 16.300 108.100 16.300 108.200 V 128.100 C 16.300 128.155 16.345 128.200 16.400 128.200" stroke="rgb(0,0,0)" stroke-width="0.20" />
</g>
<g id="p-6" style="fill:none;stroke-linecap:round;stroke-linejoin:round;">
  <path d="M 385.600 128.000 H 379.700 C 379.600 128.000 379.700 128.100 379.700 128.000 V 122.200 C 379.700 122.100 379.600 122.200 379.700 122.200 H 391.500 C 391.600 122.200 391.500 122.100 391.500 122.200 V 128.000 C 391.500 128.100 391.600 128.000 391.500 128.000 H 385.600 Z" stroke="rgb(0,0,255)" stroke-width="0.20" />
  <path d="M 409.600 128.000 H 403.700 C 403.600 128.000 403.700 128.100 403.700 128.000 V 122.200 C 403.700 122.100 403.600 122.200 403.700 122.200 H 415.500 C 415.600 122.200 415.500 122.100 415.500 122.200 V 128.000 C 415.500 128.100 415.600 128.000 415.500 128.000 H 409.600 Z" stroke="rgb(0,0,255)" stroke-width="0.20" />
  <path d="M 433.600 128.000 H 427.700 C 427.600 128.000 427.700 128.100 427.700 128.000 V 122.200 C 427.700 122.100 427.600 122.200 427.700 122.200 H 439.500 C 439.600 122.200 439.500 122.100 439.500 122.200 V 128.000 C 439.500 128.100 439.600 128.000 439.500 128.000 H 433.600 Z" stroke="rgb(0,0,255)" stroke-width="0.20" />
  <path d="M 457.600 128.000 H 451.700 C 451.600 128.000 451.700 128.100 451.700 128.000 V 122.200 C 451.700 122.100 451.600 122.200 451.700 122.200 H 463.500 C 463.600 122.200 463.500 122.100 463.500 122.200 V 128.000 C 463.500 128.100 463.600 128.000 463.500 128.000 H 457.600 Z" stroke="rgb(0,0,255)" stroke-width="0.20" />
  <path d="M 481.600 128.000 H 475.700 C 475.600 128.000 475.700 128.100 475.700 128.000 V 122.200 C 475.700 122.100 475.600 122.200 475.700 122.200 H 487.500 C 487.600 122.200 487.500 122.100 487.500 122.200 V 128.000 C 487.500 128.100 487.600 128.000 487.500 128.000 H 481.600 Z" stroke="rgb(0,0,255)" stroke-width="0.20" />
  <path d="M 505.600 128.000 H 499.700 C 499.600 128.000 499.700 128.100 499.700 128.000 V 122.200 C 499.700 122.100 499.600 122.200 499.700 122.200 H 511.500 C 511.600 122.200 511.500 122.100 511.500 122.200 V 128.000 C 511.500 128.100 511.600 128.000 511.500 128.000 H 505.600 Z" stroke="rgb(0,0,255)" stroke-width="0.20" />
  <path d="M 529.600 128.000 H 523.700 C 523.600 128.000 523.700 128.100 523.700 128.000 V 122.200 C 523.700 122.100 523.600 122.200 523.700 122.200 H 535.500 C 535.600 122.200 535.500 122.100 535.500 122.200 V 128.000 C 535.500 128.100 535.600 128.000 535.500 128.000 H 529.600 Z" stroke="rgb(0,0,255)" stroke-width="0.20" />
  <path d="M 553.600 128.000 H 547.700 C 547.600 128.000 547.700 128.100 547.700 128.000 V 122.200 C 547.700 122.100 547.600 122.200 547.700 122.200 H 559.500 C 559.600 122.200 559.500 122.100 559.500 122.200 V 128.000 C 559.500 128.100 559.600 128.000 559.500 128.000 H 553.600 Z" stroke="rgb(0,0,255)" stroke-width="0.20" />
  <path d="M 577.600 128.000 H 571.700 C 571.600 128.000 571.700 128.100 571.700 128.000 V 122.200 C 571.700 122.100 571.600 122.200 571.700 122.200 H 583.500 C 583.600 122.200 583.500 122.100 583.500 122.200 V 128.000 C 583.500 128.100 583.600 128.000 583.500 128.000 H 577.600 Z" stroke="rgb(0,0,255)" stroke-width="0.20" />
  <path d="M 601.600 128.000 H 595.700 C 595.600 128.000 595.700 128.100 595.700 128.000 V 122.200 C 595.700 122.100 595.600 122.200 595.700 122.200 H 607.500 C 607.600 122.200 607.500 122.100 607.500 122.200 V 128.000 C 607.500 128.100 607.600 128.000 607.500 128.000 H 601.600 Z" stroke="rgb(0,0,255)" stroke-width="0.20" />
  <path d="M 625.600 128.000 H 619.700 C 619.600 128.000 619.700 128.100 619.700 128.000 V 122.200 C 619.700 122.100 619.600 122.200 619.700 122.200 H 631.500 C 631.600 122.200 631.500 122.100 631.500 122.200 V 128.000 C 631.500 128.100 631.600 128.000 631.500 128.000 H 625.600 Z" stroke="rgb(0,0,255)" stroke-width="0.20" />
  <path d="M 649.600 128.000 H 643.700 C 643.600 128.000 643.700 128.100 643.700 128.000 V 122.200 C 643.700 122.100 643.600 122.200 643.700 122.200 H 655.500 C 655.600 122.200 655.500 122.100 655.500 122.200 V 128.000 C 655.500 128.100 655.600 128.000 655.500 128.000 H 649.600 Z" stroke="rgb(0,0,255)" stroke-width="0.20" />
  <text transform="matrix( 1.000 0.000 0.000 1.000 517.600 70.200 )" style="font-family: sans-serif ; font-weight: normal; font-style: normal; fill: rgb(255,0,0)" font-size="4px" text-anchor="middle" dominant-baseline="hanging">Base</text><path d="M 357.600 134.200 H 677.600 H 689.600 C 689.655 134.200 689.700 134.155 689.700 134.100 V 122.100 V 22.100 V 10.100 C 689.700 10.045 689.655 10.000 689.600 10.000 H 677.600 H 357.600 H 345.600 C 345.545 10.000 345.500 10.045 345.500 10.100 V 22.100 V 122.100 V 134.100 C 345.500 134.155 345.545 134.200 345.600 134.200 H 357.600" stroke="rgb(0,0,0)" stroke-width="0.20" />
  <path d="M 683.500 96.100 V 102.000 C 683.500 102.100 683.600 102.000 683.500 102.000 H 677.700 C 677.600 102.000 677.700 102.100 677.700 102.000 V 90.200 C 677.700 90.100 677.600 90.200 677.700 90.200 H 683.500 C 683.600 90.200 683.500 90.100 683.500 90.200 V 96.100 Z" stroke="rgb(0,0,255)" stroke-width="0.20" />
  <path d="M 683.500 72.100 V 78.000 C 683.500 78.100 683.600 78.000 683.500 78.000 H 677.700 C 677.600 78.000 677.700 78.100 677.700 78.000 V 66.200 C 677.700 66.100 677.600 66.200 677.700 66.200 H 683.500 C 683.600 66.200 683.500 66.100 683.500 66.200 V 72.100 Z" stroke="rgb(0,0,255)" stroke-width="0.20" />
  <path d="M 683.500 48.100 V 54.000 C 683.500 54.100 683.600 54.000 683.500 54.000 H 677.700 C 677.600 54.000 677.700 54.100 677.700 54.000 V 42.200 C 677.700 42.100 677.600 42.200 677.700 42.200 H 683.500 C 683.600 42.200 683.500 42.100 683.500 42.200 V 48.100 Z" stroke="rgb(0,0,255)" stroke-width="0.20" />
  <path d="M 649.600 16.200 H 655.500 C 655.600 16.200 655.500 16.100 655.500 16.200 V 22.000 C 655.500 22.100 655.600 22.000 655.500 22.000 H 643.700 C 643.600 22.000 643.700 22.100 643.700 22.000 V 16.200 C 643.700 16.100 643.600 16.200 643.700 16.200 H 649.600 Z" stroke="rgb(0,0,255)" stroke-width="0.20" />
  <path d="M 625.600 16.200 H 631.500 C 631.600 16.200 631.500 16.100 631.500 16.200 V 22.000 C 631.500 22.100 631.600 22.000 631.500 22.000 H 619.700 C 619.600 22.000 619.700 22.100 619.700 22.000 V 16.200 C 619.700 16.100 619.600 16.200 619.700 16.200 H 625.600 Z" stroke="rgb(0,0,255)" stroke-width="0.20" />
  <path d="M 601.600 16.200 H 607.500 C 607.600 16.200 607.500 16.100 607.500 16.200 V 22.000 C 607.500 22.100 607.600 22.000 607.500 22.000 H 595.700 C 595.600 22.000 595.700 22.100 595.700 22.000 V 16.200 C 595.700 16.100 595.600 16.200 595.700 16.200 H 601.600 Z" stroke="rgb(0,0,255)" stroke-width="0.20" />
  <path d="M 577.600 16.200 H 583.500 C 583.600 16.200 583.500 16.100 583.500 16.200 V 22.000 C 583.500 22.100 583.600 22.000 583.500 22.000 H 571.700 C 571.600 22.000 571.700 22.100 571.700 22.000 V 16.200 C 571.700 16.100 571.600 16.200 571.700 16.200 H 577.600 Z" stroke="rgb(0,0,255)" stroke-width="0.20" />
  <path d="M 553.600 16.200 H 559.500 C 559.600 16.200 559.500 16.100 559.500 16.200 V 22.000 C 559.500 22.100 559.600 22.000 559.500 22.000 H 547.700 C 547.600 22.000 547.700 22.100 547.700 22.000 V 16.200 C 547.700 16.100 547.600 16.200 547.700 16.200 H 553.600 Z" stroke="rgb(0,0,255)" stroke-width="0.20" />
  <path d="M 529.600 16.200 H 535.500 C 535.600 16.200 535.500 16.100 535.500 16.200 V 22.000 C 535.500 22.100 535.600 22.000 535.500 22.000 H 523.700 C 523.600 22.000 523.700 22.100 523.700 22.000 V 16.200 C 523.700 16.100 523.600 16.200 523.700 16.200 H 529.600 Z" stroke="rgb(0,0,255)" stroke-width="0.20" />
  <path d="M 505.600 16.200 H 511.500 C 511.600 16.200 511.500 16.100 511.500 16.200 V 22.000 C 511.500 22.100 511.600 22.000 511.500 22.000 H 499.700 C 499.600 22.000 499.700 22.100 499.700 22.000 V 16.200 C 499.700 16.100 499.600 16.200 499.700 16.200 H 505.600 Z" stroke="rgb(0,0,255)" stroke-width="0.20" />
  <path d="M 481.600 16.200 H 487.500 C 487.600 16.200 487.500 16.100 487.500 16.200 V 22.000 C 487.500 22.100 487.600 22.000 487.500 22.000 H 475.700 C 475.600 22.000 475.700 22.100 475.700 22.000 V 16.200 C 475.700 16.100 475.600 16.200 475.700 16.200 H 481.600 Z" stroke="rgb(0,0,255)" stroke-width="0.20" />
  <path d="M 457.600 16.200 H 463.500 C 463.600 16.200 463.500 16.100 463.500 16.200 V 22.000 C 463.500 22.100 463.600 22.000 463.500 22.000 H 451.700 C 451.600 22.000 451.700 22.100 451.700 22.000 V 16.200 C 451.700 16.100 451.600 16.200 451.700 16.200 H 457.600 Z" stroke="rgb(0,0,255)" stroke-width="0.20" />
  <path d="M 433.600 16.200 H 439.500 C 439.600 16.200 439.500 16.100 439.500 16.200 V 22.000 C 439.500 22.100 439.600 22.000 439.500 22.000 H 427.700 C 427.600 22.000 427.700 22.100 427.700 22.000 V 16.200 C 427.700 16.100 427.600 16.200 427.700 16.200 H 433.600 Z" stroke="rgb(0,0,255)" stroke-width="0.20" />
  <path d="M 409.600 16.200 H 415.500 C 415.600 16.200 415.500 16.100 415.500 16.200 V 22.000 C 415.500 22.100 415.600 22.000 415.500 22.000 H 403.700 C 403.600 22.000 403.700 22.100 403.700 22.000 V 16.200 C 403.700 16.100 403.600 16.200 403.700 16.200 H 409.600 Z" stroke="rgb(0,0,255)" stroke-width="0.20" />
  <path d="M 385.600 16.200 H 391.500 C 391.600 16.200 391.500 16.100 391.500 16.200 V 22.000 C 391.500 22.100 391.600 22.000 391.500 22.000 H 379.700 C 379.600 22.000 379.700 22.100 379.700 22.000 V 16.200 C 379.700 16.100 379.600 16.200 379.700 16.200 H 385.600 Z" stroke="rgb(0,0,255)" stroke-width="0.20" />
  <path d="M 351.700 48.100 V 42.200 C 351.700 42.100 351.600 42.200 351.700 42.200 H 357.500 C 357.600 42.200 357.500 42.100 357.500 42.200 V 54.000 C 357.500 54.100 357.600 54.000 357.500 54.000 H 351.700 C 351.600 54.000 351.700 54.100 351.700 54.000 V 48.100 Z" stroke="rgb(0,0,255)" stroke-width="0.20" />
  <path d="M 351.700 72.100 V 66.200 C 351.700 66.100 351.600 66.200 351.700 66.200 H 357.500 C 357.600 66.200 357.500 66.100 357.500 66.200 V 78.000 C 357.500 78.100 357.600 78.000 357.500 78.000 H 351.700 C 351.600 78.000 351.700 78.100 351.700 78.000 V 72.100 Z" stroke="rgb(0,0,255)" stroke-width="0.20" />
  <path d="M 351.700 96.100 V 90.200 C 351.700 90.100 351.600 90.200 351.700 90.200 H 357.500 C 357.600 90.200 357.500 90.100 357.500 90.200 V 102.000 C 357.500 102.100 357.600 102.000 357.500 102.000 H 351.700 C 351.600 102.000 351.700 102.100 351.700 102.000 V 96.100 Z" stroke="rgb(0,0,255)" stroke-width="0.20" />
</g>
</svg>