<?xml version="1.0" encoding="UTF-8" standalone="no"?><!DOCTYPE svg PUBLIC "-//W3C//DTD SVG 1.1//EN" "http://www.w3.org/Graphics/SVG/1.1/DTD/svg11.dtd"><svg width="100%" height="100%" viewBox="0 0 3179 2246" version="1.1" xmlns="http://www.w3.org/2000/svg" xmlns:xlink="http://www.w3.org/1999/xlink" xml:space="preserve" xmlns:serif="http://www.serif.com/" style="fill-rule:evenodd;clip-rule:evenodd;stroke-linecap:round;stroke-linejoin:round;stroke-miterlimit:1.5;"><g id="Cutouts"><circle cx="736.063" cy="1145.64" r="179.528" style="fill:none;stroke:#000;stroke-width:3.2px;"/><circle cx="582.423" cy="995.517" r="9.449" style="fill:none;stroke:#000;stroke-width:3.2px;"/><circle cx="582.423" cy="1302.8" r="9.449" style="fill:none;stroke:#000;stroke-width:3.2px;"/><circle cx="889.703" cy="1302.8" r="9.449" style="fill:none;stroke:#000;stroke-width:3.2px;"/><circle cx="889.703" cy="995.517" r="9.449" style="fill:none;stroke:#000;stroke-width:3.2px;"/><circle cx="1482.9" cy="1149.16" r="179.528" style="fill:none;stroke:#000;stroke-width:3.2px;"/><circle cx="1329.26" cy="995.517" r="9.449" style="fill:none;stroke:#000;stroke-width:3.2px;"/><circle cx="1329.26" cy="1302.8" r="9.449" style="fill:none;stroke:#000;stroke-width:3.2px;"/><circle cx="1636.54" cy="1302.8" r="9.449" style="fill:none;stroke:#000;stroke-width:3.2px;"/><circle cx="1636.54" cy="995.517" r="9.449" style="fill:none;stroke:#000;stroke-width:3.2px;"/><circle cx="967.686" cy="979.079" r="5.669" style="fill:none;stroke:#000;stroke-width:3.2px;"/><circle cx="1251.15" cy="979.079" r="5.669" style="fill:none;stroke:#000;stroke-width:3.2px;"/><circle cx="1251.15" cy="1096.24" r="5.669" style="fill:none;stroke:#000;stroke-width:3.2px;"/><circle cx="967.686" cy="1096.24" r="5.669" style="fill:none;stroke:#000;stroke-width:3.2px;"/><rect x="974.3" y="991.362" width="270.236" height="92.598" style="fill:none;stroke:#000;stroke-width:3.2px;"/><circle cx="1108.94" cy="1217.19" r="13.228" style="fill:none;stroke:#000;stroke-width:3.2px;"/><circle cx="1219.28" cy="1550.07" r="4.724" style="fill:none;stroke:#000;stroke-width:3.2px;"/><circle cx="1219.28" cy="1637" r="4.724" style="fill:none;stroke:#000;stroke-width:3.2px;"/><circle cx="1000.06" cy="1637" r="4.724" style="fill:none;stroke:#000;stroke-width:3.2px;"/><circle cx="1000.06" cy="1550.07" r="4.724" style="fill:none;stroke:#000;stroke-width:3.2px;"/><circle cx="2395.47" cy="589.852" r="13.228" style="fill:none;stroke:#000;stroke-width:3.2px;"/><circle cx="2508.85" cy="591.991" r="13.228" style="fill:none;stroke:#000;stroke-width:3.2px;"/><circle cx="2826.36" cy="591.991" r="11.339" style="fill:none;stroke:#000;stroke-width:3.2px;"/><path d="M1120.14,1873.23c6.171,3.602 10.319,10.297 10.319,17.953c-0,7.656 -4.148,14.351 -10.319,17.953l-20.937,-0c-6.171,-3.602 -10.319,-10.297 -10.319,-17.953c-0,-7.656 4.148,-14.351 10.319,-17.953l20.937,0Z" style="fill:none;stroke:#000;stroke-width:3.2px;"/></g><g id="_10mm" serif:id="10mm"><path d="M1714.39,1480.24l-113.008,0c-0.378,0 -0,0.378 -0,0l-0,-37.417c-0,-0.208 -0.17,-0.378 -0.378,-0.378l-75.591,-0c-0.208,-0 -0.378,0.17 -0.378,0.378l0,37.417c0,0.378 0.378,0 0,0l-74.834,0c-0.378,0 -0,0.378 -0,0l-0,-37.417c-0,-0.208 -0.17,-0.378 -0.378,-0.378l-75.591,-0c-0.208,-0 -0.378,0.17 -0.378,0.378l0,37.417c0,0.378 0.378,0 0,0l-74.834,0c-0.378,0 -0,0.378 -0,0l-0,-37.417c-0,-0.208 -0.17,-0.378 -0.378,-0.378l-75.591,-0c-0.208,-0 -0.378,0.17 -0.378,0.378l0,37.417c0,0.378 0.378,0 0,0l-74.834,0c-0.378,0 -0,0.378 -0,0l-0,-37.417c-0,-0.208 -0.171,-0.378 -0.378,-0.378l-75.591,-0c-0.208,-0 -0.378,0.17 -0.378,0.378l0,37.417c0,0.378 0.378,0 0,0l-74.835,0c-0.378,0 0,0.378 0,0l0,-37.417c0,-0.208 -0.17,-0.378 -0.378,-0.378l-75.59,-0c-0.208,-0 -0.378,0.17 -0.378,0.378l-0,37.417c-0,0.378 0.378,0 -0,0l-74.835,0c-0.378,0 0,0.378 0,0l0,-37.417c0,-0.208 -0.17,-0.378 -0.378,-0.378l-75.59,-0c-0.208,-0 -0.378,0.17 -0.378,0.378l-0,37.417c-0,0.378 0.378,0 -0,0l-74.835,0c-0.378,0 0,0.378 0,0l0,-37.417c0,-0.208 -0.17,-0.378 -0.378,-0.378l-75.59,-0c-0.208,-0 -0.378,0.17 -0.378,0.378l-0,37.417c-0,0.378 0.378,0 -0,0l-150.803,0c-0.208,0 -0.378,0.17 -0.378,0.378l-0,122.835c-0,0.208 0.17,0.378 0.378,0.378l37.417,-0c0.378,-0 -0,-0.378 -0,-0l-0,74.834c-0,0.378 0.378,0 -0,0l-37.417,0c-0.208,0 -0.378,0.171 -0.378,0.378l-0,75.591c-0,0.208 0.17,0.378 0.378,0.378l37.417,-0c0.378,-0 -0,-0.378 -0,-0l-0,74.835c-0,0.377 0.378,-0 -0,-0l-37.417,-0c-0.208,-0 -0.378,0.17 -0.378,0.377l-0,160.63c-0,0.208 0.17,0.378 0.378,0.378l151.181,0c0.208,0 0.378,-0.17 0.378,-0.378l-0,-37.417c-0,-0.378 -0.378,0 -0,0l74.834,0c0.378,0 0,-0.378 0,0l0,37.417c0,0.208 0.17,0.378 0.378,0.378l75.591,0c0.208,0 0.378,-0.17 0.378,-0.378l-0,-37.417c-0,-0.378 -0.378,0 -0,0l74.834,0c0.378,0 0,-0.378 0,0l0,37.417c0,0.208 0.17,0.378 0.378,0.378l75.591,0c0.208,0 0.378,-0.17 0.378,-0.378l-0,-37.417c-0,-0.378 -0.378,0 -0,0l74.835,0c0.377,0 -0,-0.378 -0,0l-0,37.417c-0,0.208 0.17,0.378 0.377,0.378l75.591,0c0.208,0 0.378,-0.17 0.378,-0.378l-0,-37.417c-0,-0.378 -0.378,0 -0,0l74.835,0c0.378,0 -0,-0.378 -0,0l-0,37.417c-0,0.208 0.17,0.378 0.378,0.378l75.59,0c0.208,0 0.378,-0.17 0.378,-0.378l0,-37.417c0,-0.378 -0.378,0 0,0l74.835,0c0.378,0 -0,-0.378 -0,0l-0,37.417c-0,0.208 0.17,0.378 0.378,0.378l75.59,0c0.208,0 0.378,-0.17 0.378,-0.378l0,-37.417c0,-0.378 -0.378,0 0,0l74.835,0c0.378,0 -0,-0.378 -0,0l-0,37.417c-0,0.208 0.17,0.378 0.378,0.378l75.59,0c0.208,0 0.378,-0.17 0.378,-0.378l0,-37.417c0,-0.378 -0.378,0 0,0l74.835,0c0.378,0 -0,-0.378 -0,0l-0,37.417c-0,0.208 0.17,0.378 0.378,0.378l151.181,0c0.208,0 0.378,-0.17 0.378,-0.378l-0,-160.63c-0,-0.207 -0.17,-0.377 -0.378,-0.377l-37.417,-0c-0.378,-0 -0,0.377 -0,-0l-0,-74.835c-0,-0.378 -0.378,-0 -0,-0l37.417,-0c0.208,-0 0.378,-0.17 0.378,-0.378l-0,-75.591c-0,-0.207 -0.17,-0.378 -0.378,-0.378l-37.417,0c-0.378,0 -0,0.378 -0,0l-0,-74.834c-0,-0.378 -0.378,-0 -0,-0l37.417,-0c0.208,-0 0.378,-0.17 0.378,-0.378l-0,-122.835c-0,-0.208 -0.17,-0.378 -0.378,-0.378l-37.795,0" style="fill:none;fill-rule:nonzero;stroke:#000;stroke-width:3.15px;stroke-miterlimit:4;"/><path d="M1809.64,1953.44l75.212,0c0.378,0 0,-0.378 0,0l0,37.417c0,0.208 0.17,0.378 0.378,0.378l75.591,0c0.208,0 0.378,-0.17 0.378,-0.378l-0,-37.417c-0,-0.378 -0.378,0 -0,0l74.834,0c0.378,0 0,-0.378 0,0l0,37.417c0,0.208 0.171,0.378 0.378,0.378l75.591,0c0.208,0 0.378,-0.17 0.378,-0.378l-0,-37.417c-0,-0.378 -0.378,0 -0,0l75.213,0c0.207,0 0.378,-0.17 0.378,-0.378l-0,-122.457c-0,-0.378 -0.378,0 -0,0l37.417,0c0.208,0 0.378,-0.17 0.378,-0.378l-0,-75.59c-0,-0.208 -0.17,-0.378 -0.378,-0.378l-37.417,-0c-0.378,-0 -0,0.378 -0,-0l-0,-74.835c-0,-0.378 -0.378,0 -0,0l37.417,0c0.208,0 0.378,-0.17 0.378,-0.378l-0,-75.59c-0,-0.208 -0.17,-0.378 -0.378,-0.378l-37.417,-0c-0.378,-0 -0,0.378 -0,-0l-0,-160.252c-0,-0.208 -0.171,-0.378 -0.378,-0.378l-75.591,-0c-0.208,-0 -0.378,0.17 -0.378,0.378l0,37.417c0,0.378 0.378,0 0,0l-74.835,0c-0.378,0 0,0.378 0,0l0,-37.417c0,-0.208 -0.17,-0.378 -0.378,-0.378l-75.59,-0c-0.208,-0 -0.378,0.17 -0.378,0.378l-0,37.417c-0,0.378 0.378,0 -0,0l-74.835,0c-0.378,0 0,0.378 0,0l0,-37.417c0,-0.208 -0.17,-0.378 -0.378,-0.378l-75.59,-0c-0.208,-0 -0.378,0.17 -0.378,0.378l-0,160.252c-0,0.378 0.378,-0 -0,-0l-37.417,-0c-0.208,-0 -0.378,0.17 -0.378,0.378l-0,75.59c-0,0.208 0.17,0.378 0.378,0.378l37.417,0c0.378,0 -0,-0.378 -0,0l-0,74.835c-0,0.378 0.378,-0 -0,-0l-37.417,-0c-0.208,-0 -0.378,0.17 -0.378,0.378l-0,75.59c-0,0.208 0.17,0.378 0.378,0.378l37.417,0c0.378,0 -0,-0.378 -0,0l-0,122.457c-0,0.208 0.17,0.378 0.378,0.378" style="fill:none;fill-rule:nonzero;stroke:#000;stroke-width:3.15px;stroke-miterlimit:4;"/><path d="M1809.64,1385.76l75.212,0c0.378,0 0,-0.378 0,0l0,37.417c0,0.208 0.17,0.378 0.378,0.378l75.591,0c0.208,0 0.378,-0.17 0.378,-0.378l-0,-37.417c-0,-0.378 -0.378,0 -0,0l74.834,0c0.378,0 0,-0.378 0,0l0,37.417c0,0.208 0.171,0.378 0.378,0.378l75.591,0c0.208,0 0.378,-0.17 0.378,-0.378l-0,-37.417c-0,-0.378 -0.378,0 -0,0l75.213,0c0.207,0 0.378,-0.17 0.378,-0.378l-0,-122.457c-0,-0.378 -0.378,0 -0,0l37.417,0c0.208,0 0.378,-0.17 0.378,-0.378l-0,-75.59c-0,-0.208 -0.17,-0.378 -0.378,-0.378l-37.417,-0c-0.378,-0 -0,0.378 -0,-0l-0,-74.835c-0,-0.378 -0.378,0 -0,0l37.417,0c0.208,0 0.378,-0.17 0.378,-0.378l-0,-75.59c-0,-0.208 -0.17,-0.378 -0.378,-0.378l-37.417,-0c-0.378,-0 -0,0.378 -0,-0l-0,-160.252c-0,-0.208 -0.171,-0.378 -0.378,-0.378l-75.591,-0c-0.208,-0 -0.378,0.17 -0.378,0.378l0,37.417c0,0.378 0.378,0 0,0l-74.835,0c-0.378,0 0,0.378 0,0l0,-37.417c0,-0.208 -0.17,-0.378 -0.378,-0.378l-75.59,-0c-0.208,-0 -0.378,0.17 -0.378,0.378l-0,37.417c-0,0.378 0.378,0 -0,0l-74.835,0c-0.378,0 0,0.378 0,0l0,-37.417c0,-0.208 -0.17,-0.378 -0.378,-0.378l-75.59,-0c-0.208,-0 -0.378,0.17 -0.378,0.378l-0,160.252c-0,0.378 0.378,-0 -0,-0l-37.417,-0c-0.208,-0 -0.378,0.17 -0.378,0.378l-0,75.59c-0,0.208 0.17,0.378 0.378,0.378l37.417,0c0.378,0 -0,-0.378 -0,0l-0,74.835c-0,0.378 0.378,-0 -0,-0l-37.417,-0c-0.208,-0 -0.378,0.17 -0.378,0.378l-0,75.59c-0,0.208 0.17,0.378 0.378,0.378l37.417,0c0.378,0 -0,-0.378 -0,0l-0,122.457c-0,0.208 0.17,0.378 0.378,0.378" style="fill:none;fill-rule:nonzero;stroke:#000;stroke-width:3.15px;stroke-miterlimit:4;"/><path d="M1714.39,912.559l-113.008,0c-0.378,0 -0,0.378 -0,0l-0,-37.417c-0,-0.208 -0.17,-0.378 -0.378,-0.378l-75.591,-0c-0.208,-0 -0.378,0.17 -0.378,0.378l0,37.417c0,0.378 0.378,0 0,0l-74.834,0c-0.378,0 -0,0.378 -0,0l-0,-37.417c-0,-0.208 -0.17,-0.378 -0.378,-0.378l-75.591,-0c-0.208,-0 -0.378,0.17 -0.378,0.378l0,37.417c0,0.378 0.378,0 0,0l-74.834,0c-0.378,0 -0,0.378 -0,0l-0,-37.417c-0,-0.208 -0.17,-0.378 -0.378,-0.378l-75.591,-0c-0.208,-0 -0.378,0.17 -0.378,0.378l0,37.417c0,0.378 0.378,0 0,0l-74.834,0c-0.378,0 -0,0.378 -0,0l-0,-37.417c-0,-0.208 -0.171,-0.378 -0.378,-0.378l-75.591,-0c-0.208,-0 -0.378,0.17 -0.378,0.378l0,37.417c0,0.378 0.378,0 0,0l-74.835,0c-0.378,0 0,0.378 0,0l0,-37.417c0,-0.208 -0.17,-0.378 -0.378,-0.378l-75.59,-0c-0.208,-0 -0.378,0.17 -0.378,0.378l-0,37.417c-0,0.378 0.378,0 -0,0l-74.835,0c-0.378,0 0,0.378 0,0l0,-37.417c0,-0.208 -0.17,-0.378 -0.378,-0.378l-75.59,-0c-0.208,-0 -0.378,0.17 -0.378,0.378l-0,37.417c-0,0.378 0.378,0 -0,0l-74.835,0c-0.378,0 0,0.378 0,0l0,-37.417c0,-0.208 -0.17,-0.378 -0.378,-0.378l-75.59,-0c-0.208,-0 -0.378,0.17 -0.378,0.378l-0,37.417c-0,0.378 0.378,0 -0,0l-150.803,0c-0.208,0 -0.378,0.17 -0.378,0.378l-0,122.835c-0,0.208 0.17,0.378 0.378,0.378l37.417,-0c0.378,-0 -0,-0.378 -0,-0l-0,74.834c-0,0.378 0.378,0 -0,0l-37.417,0c-0.208,0 -0.378,0.17 -0.378,0.378l-0,75.591c-0,0.208 0.17,0.378 0.378,0.378l37.417,-0c0.378,-0 -0,-0.378 -0,-0l-0,74.834c-0,0.378 0.378,0 -0,0l-37.417,0c-0.208,0 -0.378,0.171 -0.378,0.378l-0,160.63c-0,0.208 0.17,0.378 0.378,0.378l151.181,0c0.208,0 0.378,-0.17 0.378,-0.378l-0,-37.417c-0,-0.378 -0.378,0 -0,0l74.834,0c0.378,0 0,-0.378 0,0l0,37.417c0,0.208 0.17,0.378 0.378,0.378l75.591,0c0.208,0 0.378,-0.17 0.378,-0.378l-0,-37.417c-0,-0.378 -0.378,0 -0,0l74.834,0c0.378,0 0,-0.378 0,0l0,37.417c0,0.208 0.17,0.378 0.378,0.378l75.591,0c0.208,0 0.378,-0.17 0.378,-0.378l-0,-37.417c-0,-0.378 -0.378,0 -0,0l74.835,0c0.377,0 -0,-0.378 -0,0l-0,37.417c-0,0.208 0.17,0.378 0.377,0.378l75.591,0c0.208,0 0.378,-0.17 0.378,-0.378l-0,-37.417c-0,-0.378 -0.378,0 -0,0l74.835,0c0.378,0 -0,-0.378 -0,0l-0,37.417c-0,0.208 0.17,0.378 0.378,0.378l75.59,0c0.208,0 0.378,-0.17 0.378,-0.378l0,-37.417c0,-0.378 -0.378,0 0,0l74.835,0c0.378,0 -0,-0.378 -0,0l-0,37.417c-0,0.208 0.17,0.378 0.378,0.378l75.59,0c0.208,0 0.378,-0.17 0.378,-0.378l0,-37.417c0,-0.378 -0.378,0 0,0l74.835,0c0.378,0 -0,-0.378 -0,0l-0,37.417c-0,0.208 0.17,0.378 0.378,0.378l75.59,0c0.208,0 0.378,-0.17 0.378,-0.378l0,-37.417c0,-0.378 -0.378,0 0,0l74.835,0c0.378,0 -0,-0.378 -0,0l-0,37.417c-0,0.208 0.17,0.378 0.378,0.378l151.181,0c0.208,0 0.378,-0.17 0.378,-0.378l-0,-160.63c-0,-0.207 -0.17,-0.378 -0.378,-0.378l-37.417,0c-0.378,0 -0,0.378 -0,0l-0,-74.834c-0,-0.378 -0.378,-0 -0,-0l37.417,-0c0.208,-0 0.378,-0.17 0.378,-0.378l-0,-75.591c-0,-0.208 -0.17,-0.378 -0.378,-0.378l-37.417,0c-0.378,0 -0,0.378 -0,0l-0,-74.834c-0,-0.378 -0.378,-0 -0,-0l37.417,-0c0.208,-0 0.378,-0.17 0.378,-0.378l-0,-122.835c-0,-0.208 -0.17,-0.378 -0.378,-0.378l-37.795,0" style="fill:none;fill-rule:nonzero;stroke:#000;stroke-width:3.15px;stroke-miterlimit:4;"/><path d="M504.945,818.071l113.008,-0c0.378,-0 -0,-0.378 -0,-0l-0,37.417c-0,0.208 0.17,0.378 0.378,0.378l75.59,0c0.208,0 0.378,-0.17 0.378,-0.378l0,-37.417c0,-0.378 -0.378,-0 0,-0l74.835,-0c0.378,-0 -0,-0.378 -0,-0l-0,37.417c-0,0.208 0.17,0.378 0.378,0.378l75.59,0c0.208,0 0.378,-0.17 0.378,-0.378l0,-37.417c0,-0.378 -0.378,-0 0,-0l74.835,-0c0.378,-0 -0,-0.378 -0,-0l-0,37.417c-0,0.208 0.17,0.378 0.378,0.378l75.59,0c0.208,0 0.378,-0.17 0.378,-0.378l0,-37.417c0,-0.378 -0.378,-0 0,-0l74.835,-0c0.378,-0 0,-0.378 0,-0l0,37.417c0,0.208 0.17,0.378 0.378,0.378l75.591,0c0.207,0 0.378,-0.17 0.378,-0.378l-0,-37.417c-0,-0.378 -0.378,-0 -0,-0l74.834,-0c0.378,-0 0,-0.378 0,-0l0,37.417c0,0.208 0.17,0.378 0.378,0.378l75.591,0c0.208,0 0.378,-0.17 0.378,-0.378l-0,-37.417c-0,-0.378 -0.378,-0 -0,-0l74.834,-0c0.378,-0 0,-0.378 0,-0l0,37.417c0,0.208 0.17,0.378 0.378,0.378l75.591,0c0.208,0 0.378,-0.17 0.378,-0.378l-0,-37.417c-0,-0.378 -0.378,-0 -0,-0l74.834,-0c0.378,-0 0,-0.378 0,-0l0,37.417c0,0.208 0.17,0.378 0.378,0.378l75.591,0c0.208,0 0.378,-0.17 0.378,-0.378l-0,-37.417c-0,-0.378 -0.378,-0 -0,-0l113.008,-0c0.208,-0 0.378,-0.17 0.378,-0.378l-0,-75.213c-0,-0.378 -0.378,0 -0,0l37.417,0c0.208,0 0.378,-0.17 0.378,-0.378l-0,-75.59c-0,-0.208 -0.17,-0.378 -0.378,-0.378l-37.417,-0c-0.378,-0 -0,0.378 -0,-0l-0,-74.835c-0,-0.378 -0.378,0 -0,0l37.417,0c0.208,0 0.378,-0.17 0.378,-0.378l-0,-75.59c-0,-0.208 -0.17,-0.378 -0.378,-0.378l-37.417,-0c-0.378,-0 -0,0.378 -0,-0l-0,-75.213c-0,-0.208 -0.17,-0.378 -0.378,-0.378l-113.008,0c-0.378,0 -0,0.378 -0,0l-0,-37.417c-0,-0.208 -0.17,-0.378 -0.378,-0.378l-75.591,0c-0.208,0 -0.378,0.17 -0.378,0.378l0,37.417c0,0.378 0.378,0 0,0l-74.834,0c-0.378,0 -0,0.378 -0,0l-0,-37.417c-0,-0.208 -0.17,-0.378 -0.378,-0.378l-75.591,0c-0.208,0 -0.378,0.17 -0.378,0.378l0,37.417c0,0.378 0.378,0 0,0l-74.834,0c-0.378,0 -0,0.378 -0,0l-0,-37.417c-0,-0.208 -0.17,-0.378 -0.378,-0.378l-75.591,0c-0.208,0 -0.378,0.17 -0.378,0.378l0,37.417c0,0.378 0.378,0 0,0l-74.834,0c-0.378,0 -0,0.378 -0,0l-0,-37.417c-0,-0.208 -0.171,-0.378 -0.378,-0.378l-75.591,0c-0.208,0 -0.378,0.17 -0.378,0.378l0,37.417c0,0.378 0.378,0 0,0l-74.835,0c-0.378,0 0,0.378 0,0l0,-37.417c0,-0.208 -0.17,-0.378 -0.378,-0.378l-75.59,0c-0.208,0 -0.378,0.17 -0.378,0.378l-0,37.417c-0,0.378 0.378,0 -0,0l-74.835,0c-0.378,0 0,0.378 0,0l0,-37.417c0,-0.208 -0.17,-0.378 -0.378,-0.378l-75.59,0c-0.208,0 -0.378,0.17 -0.378,0.378l-0,37.417c-0,0.378 0.378,0 -0,0l-74.835,0c-0.378,0 0,0.378 0,0l0,-37.417c0,-0.208 -0.17,-0.378 -0.378,-0.378l-75.59,0c-0.208,0 -0.378,0.17 -0.378,0.378l-0,37.417c-0,0.378 0.378,0 -0,0l-113.008,0c-0.208,0 -0.378,0.17 -0.378,0.378l-0,75.213c-0,0.378 0.378,-0 -0,-0l-37.417,-0c-0.208,-0 -0.378,0.17 -0.378,0.378l-0,75.59c-0,0.208 0.17,0.378 0.378,0.378l37.417,0c0.378,0 -0,-0.378 -0,0l-0,74.835c-0,0.378 0.378,-0 -0,-0l-37.417,-0c-0.208,-0 -0.378,0.17 -0.378,0.378l-0,75.59c-0,0.208 0.17,0.378 0.378,0.378l37.417,0c0.378,0 -0,-0.378 -0,0l-0,75.213c-0,0.208 0.17,0.378 0.378,0.378" style="fill:none;fill-rule:nonzero;stroke:#000;stroke-width:3.15px;stroke-miterlimit:4;"/><path d="M2036.03,817.315l-74.834,0c-0.378,0 -0,0.378 -0,0l-0,-37.039c-0,-0.378 -0.378,-0 -0,-0l74.834,-0c0.378,-0 0,-0.378 0,-0l0,37.039c0,0.378 0.378,0 0,0Z" style="fill:none;fill-rule:nonzero;stroke:#00f;stroke-width:3.15px;stroke-miterlimit:4;"/><path d="M2187.21,817.315l-74.835,0c-0.378,0 -0,0.378 -0,0l-0,-37.039c-0,-0.378 -0.378,-0 -0,-0l74.835,-0c0.378,-0 -0,-0.378 -0,-0l-0,37.039c-0,0.378 0.378,0 -0,0Z" style="fill:none;fill-rule:nonzero;stroke:#00f;stroke-width:3.15px;stroke-miterlimit:4;"/><path d="M2338.39,817.315l-74.835,0c-0.378,0 0,0.378 0,0l0,-37.039c0,-0.378 -0.378,-0 0,-0l74.835,-0c0.378,-0 -0,-0.378 -0,-0l-0,37.039c-0,0.378 0.378,0 -0,0Z" style="fill:none;fill-rule:nonzero;stroke:#00f;stroke-width:3.15px;stroke-miterlimit:4;"/><path d="M2489.58,817.315l-74.835,0c-0.378,0 0,0.378 0,0l0,-37.039c0,-0.378 -0.378,-0 0,-0l74.835,-0c0.378,-0 -0,-0.378 -0,-0l-0,37.039c-0,0.378 0.378,0 -0,0Z" style="fill:none;fill-rule:nonzero;stroke:#00f;stroke-width:3.15px;stroke-miterlimit:4;"/><path d="M2640.76,817.315l-74.835,0c-0.378,0 0,0.378 0,0l0,-37.039c0,-0.378 -0.378,-0 0,-0l74.835,-0c0.378,-0 -0,-0.378 -0,-0l-0,37.039c-0,0.378 0.378,0 -0,0Z" style="fill:none;fill-rule:nonzero;stroke:#00f;stroke-width:3.15px;stroke-miterlimit:4;"/><path d="M2791.94,817.315l-74.835,0c-0.378,0 0,0.378 0,0l0,-37.039c0,-0.378 -0.378,-0 0,-0l74.835,-0c0.378,-0 0,-0.378 0,-0l0,37.039c0,0.378 0.378,0 0,0Z" style="fill:none;fill-rule:nonzero;stroke:#00f;stroke-width:3.15px;stroke-miterlimit:4;"/><path d="M2943.12,817.315l-74.835,0c-0.377,0 0,0.378 0,0l0,-37.039c0,-0.378 -0.377,-0 0,-0l74.835,-0c0.378,-0 0,-0.378 0,-0l0,37.039c0,0.378 0.378,0 0,0Z" style="fill:none;fill-rule:nonzero;stroke:#00f;stroke-width:3.15px;stroke-miterlimit:4;"/><path d="M1847.43,855.866l1285.04,0c0.208,0 0.378,-0.17 0.378,-0.378l0,-529.134c0,-0.207 -0.17,-0.377 -0.378,-0.377l-1360.63,-0c-0.208,-0 -0.378,0.17 -0.378,0.377l-0,529.134c-0,0.208 0.17,0.378 0.378,0.378l75.59,0" style="fill:none;fill-rule:nonzero;stroke:#000;stroke-width:3.15px;stroke-miterlimit:4;"/><path d="M3094.3,629.095l0,74.834c0,0.378 0.378,0 0,0l-37.039,0c-0.378,0 -0,0.378 -0,0l-0,-74.834c-0,-0.378 -0.378,-0 -0,-0l37.039,-0c0.378,-0 0,-0.378 0,-0Z" style="fill:none;fill-rule:nonzero;stroke:#00f;stroke-width:3.15px;stroke-miterlimit:4;"/><path d="M3094.3,477.914l0,74.834c0,0.378 0.378,0 0,0l-37.039,0c-0.378,0 -0,0.378 -0,0l-0,-74.834c-0,-0.378 -0.378,-0 -0,-0l37.039,-0c0.378,-0 0,-0.378 0,-0Z" style="fill:none;fill-rule:nonzero;stroke:#00f;stroke-width:3.15px;stroke-miterlimit:4;"/><path d="M2868.28,364.528l74.835,-0c0.378,-0 0,-0.378 0,-0l0,37.039c0,0.378 0.378,0 0,0l-74.835,0c-0.377,0 0,0.378 0,0l0,-37.039c0,-0.378 -0.377,-0 0,-0Z" style="fill:none;fill-rule:nonzero;stroke:#00f;stroke-width:3.15px;stroke-miterlimit:4;"/><path d="M2717.1,364.528l74.835,-0c0.378,-0 0,-0.378 0,-0l0,37.039c0,0.378 0.378,0 0,0l-74.835,0c-0.378,0 0,0.378 0,0l0,-37.039c0,-0.378 -0.378,-0 0,-0Z" style="fill:none;fill-rule:nonzero;stroke:#00f;stroke-width:3.15px;stroke-miterlimit:4;"/><path d="M2565.92,364.528l74.835,-0c0.378,-0 -0,-0.378 -0,-0l-0,37.039c-0,0.378 0.378,0 -0,0l-74.835,0c-0.378,0 0,0.378 0,0l0,-37.039c0,-0.378 -0.378,-0 0,-0Z" style="fill:none;fill-rule:nonzero;stroke:#00f;stroke-width:3.15px;stroke-miterlimit:4;"/><path d="M2414.74,364.528l74.835,-0c0.378,-0 -0,-0.378 -0,-0l-0,37.039c-0,0.378 0.378,0 -0,0l-74.835,0c-0.378,0 0,0.378 0,0l0,-37.039c0,-0.378 -0.378,-0 0,-0Z" style="fill:none;fill-rule:nonzero;stroke:#00f;stroke-width:3.15px;stroke-miterlimit:4;"/><path d="M2263.56,364.528l74.835,-0c0.378,-0 -0,-0.378 -0,-0l-0,37.039c-0,0.378 0.378,0 -0,0l-74.835,0c-0.378,0 0,0.378 0,0l0,-37.039c0,-0.378 -0.378,-0 0,-0Z" style="fill:none;fill-rule:nonzero;stroke:#00f;stroke-width:3.15px;stroke-miterlimit:4;"/><path d="M2112.38,364.528l74.835,-0c0.378,-0 -0,-0.378 -0,-0l-0,37.039c-0,0.378 0.378,0 -0,0l-74.835,0c-0.378,0 -0,0.378 -0,0l-0,-37.039c-0,-0.378 -0.378,-0 -0,-0Z" style="fill:none;fill-rule:nonzero;stroke:#00f;stroke-width:3.15px;stroke-miterlimit:4;"/><path d="M1961.2,364.528l74.834,-0c0.378,-0 0,-0.378 0,-0l0,37.039c0,0.378 0.378,0 0,0l-74.834,0c-0.378,0 -0,0.378 -0,0l-0,-37.039c-0,-0.378 -0.378,-0 -0,-0Z" style="fill:none;fill-rule:nonzero;stroke:#00f;stroke-width:3.15px;stroke-miterlimit:4;"/><path d="M1810.02,552.748l-0,-74.834c-0,-0.378 -0.378,-0 -0,-0l37.039,-0c0.378,-0 0,-0.378 0,-0l0,74.834c0,0.378 0.378,0 0,0l-37.039,0c-0.378,0 -0,0.378 -0,0Z" style="fill:none;fill-rule:nonzero;stroke:#00f;stroke-width:3.15px;stroke-miterlimit:4;"/><path d="M1810.02,703.929l-0,-74.834c-0,-0.378 -0.378,-0 -0,-0l37.039,-0c0.378,-0 0,-0.378 0,-0l0,74.834c0,0.378 0.378,0 0,0l-37.039,0c-0.378,0 -0,0.378 -0,0Z" style="fill:none;fill-rule:nonzero;stroke:#00f;stroke-width:3.15px;stroke-miterlimit:4;"/></g></svg>