<?xml version='1.0' encoding='utf-8'?>
<svg width="725.70mm" height="475.80mm" viewBox="0.0 0.0 725.70 475.80" xmlns="http://www.w3.org/2000/svg" xmlns:dc="http://purl.org/dc/elements/1.1/" xmlns:cc="http://creativecommons.org/ns#" xmlns:rdf="http://www.w3.org/1999/02/22-rdf-syntax-ns#" xmlns:svg="http://www.w3.org/2000/svg" xmlns:xlink="http://www.w3.org/1999/xlink" xmlns:inkscape="http://www.inkscape.org/namespaces/inkscape">
<!--
BasedBox - Fully closed box on a base


This box is more of a building block than a finished item.
Use a vector graphics program (like Inkscape) to add holes or adjust the base
plate. The width of the "brim" can also be adjusted with the **edge_width**
 parameter in the **Finger Joints Settings**.
 
See ClosedBox for variant without a base.



Created with Boxes.py (https://festi.info/boxes.py)
Creation date: 2023-11-03 18:08:00
Command line (remove spaces between dashes): boxes BasedBox - -x=320.0 - -h=125.0 - -outside=0 - -thickness=10
Url: http://festi.info/boxes.py/BasedBox?FingerJoint_angle=90.0&FingerJoint_style=rectangular&FingerJoint_surroundingspaces=2.0&FingerJoint_bottom_lip=0.0&FingerJoint_edge_width=1.0&FingerJoint_extra_length=0.0&FingerJoint_finger=2.0&FingerJoint_play=0.0&FingerJoint_space=2.0&FingerJoint_width=1.0&x=320.0&y=100.0&h=125.0&outside=0&thickness=10&format=svg&tabs=0.0&qr_code=0&debug=0&labels=0&labels=1&reference=100&inner_corners=loop&burn=0.1&language=de&render=2
Url short: http://festi.info/boxes.py/BasedBox?x=320.0&h=125.0&outside=0&thickness=10
SettingsUrl: http://festi.info/boxes.py/BasedBox?FingerJoint_angle=90.0&FingerJoint_style=rectangular&FingerJoint_surroundingspaces=2.0&FingerJoint_bottom_lip=0.0&FingerJoint_edge_width=1.0&FingerJoint_extra_length=0.0&FingerJoint_finger=2.0&FingerJoint_play=0.0&FingerJoint_space=2.0&FingerJoint_width=1.0&x=320.0&y=100.0&h=125.0&outside=0&thickness=10&format=svg&tabs=0.0&qr_code=0&debug=0&labels=0&labels=1&reference=100&inner_corners=loop&burn=0.1&language=de&render=2
SettingsUrl short: http://festi.info/boxes.py/BasedBox?x=320.0&h=125.0&outside=0&thickness=10
-->
<title>BasedBox</title>
<metadata>
<rdf:RDF><cc:Work>
<dc:title>Box - BasedBox</dc:title>
<dc:date>2023-11-03 18:08:00</dc:date>
<dc:source>http://festi.info/boxes.py/BasedBox?FingerJoint_angle=90.0&amp;FingerJoint_style=rectangular&amp;FingerJoint_surroundingspaces=2.0&amp;FingerJoint_bottom_lip=0.0&amp;FingerJoint_edge_width=1.0&amp;FingerJoint_extra_length=0.0&amp;FingerJoint_finger=2.0&amp;FingerJoint_play=0.0&amp;FingerJoint_space=2.0&amp;FingerJoint_width=1.0&amp;x=320.0&amp;y=100.0&amp;h=125.0&amp;outside=0&amp;thickness=10&amp;format=svg&amp;tabs=0.0&amp;qr_code=0&amp;debug=0&amp;labels=0&amp;labels=1&amp;reference=100&amp;inner_corners=loop&amp;burn=0.1&amp;language=de&amp;render=2</dc:source>
<dc:source>http://festi.info/boxes.py/BasedBox?x=320.0&amp;h=125.0&amp;outside=0&amp;thickness=10</dc:source>
<dc:description>Fully closed box on a base

This box is more of a building block than a finished item.
Use a vector graphics program (like Inkscape) to add holes or adjust the base
plate. The width of the "brim" can also be adjusted with the **edge_width**
 parameter in the **Finger Joints Settings**.
 
See ClosedBox for variant without a base.


Created with Boxes.py (https://festi.info/boxes.py)
Command line: boxes BasedBox --FingerJoint_angle=90.0 --FingerJoint_style=rectangular --FingerJoint_surroundingspaces=2.0 --FingerJoint_bottom_lip=0.0 --FingerJoint_edge_width=1.0 --FingerJoint_extra_length=0.0 --FingerJoint_finger=2.0 --FingerJoint_play=0.0 --FingerJoint_space=2.0 --FingerJoint_width=1.0 --x=320.0 --y=100.0 --h=125.0 --outside=0 --thickness=10 --format=svg --tabs=0.0 --qr_code=0 --debug=0 --labels=0 --labels=1 --reference=100 --inner_corners=loop --burn=0.1
Command line short: boxes BasedBox --x=320.0 --h=125.0 --outside=0 --thickness=10
Url: http://festi.info/boxes.py/BasedBox?FingerJoint_angle=90.0&amp;FingerJoint_style=rectangular&amp;FingerJoint_surroundingspaces=2.0&amp;FingerJoint_bottom_lip=0.0&amp;FingerJoint_edge_width=1.0&amp;FingerJoint_extra_length=0.0&amp;FingerJoint_finger=2.0&amp;FingerJoint_play=0.0&amp;FingerJoint_space=2.0&amp;FingerJoint_width=1.0&amp;x=320.0&amp;y=100.0&amp;h=125.0&amp;outside=0&amp;thickness=10&amp;format=svg&amp;tabs=0.0&amp;qr_code=0&amp;debug=0&amp;labels=0&amp;labels=1&amp;reference=100&amp;inner_corners=loop&amp;burn=0.1&amp;language=de&amp;render=2
Url short: http://festi.info/boxes.py/BasedBox?x=320.0&amp;h=125.0&amp;outside=0&amp;thickness=10
SettingsUrl: http://festi.info/boxes.py/BasedBox?FingerJoint_angle=90.0&amp;FingerJoint_style=rectangular&amp;FingerJoint_surroundingspaces=2.0&amp;FingerJoint_bottom_lip=0.0&amp;FingerJoint_edge_width=1.0&amp;FingerJoint_extra_length=0.0&amp;FingerJoint_finger=2.0&amp;FingerJoint_play=0.0&amp;FingerJoint_space=2.0&amp;FingerJoint_width=1.0&amp;x=320.0&amp;y=100.0&amp;h=125.0&amp;outside=0&amp;thickness=10&amp;format=svg&amp;tabs=0.0&amp;qr_code=0&amp;debug=0&amp;labels=0&amp;labels=1&amp;reference=100&amp;inner_corners=loop&amp;burn=0.1&amp;language=de&amp;render=2
SettingsUrl short: http://festi.info/boxes.py/BasedBox?x=320.0&amp;h=125.0&amp;outside=0&amp;thickness=10
</dc:description>
</cc:Work></rdf:RDF></metadata>
<g id="p-0" style="fill:none;stroke-linecap:round;stroke-linejoin:round;">
  <path d="M 10.400 465.800 H 110.400 V 455.800 H 10.400 V 465.800 Z" stroke="rgb(0,0,0)" stroke-width="0.20" />
  <text transform="matrix( 1.000 0.000 0.000 1.000 60.400 456.800 )" style="font-family: sans-serif ; font-weight: normal; font-style: normal; fill: rgb(255,0,0)" font-size="8px" text-anchor="middle" dominant-baseline="hanging">100mm, burn:0.10mm</text>
</g>
<g id="p-1" style="fill:none;stroke-linecap:round;stroke-linejoin:round;">
  <text transform="matrix( 1.000 0.000 0.000 1.000 180.400 376.100 )" style="font-family: sans-serif ; font-weight: normal; font-style: normal; fill: rgb(255,0,0)" font-size="4px" text-anchor="middle" dominant-baseline="hanging">Wall 1</text><path d="M 20.400 440.600 H 50.300 C 50.400 440.600 50.300 440.500 50.300 440.600 V 450.500 C 50.300 450.555 50.345 450.600 50.400 450.600 H 70.400 C 70.455 450.600 70.500 450.555 70.500 450.500 V 440.600 C 70.500 440.500 70.400 440.600 70.500 440.600 H 90.300 C 90.400 440.600 90.300 440.500 90.300 440.600 V 450.500 C 90.300 450.555 90.345 450.600 90.400 450.600 H 110.400 C 110.455 450.600 110.500 450.555 110.500 450.500 V 440.600 C 110.500 440.500 110.400 440.600 110.500 440.600 H 130.300 C 130.400 440.600 130.300 440.500 130.300 440.600 V 450.500 C 130.300 450.555 130.345 450.600 130.400 450.600 H 150.400 C 150.455 450.600 150.500 450.555 150.500 450.500 V 440.600 C 150.500 440.500 150.400 440.600 150.500 440.600 H 170.300 C 170.400 440.600 170.300 440.500 170.300 440.600 V 450.500 C 170.300 450.555 170.345 450.600 170.400 450.600 H 190.400 C 190.455 450.600 190.500 450.555 190.500 450.500 V 440.600 C 190.500 440.500 190.400 440.600 190.500 440.600 H 210.300 C 210.400 440.600 210.300 440.500 210.300 440.600 V 450.500 C 210.300 450.555 210.345 450.600 210.400 450.600 H 230.400 C 230.455 450.600 230.500 450.555 230.500 450.500 V 440.600 C 230.500 440.500 230.400 440.600 230.500 440.600 H 250.300 C 250.400 440.600 250.300 440.500 250.300 440.600 V 450.500 C 250.300 450.555 250.345 450.600 250.400 450.600 H 270.400 C 270.455 450.600 270.500 450.555 270.500 450.500 V 440.600 C 270.500 440.500 270.400 440.600 270.500 440.600 H 290.300 C 290.400 440.600 290.300 440.500 290.300 440.600 V 450.500 C 290.300 450.555 290.345 450.600 290.400 450.600 H 310.400 C 310.455 450.600 310.500 450.555 310.500 450.500 V 440.600 C 310.500 440.500 310.400 440.600 310.500 440.600 H 340.400 H 350.400 C 350.455 440.600 350.500 440.555 350.500 440.500 V 408.000 C 350.500 407.945 350.455 407.900 350.400 407.900 H 340.500 C 340.400 407.900 340.500 408.000 340.500 407.900 V 388.100 C 340.500 388.000 340.400 388.100 340.500 388.100 H 350.400 C 350.455 388.100 350.500 388.055 350.500 388.000 V 368.000 C 350.500 367.945 350.455 367.900 350.400 367.900 H 340.500 C 340.400 367.900 340.500 368.000 340.500 367.900 V 348.100 C 340.500 348.000 340.400 348.100 340.500 348.100 H 350.400 C 350.455 348.100 350.500 348.055 350.500 348.000 V 315.500 V 305.500 C 350.500 305.445 350.455 305.400 350.400 305.400 H 340.400 H 310.400 C 310.345 305.400 310.300 305.445 310.300 305.500 V 315.400 C 310.300 315.500 310.400 315.400 310.300 315.400 H 290.500 C 290.400 315.400 290.500 315.500 290.500 315.400 V 305.500 C 290.500 305.445 290.455 305.400 290.400 305.400 H 270.400 C 270.345 305.400 270.300 305.445 270.300 305.500 V 315.400 C 270.300 315.500 270.400 315.400 270.300 315.400 H 250.500 C 250.400 315.400 250.500 315.500 250.500 315.400 V 305.500 C 250.500 305.445 250.455 305.400 250.400 305.400 H 230.400 C 230.345 305.400 230.300 305.445 230.300 305.500 V 315.400 C 230.300 315.500 230.400 315.400 230.300 315.400 H 210.500 C 210.400 315.400 210.500 315.500 210.500 315.400 V 305.500 C 210.500 305.445 210.455 305.400 210.400 305.400 H 190.400 C 190.345 305.400 190.300 305.445 190.300 305.500 V 315.400 C 190.300 315.500 190.400 315.400 190.300 315.400 H 170.500 C 170.400 315.400 170.500 315.500 170.500 315.400 V 305.500 C 170.500 305.445 170.455 305.400 170.400 305.400 H 150.400 C 150.345 305.400 150.300 305.445 150.300 305.500 V 315.400 C 150.300 315.500 150.400 315.400 150.300 315.400 H 130.500 C 130.400 315.400 130.500 315.500 130.500 315.400 V 305.500 C 130.500 305.445 130.455 305.400 130.400 305.400 H 110.400 C 110.345 305.400 110.300 305.445 110.300 305.500 V 315.400 C 110.300 315.500 110.400 315.400 110.300 315.400 H 90.500 C 90.400 315.400 90.500 315.500 90.500 315.400 V 305.500 C 90.500 305.445 90.455 305.400 90.400 305.400 H 70.400 C 70.345 305.400 70.300 305.445 70.300 305.500 V 315.400 C 70.300 315.500 70.400 315.400 70.300 315.400 H 50.500 C 50.400 315.400 50.500 315.500 50.500 315.400 V 305.500 C 50.500 305.445 50.455 305.400 50.400 305.400 H 20.400 H 10.400 C 10.345 305.400 10.300 305.445 10.300 305.500 V 315.500 V 348.000 C 10.300 348.055 10.345 348.100 10.400 348.100 H 20.300 C 20.400 348.100 20.300 348.000 20.300 348.100 V 367.900 C 20.300 368.000 20.400 367.900 20.300 367.900 H 10.400 C 10.345 367.900 10.300 367.945 10.300 368.000 V 388.000 C 10.300 388.055 10.345 388.100 10.400 388.100 H 20.300 C 20.400 388.100 20.300 388.000 20.300 388.100 V 407.900 C 20.300 408.000 20.400 407.900 20.300 407.900 H 10.400 C 10.345 407.900 10.300 407.945 10.300 408.000 V 440.500 C 10.300 440.555 10.345 440.600 10.400 440.600 H 20.400" stroke="rgb(0,0,0)" stroke-width="0.20" />
</g>
<g id="p-2" style="fill:none;stroke-linecap:round;stroke-linejoin:round;">
  <text transform="matrix( 1.000 0.000 0.000 1.000 415.600 376.100 )" style="font-family: sans-serif ; font-weight: normal; font-style: normal; fill: rgb(255,0,0)" font-size="4px" text-anchor="middle" dominant-baseline="hanging">Wall 2</text><path d="M 365.600 440.600 H 385.500 C 385.600 440.600 385.500 440.500 385.500 440.600 V 450.500 C 385.500 450.555 385.545 450.600 385.600 450.600 H 405.600 C 405.655 450.600 405.700 450.555 405.700 450.500 V 440.600 C 405.700 440.500 405.600 440.600 405.700 440.600 H 425.500 C 425.600 440.600 425.500 440.500 425.500 440.600 V 450.500 C 425.500 450.555 425.545 450.600 425.600 450.600 H 445.600 C 445.655 450.600 445.700 450.555 445.700 450.500 V 440.600 C 445.700 440.500 445.600 440.600 445.700 440.600 H 465.600 C 465.655 440.600 465.700 440.555 465.700 440.500 V 408.100 C 465.700 408.000 465.600 408.100 465.700 408.100 H 475.600 C 475.655 408.100 475.700 408.055 475.700 408.000 V 388.000 C 475.700 387.945 475.655 387.900 475.600 387.900 H 465.700 C 465.600 387.900 465.700 388.000 465.700 387.900 V 368.100 C 465.700 368.000 465.600 368.100 465.700 368.100 H 475.600 C 475.655 368.100 475.700 368.055 475.700 368.000 V 348.000 C 475.700 347.945 475.655 347.900 475.600 347.900 H 465.700 C 465.600 347.900 465.700 348.000 465.700 347.900 V 315.500 V 305.500 C 465.700 305.445 465.655 305.400 465.600 305.400 H 445.600 C 445.545 305.400 445.500 305.445 445.500 305.500 V 315.400 C 445.500 315.500 445.600 315.400 445.500 315.400 H 425.700 C 425.600 315.400 425.700 315.500 425.700 315.400 V 305.500 C 425.700 305.445 425.655 305.400 425.600 305.400 H 405.600 C 405.545 305.400 405.500 305.445 405.500 305.500 V 315.400 C 405.500 315.500 405.600 315.400 405.500 315.400 H 385.700 C 385.600 315.400 385.700 315.500 385.700 315.400 V 305.500 C 385.700 305.445 385.655 305.400 385.600 305.400 H 365.600 C 365.545 305.400 365.500 305.445 365.500 305.500 V 315.500 V 347.900 C 365.500 348.000 365.600 347.900 365.500 347.900 H 355.600 C 355.545 347.900 355.500 347.945 355.500 348.000 V 368.000 C 355.500 368.055 355.545 368.100 355.600 368.100 H 365.500 C 365.600 368.100 365.500 368.000 365.500 368.100 V 387.900 C 365.500 388.000 365.600 387.900 365.500 387.900 H 355.600 C 355.545 387.900 355.500 387.945 355.500 388.000 V 408.000 C 355.500 408.055 355.545 408.100 355.600 408.100 H 365.500 C 365.600 408.100 365.500 408.000 365.500 408.100 V 440.500 C 365.500 440.555 365.545 440.600 365.600 440.600" stroke="rgb(0,0,0)" stroke-width="0.20" />
</g>
<g id="p-3" style="fill:none;stroke-linecap:round;stroke-linejoin:round;">
  <text transform="matrix( 1.000 0.000 0.000 1.000 415.600 225.900 )" style="font-family: sans-serif ; font-weight: normal; font-style: normal; fill: rgb(255,0,0)" font-size="4px" text-anchor="middle" dominant-baseline="hanging">Wall 4</text><path d="M 365.600 290.400 H 385.500 C 385.600 290.400 385.500 290.300 385.500 290.400 V 300.300 C 385.500 300.355 385.545 300.400 385.600 300.400 H 405.600 C 405.655 300.400 405.700 300.355 405.700 300.300 V 290.400 C 405.700 290.300 405.600 290.400 405.700 290.400 H 425.500 C 425.600 290.400 425.500 290.300 425.500 290.400 V 300.300 C 425.500 300.355 425.545 300.400 425.600 300.400 H 445.600 C 445.655 300.400 445.700 300.355 445.700 300.300 V 290.400 C 445.700 290.300 445.600 290.400 445.700 290.400 H 465.600 C 465.655 290.400 465.700 290.355 465.700 290.300 V 257.900 C 465.700 257.800 465.600 257.900 465.700 257.900 H 475.600 C 475.655 257.900 475.700 257.855 475.700 257.800 V 237.800 C 475.700 237.745 475.655 237.700 475.600 237.700 H 465.700 C 465.600 237.700 465.700 237.800 465.700 237.700 V 217.900 C 465.700 217.800 465.600 217.900 465.700 217.900 H 475.600 C 475.655 217.900 475.700 217.855 475.700 217.800 V 197.800 C 475.700 197.745 475.655 197.700 475.600 197.700 H 465.700 C 465.600 197.700 465.700 197.800 465.700 197.700 V 165.300 V 155.300 C 465.700 155.245 465.655 155.200 465.600 155.200 H 445.600 C 445.545 155.200 445.500 155.245 445.500 155.300 V 165.200 C 445.500 165.300 445.600 165.200 445.500 165.200 H 425.700 C 425.600 165.200 425.700 165.300 425.700 165.200 V 155.300 C 425.700 155.245 425.655 155.200 425.600 155.200 H 405.600 C 405.545 155.200 405.500 155.245 405.500 155.300 V 165.200 C 405.500 165.300 405.600 165.200 405.500 165.200 H 385.700 C 385.600 165.200 385.700 165.300 385.700 165.200 V 155.300 C 385.700 155.245 385.655 155.200 385.600 155.200 H 365.600 C 365.545 155.200 365.500 155.245 365.500 155.300 V 165.300 V 197.700 C 365.500 197.800 365.600 197.700 365.500 197.700 H 355.600 C 355.545 197.700 355.500 197.745 355.500 197.800 V 217.800 C 355.500 217.855 355.545 217.900 355.600 217.900 H 365.500 C 365.600 217.900 365.500 217.800 365.500 217.900 V 237.700 C 365.500 237.800 365.600 237.700 365.500 237.700 H 355.600 C 355.545 237.700 355.500 237.745 355.500 237.800 V 257.800 C 355.500 257.855 355.545 257.900 355.600 257.900 H 365.500 C 365.600 257.900 365.500 257.800 365.500 257.900 V 290.300 C 365.500 290.355 365.545 290.400 365.600 290.400" stroke="rgb(0,0,0)" stroke-width="0.20" />
</g>
<g id="p-4" style="fill:none;stroke-linecap:round;stroke-linejoin:round;">
  <text transform="matrix( 1.000 0.000 0.000 1.000 180.400 225.900 )" style="font-family: sans-serif ; font-weight: normal; font-style: normal; fill: rgb(255,0,0)" font-size="4px" text-anchor="middle" dominant-baseline="hanging">Wall 3</text><path d="M 20.400 290.400 H 50.300 C 50.400 290.400 50.300 290.300 50.300 290.400 V 300.300 C 50.300 300.355 50.345 300.400 50.400 300.400 H 70.400 C 70.455 300.400 70.500 300.355 70.500 300.300 V 290.400 C 70.500 290.300 70.400 290.400 70.500 290.400 H 90.300 C 90.400 290.400 90.300 290.300 90.300 290.400 V 300.300 C 90.300 300.355 90.345 300.400 90.400 300.400 H 110.400 C 110.455 300.400 110.500 300.355 110.500 300.300 V 290.400 C 110.500 290.300 110.400 290.400 110.500 290.400 H 130.300 C 130.400 290.400 130.300 290.300 130.300 290.400 V 300.300 C 130.300 300.355 130.345 300.400 130.400 300.400 H 150.400 C 150.455 300.400 150.500 300.355 150.500 300.300 V 290.400 C 150.500 290.300 150.400 290.400 150.500 290.400 H 170.300 C 170.400 290.400 170.300 290.300 170.300 290.400 V 300.300 C 170.300 300.355 170.345 300.400 170.400 300.400 H 190.400 C 190.455 300.400 190.500 300.355 190.500 300.300 V 290.400 C 190.500 290.300 190.400 290.400 190.500 290.400 H 210.300 C 210.400 290.400 210.300 290.300 210.300 290.400 V 300.300 C 210.300 300.355 210.345 300.400 210.400 300.400 H 230.400 C 230.455 300.400 230.500 300.355 230.500 300.300 V 290.400 C 230.500 290.300 230.400 290.400 230.500 290.400 H 250.300 C 250.400 290.400 250.300 290.300 250.300 290.400 V 300.300 C 250.300 300.355 250.345 300.400 250.400 300.400 H 270.400 C 270.455 300.400 270.500 300.355 270.500 300.300 V 290.400 C 270.500 290.300 270.400 290.400 270.500 290.400 H 290.300 C 290.400 290.400 290.300 290.300 290.300 290.400 V 300.300 C 290.300 300.355 290.345 300.400 290.400 300.400 H 310.400 C 310.455 300.400 310.500 300.355 310.500 300.300 V 290.400 C 310.500 290.300 310.400 290.400 310.500 290.400 H 340.400 H 350.400 C 350.455 290.400 350.500 290.355 350.500 290.300 V 257.800 C 350.500 257.745 350.455 257.700 350.400 257.700 H 340.500 C 340.400 257.700 340.500 257.800 340.500 257.700 V 237.900 C 340.500 237.800 340.400 237.900 340.500 237.900 H 350.400 C 350.455 237.900 350.500 237.855 350.500 237.800 V 217.800 C 350.500 217.745 350.455 217.700 350.400 217.700 H 340.500 C 340.400 217.700 340.500 217.800 340.500 217.700 V 197.900 C 340.500 197.800 340.400 197.900 340.500 197.900 H 350.400 C 350.455 197.900 350.500 197.855 350.500 197.800 V 165.300 V 155.300 C 350.500 155.245 350.455 155.200 350.400 155.200 H 340.400 H 310.400 C 310.345 155.200 310.300 155.245 310.300 155.300 V 165.200 C 310.300 165.300 310.400 165.200 310.300 165.200 H 290.500 C 290.400 165.200 290.500 165.300 290.500 165.200 V 155.300 C 290.500 155.245 290.455 155.200 290.400 155.200 H 270.400 C 270.345 155.200 270.300 155.245 270.300 155.300 V 165.200 C 270.300 165.300 270.400 165.200 270.300 165.200 H 250.500 C 250.400 165.200 250.500 165.300 250.500 165.200 V 155.300 C 250.500 155.245 250.455 155.200 250.400 155.200 H 230.400 C 230.345 155.200 230.300 155.245 230.300 155.300 V 165.200 C 230.300 165.300 230.400 165.200 230.300 165.200 H 210.500 C 210.400 165.200 210.500 165.300 210.500 165.200 V 155.300 C 210.500 155.245 210.455 155.200 210.400 155.200 H 190.400 C 190.345 155.200 190.300 155.245 190.300 155.300 V 165.200 C 190.300 165.300 190.400 165.200 190.300 165.200 H 170.500 C 170.400 165.200 170.500 165.300 170.500 165.200 V 155.300 C 170.500 155.245 170.455 155.200 170.400 155.200 H 150.400 C 150.345 155.200 150.300 155.245 150.300 155.300 V 165.200 C 150.300 165.300 150.400 165.200 150.300 165.200 H 130.500 C 130.400 165.200 130.500 165.300 130.500 165.200 V 155.300 C 130.500 155.245 130.455 155.200 130.400 155.200 H 110.400 C 110.345 155.200 110.300 155.245 110.300 155.300 V 165.200 C 110.300 165.300 110.400 165.200 110.300 165.200 H 90.500 C 90.400 165.200 90.500 165.300 90.500 165.200 V 155.300 C 90.500 155.245 90.455 155.200 90.400 155.200 H 70.400 C 70.345 155.200 70.300 155.245 70.300 155.300 V 165.200 C 70.300 165.300 70.400 165.200 70.300 165.200 H 50.500 C 50.400 165.200 50.500 165.300 50.500 165.200 V 155.300 C 50.500 155.245 50.455 155.200 50.400 155.200 H 20.400 H 10.400 C 10.345 155.200 10.300 155.245 10.300 155.300 V 165.300 V 197.800 C 10.300 197.855 10.345 197.900 10.400 197.900 H 20.300 C 20.400 197.900 20.300 197.800 20.300 197.900 V 217.700 C 20.300 217.800 20.400 217.700 20.300 217.700 H 10.400 C 10.345 217.700 10.300 217.745 10.300 217.800 V 237.800 C 10.300 237.855 10.345 237.900 10.400 237.900 H 20.300 C 20.400 237.900 20.300 237.800 20.300 237.900 V 257.700 C 20.300 257.800 20.400 257.700 20.300 257.700 H 10.400 C 10.345 257.700 10.300 257.745 10.300 257.800 V 290.300 C 10.300 290.355 10.345 290.400 10.400 290.400 H 20.400" stroke="rgb(0,0,0)" stroke-width="0.20" />
</g>
<g id="p-5" style="fill:none;stroke-linecap:round;stroke-linejoin:round;">
  <text transform="matrix( 1.000 0.000 0.000 1.000 180.400 88.200 )" style="font-family: sans-serif ; font-weight: normal; font-style: normal; fill: rgb(255,0,0)" font-size="4px" text-anchor="middle" dominant-baseline="hanging">Top</text><path d="M 20.400 140.200 H 50.300 C 50.400 140.200 50.300 140.100 50.300 140.200 V 150.100 C 50.300 150.155 50.345 150.200 50.400 150.200 H 70.400 C 70.455 150.200 70.500 150.155 70.500 150.100 V 140.200 C 70.500 140.100 70.400 140.200 70.500 140.200 H 90.300 C 90.400 140.200 90.300 140.100 90.300 140.200 V 150.100 C 90.300 150.155 90.345 150.200 90.400 150.200 H 110.400 C 110.455 150.200 110.500 150.155 110.500 150.100 V 140.200 C 110.500 140.100 110.400 140.200 110.500 140.200 H 130.300 C 130.400 140.200 130.300 140.100 130.300 140.200 V 150.100 C 130.300 150.155 130.345 150.200 130.400 150.200 H 150.400 C 150.455 150.200 150.500 150.155 150.500 150.100 V 140.200 C 150.500 140.100 150.400 140.200 150.500 140.200 H 170.300 C 170.400 140.200 170.300 140.100 170.300 140.200 V 150.100 C 170.300 150.155 170.345 150.200 170.400 150.200 H 190.400 C 190.455 150.200 190.500 150.155 190.500 150.100 V 140.200 C 190.500 140.100 190.400 140.200 190.500 140.200 H 210.300 C 210.400 140.200 210.300 140.100 210.300 140.200 V 150.100 C 210.300 150.155 210.345 150.200 210.400 150.200 H 230.400 C 230.455 150.200 230.500 150.155 230.500 150.100 V 140.200 C 230.500 140.100 230.400 140.200 230.500 140.200 H 250.300 C 250.400 140.200 250.300 140.100 250.300 140.200 V 150.100 C 250.300 150.155 250.345 150.200 250.400 150.200 H 270.400 C 270.455 150.200 270.500 150.155 270.500 150.100 V 140.200 C 270.500 140.100 270.400 140.200 270.500 140.200 H 290.300 C 290.400 140.200 290.300 140.100 290.300 140.200 V 150.100 C 290.300 150.155 290.345 150.200 290.400 150.200 H 310.400 C 310.455 150.200 310.500 150.155 310.500 150.100 V 140.200 C 310.500 140.100 310.400 140.200 310.500 140.200 H 340.400 C 340.455 140.200 340.500 140.155 340.500 140.100 V 120.200 C 340.500 120.100 340.400 120.200 340.500 120.200 H 350.400 C 350.455 120.200 350.500 120.155 350.500 120.100 V 100.100 C 350.500 100.045 350.455 100.000 350.400 100.000 H 340.500 C 340.400 100.000 340.500 100.100 340.500 100.000 V 80.200 C 340.500 80.100 340.400 80.200 340.500 80.200 H 350.400 C 350.455 80.200 350.500 80.155 350.500 80.100 V 60.100 C 350.500 60.045 350.455 60.000 350.400 60.000 H 340.500 C 340.400 60.000 340.500 60.100 340.500 60.000 V 40.100 C 340.500 40.045 340.455 40.000 340.400 40.000 H 310.500 C 310.400 40.000 310.500 40.100 310.500 40.000 V 30.100 C 310.500 30.045 310.455 30.000 310.400 30.000 H 290.400 C 290.345 30.000 290.300 30.045 290.300 30.100 V 40.000 C 290.300 40.100 290.400 40.000 290.300 40.000 H 270.500 C 270.400 40.000 270.500 40.100 270.500 40.000 V 30.100 C 270.500 30.045 270.455 30.000 270.400 30.000 H 250.400 C 250.345 30.000 250.300 30.045 250.300 30.100 V 40.000 C 250.300 40.100 250.400 40.000 250.300 40.000 H 230.500 C 230.400 40.000 230.500 40.100 230.500 40.000 V 30.100 C 230.500 30.045 230.455 30.000 230.400 30.000 H 210.400 C 210.345 30.000 210.300 30.045 210.300 30.100 V 40.000 C 210.300 40.100 210.400 40.000 210.300 40.000 H 190.500 C 190.400 40.000 190.500 40.100 190.500 40.000 V 30.100 C 190.500 30.045 190.455 30.000 190.400 30.000 H 170.400 C 170.345 30.000 170.300 30.045 170.300 30.100 V 40.000 C 170.300 40.100 170.400 40.000 170.300 40.000 H 150.500 C 150.400 40.000 150.500 40.100 150.500 40.000 V 30.100 C 150.500 30.045 150.455 30.000 150.400 30.000 H 130.400 C 130.345 30.000 130.300 30.045 130.300 30.100 V 40.000 C 130.300 40.100 130.400 40.000 130.300 40.000 H 110.500 C 110.400 40.000 110.500 40.100 110.500 40.000 V 30.100 C 110.500 30.045 110.455 30.000 110.400 30.000 H 90.400 C 90.345 30.000 90.300 30.045 90.300 30.100 V 40.000 C 90.300 40.100 90.400 40.000 90.300 40.000 H 70.500 C 70.400 40.000 70.500 40.100 70.500 40.000 V 30.100 C 70.500 30.045 70.455 30.000 70.400 30.000 H 50.400 C 50.345 30.000 50.300 30.045 50.300 30.100 V 40.000 C 50.300 40.100 50.400 40.000 50.300 40.000 H 20.400 C 20.345 40.000 20.300 40.045 20.300 40.100 V 60.000 C 20.300 60.100 20.400 60.000 20.300 60.000 H 10.400 C 10.345 60.000 10.300 60.045 10.300 60.100 V 80.100 C 10.300 80.155 10.345 80.200 10.400 80.200 H 20.300 C 20.400 80.200 20.300 80.100 20.300 80.200 V 100.000 C 20.300 100.100 20.400 100.000 20.300 100.000 H 10.400 C 10.345 100.000 10.300 100.045 10.300 100.100 V 120.100 C 10.300 120.155 10.345 120.200 10.400 120.200 H 20.300 C 20.400 120.200 20.300 120.100 20.300 120.200 V 140.100 C 20.300 140.155 20.345 140.200 20.400 140.200" stroke="rgb(0,0,0)" stroke-width="0.20" />
</g>
<g id="p-6" style="fill:none;stroke-linecap:round;stroke-linejoin:round;">
  <path d="M 415.600 140.000 H 405.700 C 405.600 140.000 405.700 140.100 405.700 140.000 V 130.200 C 405.700 130.100 405.600 130.200 405.700 130.200 H 425.500 C 425.600 130.200 425.500 130.100 425.500 130.200 V 140.000 C 425.500 140.100 425.600 140.000 425.500 140.000 H 415.600 Z" stroke="rgb(0,0,255)" stroke-width="0.20" />
  <path d="M 455.600 140.000 H 445.700 C 445.600 140.000 445.700 140.100 445.700 140.000 V 130.200 C 445.700 130.100 445.600 130.200 445.700 130.200 H 465.500 C 465.600 130.200 465.500 130.100 465.500 130.200 V 140.000 C 465.500 140.100 465.600 140.000 465.500 140.000 H 455.600 Z" stroke="rgb(0,0,255)" stroke-width="0.20" />
  <path d="M 495.600 140.000 H 485.700 C 485.600 140.000 485.700 140.100 485.700 140.000 V 130.200 C 485.700 130.100 485.600 130.200 485.700 130.200 H 505.500 C 505.600 130.200 505.500 130.100 505.500 130.200 V 140.000 C 505.500 140.100 505.600 140.000 505.500 140.000 H 495.600 Z" stroke="rgb(0,0,255)" stroke-width="0.20" />
  <path d="M 535.600 140.000 H 525.700 C 525.600 140.000 525.700 140.100 525.700 140.000 V 130.200 C 525.700 130.100 525.600 130.200 525.700 130.200 H 545.500 C 545.600 130.200 545.500 130.100 545.500 130.200 V 140.000 C 545.500 140.100 545.600 140.000 545.500 140.000 H 535.600 Z" stroke="rgb(0,0,255)" stroke-width="0.20" />
  <path d="M 575.600 140.000 H 565.700 C 565.600 140.000 565.700 140.100 565.700 140.000 V 130.200 C 565.700 130.100 565.600 130.200 565.700 130.200 H 585.500 C 585.600 130.200 585.500 130.100 585.500 130.200 V 140.000 C 585.500 140.100 585.600 140.000 585.500 140.000 H 575.600 Z" stroke="rgb(0,0,255)" stroke-width="0.20" />
  <path d="M 615.600 140.000 H 605.700 C 605.600 140.000 605.700 140.100 605.700 140.000 V 130.200 C 605.700 130.100 605.600 130.200 605.700 130.200 H 625.500 C 625.600 130.200 625.500 130.100 625.500 130.200 V 140.000 C 625.500 140.100 625.600 140.000 625.500 140.000 H 615.600 Z" stroke="rgb(0,0,255)" stroke-width="0.20" />
  <path d="M 655.600 140.000 H 645.700 C 645.600 140.000 645.700 140.100 645.700 140.000 V 130.200 C 645.700 130.100 645.600 130.200 645.700 130.200 H 665.500 C 665.600 130.200 665.500 130.100 665.500 130.200 V 140.000 C 665.500 140.100 665.600 140.000 665.500 140.000 H 655.600 Z" stroke="rgb(0,0,255)" stroke-width="0.20" />
  <text transform="matrix( 1.000 0.000 0.000 1.000 535.600 78.200 )" style="font-family: sans-serif ; font-weight: normal; font-style: normal; fill: rgb(255,0,0)" font-size="4px" text-anchor="middle" dominant-baseline="hanging">Base</text><path d="M 375.600 150.200 H 695.600 H 715.600 C 715.655 150.200 715.700 150.155 715.700 150.100 V 130.100 V 30.100 V 10.100 C 715.700 10.045 715.655 10.000 715.600 10.000 H 695.600 H 375.600 H 355.600 C 355.545 10.000 355.500 10.045 355.500 10.100 V 30.100 V 130.100 V 150.100 C 355.500 150.155 355.545 150.200 355.600 150.200 H 375.600" stroke="rgb(0,0,0)" stroke-width="0.20" />
  <path d="M 705.500 100.100 V 110.000 C 705.500 110.100 705.600 110.000 705.500 110.000 H 695.700 C 695.600 110.000 695.700 110.100 695.700 110.000 V 90.200 C 695.700 90.100 695.600 90.200 695.700 90.200 H 705.500 C 705.600 90.200 705.500 90.100 705.500 90.200 V 100.100 Z" stroke="rgb(0,0,255)" stroke-width="0.20" />
  <path d="M 705.500 60.100 V 70.000 C 705.500 70.100 705.600 70.000 705.500 70.000 H 695.700 C 695.600 70.000 695.700 70.100 695.700 70.000 V 50.200 C 695.700 50.100 695.600 50.200 695.700 50.200 H 705.500 C 705.600 50.200 705.500 50.100 705.500 50.200 V 60.100 Z" stroke="rgb(0,0,255)" stroke-width="0.20" />
  <path d="M 655.600 20.200 H 665.500 C 665.600 20.200 665.500 20.100 665.500 20.200 V 30.000 C 665.500 30.100 665.600 30.000 665.500 30.000 H 645.700 C 645.600 30.000 645.700 30.100 645.700 30.000 V 20.200 C 645.700 20.100 645.600 20.200 645.700 20.200 H 655.600 Z" stroke="rgb(0,0,255)" stroke-width="0.20" />
  <path d="M 615.600 20.200 H 625.500 C 625.600 20.200 625.500 20.100 625.500 20.200 V 30.000 C 625.500 30.100 625.600 30.000 625.500 30.000 H 605.700 C 605.600 30.000 605.700 30.100 605.700 30.000 V 20.200 C 605.700 20.100 605.600 20.200 605.700 20.200 H 615.600 Z" stroke="rgb(0,0,255)" stroke-width="0.20" />
  <path d="M 575.600 20.200 H 585.500 C 585.600 20.200 585.500 20.100 585.500 20.200 V 30.000 C 585.500 30.100 585.600 30.000 585.500 30.000 H 565.700 C 565.600 30.000 565.700 30.100 565.700 30.000 V 20.200 C 565.700 20.100 565.600 20.200 565.700 20.200 H 575.600 Z" stroke="rgb(0,0,255)" stroke-width="0.20" />
  <path d="M 535.600 20.200 H 545.500 C 545.600 20.200 545.500 20.100 545.500 20.200 V 30.000 C 545.500 30.100 545.600 30.000 545.500 30.000 H 525.700 C 525.600 30.000 525.700 30.100 525.700 30.000 V 20.200 C 525.700 20.100 525.600 20.200 525.700 20.200 H 535.600 Z" stroke="rgb(0,0,255)" stroke-width="0.20" />
  <path d="M 495.600 20.200 H 505.500 C 505.600 20.200 505.500 20.100 505.500 20.200 V 30.000 C 505.500 30.100 505.600 30.000 505.500 30.000 H 485.700 C 485.600 30.000 485.700 30.100 485.700 30.000 V 20.200 C 485.700 20.100 485.600 20.200 485.700 20.200 H 495.600 Z" stroke="rgb(0,0,255)" stroke-width="0.20" />
  <path d="M 455.600 20.200 H 465.500 C 465.600 20.200 465.500 20.100 465.500 20.200 V 30.000 C 465.500 30.100 465.600 30.000 465.500 30.000 H 445.700 C 445.600 30.000 445.700 30.100 445.700 30.000 V 20.200 C 445.700 20.100 445.600 20.200 445.700 20.200 H 455.600 Z" stroke="rgb(0,0,255)" stroke-width="0.20" />
  <path d="M 415.600 20.200 H 425.500 C 425.600 20.200 425.500 20.100 425.500 20.200 V 30.000 C 425.500 30.100 425.600 30.000 425.500 30.000 H 405.700 C 405.600 30.000 405.700 30.100 405.700 30.000 V 20.200 C 405.700 20.100 405.600 20.200 405.700 20.200 H 415.600 Z" stroke="rgb(0,0,255)" stroke-width="0.20" />
  <path d="M 365.700 60.100 V 50.200 C 365.700 50.100 365.600 50.200 365.700 50.200 H 375.500 C 375.600 50.200 375.500 50.100 375.500 50.200 V 70.000 C 375.500 70.100 375.600 70.000 375.500 70.000 H 365.700 C 365.600 70.000 365.700 70.100 365.700 70.000 V 60.100 Z" stroke="rgb(0,0,255)" stroke-width="0.20" />
  <path d="M 365.700 100.100 V 90.200 C 365.700 90.100 365.600 90.200 365.700 90.200 H 375.500 C 375.600 90.200 375.500 90.100 375.500 90.200 V 110.000 C 375.500 110.100 375.600 110.000 375.500 110.000 H 365.700 C 365.600 110.000 365.700 110.100 365.700 110.000 V 100.100 Z" stroke="rgb(0,0,255)" stroke-width="0.20" />
</g>
</svg>