<?xml version="1.0" encoding="UTF-8" standalone="no"?><!DOCTYPE svg PUBLIC "-//W3C//DTD SVG 1.1//EN" "http://www.w3.org/Graphics/SVG/1.1/DTD/svg11.dtd"><svg width="100%" height="100%" viewBox="0 0 3179 2246" version="1.1" xmlns="http://www.w3.org/2000/svg" xmlns:xlink="http://www.w3.org/1999/xlink" xml:space="preserve" xmlns:serif="http://www.serif.com/" style="fill-rule:evenodd;clip-rule:evenodd;stroke-linecap:round;stroke-linejoin:round;"><g id="_8mm" serif:id="8mm"><path d="M504.945,818.071l90.331,-0c0.378,-0 -0,-0.378 -0,-0l-0,29.858c-0,0.208 0.17,0.378 0.378,0.378l60.472,0c0.208,0 0.378,-0.17 0.378,-0.378l-0,-29.858c-0,-0.378 -0.378,-0 -0,-0l59.716,-0c0.378,-0 0,-0.378 0,-0l0,29.858c0,0.208 0.171,0.378 0.378,0.378l60.473,0c0.208,0 0.378,-0.17 0.378,-0.378l-0,-29.858c-0,-0.378 -0.378,-0 -0,-0l59.716,-0c0.378,-0 0,-0.378 0,-0l0,29.858c0,0.208 0.17,0.378 0.378,0.378l60.473,0c0.208,0 0.378,-0.17 0.378,-0.378l-0,-29.858c-0,-0.378 -0.378,-0 -0,-0l59.716,-0c0.378,-0 0,-0.378 0,-0l0,29.858c0,0.208 0.17,0.378 0.378,0.378l60.473,0c0.208,0 0.378,-0.17 0.378,-0.378l-0,-29.858c-0,-0.378 -0.378,-0 -0,-0l59.716,-0c0.378,-0 0,-0.378 0,-0l0,29.858c0,0.208 0.17,0.378 0.378,0.378l60.473,0c0.207,0 0.377,-0.17 0.377,-0.378l0,-29.858c0,-0.378 -0.377,-0 0,-0l59.717,-0c0.378,-0 0,-0.378 0,-0l0,29.858c0,0.208 0.17,0.378 0.378,0.378l60.472,0c0.208,0 0.378,-0.17 0.378,-0.378l0,-29.858c0,-0.378 -0.378,-0 0,-0l59.717,-0c0.378,-0 -0,-0.378 -0,-0l-0,29.858c-0,0.208 0.17,0.378 0.378,0.378l60.472,0c0.208,0 0.378,-0.17 0.378,-0.378l0,-29.858c0,-0.378 -0.378,-0 0,-0l59.717,-0c0.378,-0 -0,-0.378 -0,-0l-0,29.858c-0,0.208 0.17,0.378 0.378,0.378l60.472,0c0.208,0 0.378,-0.17 0.378,-0.378l0,-29.858c0,-0.378 -0.378,-0 0,-0l59.717,-0c0.378,-0 -0,-0.378 -0,-0l-0,29.858c-0,0.208 0.17,0.378 0.378,0.378l60.472,0c0.208,0 0.378,-0.17 0.378,-0.378l-0,-29.858c-0,-0.378 -0.378,-0 -0,-0l90.331,-0c0.208,-0 0.378,-0.17 0.378,-0.378l-0,-97.89c-0,-0.378 -0.378,0 -0,0l29.858,0c0.208,0 0.378,-0.17 0.378,-0.378l-0,-60.472c-0,-0.208 -0.17,-0.378 -0.378,-0.378l-29.858,-0c-0.378,-0 -0,0.378 -0,-0l-0,-59.717c-0,-0.378 -0.378,0 -0,0l29.858,0c0.208,0 0.378,-0.17 0.378,-0.378l-0,-60.472c-0,-0.208 -0.17,-0.378 -0.378,-0.378l-29.858,0c-0.378,0 -0,0.378 -0,0l-0,-97.89c-0,-0.208 -0.17,-0.378 -0.378,-0.378l-90.331,0c-0.378,0 -0,0.378 -0,0l-0,-29.858c-0,-0.208 -0.17,-0.378 -0.378,-0.378l-60.472,0c-0.208,0 -0.378,0.17 -0.378,0.378l-0,29.858c-0,0.378 0.378,0 -0,0l-59.717,0c-0.378,0 0,0.378 0,0l0,-29.858c0,-0.208 -0.17,-0.378 -0.378,-0.378l-60.472,0c-0.208,0 -0.378,0.17 -0.378,0.378l-0,29.858c-0,0.378 0.378,0 -0,0l-59.717,0c-0.378,0 0,0.378 0,0l0,-29.858c0,-0.208 -0.17,-0.378 -0.378,-0.378l-60.472,0c-0.208,0 -0.378,0.17 -0.378,0.378l-0,29.858c-0,0.378 0.378,0 -0,0l-59.717,0c-0.378,0 0,0.378 0,0l0,-29.858c0,-0.208 -0.17,-0.378 -0.378,-0.378l-60.472,0c-0.208,0 -0.378,0.17 -0.378,0.378l0,29.858c0,0.378 0.378,0 0,0l-59.717,0c-0.377,0 0,0.378 0,0l0,-29.858c0,-0.208 -0.17,-0.378 -0.377,-0.378l-60.473,0c-0.208,0 -0.378,0.17 -0.378,0.378l0,29.858c0,0.378 0.378,0 0,0l-59.716,0c-0.378,0 -0,0.378 -0,0l-0,-29.858c-0,-0.208 -0.17,-0.378 -0.378,-0.378l-60.473,0c-0.208,0 -0.378,0.17 -0.378,0.378l0,29.858c0,0.378 0.378,0 0,0l-59.716,0c-0.378,0 -0,0.378 -0,0l-0,-29.858c-0,-0.208 -0.17,-0.378 -0.378,-0.378l-60.473,0c-0.208,0 -0.378,0.17 -0.378,0.378l0,29.858c0,0.378 0.378,0 0,0l-59.716,0c-0.378,0 -0,0.378 -0,0l-0,-29.858c-0,-0.208 -0.17,-0.378 -0.378,-0.378l-60.473,0c-0.207,0 -0.378,0.17 -0.378,0.378l0,29.858c0,0.378 0.378,0 0,0l-59.716,0c-0.378,0 -0,0.378 -0,0l-0,-29.858c-0,-0.208 -0.17,-0.378 -0.378,-0.378l-60.472,0c-0.208,0 -0.378,0.17 -0.378,0.378l-0,29.858c-0,0.378 0.378,0 -0,0l-90.331,0c-0.208,0 -0.378,0.17 -0.378,0.378l-0,97.89c-0,0.378 0.378,0 -0,0l-29.858,0c-0.208,0 -0.378,0.17 -0.378,0.378l-0,60.472c-0,0.208 0.17,0.378 0.378,0.378l29.858,0c0.378,0 -0,-0.378 -0,0l-0,59.717c-0,0.378 0.378,-0 -0,-0l-29.858,-0c-0.208,-0 -0.378,0.17 -0.378,0.378l-0,60.472c-0,0.208 0.17,0.378 0.378,0.378l29.858,0c0.378,0 -0,-0.378 -0,0l-0,97.89c-0,0.208 0.17,0.378 0.378,0.378" style="fill:none;fill-rule:nonzero;stroke:#000;stroke-width:3.15px;"/><path d="M1998.48,809.924l-59.716,0c-0.378,0 -0,0.378 -0,0l-0,-29.48c-0,-0.378 -0.378,-0 -0,-0l59.716,-0c0.378,-0 0,-0.378 0,-0l0,29.48c0,0.378 0.378,0 0,0Z" style="fill:none;fill-rule:nonzero;stroke:#00f;stroke-width:3.15px;"/><path d="M2119.42,809.924l-59.717,0c-0.377,0 0,0.378 0,0l0,-29.48c0,-0.378 -0.377,-0 0,-0l59.717,-0c0.378,-0 0,-0.378 0,-0l0,29.48c0,0.378 0.378,0 0,0Z" style="fill:none;fill-rule:nonzero;stroke:#00f;stroke-width:3.15px;"/><path d="M2240.37,809.924l-59.717,0c-0.378,0 0,0.378 0,0l0,-29.48c0,-0.378 -0.378,-0 0,-0l59.717,-0c0.378,-0 -0,-0.378 -0,-0l-0,29.48c-0,0.378 0.378,0 -0,0Z" style="fill:none;fill-rule:nonzero;stroke:#00f;stroke-width:3.15px;"/><path d="M2361.31,809.924l-59.717,0c-0.378,0 0,0.378 0,0l0,-29.48c0,-0.378 -0.378,-0 0,-0l59.717,-0c0.378,-0 -0,-0.378 -0,-0l-0,29.48c-0,0.378 0.378,0 -0,0Z" style="fill:none;fill-rule:nonzero;stroke:#00f;stroke-width:3.15px;"/><path d="M2482.26,809.924l-59.717,0c-0.378,0 0,0.378 0,0l0,-29.48c0,-0.378 -0.378,-0 0,-0l59.717,-0c0.378,-0 -0,-0.378 -0,-0l-0,29.48c-0,0.378 0.378,0 -0,0Z" style="fill:none;fill-rule:nonzero;stroke:#00f;stroke-width:3.15px;"/><path d="M2603.2,809.924l-59.717,0c-0.378,0 0,0.378 0,0l0,-29.48c0,-0.378 -0.378,-0 0,-0l59.717,-0c0.377,-0 -0,-0.378 -0,-0l-0,29.48c-0,0.378 0.377,0 -0,0Z" style="fill:none;fill-rule:nonzero;stroke:#00f;stroke-width:3.15px;"/><path d="M2724.14,809.924l-59.716,0c-0.378,0 -0,0.378 -0,0l-0,-29.48c-0,-0.378 -0.378,-0 -0,-0l59.716,-0c0.378,-0 0,-0.378 0,-0l0,29.48c0,0.378 0.378,0 0,0Z" style="fill:none;fill-rule:nonzero;stroke:#00f;stroke-width:3.15px;"/><path d="M2845.09,809.924l-59.716,0c-0.378,0 -0,0.378 -0,0l-0,-29.48c-0,-0.378 -0.378,-0 -0,-0l59.716,-0c0.378,-0 0,-0.378 0,-0l0,29.48c0,0.378 0.378,0 0,0Z" style="fill:none;fill-rule:nonzero;stroke:#00f;stroke-width:3.15px;"/><path d="M2966.03,809.924l-59.716,0c-0.378,0 -0,0.378 -0,0l-0,-29.48c-0,-0.378 -0.378,-0 -0,-0l59.716,-0c0.378,-0 0,-0.378 0,-0l0,29.48c0,0.378 0.378,0 0,0Z" style="fill:none;fill-rule:nonzero;stroke:#00f;stroke-width:3.15px;"/><path d="M1847.67,840.916l1269.92,0c0.208,0 0.378,-0.17 0.378,-0.378l0,-498.897c0,-0.208 -0.17,-0.378 -0.378,-0.378l-1330.39,-0c-0.208,-0 -0.378,0.17 -0.378,0.378l-0,498.897c-0,0.208 0.17,0.378 0.378,0.378l60.472,0" style="fill:none;fill-rule:nonzero;stroke:#000;stroke-width:3.15px;"/><path d="M3086.98,621.704l0,59.716c0,0.378 0.378,0 0,0l-29.48,0c-0.378,0 -0,0.378 -0,0l-0,-59.716c-0,-0.378 -0.378,-0 -0,-0l29.48,-0c0.378,-0 0,-0.378 0,-0Z" style="fill:none;fill-rule:nonzero;stroke:#00f;stroke-width:3.15px;"/><path d="M3086.98,500.759l0,59.716c0,0.378 0.378,0 0,0l-29.48,0c-0.378,0 -0,0.378 -0,0l-0,-59.716c-0,-0.378 -0.378,-0 -0,-0l29.48,-0c0.378,-0 0,-0.378 0,-0Z" style="fill:none;fill-rule:nonzero;stroke:#00f;stroke-width:3.15px;"/><path d="M2906.32,372.255l59.716,-0c0.378,-0 0,-0.378 0,-0l0,29.48c0,0.378 0.378,0 0,0l-59.716,0c-0.378,0 -0,0.378 -0,0l-0,-29.48c-0,-0.378 -0.378,-0 -0,-0Z" style="fill:none;fill-rule:nonzero;stroke:#00f;stroke-width:3.15px;"/><path d="M2785.37,372.255l59.716,-0c0.378,-0 0,-0.378 0,-0l0,29.48c0,0.378 0.378,0 0,0l-59.716,0c-0.378,0 -0,0.378 -0,0l-0,-29.48c-0,-0.378 -0.378,-0 -0,-0Z" style="fill:none;fill-rule:nonzero;stroke:#00f;stroke-width:3.15px;"/><path d="M2664.43,372.255l59.716,-0c0.378,-0 0,-0.378 0,-0l0,29.48c0,0.378 0.378,0 0,0l-59.716,0c-0.378,0 -0,0.378 -0,0l-0,-29.48c-0,-0.378 -0.378,-0 -0,-0Z" style="fill:none;fill-rule:nonzero;stroke:#00f;stroke-width:3.15px;"/><path d="M2543.48,372.255l59.717,-0c0.377,-0 -0,-0.378 -0,-0l-0,29.48c-0,0.378 0.377,0 -0,0l-59.717,0c-0.378,0 0,0.378 0,0l0,-29.48c0,-0.378 -0.378,-0 0,-0Z" style="fill:none;fill-rule:nonzero;stroke:#00f;stroke-width:3.15px;"/><path d="M2422.54,372.255l59.717,-0c0.378,-0 -0,-0.378 -0,-0l-0,29.48c-0,0.378 0.378,0 -0,0l-59.717,0c-0.378,0 0,0.378 0,0l0,-29.48c0,-0.378 -0.378,-0 0,-0Z" style="fill:none;fill-rule:nonzero;stroke:#00f;stroke-width:3.15px;"/><path d="M2301.59,372.255l59.717,-0c0.378,-0 -0,-0.378 -0,-0l-0,29.48c-0,0.378 0.378,0 -0,0l-59.717,0c-0.378,0 0,0.378 0,0l0,-29.48c0,-0.378 -0.378,-0 0,-0Z" style="fill:none;fill-rule:nonzero;stroke:#00f;stroke-width:3.15px;"/><path d="M2180.65,372.255l59.717,-0c0.378,-0 -0,-0.378 -0,-0l-0,29.48c-0,0.378 0.378,0 -0,0l-59.717,0c-0.378,0 0,0.378 0,0l0,-29.48c0,-0.378 -0.378,-0 0,-0Z" style="fill:none;fill-rule:nonzero;stroke:#00f;stroke-width:3.15px;"/><path d="M2059.7,372.255l59.717,-0c0.378,-0 0,-0.378 0,-0l0,29.48c0,0.378 0.378,0 0,0l-59.717,0c-0.377,0 0,0.378 0,0l0,-29.48c0,-0.378 -0.377,-0 0,-0Z" style="fill:none;fill-rule:nonzero;stroke:#00f;stroke-width:3.15px;"/><path d="M1938.76,372.255l59.716,-0c0.378,-0 0,-0.378 0,-0l0,29.48c0,0.378 0.378,0 0,0l-59.716,0c-0.378,0 -0,0.378 -0,0l-0,-29.48c-0,-0.378 -0.378,-0 -0,-0Z" style="fill:none;fill-rule:nonzero;stroke:#00f;stroke-width:3.15px;"/><path d="M1817.82,560.475l-0,-59.716c-0,-0.378 -0.378,-0 -0,-0l29.48,-0c0.378,-0 0,-0.378 0,-0l0,59.716c0,0.378 0.378,0 0,0l-29.48,0c-0.378,0 -0,0.378 -0,0Z" style="fill:none;fill-rule:nonzero;stroke:#00f;stroke-width:3.15px;"/><path d="M1817.82,681.42l-0,-59.716c-0,-0.378 -0.378,-0 -0,-0l29.48,-0c0.378,-0 0,-0.378 0,-0l0,59.716c0,0.378 0.378,0 0,0l-29.48,0c-0.378,0 -0,0.378 -0,0Z" style="fill:none;fill-rule:nonzero;stroke:#00f;stroke-width:3.15px;"/><path d="M1714.39,912.559l-90.331,0c-0.378,0 -0,0.378 -0,0l-0,-29.858c-0,-0.208 -0.17,-0.378 -0.378,-0.378l-60.472,-0c-0.208,-0 -0.378,0.17 -0.378,0.378l-0,29.858c-0,0.378 0.378,0 -0,0l-59.717,0c-0.378,0 0,0.378 0,0l0,-29.858c0,-0.208 -0.17,-0.378 -0.378,-0.378l-60.472,-0c-0.208,-0 -0.378,0.17 -0.378,0.378l-0,29.858c-0,0.378 0.378,0 -0,0l-59.717,0c-0.378,0 0,0.378 0,0l0,-29.858c0,-0.208 -0.17,-0.378 -0.378,-0.378l-60.472,-0c-0.208,-0 -0.378,0.17 -0.378,0.378l-0,29.858c-0,0.378 0.378,0 -0,0l-59.717,0c-0.378,0 0,0.378 0,0l0,-29.858c0,-0.208 -0.17,-0.378 -0.378,-0.378l-60.472,-0c-0.208,-0 -0.378,0.17 -0.378,0.378l0,29.858c0,0.378 0.378,0 0,0l-59.717,0c-0.377,0 0,0.378 0,0l0,-29.858c0,-0.208 -0.17,-0.378 -0.377,-0.378l-60.473,-0c-0.208,-0 -0.378,0.17 -0.378,0.378l0,29.858c0,0.378 0.378,0 0,0l-59.716,0c-0.378,0 -0,0.378 -0,0l-0,-29.858c-0,-0.208 -0.17,-0.378 -0.378,-0.378l-60.473,-0c-0.208,-0 -0.378,0.17 -0.378,0.378l0,29.858c0,0.378 0.378,0 0,0l-59.716,0c-0.378,0 -0,0.378 -0,0l-0,-29.858c-0,-0.208 -0.17,-0.378 -0.378,-0.378l-60.473,-0c-0.208,-0 -0.378,0.17 -0.378,0.378l0,29.858c0,0.378 0.378,0 0,0l-59.716,0c-0.378,0 -0,0.378 -0,0l-0,-29.858c-0,-0.208 -0.17,-0.378 -0.378,-0.378l-60.473,-0c-0.207,-0 -0.378,0.17 -0.378,0.378l0,29.858c0,0.378 0.378,0 0,0l-59.716,0c-0.378,0 -0,0.378 -0,0l-0,-29.858c-0,-0.208 -0.17,-0.378 -0.378,-0.378l-60.472,-0c-0.208,-0 -0.378,0.17 -0.378,0.378l-0,29.858c-0,0.378 0.378,0 -0,0l-120.567,0c-0.208,0 -0.378,0.17 -0.378,0.378l-0,85.04c-0,0.207 0.17,0.377 0.378,0.377l29.858,0c0.378,0 -0,-0.377 -0,0l-0,59.717c-0,0.378 0.378,-0 -0,-0l-29.858,-0c-0.208,-0 -0.378,0.17 -0.378,0.378l-0,60.472c-0,0.208 0.17,0.378 0.378,0.378l29.858,0c0.378,0 -0,-0.378 -0,0l-0,59.717c-0,0.378 0.378,-0 -0,-0l-29.858,-0c-0.208,-0 -0.378,0.17 -0.378,0.378l-0,60.472c-0,0.208 0.17,0.378 0.378,0.378l29.858,0c0.378,0 -0,-0.378 -0,0l-0,59.717c-0,0.378 0.378,-0 -0,-0l-29.858,-0c-0.208,-0 -0.378,0.17 -0.378,0.378l-0,115.275c-0,0.208 0.17,0.378 0.378,0.378l120.945,0c0.207,0 0.377,-0.17 0.377,-0.378l0,-29.858c0,-0.378 -0.377,0 0,0l59.717,0c0.378,0 0,-0.378 0,0l0,29.858c0,0.208 0.17,0.378 0.378,0.378l60.472,0c0.208,0 0.378,-0.17 0.378,-0.378l0,-29.858c0,-0.378 -0.378,0 0,0l59.717,0c0.378,0 -0,-0.378 -0,0l-0,29.858c-0,0.208 0.17,0.378 0.378,0.378l60.472,0c0.208,0 0.378,-0.17 0.378,-0.378l0,-29.858c0,-0.378 -0.378,0 0,0l59.717,0c0.378,0 -0,-0.378 -0,0l-0,29.858c-0,0.208 0.17,0.378 0.378,0.378l60.472,0c0.208,0 0.378,-0.17 0.378,-0.378l0,-29.858c0,-0.378 -0.378,0 0,0l59.717,0c0.378,0 -0,-0.378 -0,0l-0,29.858c-0,0.208 0.17,0.378 0.378,0.378l60.472,0c0.208,0 0.378,-0.17 0.378,-0.378l0,-29.858c0,-0.378 -0.378,0 0,0l59.717,0c0.378,0 -0,-0.378 -0,0l-0,29.858c-0,0.208 0.17,0.378 0.378,0.378l60.472,0c0.208,0 0.378,-0.17 0.378,-0.378l-0,-29.858c-0,-0.378 -0.378,0 -0,0l59.716,0c0.378,0 0,-0.378 0,0l0,29.858c0,0.208 0.171,0.378 0.378,0.378l60.473,0c0.208,0 0.378,-0.17 0.378,-0.378l-0,-29.858c-0,-0.378 -0.378,0 -0,0l59.716,0c0.378,0 0,-0.378 0,0l0,29.858c0,0.208 0.17,0.378 0.378,0.378l60.473,0c0.208,0 0.378,-0.17 0.378,-0.378l-0,-29.858c-0,-0.378 -0.378,0 -0,0l59.716,0c0.378,0 0,-0.378 0,0l0,29.858c0,0.208 0.17,0.378 0.378,0.378l60.473,0c0.207,0 0.378,-0.17 0.378,-0.378l-0,-29.858c-0,-0.378 -0.378,0 -0,0l59.716,0c0.378,0 0,-0.378 0,0l0,29.858c0,0.208 0.17,0.378 0.378,0.378l120.945,0c0.208,0 0.378,-0.17 0.378,-0.378l-0,-115.275c-0,-0.208 -0.17,-0.378 -0.378,-0.378l-29.858,-0c-0.378,-0 -0,0.378 -0,-0l-0,-59.717c-0,-0.378 -0.378,0 -0,0l29.858,0c0.208,0 0.378,-0.17 0.378,-0.378l-0,-60.472c-0,-0.208 -0.17,-0.378 -0.378,-0.378l-29.858,-0c-0.378,-0 -0,0.378 -0,-0l-0,-59.717c-0,-0.378 -0.378,0 -0,0l29.858,0c0.208,0 0.378,-0.17 0.378,-0.378l-0,-60.472c-0,-0.208 -0.17,-0.378 -0.378,-0.378l-29.858,-0c-0.378,-0 -0,0.378 -0,-0l-0,-59.717c-0,-0.377 -0.378,0 -0,0l29.858,0c0.208,0 0.378,-0.17 0.378,-0.377l-0,-85.04c-0,-0.208 -0.17,-0.378 -0.378,-0.378l-30.236,0" style="fill:none;fill-rule:nonzero;stroke:#000;stroke-width:3.15px;"/><path d="M1809.67,1385.76l97.889,0c0.378,0 0,-0.378 0,0l0,29.858c0,0.208 0.171,0.378 0.378,0.378l60.473,0c0.208,0 0.378,-0.17 0.378,-0.378l-0,-29.858c-0,-0.378 -0.378,0 -0,0l59.716,0c0.378,0 0,-0.378 0,0l0,29.858c0,0.208 0.17,0.378 0.378,0.378l60.473,0c0.208,0 0.378,-0.17 0.378,-0.378l-0,-29.858c-0,-0.378 -0.378,0 -0,0l97.889,0c0.208,0 0.378,-0.17 0.378,-0.378l0,-84.661c0,-0.378 -0.378,-0 0,-0l29.859,-0c0.208,-0 0.378,-0.17 0.378,-0.378l-0,-60.473c-0,-0.208 -0.17,-0.378 -0.378,-0.378l-29.859,0c-0.378,0 0,0.378 0,0l0,-59.716c0,-0.378 -0.378,-0 0,-0l29.859,-0c0.208,-0 0.378,-0.17 0.378,-0.378l-0,-60.473c-0,-0.207 -0.17,-0.378 -0.378,-0.378l-29.859,0c-0.378,0 0,0.378 0,0l0,-59.716c0,-0.378 -0.378,-0 0,-0l29.859,-0c0.208,-0 0.378,-0.17 0.378,-0.378l-0,-60.472c-0,-0.208 -0.17,-0.378 -0.378,-0.378l-29.859,-0c-0.378,-0 0,0.378 0,-0l0,-114.898c0,-0.208 -0.17,-0.378 -0.378,-0.378l-98.267,-0c-0.208,-0 -0.378,0.17 -0.378,0.378l-0,29.858c-0,0.378 0.378,0 -0,0l-59.717,0c-0.378,0 0,0.378 0,0l0,-29.858c0,-0.208 -0.17,-0.378 -0.378,-0.378l-60.472,-0c-0.208,-0 -0.378,0.17 -0.378,0.378l-0,29.858c-0,0.378 0.378,0 -0,0l-59.717,0c-0.378,0 0,0.378 0,0l0,-29.858c0,-0.208 -0.17,-0.378 -0.378,-0.378l-98.267,-0c-0.208,-0 -0.378,0.17 -0.378,0.378l-0,114.898c-0,0.378 0.378,-0 -0,-0l-29.858,-0c-0.208,-0 -0.378,0.17 -0.378,0.378l-0,60.472c-0,0.208 0.17,0.378 0.378,0.378l29.858,-0c0.378,-0 -0,-0.378 -0,-0l-0,59.716c-0,0.378 0.378,0 -0,0l-29.858,0c-0.208,0 -0.378,0.171 -0.378,0.378l-0,60.473c-0,0.208 0.17,0.378 0.378,0.378l29.858,-0c0.378,-0 -0,-0.378 -0,-0l-0,59.716c-0,0.378 0.378,0 -0,0l-29.858,0c-0.208,0 -0.378,0.17 -0.378,0.378l-0,60.473c-0,0.208 0.17,0.378 0.378,0.378l29.858,-0c0.378,-0 -0,-0.378 -0,-0l-0,84.661c-0,0.208 0.17,0.378 0.378,0.378" style="fill:none;fill-rule:nonzero;stroke:#000;stroke-width:3.15px;"/><path d="M1714.39,1480.24l-90.331,0c-0.378,0 -0,0.378 -0,0l-0,-29.858c-0,-0.208 -0.17,-0.378 -0.378,-0.378l-60.472,0c-0.208,0 -0.378,0.17 -0.378,0.378l-0,29.858c-0,0.378 0.378,0 -0,0l-59.717,0c-0.378,0 0,0.378 0,0l0,-29.858c0,-0.208 -0.17,-0.378 -0.378,-0.378l-60.472,0c-0.208,0 -0.378,0.17 -0.378,0.378l-0,29.858c-0,0.378 0.378,0 -0,0l-59.717,0c-0.378,0 0,0.378 0,0l0,-29.858c0,-0.208 -0.17,-0.378 -0.378,-0.378l-60.472,0c-0.208,0 -0.378,0.17 -0.378,0.378l-0,29.858c-0,0.378 0.378,0 -0,0l-59.717,0c-0.378,0 0,0.378 0,0l0,-29.858c0,-0.208 -0.17,-0.378 -0.378,-0.378l-60.472,0c-0.208,0 -0.378,0.17 -0.378,0.378l0,29.858c0,0.378 0.378,0 0,0l-59.717,0c-0.377,0 0,0.378 0,0l0,-29.858c0,-0.208 -0.17,-0.378 -0.377,-0.378l-60.473,0c-0.208,0 -0.378,0.17 -0.378,0.378l0,29.858c0,0.378 0.378,0 0,0l-59.716,0c-0.378,0 -0,0.378 -0,0l-0,-29.858c-0,-0.208 -0.17,-0.378 -0.378,-0.378l-60.473,0c-0.208,0 -0.378,0.17 -0.378,0.378l0,29.858c0,0.378 0.378,0 0,0l-59.716,0c-0.378,0 -0,0.378 -0,0l-0,-29.858c-0,-0.208 -0.17,-0.378 -0.378,-0.378l-60.473,0c-0.208,0 -0.378,0.17 -0.378,0.378l0,29.858c0,0.378 0.378,0 0,0l-59.716,0c-0.378,0 -0,0.378 -0,0l-0,-29.858c-0,-0.208 -0.17,-0.378 -0.378,-0.378l-60.473,0c-0.207,0 -0.378,0.17 -0.378,0.378l0,29.858c0,0.378 0.378,0 0,0l-59.716,0c-0.378,0 -0,0.378 -0,0l-0,-29.858c-0,-0.208 -0.17,-0.378 -0.378,-0.378l-60.472,0c-0.208,0 -0.378,0.17 -0.378,0.378l-0,29.858c-0,0.378 0.378,0 -0,0l-120.567,0c-0.208,0 -0.378,0.17 -0.378,0.378l-0,85.04c-0,0.207 0.17,0.378 0.378,0.378l29.858,-0c0.378,-0 -0,-0.378 -0,-0l-0,59.716c-0,0.378 0.378,0 -0,0l-29.858,0c-0.208,0 -0.378,0.17 -0.378,0.378l-0,60.472c-0,0.208 0.17,0.378 0.378,0.378l29.858,0c0.378,0 -0,-0.378 -0,0l-0,59.717c-0,0.378 0.378,-0 -0,-0l-29.858,-0c-0.208,-0 -0.378,0.17 -0.378,0.378l-0,60.472c-0,0.208 0.17,0.378 0.378,0.378l29.858,0c0.378,0 -0,-0.378 -0,0l-0,59.717c-0,0.378 0.378,-0 -0,-0l-29.858,-0c-0.208,-0 -0.378,0.17 -0.378,0.378l-0,115.275c-0,0.208 0.17,0.378 0.378,0.378l120.945,0c0.207,0 0.377,-0.17 0.377,-0.378l0,-29.858c0,-0.378 -0.377,0 0,0l59.717,0c0.378,0 0,-0.378 0,0l0,29.858c0,0.208 0.17,0.378 0.378,0.378l60.472,0c0.208,0 0.378,-0.17 0.378,-0.378l0,-29.858c0,-0.378 -0.378,0 0,0l59.717,0c0.378,0 -0,-0.378 -0,0l-0,29.858c-0,0.208 0.17,0.378 0.378,0.378l60.472,0c0.208,0 0.378,-0.17 0.378,-0.378l0,-29.858c0,-0.378 -0.378,0 0,0l59.717,0c0.378,0 -0,-0.378 -0,0l-0,29.858c-0,0.208 0.17,0.378 0.378,0.378l60.472,0c0.208,0 0.378,-0.17 0.378,-0.378l0,-29.858c0,-0.378 -0.378,0 0,0l59.717,0c0.378,0 -0,-0.378 -0,0l-0,29.858c-0,0.208 0.17,0.378 0.378,0.378l60.472,0c0.208,0 0.378,-0.17 0.378,-0.378l0,-29.858c0,-0.378 -0.378,0 0,0l59.717,0c0.378,0 -0,-0.378 -0,0l-0,29.858c-0,0.208 0.17,0.378 0.378,0.378l60.472,0c0.208,0 0.378,-0.17 0.378,-0.378l-0,-29.858c-0,-0.378 -0.378,0 -0,0l59.716,0c0.378,0 0,-0.378 0,0l0,29.858c0,0.208 0.171,0.378 0.378,0.378l60.473,0c0.208,0 0.378,-0.17 0.378,-0.378l-0,-29.858c-0,-0.378 -0.378,0 -0,0l59.716,0c0.378,0 0,-0.378 0,0l0,29.858c0,0.208 0.17,0.378 0.378,0.378l60.473,0c0.208,0 0.378,-0.17 0.378,-0.378l-0,-29.858c-0,-0.378 -0.378,0 -0,0l59.716,0c0.378,0 0,-0.378 0,0l0,29.858c0,0.208 0.17,0.378 0.378,0.378l60.473,0c0.207,0 0.378,-0.17 0.378,-0.378l-0,-29.858c-0,-0.378 -0.378,0 -0,0l59.716,0c0.378,0 0,-0.378 0,0l0,29.858c0,0.208 0.17,0.378 0.378,0.378l120.945,0c0.208,0 0.378,-0.17 0.378,-0.378l-0,-115.275c-0,-0.208 -0.17,-0.378 -0.378,-0.378l-29.858,-0c-0.378,-0 -0,0.378 -0,-0l-0,-59.717c-0,-0.378 -0.378,0 -0,0l29.858,0c0.208,0 0.378,-0.17 0.378,-0.378l-0,-60.472c-0,-0.208 -0.17,-0.378 -0.378,-0.378l-29.858,-0c-0.378,-0 -0,0.378 -0,-0l-0,-59.717c-0,-0.378 -0.378,0 -0,0l29.858,0c0.208,0 0.378,-0.17 0.378,-0.378l-0,-60.472c-0,-0.208 -0.17,-0.378 -0.378,-0.378l-29.858,0c-0.378,0 -0,0.378 -0,0l-0,-59.716c-0,-0.378 -0.378,-0 -0,-0l29.858,-0c0.208,-0 0.378,-0.171 0.378,-0.378l-0,-85.04c-0,-0.208 -0.17,-0.378 -0.378,-0.378l-30.236,0" style="fill:none;fill-rule:nonzero;stroke:#000;stroke-width:3.15px;"/><path d="M1809.67,1953.44l97.889,0c0.378,0 0,-0.378 0,0l0,29.858c0,0.208 0.171,0.378 0.378,0.378l60.473,0c0.208,0 0.378,-0.17 0.378,-0.378l-0,-29.858c-0,-0.378 -0.378,0 -0,0l59.716,0c0.378,0 0,-0.378 0,0l0,29.858c0,0.208 0.17,0.378 0.378,0.378l60.473,0c0.208,0 0.378,-0.17 0.378,-0.378l-0,-29.858c-0,-0.378 -0.378,0 -0,0l97.889,0c0.208,0 0.378,-0.17 0.378,-0.378l0,-84.661c0,-0.378 -0.378,-0 0,-0l29.859,-0c0.208,-0 0.378,-0.17 0.378,-0.378l-0,-60.473c-0,-0.208 -0.17,-0.378 -0.378,-0.378l-29.859,0c-0.378,0 0,0.378 0,0l0,-59.716c0,-0.378 -0.378,-0 0,-0l29.859,-0c0.208,-0 0.378,-0.17 0.378,-0.378l-0,-60.473c-0,-0.207 -0.17,-0.378 -0.378,-0.378l-29.859,0c-0.378,0 0,0.378 0,0l0,-59.716c0,-0.378 -0.378,-0 0,-0l29.859,-0c0.208,-0 0.378,-0.17 0.378,-0.378l-0,-60.472c-0,-0.208 -0.17,-0.378 -0.378,-0.378l-29.859,-0c-0.378,-0 0,0.378 0,-0l0,-114.898c0,-0.208 -0.17,-0.378 -0.378,-0.378l-98.267,0c-0.208,0 -0.378,0.17 -0.378,0.378l-0,29.858c-0,0.378 0.378,0 -0,0l-59.717,0c-0.378,0 0,0.378 0,0l0,-29.858c0,-0.208 -0.17,-0.378 -0.378,-0.378l-60.472,0c-0.208,0 -0.378,0.17 -0.378,0.378l-0,29.858c-0,0.378 0.378,0 -0,0l-59.717,0c-0.378,0 0,0.378 0,0l0,-29.858c0,-0.208 -0.17,-0.378 -0.378,-0.378l-98.267,0c-0.208,0 -0.378,0.17 -0.378,0.378l-0,114.898c-0,0.378 0.378,-0 -0,-0l-29.858,-0c-0.208,-0 -0.378,0.17 -0.378,0.378l-0,60.472c-0,0.208 0.17,0.378 0.378,0.378l29.858,-0c0.378,-0 -0,-0.378 -0,-0l-0,59.716c-0,0.378 0.378,0 -0,0l-29.858,0c-0.208,0 -0.378,0.171 -0.378,0.378l-0,60.473c-0,0.208 0.17,0.378 0.378,0.378l29.858,-0c0.378,-0 -0,-0.378 -0,-0l-0,59.716c-0,0.378 0.378,0 -0,0l-29.858,0c-0.208,0 -0.378,0.17 -0.378,0.378l-0,60.473c-0,0.208 0.17,0.378 0.378,0.378l29.858,-0c0.378,-0 -0,-0.378 -0,-0l-0,84.661c-0,0.208 0.17,0.378 0.378,0.378" style="fill:none;fill-rule:nonzero;stroke:#000;stroke-width:3.15px;"/></g><g id="Cutouts"><circle cx="736.063" cy="1145.64" r="179.528" style="fill:none;stroke:#000;stroke-width:3.2px;stroke-miterlimit:1.5;"/><circle cx="582.423" cy="995.517" r="9.449" style="fill:none;stroke:#000;stroke-width:3.2px;stroke-miterlimit:1.5;"/><circle cx="582.423" cy="1302.8" r="9.449" style="fill:none;stroke:#000;stroke-width:3.2px;stroke-miterlimit:1.5;"/><circle cx="889.703" cy="1302.8" r="9.449" style="fill:none;stroke:#000;stroke-width:3.2px;stroke-miterlimit:1.5;"/><circle cx="889.703" cy="995.517" r="9.449" style="fill:none;stroke:#000;stroke-width:3.2px;stroke-miterlimit:1.5;"/><circle cx="1482.9" cy="1149.16" r="179.528" style="fill:none;stroke:#000;stroke-width:3.2px;stroke-miterlimit:1.5;"/><circle cx="1329.26" cy="995.517" r="9.449" style="fill:none;stroke:#000;stroke-width:3.2px;stroke-miterlimit:1.5;"/><circle cx="1329.26" cy="1302.8" r="9.449" style="fill:none;stroke:#000;stroke-width:3.2px;stroke-miterlimit:1.5;"/><circle cx="1636.54" cy="1302.8" r="9.449" style="fill:none;stroke:#000;stroke-width:3.2px;stroke-miterlimit:1.5;"/><circle cx="1636.54" cy="995.517" r="9.449" style="fill:none;stroke:#000;stroke-width:3.2px;stroke-miterlimit:1.5;"/><circle cx="967.686" cy="979.079" r="5.669" style="fill:none;stroke:#000;stroke-width:3.2px;stroke-miterlimit:1.5;"/><circle cx="1251.15" cy="979.079" r="5.669" style="fill:none;stroke:#000;stroke-width:3.2px;stroke-miterlimit:1.5;"/><circle cx="1251.15" cy="1096.24" r="5.669" style="fill:none;stroke:#000;stroke-width:3.2px;stroke-miterlimit:1.5;"/><circle cx="967.686" cy="1096.24" r="5.669" style="fill:none;stroke:#000;stroke-width:3.2px;stroke-miterlimit:1.5;"/><rect x="974.3" y="991.362" width="270.236" height="92.598" style="fill:none;stroke:#000;stroke-width:3.2px;stroke-miterlimit:1.5;"/><circle cx="1108.94" cy="1217.19" r="13.228" style="fill:none;stroke:#000;stroke-width:3.2px;stroke-miterlimit:1.5;"/><circle cx="1219.28" cy="1550.07" r="4.724" style="fill:none;stroke:#000;stroke-width:3.2px;stroke-miterlimit:1.5;"/><circle cx="1219.28" cy="1637" r="4.724" style="fill:none;stroke:#000;stroke-width:3.2px;stroke-miterlimit:1.5;"/><circle cx="1000.06" cy="1637" r="4.724" style="fill:none;stroke:#000;stroke-width:3.2px;stroke-miterlimit:1.5;"/><circle cx="1000.06" cy="1550.07" r="4.724" style="fill:none;stroke:#000;stroke-width:3.2px;stroke-miterlimit:1.5;"/><circle cx="2395.47" cy="589.852" r="13.228" style="fill:none;stroke:#000;stroke-width:3.2px;stroke-miterlimit:1.5;"/><circle cx="2508.85" cy="591.991" r="13.228" style="fill:none;stroke:#000;stroke-width:3.2px;stroke-miterlimit:1.5;"/><circle cx="2826.36" cy="591.991" r="11.339" style="fill:none;stroke:#000;stroke-width:3.2px;stroke-miterlimit:1.5;"/><path d="M1120.14,1873.23c6.171,3.602 10.319,10.297 10.319,17.953c-0,7.656 -4.148,14.351 -10.319,17.953l-20.937,-0c-6.171,-3.602 -10.319,-10.297 -10.319,-17.953c-0,-7.656 4.148,-14.351 10.319,-17.953l20.937,0Z" style="fill:none;stroke:#000;stroke-width:3.2px;stroke-miterlimit:1.5;"/></g></svg>