<?xml version="1.0" encoding="UTF-8" standalone="no"?><!DOCTYPE svg PUBLIC "-//W3C//DTD SVG 1.1//EN" "http://www.w3.org/Graphics/SVG/1.1/DTD/svg11.dtd"><svg width="100%" height="100%" viewBox="0 0 3179 2246" version="1.1" xmlns="http://www.w3.org/2000/svg" xmlns:xlink="http://www.w3.org/1999/xlink" xml:space="preserve" xmlns:serif="http://www.serif.com/" style="fill-rule:evenodd;clip-rule:evenodd;stroke-linecap:round;stroke-linejoin:round;"><g id="_6mm" serif:id="6mm"><path d="M1975.48,802.365l-44.598,-0c-0.378,-0 -0,0.378 -0,-0l-0,-21.921c-0,-0.378 -0.378,-0 -0,-0l44.598,-0c0.378,-0 0,-0.378 0,-0l0,21.921c0,0.378 0.378,-0 0,-0Z" style="fill:none;fill-rule:nonzero;stroke:#00f;stroke-width:3.15px;"/><path d="M2066.18,802.365l-44.599,-0c-0.378,-0 0,0.378 0,-0l0,-21.921c0,-0.378 -0.378,-0 0,-0l44.599,-0c0.378,-0 -0,-0.378 -0,-0l-0,21.921c-0,0.378 0.378,-0 -0,-0Z" style="fill:none;fill-rule:nonzero;stroke:#00f;stroke-width:3.15px;"/><path d="M2156.89,802.365l-44.598,-0c-0.378,-0 -0,0.378 -0,-0l-0,-21.921c-0,-0.378 -0.378,-0 -0,-0l44.598,-0c0.378,-0 0,-0.378 0,-0l0,21.921c0,0.378 0.378,-0 0,-0Z" style="fill:none;fill-rule:nonzero;stroke:#00f;stroke-width:3.15px;"/><path d="M2247.6,802.365l-44.598,-0c-0.378,-0 -0,0.378 -0,-0l-0,-21.921c-0,-0.378 -0.378,-0 -0,-0l44.598,-0c0.378,-0 0,-0.378 0,-0l0,21.921c0,0.378 0.378,-0 0,-0Z" style="fill:none;fill-rule:nonzero;stroke:#00f;stroke-width:3.15px;"/><path d="M2338.31,802.365l-44.599,-0c-0.378,-0 0,0.378 0,-0l0,-21.921c0,-0.378 -0.378,-0 0,-0l44.599,-0c0.378,-0 -0,-0.378 -0,-0l-0,21.921c-0,0.378 0.378,-0 -0,-0Z" style="fill:none;fill-rule:nonzero;stroke:#00f;stroke-width:3.15px;"/><path d="M2429.02,802.365l-44.598,-0c-0.378,-0 -0,0.378 -0,-0l-0,-21.921c-0,-0.378 -0.378,-0 -0,-0l44.598,-0c0.378,-0 0,-0.378 0,-0l0,21.921c0,0.378 0.378,-0 0,-0Z" style="fill:none;fill-rule:nonzero;stroke:#00f;stroke-width:3.15px;"/><path d="M2519.73,802.365l-44.598,-0c-0.378,-0 -0,0.378 -0,-0l-0,-21.921c-0,-0.378 -0.378,-0 -0,-0l44.598,-0c0.378,-0 0,-0.378 0,-0l0,21.921c0,0.378 0.378,-0 0,-0Z" style="fill:none;fill-rule:nonzero;stroke:#00f;stroke-width:3.15px;"/><path d="M2610.44,802.365l-44.599,-0c-0.378,-0 0,0.378 0,-0l0,-21.921c0,-0.378 -0.378,-0 0,-0l44.599,-0c0.378,-0 -0,-0.378 -0,-0l-0,21.921c-0,0.378 0.378,-0 -0,-0Z" style="fill:none;fill-rule:nonzero;stroke:#00f;stroke-width:3.15px;"/><path d="M2701.14,802.365l-44.598,-0c-0.378,-0 -0,0.378 -0,-0l-0,-21.921c-0,-0.378 -0.378,-0 -0,-0l44.598,-0c0.378,-0 0,-0.378 0,-0l0,21.921c0,0.378 0.378,-0 0,-0Z" style="fill:none;fill-rule:nonzero;stroke:#00f;stroke-width:3.15px;"/><path d="M2791.85,802.365l-44.598,-0c-0.378,-0 -0,0.378 -0,-0l-0,-21.921c-0,-0.378 -0.378,-0 -0,-0l44.598,-0c0.378,-0 0,-0.378 0,-0l0,21.921c0,0.378 0.378,-0 0,-0Z" style="fill:none;fill-rule:nonzero;stroke:#00f;stroke-width:3.15px;"/><path d="M2882.56,802.365l-44.599,-0c-0.378,-0 0,0.378 0,-0l0,-21.921c0,-0.378 -0.378,-0 0,-0l44.599,-0c0.378,-0 -0,-0.378 -0,-0l-0,21.921c-0,0.378 0.378,-0 -0,-0Z" style="fill:none;fill-rule:nonzero;stroke:#00f;stroke-width:3.15px;"/><path d="M2973.27,802.365l-44.598,-0c-0.378,-0 -0,0.378 -0,-0l-0,-21.921c-0,-0.378 -0.378,-0 -0,-0l44.598,-0c0.378,-0 0,-0.378 0,-0l0,21.921c0,0.378 0.378,-0 0,-0Z" style="fill:none;fill-rule:nonzero;stroke:#00f;stroke-width:3.15px;"/><path d="M1847.35,825.798l1254.8,0c0.208,0 0.378,-0.17 0.378,-0.378l0,-468.661c0,-0.208 -0.17,-0.378 -0.378,-0.378l-1300.16,-0c-0.208,-0 -0.378,0.17 -0.378,0.378l-0,468.661c-0,0.208 0.17,0.378 0.378,0.378l45.354,0" style="fill:none;fill-rule:nonzero;stroke:#000;stroke-width:3.15px;"/><path d="M3079.1,659.499l0,44.598c0,0.378 0.378,0 0,0l-21.921,0c-0.378,0 -0,0.378 -0,0l-0,-44.598c-0,-0.378 -0.378,-0 -0,-0l21.921,-0c0.378,-0 0,-0.378 0,-0Z" style="fill:none;fill-rule:nonzero;stroke:#00f;stroke-width:3.15px;"/><path d="M3079.1,568.79l0,44.599c0,0.378 0.378,-0 0,-0l-21.921,-0c-0.378,-0 -0,0.378 -0,-0l-0,-44.599c-0,-0.378 -0.378,0 -0,0l21.921,0c0.378,0 0,-0.378 0,0Z" style="fill:none;fill-rule:nonzero;stroke:#00f;stroke-width:3.15px;"/><path d="M3079.1,478.081l0,44.599c0,0.378 0.378,-0 0,-0l-21.921,-0c-0.378,-0 -0,0.378 -0,-0l-0,-44.599c-0,-0.377 -0.378,0 -0,0l21.921,0c0.378,0 0,-0.377 0,0Z" style="fill:none;fill-rule:nonzero;stroke:#00f;stroke-width:3.15px;"/><path d="M2928.67,379.814l44.598,-0c0.378,-0 0,-0.378 0,-0l0,21.921c0,0.378 0.378,0 0,0l-44.598,0c-0.378,0 -0,0.378 -0,0l-0,-21.921c-0,-0.378 -0.378,-0 -0,-0Z" style="fill:none;fill-rule:nonzero;stroke:#00f;stroke-width:3.15px;"/><path d="M2837.96,379.814l44.599,-0c0.378,-0 -0,-0.378 -0,-0l-0,21.921c-0,0.378 0.378,0 -0,0l-44.599,0c-0.378,0 0,0.378 0,0l0,-21.921c0,-0.378 -0.378,-0 0,-0Z" style="fill:none;fill-rule:nonzero;stroke:#00f;stroke-width:3.15px;"/><path d="M2747.26,379.814l44.598,-0c0.378,-0 0,-0.378 0,-0l0,21.921c0,0.378 0.378,0 0,0l-44.598,0c-0.378,0 -0,0.378 -0,0l-0,-21.921c-0,-0.378 -0.378,-0 -0,-0Z" style="fill:none;fill-rule:nonzero;stroke:#00f;stroke-width:3.15px;"/><path d="M2656.55,379.814l44.598,-0c0.378,-0 0,-0.378 0,-0l0,21.921c0,0.378 0.378,0 0,0l-44.598,0c-0.378,0 -0,0.378 -0,0l-0,-21.921c-0,-0.378 -0.378,-0 -0,-0Z" style="fill:none;fill-rule:nonzero;stroke:#00f;stroke-width:3.15px;"/><path d="M2565.84,379.814l44.599,-0c0.378,-0 -0,-0.378 -0,-0l-0,21.921c-0,0.378 0.378,0 -0,0l-44.599,0c-0.378,0 0,0.378 0,0l0,-21.921c0,-0.378 -0.378,-0 0,-0Z" style="fill:none;fill-rule:nonzero;stroke:#00f;stroke-width:3.15px;"/><path d="M2475.13,379.814l44.598,-0c0.378,-0 0,-0.378 0,-0l0,21.921c0,0.378 0.378,0 0,0l-44.598,0c-0.378,0 -0,0.378 -0,0l-0,-21.921c-0,-0.378 -0.378,-0 -0,-0Z" style="fill:none;fill-rule:nonzero;stroke:#00f;stroke-width:3.15px;"/><path d="M2384.42,379.814l44.598,-0c0.378,-0 0,-0.378 0,-0l0,21.921c0,0.378 0.378,0 0,0l-44.598,0c-0.378,0 -0,0.378 -0,0l-0,-21.921c-0,-0.378 -0.378,-0 -0,-0Z" style="fill:none;fill-rule:nonzero;stroke:#00f;stroke-width:3.15px;"/><path d="M2293.71,379.814l44.599,-0c0.378,-0 -0,-0.378 -0,-0l-0,21.921c-0,0.378 0.378,0 -0,0l-44.599,0c-0.378,0 0,0.378 0,0l0,-21.921c0,-0.378 -0.378,-0 0,-0Z" style="fill:none;fill-rule:nonzero;stroke:#00f;stroke-width:3.15px;"/><path d="M2203,379.814l44.598,-0c0.378,-0 0,-0.378 0,-0l0,21.921c0,0.378 0.378,0 0,0l-44.598,0c-0.378,0 -0,0.378 -0,0l-0,-21.921c-0,-0.378 -0.378,-0 -0,-0Z" style="fill:none;fill-rule:nonzero;stroke:#00f;stroke-width:3.15px;"/><path d="M2112.29,379.814l44.598,-0c0.378,-0 0,-0.378 0,-0l0,21.921c0,0.378 0.378,0 0,0l-44.598,0c-0.378,0 -0,0.378 -0,0l-0,-21.921c-0,-0.378 -0.378,-0 -0,-0Z" style="fill:none;fill-rule:nonzero;stroke:#00f;stroke-width:3.15px;"/><path d="M2021.59,379.814l44.599,-0c0.378,-0 -0,-0.378 -0,-0l-0,21.921c-0,0.378 0.378,0 -0,0l-44.599,0c-0.378,0 0,0.378 0,0l0,-21.921c0,-0.378 -0.378,-0 0,-0Z" style="fill:none;fill-rule:nonzero;stroke:#00f;stroke-width:3.15px;"/><path d="M1930.88,379.814l44.598,-0c0.378,-0 0,-0.378 0,-0l0,21.921c0,0.378 0.378,0 0,0l-44.598,0c-0.378,0 -0,0.378 -0,0l-0,-21.921c-0,-0.378 -0.378,-0 -0,-0Z" style="fill:none;fill-rule:nonzero;stroke:#00f;stroke-width:3.15px;"/><path d="M1825.05,522.68l-0,-44.599c-0,-0.377 -0.378,0 -0,0l21.921,0c0.378,0 0,-0.377 0,0l0,44.599c0,0.378 0.378,-0 0,-0l-21.921,-0c-0.378,-0 -0,0.378 -0,-0Z" style="fill:none;fill-rule:nonzero;stroke:#00f;stroke-width:3.15px;"/><path d="M1825.05,613.389l-0,-44.599c-0,-0.378 -0.378,0 -0,0l21.921,0c0.378,0 0,-0.378 0,0l0,44.599c0,0.378 0.378,-0 0,-0l-21.921,-0c-0.378,-0 -0,0.378 -0,-0Z" style="fill:none;fill-rule:nonzero;stroke:#00f;stroke-width:3.15px;"/><path d="M1825.05,704.097l-0,-44.598c-0,-0.378 -0.378,-0 -0,-0l21.921,-0c0.378,-0 0,-0.378 0,-0l0,44.598c0,0.378 0.378,0 0,0l-21.921,0c-0.378,0 -0,0.378 -0,0Z" style="fill:none;fill-rule:nonzero;stroke:#00f;stroke-width:3.15px;"/><path d="M504.945,818.071l82.772,-0c0.377,-0 -0,-0.378 -0,-0l-0,22.299c-0,0.208 0.17,0.378 0.377,0.378l45.355,0c0.208,0 0.378,-0.17 0.378,-0.378l-0,-22.299c-0,-0.378 -0.378,-0 -0,-0l44.598,-0c0.378,-0 0,-0.378 0,-0l0,22.299c0,0.208 0.17,0.378 0.378,0.378l45.354,0c0.208,0 0.378,-0.17 0.378,-0.378l0,-22.299c0,-0.378 -0.378,-0 0,-0l44.599,-0c0.378,-0 -0,-0.378 -0,-0l-0,22.299c-0,0.208 0.17,0.378 0.378,0.378l45.354,0c0.208,0 0.378,-0.17 0.378,-0.378l0,-22.299c0,-0.378 -0.378,-0 0,-0l44.599,-0c0.377,-0 -0,-0.378 -0,-0l-0,22.299c-0,0.208 0.17,0.378 0.377,0.378l45.355,0c0.208,0 0.378,-0.17 0.378,-0.378l-0,-22.299c-0,-0.378 -0.378,-0 -0,-0l44.598,-0c0.378,-0 0,-0.378 0,-0l0,22.299c0,0.208 0.17,0.378 0.378,0.378l45.354,0c0.208,0 0.378,-0.17 0.378,-0.378l0,-22.299c0,-0.378 -0.378,-0 0,-0l44.599,-0c0.378,-0 -0,-0.378 -0,-0l-0,22.299c-0,0.208 0.17,0.378 0.378,0.378l45.354,0c0.208,0 0.378,-0.17 0.378,-0.378l0,-22.299c0,-0.378 -0.378,-0 0,-0l44.599,-0c0.377,-0 -0,-0.378 -0,-0l-0,22.299c-0,0.208 0.17,0.378 0.377,0.378l45.355,0c0.208,0 0.378,-0.17 0.378,-0.378l-0,-22.299c-0,-0.378 -0.378,-0 -0,-0l44.598,-0c0.378,-0 0,-0.378 0,-0l0,22.299c0,0.208 0.17,0.378 0.378,0.378l45.354,0c0.208,0 0.378,-0.17 0.378,-0.378l0,-22.299c0,-0.378 -0.378,-0 0,-0l44.599,-0c0.378,-0 -0,-0.378 -0,-0l-0,22.299c-0,0.208 0.17,0.378 0.378,0.378l45.354,0c0.208,0 0.378,-0.17 0.378,-0.378l0,-22.299c0,-0.378 -0.378,-0 0,-0l44.598,-0c0.378,-0 0,-0.378 0,-0l0,22.299c0,0.208 0.171,0.378 0.378,0.378l45.355,0c0.208,0 0.378,-0.17 0.378,-0.378l-0,-22.299c-0,-0.378 -0.378,-0 -0,-0l44.598,-0c0.378,-0 0,-0.378 0,-0l0,22.299c0,0.208 0.17,0.378 0.378,0.378l45.354,0c0.208,0 0.378,-0.17 0.378,-0.378l0,-22.299c0,-0.378 -0.378,-0 0,-0l44.599,-0c0.378,-0 -0,-0.378 -0,-0l-0,22.299c-0,0.208 0.17,0.378 0.378,0.378l45.354,0c0.208,0 0.378,-0.17 0.378,-0.378l0,-22.299c0,-0.378 -0.378,-0 0,-0l82.772,-0c0.208,-0 0.378,-0.17 0.378,-0.378l-0,-75.213c-0,-0.378 -0.378,0 -0,0l22.299,0c0.208,0 0.378,-0.17 0.378,-0.378l-0,-45.354c-0,-0.208 -0.17,-0.378 -0.378,-0.378l-22.299,0c-0.378,0 -0,0.378 -0,0l-0,-44.598c-0,-0.378 -0.378,-0 -0,-0l22.299,-0c0.208,-0 0.378,-0.17 0.378,-0.378l-0,-45.354c-0,-0.208 -0.17,-0.378 -0.378,-0.378l-22.299,-0c-0.378,-0 -0,0.378 -0,-0l-0,-44.599c-0,-0.378 -0.378,0 -0,0l22.299,0c0.208,0 0.378,-0.17 0.378,-0.378l-0,-45.354c-0,-0.208 -0.17,-0.378 -0.378,-0.378l-22.299,-0c-0.378,-0 -0,0.378 -0,-0l-0,-75.213c-0,-0.208 -0.17,-0.378 -0.378,-0.378l-82.772,0c-0.378,0 0,0.378 0,0l0,-22.299c0,-0.208 -0.17,-0.378 -0.378,-0.378l-45.354,0c-0.208,0 -0.378,0.17 -0.378,0.378l-0,22.299c-0,0.378 0.378,0 -0,0l-44.599,0c-0.378,0 0,0.378 0,0l0,-22.299c0,-0.208 -0.17,-0.378 -0.378,-0.378l-45.354,0c-0.208,0 -0.378,0.17 -0.378,0.378l0,22.299c0,0.378 0.378,0 0,0l-44.598,0c-0.378,0 -0,0.378 -0,0l-0,-22.299c-0,-0.208 -0.17,-0.378 -0.378,-0.378l-45.355,0c-0.207,0 -0.378,0.17 -0.378,0.378l0,22.299c0,0.378 0.378,0 0,0l-44.598,0c-0.378,0 0,0.378 0,0l0,-22.299c0,-0.208 -0.17,-0.378 -0.378,-0.378l-45.354,0c-0.208,0 -0.378,0.17 -0.378,0.378l-0,22.299c-0,0.378 0.378,0 -0,0l-44.599,0c-0.378,0 0,0.378 0,0l0,-22.299c0,-0.208 -0.17,-0.378 -0.378,-0.378l-45.354,0c-0.208,0 -0.378,0.17 -0.378,0.378l0,22.299c0,0.378 0.378,0 0,0l-44.598,0c-0.378,0 -0,0.378 -0,0l-0,-22.299c-0,-0.208 -0.17,-0.378 -0.378,-0.378l-45.355,0c-0.207,0 -0.377,0.17 -0.377,0.378l-0,22.299c-0,0.378 0.377,0 -0,0l-44.599,0c-0.378,0 0,0.378 0,0l0,-22.299c0,-0.208 -0.17,-0.378 -0.378,-0.378l-45.354,0c-0.208,0 -0.378,0.17 -0.378,0.378l-0,22.299c-0,0.378 0.378,0 -0,0l-44.599,0c-0.378,0 0,0.378 0,0l0,-22.299c0,-0.208 -0.17,-0.378 -0.378,-0.378l-45.354,0c-0.208,0 -0.378,0.17 -0.378,0.378l0,22.299c0,0.378 0.378,0 0,0l-44.598,0c-0.378,0 -0,0.378 -0,0l-0,-22.299c-0,-0.208 -0.17,-0.378 -0.378,-0.378l-45.355,0c-0.207,0 -0.377,0.17 -0.377,0.378l-0,22.299c-0,0.378 0.377,0 -0,0l-44.599,0c-0.378,0 0,0.378 0,0l0,-22.299c0,-0.208 -0.17,-0.378 -0.378,-0.378l-45.354,0c-0.208,0 -0.378,0.17 -0.378,0.378l-0,22.299c-0,0.378 0.378,0 -0,0l-44.599,0c-0.378,0 0,0.378 0,0l0,-22.299c0,-0.208 -0.17,-0.378 -0.378,-0.378l-45.354,0c-0.208,0 -0.378,0.17 -0.378,0.378l0,22.299c0,0.378 0.378,0 0,0l-44.598,0c-0.378,0 -0,0.378 -0,0l-0,-22.299c-0,-0.208 -0.17,-0.378 -0.378,-0.378l-45.355,0c-0.207,0 -0.377,0.17 -0.377,0.378l-0,22.299c-0,0.378 0.377,0 -0,0l-82.772,0c-0.208,0 -0.378,0.17 -0.378,0.378l-0,75.213c-0,0.378 0.378,-0 -0,-0l-22.299,-0c-0.208,-0 -0.378,0.17 -0.378,0.378l-0,45.354c-0,0.208 0.17,0.378 0.378,0.378l22.299,0c0.378,0 -0,-0.378 -0,0l-0,44.599c-0,0.378 0.378,-0 -0,-0l-22.299,-0c-0.208,-0 -0.378,0.17 -0.378,0.378l-0,45.354c-0,0.208 0.17,0.378 0.378,0.378l22.299,-0c0.378,-0 -0,-0.378 -0,-0l-0,44.598c-0,0.378 0.378,0 -0,0l-22.299,0c-0.208,0 -0.378,0.17 -0.378,0.378l-0,45.354c-0,0.208 0.17,0.378 0.378,0.378l22.299,0c0.378,0 -0,-0.378 -0,0l-0,75.213c-0,0.208 0.17,0.378 0.378,0.378" style="fill:none;fill-rule:nonzero;stroke:#000;stroke-width:3.15px;"/><path d="M1714.39,912.559l-82.772,0c-0.378,0 0,0.378 0,0l0,-22.299c0,-0.208 -0.17,-0.378 -0.378,-0.378l-45.354,0c-0.208,0 -0.378,0.17 -0.378,0.378l-0,22.299c-0,0.378 0.378,0 -0,0l-44.599,0c-0.378,0 0,0.378 0,0l0,-22.299c0,-0.208 -0.17,-0.378 -0.378,-0.378l-45.354,0c-0.208,0 -0.378,0.17 -0.378,0.378l0,22.299c0,0.378 0.378,0 0,0l-44.598,0c-0.378,0 -0,0.378 -0,0l-0,-22.299c-0,-0.208 -0.17,-0.378 -0.378,-0.378l-45.355,0c-0.207,0 -0.378,0.17 -0.378,0.378l0,22.299c0,0.378 0.378,0 0,0l-44.598,0c-0.378,0 0,0.378 0,0l0,-22.299c0,-0.208 -0.17,-0.378 -0.378,-0.378l-45.354,0c-0.208,0 -0.378,0.17 -0.378,0.378l-0,22.299c-0,0.378 0.378,0 -0,0l-44.599,0c-0.378,0 0,0.378 0,0l0,-22.299c0,-0.208 -0.17,-0.378 -0.378,-0.378l-45.354,0c-0.208,0 -0.378,0.17 -0.378,0.378l0,22.299c0,0.378 0.378,0 0,0l-44.598,0c-0.378,0 -0,0.378 -0,0l-0,-22.299c-0,-0.208 -0.17,-0.378 -0.378,-0.378l-45.355,0c-0.207,0 -0.377,0.17 -0.377,0.378l-0,22.299c-0,0.378 0.377,0 -0,0l-44.599,0c-0.378,0 0,0.378 0,0l0,-22.299c0,-0.208 -0.17,-0.378 -0.378,-0.378l-45.354,0c-0.208,0 -0.378,0.17 -0.378,0.378l-0,22.299c-0,0.378 0.378,0 -0,0l-44.599,0c-0.378,0 0,0.378 0,0l0,-22.299c0,-0.208 -0.17,-0.378 -0.378,-0.378l-45.354,0c-0.208,0 -0.378,0.17 -0.378,0.378l0,22.299c0,0.378 0.378,0 0,0l-44.598,0c-0.378,0 -0,0.378 -0,0l-0,-22.299c-0,-0.208 -0.17,-0.378 -0.378,-0.378l-45.355,0c-0.207,0 -0.377,0.17 -0.377,0.378l-0,22.299c-0,0.378 0.377,0 -0,0l-44.599,0c-0.378,0 0,0.378 0,0l0,-22.299c0,-0.208 -0.17,-0.378 -0.378,-0.378l-45.354,0c-0.208,0 -0.378,0.17 -0.378,0.378l-0,22.299c-0,0.378 0.378,0 -0,0l-44.599,0c-0.378,0 0,0.378 0,0l0,-22.299c0,-0.208 -0.17,-0.378 -0.378,-0.378l-45.354,0c-0.208,0 -0.378,0.17 -0.378,0.378l0,22.299c0,0.378 0.378,0 0,0l-44.598,0c-0.378,0 -0,0.378 -0,0l-0,-22.299c-0,-0.208 -0.17,-0.378 -0.378,-0.378l-45.355,0c-0.207,0 -0.377,0.17 -0.377,0.378l-0,22.299c-0,0.378 0.377,0 -0,0l-105.449,0c-0.208,0 -0.378,0.17 -0.378,0.378l-0,77.48c-0,0.208 0.17,0.378 0.378,0.378l22.299,0c0.378,0 -0,-0.378 -0,0l-0,44.599c-0,0.378 0.378,-0 -0,-0l-22.299,-0c-0.208,-0 -0.378,0.17 -0.378,0.378l-0,45.354c-0,0.208 0.17,0.378 0.378,0.378l22.299,0c0.378,0 -0,-0.378 -0,0l-0,44.598c-0,0.378 0.378,0 -0,0l-22.299,0c-0.208,0 -0.378,0.171 -0.378,0.378l-0,45.355c-0,0.208 0.17,0.378 0.378,0.378l22.299,-0c0.378,-0 -0,-0.378 -0,-0l-0,44.598c-0,0.378 0.378,0 -0,0l-22.299,0c-0.208,0 -0.378,0.17 -0.378,0.378l-0,45.354c-0,0.208 0.17,0.378 0.378,0.378l22.299,0c0.378,0 -0,-0.378 -0,0l-0,44.599c-0,0.378 0.378,-0 -0,-0l-22.299,-0c-0.208,-0 -0.378,0.17 -0.378,0.378l-0,100.157c-0,0.208 0.17,0.378 0.378,0.378l105.826,0c0.208,0 0.378,-0.17 0.378,-0.378l0,-22.299c0,-0.378 -0.378,0 0,0l44.599,0c0.378,0 -0,-0.378 -0,0l-0,22.299c-0,0.208 0.17,0.378 0.378,0.378l45.354,0c0.208,0 0.378,-0.17 0.378,-0.378l0,-22.299c0,-0.378 -0.378,0 0,0l44.599,0c0.377,0 -0,-0.378 -0,0l-0,22.299c-0,0.208 0.17,0.378 0.377,0.378l45.355,0c0.208,0 0.378,-0.17 0.378,-0.378l-0,-22.299c-0,-0.378 -0.378,0 -0,0l44.598,0c0.378,0 0,-0.378 0,0l0,22.299c0,0.208 0.17,0.378 0.378,0.378l45.354,0c0.208,0 0.378,-0.17 0.378,-0.378l0,-22.299c0,-0.378 -0.378,0 0,0l44.599,0c0.378,0 -0,-0.378 -0,0l-0,22.299c-0,0.208 0.17,0.378 0.378,0.378l45.354,0c0.208,0 0.378,-0.17 0.378,-0.378l0,-22.299c0,-0.378 -0.378,0 0,0l44.599,0c0.377,0 -0,-0.378 -0,0l-0,22.299c-0,0.208 0.17,0.378 0.377,0.378l45.355,0c0.208,0 0.378,-0.17 0.378,-0.378l-0,-22.299c-0,-0.378 -0.378,0 -0,0l44.598,0c0.378,0 0,-0.378 0,0l0,22.299c0,0.208 0.17,0.378 0.378,0.378l45.354,0c0.208,0 0.378,-0.17 0.378,-0.378l0,-22.299c0,-0.378 -0.378,0 0,0l44.599,0c0.378,0 -0,-0.378 -0,0l-0,22.299c-0,0.208 0.17,0.378 0.378,0.378l45.354,0c0.208,0 0.378,-0.17 0.378,-0.378l0,-22.299c0,-0.378 -0.378,0 0,0l44.598,0c0.378,0 0,-0.378 0,0l0,22.299c0,0.208 0.171,0.378 0.378,0.378l45.355,0c0.208,0 0.378,-0.17 0.378,-0.378l-0,-22.299c-0,-0.378 -0.378,0 -0,0l44.598,0c0.378,0 0,-0.378 0,0l0,22.299c0,0.208 0.17,0.378 0.378,0.378l45.354,0c0.208,0 0.378,-0.17 0.378,-0.378l0,-22.299c0,-0.378 -0.378,0 0,0l44.599,0c0.378,0 -0,-0.378 -0,0l-0,22.299c-0,0.208 0.17,0.378 0.378,0.378l45.354,0c0.208,0 0.378,-0.17 0.378,-0.378l0,-22.299c0,-0.378 -0.378,0 0,0l44.598,0c0.378,0 0,-0.378 0,0l0,22.299c0,0.208 0.171,0.378 0.378,0.378l45.355,0c0.208,0 0.378,-0.17 0.378,-0.378l-0,-22.299c-0,-0.378 -0.378,0 -0,0l44.598,0c0.378,0 0,-0.378 0,0l0,22.299c0,0.208 0.17,0.378 0.378,0.378l105.827,0c0.208,0 0.378,-0.17 0.378,-0.378l-0,-100.157c-0,-0.208 -0.17,-0.378 -0.378,-0.378l-22.299,-0c-0.378,-0 -0,0.378 -0,-0l-0,-44.599c-0,-0.378 -0.378,0 -0,0l22.299,0c0.208,0 0.378,-0.17 0.378,-0.378l-0,-45.354c-0,-0.208 -0.17,-0.378 -0.378,-0.378l-22.299,0c-0.378,0 -0,0.378 -0,0l-0,-44.598c-0,-0.378 -0.378,-0 -0,-0l22.299,-0c0.208,-0 0.378,-0.17 0.378,-0.378l-0,-45.355c-0,-0.207 -0.17,-0.378 -0.378,-0.378l-22.299,0c-0.378,0 -0,0.378 -0,0l-0,-44.598c-0,-0.378 -0.378,0 -0,0l22.299,0c0.208,0 0.378,-0.17 0.378,-0.378l-0,-45.354c-0,-0.208 -0.17,-0.378 -0.378,-0.378l-22.299,-0c-0.378,-0 -0,0.378 -0,-0l-0,-44.599c-0,-0.378 -0.378,0 -0,0l22.299,0c0.208,0 0.378,-0.17 0.378,-0.378l-0,-77.48c-0,-0.208 -0.17,-0.378 -0.378,-0.378l-22.677,0" style="fill:none;fill-rule:nonzero;stroke:#000;stroke-width:3.15px;"/><path d="M1714.39,1480.24l-82.772,0c-0.378,0 0,0.378 0,0l0,-22.299c0,-0.208 -0.17,-0.378 -0.378,-0.378l-45.354,0c-0.208,0 -0.378,0.17 -0.378,0.378l-0,22.299c-0,0.378 0.378,0 -0,0l-44.599,0c-0.378,0 0,0.378 0,0l0,-22.299c0,-0.208 -0.17,-0.378 -0.378,-0.378l-45.354,0c-0.208,0 -0.378,0.17 -0.378,0.378l0,22.299c0,0.378 0.378,0 0,0l-44.598,0c-0.378,0 -0,0.378 -0,0l-0,-22.299c-0,-0.208 -0.17,-0.378 -0.378,-0.378l-45.355,0c-0.207,0 -0.378,0.17 -0.378,0.378l0,22.299c0,0.378 0.378,0 0,0l-44.598,0c-0.378,0 0,0.378 0,0l0,-22.299c0,-0.208 -0.17,-0.378 -0.378,-0.378l-45.354,0c-0.208,0 -0.378,0.17 -0.378,0.378l-0,22.299c-0,0.378 0.378,0 -0,0l-44.599,0c-0.378,0 0,0.378 0,0l0,-22.299c0,-0.208 -0.17,-0.378 -0.378,-0.378l-45.354,0c-0.208,0 -0.378,0.17 -0.378,0.378l0,22.299c0,0.378 0.378,0 0,0l-44.598,0c-0.378,0 -0,0.378 -0,0l-0,-22.299c-0,-0.208 -0.17,-0.378 -0.378,-0.378l-45.355,0c-0.207,0 -0.377,0.17 -0.377,0.378l-0,22.299c-0,0.378 0.377,0 -0,0l-44.599,0c-0.378,0 0,0.378 0,0l0,-22.299c0,-0.208 -0.17,-0.378 -0.378,-0.378l-45.354,0c-0.208,0 -0.378,0.17 -0.378,0.378l-0,22.299c-0,0.378 0.378,0 -0,0l-44.599,0c-0.378,0 0,0.378 0,0l0,-22.299c0,-0.208 -0.17,-0.378 -0.378,-0.378l-45.354,0c-0.208,0 -0.378,0.17 -0.378,0.378l0,22.299c0,0.378 0.378,0 0,0l-44.598,0c-0.378,0 -0,0.378 -0,0l-0,-22.299c-0,-0.208 -0.17,-0.378 -0.378,-0.378l-45.355,0c-0.207,0 -0.377,0.17 -0.377,0.378l-0,22.299c-0,0.378 0.377,0 -0,0l-44.599,0c-0.378,0 0,0.378 0,0l0,-22.299c0,-0.208 -0.17,-0.378 -0.378,-0.378l-45.354,0c-0.208,0 -0.378,0.17 -0.378,0.378l-0,22.299c-0,0.378 0.378,0 -0,0l-44.599,0c-0.378,0 0,0.378 0,0l0,-22.299c0,-0.208 -0.17,-0.378 -0.378,-0.378l-45.354,0c-0.208,0 -0.378,0.17 -0.378,0.378l0,22.299c0,0.378 0.378,0 0,0l-44.598,0c-0.378,0 -0,0.378 -0,0l-0,-22.299c-0,-0.208 -0.17,-0.378 -0.378,-0.378l-45.355,0c-0.207,0 -0.377,0.17 -0.377,0.378l-0,22.299c-0,0.378 0.377,0 -0,0l-105.449,0c-0.208,0 -0.378,0.17 -0.378,0.378l-0,77.48c-0,0.208 0.17,0.378 0.378,0.378l22.299,0c0.378,0 -0,-0.378 -0,0l-0,44.599c-0,0.378 0.378,-0 -0,-0l-22.299,-0c-0.208,-0 -0.378,0.17 -0.378,0.378l-0,45.354c-0,0.208 0.17,0.378 0.378,0.378l22.299,0c0.378,0 -0,-0.378 -0,0l-0,44.599c-0,0.377 0.378,-0 -0,-0l-22.299,-0c-0.208,-0 -0.378,0.17 -0.378,0.377l-0,45.355c-0,0.208 0.17,0.378 0.378,0.378l22.299,-0c0.378,-0 -0,-0.378 -0,-0l-0,44.598c-0,0.378 0.378,0 -0,0l-22.299,0c-0.208,0 -0.378,0.17 -0.378,0.378l-0,45.354c-0,0.208 0.17,0.378 0.378,0.378l22.299,0c0.378,0 -0,-0.378 -0,0l-0,44.599c-0,0.378 0.378,-0 -0,-0l-22.299,-0c-0.208,-0 -0.378,0.17 -0.378,0.378l-0,100.157c-0,0.208 0.17,0.378 0.378,0.378l105.826,0c0.208,0 0.378,-0.17 0.378,-0.378l0,-22.299c0,-0.378 -0.378,0 0,0l44.599,0c0.378,0 -0,-0.378 -0,0l-0,22.299c-0,0.208 0.17,0.378 0.378,0.378l45.354,0c0.208,0 0.378,-0.17 0.378,-0.378l0,-22.299c0,-0.378 -0.378,0 0,0l44.599,0c0.377,0 -0,-0.378 -0,0l-0,22.299c-0,0.208 0.17,0.378 0.377,0.378l45.355,0c0.208,0 0.378,-0.17 0.378,-0.378l-0,-22.299c-0,-0.378 -0.378,0 -0,0l44.598,0c0.378,0 0,-0.378 0,0l0,22.299c0,0.208 0.17,0.378 0.378,0.378l45.354,0c0.208,0 0.378,-0.17 0.378,-0.378l0,-22.299c0,-0.378 -0.378,0 0,0l44.599,0c0.378,0 -0,-0.378 -0,0l-0,22.299c-0,0.208 0.17,0.378 0.378,0.378l45.354,0c0.208,0 0.378,-0.17 0.378,-0.378l0,-22.299c0,-0.378 -0.378,0 0,0l44.599,0c0.377,0 -0,-0.378 -0,0l-0,22.299c-0,0.208 0.17,0.378 0.377,0.378l45.355,0c0.208,0 0.378,-0.17 0.378,-0.378l-0,-22.299c-0,-0.378 -0.378,0 -0,0l44.598,0c0.378,0 0,-0.378 0,0l0,22.299c0,0.208 0.17,0.378 0.378,0.378l45.354,0c0.208,0 0.378,-0.17 0.378,-0.378l0,-22.299c0,-0.378 -0.378,0 0,0l44.599,0c0.378,0 -0,-0.378 -0,0l-0,22.299c-0,0.208 0.17,0.378 0.378,0.378l45.354,0c0.208,0 0.378,-0.17 0.378,-0.378l0,-22.299c0,-0.378 -0.378,0 0,0l44.598,0c0.378,0 0,-0.378 0,0l0,22.299c0,0.208 0.171,0.378 0.378,0.378l45.355,0c0.208,0 0.378,-0.17 0.378,-0.378l-0,-22.299c-0,-0.378 -0.378,0 -0,0l44.598,0c0.378,0 0,-0.378 0,0l0,22.299c0,0.208 0.17,0.378 0.378,0.378l45.354,0c0.208,0 0.378,-0.17 0.378,-0.378l0,-22.299c0,-0.378 -0.378,0 0,0l44.599,0c0.378,0 -0,-0.378 -0,0l-0,22.299c-0,0.208 0.17,0.378 0.378,0.378l45.354,0c0.208,0 0.378,-0.17 0.378,-0.378l0,-22.299c0,-0.378 -0.378,0 0,0l44.598,0c0.378,0 0,-0.378 0,0l0,22.299c0,0.208 0.171,0.378 0.378,0.378l45.355,0c0.208,0 0.378,-0.17 0.378,-0.378l-0,-22.299c-0,-0.378 -0.378,0 -0,0l44.598,0c0.378,0 0,-0.378 0,0l0,22.299c0,0.208 0.17,0.378 0.378,0.378l105.827,0c0.208,0 0.378,-0.17 0.378,-0.378l-0,-100.157c-0,-0.208 -0.17,-0.378 -0.378,-0.378l-22.299,-0c-0.378,-0 -0,0.378 -0,-0l-0,-44.599c-0,-0.378 -0.378,0 -0,0l22.299,0c0.208,0 0.378,-0.17 0.378,-0.378l-0,-45.354c-0,-0.208 -0.17,-0.378 -0.378,-0.378l-22.299,0c-0.378,0 -0,0.378 -0,0l-0,-44.598c-0,-0.378 -0.378,-0 -0,-0l22.299,-0c0.208,-0 0.378,-0.17 0.378,-0.378l-0,-45.355c-0,-0.207 -0.17,-0.377 -0.378,-0.377l-22.299,-0c-0.378,-0 -0,0.377 -0,-0l-0,-44.599c-0,-0.378 -0.378,0 -0,0l22.299,0c0.208,0 0.378,-0.17 0.378,-0.378l-0,-45.354c-0,-0.208 -0.17,-0.378 -0.378,-0.378l-22.299,-0c-0.378,-0 -0,0.378 -0,-0l-0,-44.599c-0,-0.378 -0.378,0 -0,0l22.299,0c0.208,0 0.378,-0.17 0.378,-0.378l-0,-77.48c-0,-0.208 -0.17,-0.378 -0.378,-0.378l-22.677,0" style="fill:none;fill-rule:nonzero;stroke:#000;stroke-width:3.15px;"/><path d="M1809.64,1385.76l75.212,0c0.378,0 0,-0.378 0,0l0,22.299c0,0.208 0.17,0.378 0.378,0.378l45.355,0c0.208,0 0.378,-0.17 0.378,-0.378l-0,-22.299c-0,-0.378 -0.378,0 -0,0l44.598,0c0.378,0 0,-0.378 0,0l0,22.299c0,0.208 0.17,0.378 0.378,0.378l45.354,0c0.208,0 0.378,-0.17 0.378,-0.378l0,-22.299c0,-0.378 -0.378,0 0,0l44.599,0c0.378,0 -0,-0.378 -0,0l-0,22.299c-0,0.208 0.17,0.378 0.378,0.378l45.354,0c0.208,0 0.378,-0.17 0.378,-0.378l-0,-22.299c-0,-0.378 -0.378,0 -0,0l75.213,0c0.207,0 0.378,-0.17 0.378,-0.378l-0,-77.102c-0,-0.378 -0.378,-0 -0,-0l22.299,-0c0.208,-0 0.378,-0.17 0.378,-0.378l-0,-45.355c-0,-0.207 -0.17,-0.378 -0.378,-0.378l-22.299,0c-0.378,0 -0,0.378 -0,0l-0,-44.598c-0,-0.378 -0.378,0 -0,0l22.299,0c0.208,0 0.378,-0.17 0.378,-0.378l-0,-45.354c-0,-0.208 -0.17,-0.378 -0.378,-0.378l-22.299,-0c-0.378,-0 -0,0.378 -0,-0l-0,-44.599c-0,-0.378 -0.378,0 -0,0l22.299,0c0.208,0 0.378,-0.17 0.378,-0.378l-0,-45.354c-0,-0.208 -0.17,-0.378 -0.378,-0.378l-22.299,0c-0.378,0 -0,0.378 -0,0l-0,-44.598c-0,-0.378 -0.378,-0 -0,-0l22.299,-0c0.208,-0 0.378,-0.17 0.378,-0.378l-0,-45.355c-0,-0.207 -0.17,-0.377 -0.378,-0.377l-22.299,-0c-0.378,-0 -0,0.377 -0,-0l-0,-99.78c-0,-0.208 -0.171,-0.378 -0.378,-0.378l-75.591,0c-0.208,0 -0.378,0.17 -0.378,0.378l0,22.299c0,0.378 0.378,0 0,0l-44.598,0c-0.378,0 -0,0.378 -0,0l-0,-22.299c-0,-0.208 -0.17,-0.378 -0.378,-0.378l-45.355,0c-0.208,0 -0.378,0.17 -0.378,0.378l0,22.299c0,0.378 0.378,0 0,0l-44.598,0c-0.378,0 -0,0.378 -0,0l-0,-22.299c-0,-0.208 -0.17,-0.378 -0.378,-0.378l-45.354,0c-0.208,0 -0.378,0.17 -0.378,0.378l-0,22.299c-0,0.378 0.378,0 -0,0l-44.599,0c-0.378,0 0,0.378 0,0l0,-22.299c0,-0.208 -0.17,-0.378 -0.378,-0.378l-75.59,0c-0.208,0 -0.378,0.17 -0.378,0.378l-0,99.78c-0,0.377 0.378,-0 -0,-0l-22.299,-0c-0.208,-0 -0.378,0.17 -0.378,0.377l-0,45.355c-0,0.208 0.17,0.378 0.378,0.378l22.299,-0c0.378,-0 -0,-0.378 -0,-0l-0,44.598c-0,0.378 0.378,0 -0,0l-22.299,0c-0.208,0 -0.378,0.17 -0.378,0.378l-0,45.354c-0,0.208 0.17,0.378 0.378,0.378l22.299,0c0.378,0 -0,-0.378 -0,0l-0,44.599c-0,0.378 0.378,-0 -0,-0l-22.299,-0c-0.208,-0 -0.378,0.17 -0.378,0.378l-0,45.354c-0,0.208 0.17,0.378 0.378,0.378l22.299,0c0.378,0 -0,-0.378 -0,0l-0,44.598c-0,0.378 0.378,0 -0,0l-22.299,0c-0.208,0 -0.378,0.171 -0.378,0.378l-0,45.355c-0,0.208 0.17,0.378 0.378,0.378l22.299,-0c0.378,-0 -0,-0.378 -0,-0l-0,77.102c-0,0.208 0.17,0.378 0.378,0.378" style="fill:none;fill-rule:nonzero;stroke:#000;stroke-width:3.15px;"/><path d="M1809.64,1953.44l75.212,0c0.378,0 0,-0.378 0,0l0,22.299c0,0.208 0.17,0.378 0.378,0.378l45.355,0c0.208,0 0.378,-0.17 0.378,-0.378l-0,-22.299c-0,-0.378 -0.378,0 -0,0l44.598,0c0.378,0 0,-0.378 0,0l0,22.299c0,0.208 0.17,0.378 0.378,0.378l45.354,0c0.208,0 0.378,-0.17 0.378,-0.378l0,-22.299c0,-0.378 -0.378,0 0,0l44.599,0c0.378,0 -0,-0.378 -0,0l-0,22.299c-0,0.208 0.17,0.378 0.378,0.378l45.354,0c0.208,0 0.378,-0.17 0.378,-0.378l-0,-22.299c-0,-0.378 -0.378,0 -0,0l75.213,0c0.207,0 0.378,-0.17 0.378,-0.378l-0,-77.102c-0,-0.378 -0.378,-0 -0,-0l22.299,-0c0.208,-0 0.378,-0.17 0.378,-0.378l-0,-45.355c-0,-0.207 -0.17,-0.377 -0.378,-0.377l-22.299,-0c-0.378,-0 -0,0.377 -0,-0l-0,-44.599c-0,-0.378 -0.378,0 -0,0l22.299,0c0.208,0 0.378,-0.17 0.378,-0.378l-0,-45.354c-0,-0.208 -0.17,-0.378 -0.378,-0.378l-22.299,-0c-0.378,-0 -0,0.378 -0,-0l-0,-44.599c-0,-0.378 -0.378,0 -0,0l22.299,0c0.208,0 0.378,-0.17 0.378,-0.378l-0,-45.354c-0,-0.208 -0.17,-0.378 -0.378,-0.378l-22.299,0c-0.378,0 -0,0.378 -0,0l-0,-44.598c-0,-0.378 -0.378,-0 -0,-0l22.299,-0c0.208,-0 0.378,-0.17 0.378,-0.378l-0,-45.355c-0,-0.207 -0.17,-0.377 -0.378,-0.377l-22.299,-0c-0.378,-0 -0,0.377 -0,-0l-0,-99.78c-0,-0.208 -0.171,-0.378 -0.378,-0.378l-75.591,0c-0.208,0 -0.378,0.17 -0.378,0.378l0,22.299c0,0.378 0.378,0 0,0l-44.598,0c-0.378,0 -0,0.378 -0,0l-0,-22.299c-0,-0.208 -0.17,-0.378 -0.378,-0.378l-45.355,0c-0.208,0 -0.378,0.17 -0.378,0.378l0,22.299c0,0.378 0.378,0 0,0l-44.598,0c-0.378,0 -0,0.378 -0,0l-0,-22.299c-0,-0.208 -0.17,-0.378 -0.378,-0.378l-45.354,0c-0.208,0 -0.378,0.17 -0.378,0.378l-0,22.299c-0,0.378 0.378,0 -0,0l-44.599,0c-0.378,0 0,0.378 0,0l0,-22.299c0,-0.208 -0.17,-0.378 -0.378,-0.378l-75.59,0c-0.208,0 -0.378,0.17 -0.378,0.378l-0,99.78c-0,0.377 0.378,-0 -0,-0l-22.299,-0c-0.208,-0 -0.378,0.17 -0.378,0.377l-0,45.355c-0,0.208 0.17,0.378 0.378,0.378l22.299,-0c0.378,-0 -0,-0.378 -0,-0l-0,44.598c-0,0.378 0.378,0 -0,0l-22.299,0c-0.208,0 -0.378,0.17 -0.378,0.378l-0,45.354c-0,0.208 0.17,0.378 0.378,0.378l22.299,0c0.378,0 -0,-0.378 -0,0l-0,44.599c-0,0.378 0.378,-0 -0,-0l-22.299,-0c-0.208,-0 -0.378,0.17 -0.378,0.378l-0,45.354c-0,0.208 0.17,0.378 0.378,0.378l22.299,0c0.378,0 -0,-0.378 -0,0l-0,44.599c-0,0.377 0.378,-0 -0,-0l-22.299,-0c-0.208,-0 -0.378,0.17 -0.378,0.377l-0,45.355c-0,0.208 0.17,0.378 0.378,0.378l22.299,-0c0.378,-0 -0,-0.378 -0,-0l-0,77.102c-0,0.208 0.17,0.378 0.378,0.378" style="fill:none;fill-rule:nonzero;stroke:#000;stroke-width:3.15px;"/></g><g id="Cutouts"><circle cx="736.063" cy="1145.64" r="179.528" style="fill:none;stroke:#000;stroke-width:3.2px;stroke-miterlimit:1.5;"/><circle cx="582.423" cy="995.517" r="9.449" style="fill:none;stroke:#000;stroke-width:3.2px;stroke-miterlimit:1.5;"/><circle cx="582.423" cy="1302.8" r="9.449" style="fill:none;stroke:#000;stroke-width:3.2px;stroke-miterlimit:1.5;"/><circle cx="889.703" cy="1302.8" r="9.449" style="fill:none;stroke:#000;stroke-width:3.2px;stroke-miterlimit:1.5;"/><circle cx="889.703" cy="995.517" r="9.449" style="fill:none;stroke:#000;stroke-width:3.2px;stroke-miterlimit:1.5;"/><circle cx="1482.9" cy="1149.16" r="179.528" style="fill:none;stroke:#000;stroke-width:3.2px;stroke-miterlimit:1.5;"/><circle cx="1329.26" cy="995.517" r="9.449" style="fill:none;stroke:#000;stroke-width:3.2px;stroke-miterlimit:1.5;"/><circle cx="1329.26" cy="1302.8" r="9.449" style="fill:none;stroke:#000;stroke-width:3.2px;stroke-miterlimit:1.5;"/><circle cx="1636.54" cy="1302.8" r="9.449" style="fill:none;stroke:#000;stroke-width:3.2px;stroke-miterlimit:1.5;"/><circle cx="1636.54" cy="995.517" r="9.449" style="fill:none;stroke:#000;stroke-width:3.2px;stroke-miterlimit:1.5;"/><circle cx="967.686" cy="979.079" r="5.669" style="fill:none;stroke:#000;stroke-width:3.2px;stroke-miterlimit:1.5;"/><circle cx="1251.15" cy="979.079" r="5.669" style="fill:none;stroke:#000;stroke-width:3.2px;stroke-miterlimit:1.5;"/><circle cx="1251.15" cy="1096.24" r="5.669" style="fill:none;stroke:#000;stroke-width:3.2px;stroke-miterlimit:1.5;"/><circle cx="967.686" cy="1096.24" r="5.669" style="fill:none;stroke:#000;stroke-width:3.2px;stroke-miterlimit:1.5;"/><rect x="974.3" y="991.362" width="270.236" height="92.598" style="fill:none;stroke:#000;stroke-width:3.2px;stroke-miterlimit:1.5;"/><circle cx="1108.94" cy="1217.19" r="13.228" style="fill:none;stroke:#000;stroke-width:3.2px;stroke-miterlimit:1.5;"/><circle cx="1219.28" cy="1550.07" r="4.724" style="fill:none;stroke:#000;stroke-width:3.2px;stroke-miterlimit:1.5;"/><circle cx="1219.28" cy="1637" r="4.724" style="fill:none;stroke:#000;stroke-width:3.2px;stroke-miterlimit:1.5;"/><circle cx="1000.06" cy="1637" r="4.724" style="fill:none;stroke:#000;stroke-width:3.2px;stroke-miterlimit:1.5;"/><circle cx="1000.06" cy="1550.07" r="4.724" style="fill:none;stroke:#000;stroke-width:3.2px;stroke-miterlimit:1.5;"/><circle cx="2395.47" cy="589.852" r="13.228" style="fill:none;stroke:#000;stroke-width:3.2px;stroke-miterlimit:1.5;"/><circle cx="2508.85" cy="591.991" r="13.228" style="fill:none;stroke:#000;stroke-width:3.2px;stroke-miterlimit:1.5;"/><circle cx="2826.36" cy="591.991" r="11.339" style="fill:none;stroke:#000;stroke-width:3.2px;stroke-miterlimit:1.5;"/><path d="M1120.14,1873.23c6.171,3.602 10.319,10.297 10.319,17.953c-0,7.656 -4.148,14.351 -10.319,17.953l-20.937,-0c-6.171,-3.602 -10.319,-10.297 -10.319,-17.953c-0,-7.656 4.148,-14.351 10.319,-17.953l20.937,0Z" style="fill:none;stroke:#000;stroke-width:3.2px;stroke-miterlimit:1.5;"/></g></svg>