<?xml version='1.0' encoding='utf-8'?>
<svg width="712.70mm" height="456.80mm" viewBox="0.0 0.0 712.70 456.80" xmlns="http://www.w3.org/2000/svg" xmlns:dc="http://purl.org/dc/elements/1.1/" xmlns:cc="http://creativecommons.org/ns#" xmlns:rdf="http://www.w3.org/1999/02/22-rdf-syntax-ns#" xmlns:svg="http://www.w3.org/2000/svg" xmlns:xlink="http://www.w3.org/1999/xlink" xmlns:inkscape="http://www.inkscape.org/namespaces/inkscape">
<!--
BasedBox - Fully closed box on a base


This box is more of a building block than a finished item.
Use a vector graphics program (like Inkscape) to add holes or adjust the base
plate. The width of the "brim" can also be adjusted with the **edge_width**
 parameter in the **Finger Joints Settings**.
 
See ClosedBox for variant without a base.



Created with Boxes.py (https://festi.info/boxes.py)
Creation date: 2023-11-08 19:41:23
Command line (remove spaces between dashes): boxes BasedBox - -x=320.0 - -h=125.0 - -outside=0 - -thickness=8
Url: http://festi.info/boxes.py/BasedBox?FingerJoint_angle=90.0&FingerJoint_style=rectangular&FingerJoint_surroundingspaces=2.0&FingerJoint_bottom_lip=0.0&FingerJoint_edge_width=1.0&FingerJoint_extra_length=0.0&FingerJoint_finger=2.0&FingerJoint_play=0.0&FingerJoint_space=2.0&FingerJoint_width=1.0&x=320.0&y=100.0&h=125.0&outside=0&thickness=8&format=svg&tabs=0.0&qr_code=0&debug=0&labels=0&labels=1&reference=100&inner_corners=loop&burn=0.1&language=de&render=2
Url short: http://festi.info/boxes.py/BasedBox?x=320.0&h=125.0&outside=0&thickness=8
SettingsUrl: http://festi.info/boxes.py/BasedBox?FingerJoint_angle=90.0&FingerJoint_style=rectangular&FingerJoint_surroundingspaces=2.0&FingerJoint_bottom_lip=0.0&FingerJoint_edge_width=1.0&FingerJoint_extra_length=0.0&FingerJoint_finger=2.0&FingerJoint_play=0.0&FingerJoint_space=2.0&FingerJoint_width=1.0&x=320.0&y=100.0&h=125.0&outside=0&thickness=8&format=svg&tabs=0.0&qr_code=0&debug=0&labels=0&labels=1&reference=100&inner_corners=loop&burn=0.1&language=de&render=2
SettingsUrl short: http://festi.info/boxes.py/BasedBox?x=320.0&h=125.0&outside=0&thickness=8
-->
<title>BasedBox</title>
<metadata>
<rdf:RDF><cc:Work>
<dc:title>Box - BasedBox</dc:title>
<dc:date>2023-11-08 19:41:23</dc:date>
<dc:source>http://festi.info/boxes.py/BasedBox?FingerJoint_angle=90.0&amp;FingerJoint_style=rectangular&amp;FingerJoint_surroundingspaces=2.0&amp;FingerJoint_bottom_lip=0.0&amp;FingerJoint_edge_width=1.0&amp;FingerJoint_extra_length=0.0&amp;FingerJoint_finger=2.0&amp;FingerJoint_play=0.0&amp;FingerJoint_space=2.0&amp;FingerJoint_width=1.0&amp;x=320.0&amp;y=100.0&amp;h=125.0&amp;outside=0&amp;thickness=8&amp;format=svg&amp;tabs=0.0&amp;qr_code=0&amp;debug=0&amp;labels=0&amp;labels=1&amp;reference=100&amp;inner_corners=loop&amp;burn=0.1&amp;language=de&amp;render=2</dc:source>
<dc:source>http://festi.info/boxes.py/BasedBox?x=320.0&amp;h=125.0&amp;outside=0&amp;thickness=8</dc:source>
<dc:description>Fully closed box on a base

This box is more of a building block than a finished item.
Use a vector graphics program (like Inkscape) to add holes or adjust the base
plate. The width of the "brim" can also be adjusted with the **edge_width**
 parameter in the **Finger Joints Settings**.
 
See ClosedBox for variant without a base.


Created with Boxes.py (https://festi.info/boxes.py)
Command line: boxes BasedBox --FingerJoint_angle=90.0 --FingerJoint_style=rectangular --FingerJoint_surroundingspaces=2.0 --FingerJoint_bottom_lip=0.0 --FingerJoint_edge_width=1.0 --FingerJoint_extra_length=0.0 --FingerJoint_finger=2.0 --FingerJoint_play=0.0 --FingerJoint_space=2.0 --FingerJoint_width=1.0 --x=320.0 --y=100.0 --h=125.0 --outside=0 --thickness=8 --format=svg --tabs=0.0 --qr_code=0 --debug=0 --labels=0 --labels=1 --reference=100 --inner_corners=loop --burn=0.1
Command line short: boxes BasedBox --x=320.0 --h=125.0 --outside=0 --thickness=8
Url: http://festi.info/boxes.py/BasedBox?FingerJoint_angle=90.0&amp;FingerJoint_style=rectangular&amp;FingerJoint_surroundingspaces=2.0&amp;FingerJoint_bottom_lip=0.0&amp;FingerJoint_edge_width=1.0&amp;FingerJoint_extra_length=0.0&amp;FingerJoint_finger=2.0&amp;FingerJoint_play=0.0&amp;FingerJoint_space=2.0&amp;FingerJoint_width=1.0&amp;x=320.0&amp;y=100.0&amp;h=125.0&amp;outside=0&amp;thickness=8&amp;format=svg&amp;tabs=0.0&amp;qr_code=0&amp;debug=0&amp;labels=0&amp;labels=1&amp;reference=100&amp;inner_corners=loop&amp;burn=0.1&amp;language=de&amp;render=2
Url short: http://festi.info/boxes.py/BasedBox?x=320.0&amp;h=125.0&amp;outside=0&amp;thickness=8
SettingsUrl: http://festi.info/boxes.py/BasedBox?FingerJoint_angle=90.0&amp;FingerJoint_style=rectangular&amp;FingerJoint_surroundingspaces=2.0&amp;FingerJoint_bottom_lip=0.0&amp;FingerJoint_edge_width=1.0&amp;FingerJoint_extra_length=0.0&amp;FingerJoint_finger=2.0&amp;FingerJoint_play=0.0&amp;FingerJoint_space=2.0&amp;FingerJoint_width=1.0&amp;x=320.0&amp;y=100.0&amp;h=125.0&amp;outside=0&amp;thickness=8&amp;format=svg&amp;tabs=0.0&amp;qr_code=0&amp;debug=0&amp;labels=0&amp;labels=1&amp;reference=100&amp;inner_corners=loop&amp;burn=0.1&amp;language=de&amp;render=2
SettingsUrl short: http://festi.info/boxes.py/BasedBox?x=320.0&amp;h=125.0&amp;outside=0&amp;thickness=8
</dc:description>
</cc:Work></rdf:RDF></metadata>
<g id="p-0" style="fill:none;stroke-linecap:round;stroke-linejoin:round;">
  <path d="M 10.400 446.800 H 110.400 V 436.800 H 10.400 V 446.800 Z" stroke="rgb(0,0,0)" stroke-width="0.20" />
  <text transform="matrix( 1.000 0.000 0.000 1.000 60.400 437.800 )" style="font-family: sans-serif ; font-weight: normal; font-style: normal; fill: rgb(255,0,0)" font-size="8px" text-anchor="middle" dominant-baseline="hanging">100mm, burn:0.10mm</text>
</g>
<g id="p-1" style="fill:none;stroke-linecap:round;stroke-linejoin:round;">
  <text transform="matrix( 1.000 0.000 0.000 1.000 178.400 360.100 )" style="font-family: sans-serif ; font-weight: normal; font-style: normal; fill: rgb(255,0,0)" font-size="4px" text-anchor="middle" dominant-baseline="hanging">Wall 1</text><path d="M 18.400 424.600 H 42.300 C 42.400 424.600 42.300 424.500 42.300 424.600 V 432.500 C 42.300 432.555 42.345 432.600 42.400 432.600 H 58.400 C 58.455 432.600 58.500 432.555 58.500 432.500 V 424.600 C 58.500 424.500 58.400 424.600 58.500 424.600 H 74.300 C 74.400 424.600 74.300 424.500 74.300 424.600 V 432.500 C 74.300 432.555 74.345 432.600 74.400 432.600 H 90.400 C 90.455 432.600 90.500 432.555 90.500 432.500 V 424.600 C 90.500 424.500 90.400 424.600 90.500 424.600 H 106.300 C 106.400 424.600 106.300 424.500 106.300 424.600 V 432.500 C 106.300 432.555 106.345 432.600 106.400 432.600 H 122.400 C 122.455 432.600 122.500 432.555 122.500 432.500 V 424.600 C 122.500 424.500 122.400 424.600 122.500 424.600 H 138.300 C 138.400 424.600 138.300 424.500 138.300 424.600 V 432.500 C 138.300 432.555 138.345 432.600 138.400 432.600 H 154.400 C 154.455 432.600 154.500 432.555 154.500 432.500 V 424.600 C 154.500 424.500 154.400 424.600 154.500 424.600 H 170.300 C 170.400 424.600 170.300 424.500 170.300 424.600 V 432.500 C 170.300 432.555 170.345 432.600 170.400 432.600 H 186.400 C 186.455 432.600 186.500 432.555 186.500 432.500 V 424.600 C 186.500 424.500 186.400 424.600 186.500 424.600 H 202.300 C 202.400 424.600 202.300 424.500 202.300 424.600 V 432.500 C 202.300 432.555 202.345 432.600 202.400 432.600 H 218.400 C 218.455 432.600 218.500 432.555 218.500 432.500 V 424.600 C 218.500 424.500 218.400 424.600 218.500 424.600 H 234.300 C 234.400 424.600 234.300 424.500 234.300 424.600 V 432.500 C 234.300 432.555 234.345 432.600 234.400 432.600 H 250.400 C 250.455 432.600 250.500 432.555 250.500 432.500 V 424.600 C 250.500 424.500 250.400 424.600 250.500 424.600 H 266.300 C 266.400 424.600 266.300 424.500 266.300 424.600 V 432.500 C 266.300 432.555 266.345 432.600 266.400 432.600 H 282.400 C 282.455 432.600 282.500 432.555 282.500 432.500 V 424.600 C 282.500 424.500 282.400 424.600 282.500 424.600 H 298.300 C 298.400 424.600 298.300 424.500 298.300 424.600 V 432.500 C 298.300 432.555 298.345 432.600 298.400 432.600 H 314.400 C 314.455 432.600 314.500 432.555 314.500 432.500 V 424.600 C 314.500 424.500 314.400 424.600 314.500 424.600 H 338.400 H 346.400 C 346.455 424.600 346.500 424.555 346.500 424.500 V 402.000 C 346.500 401.945 346.455 401.900 346.400 401.900 H 338.500 C 338.400 401.900 338.500 402.000 338.500 401.900 V 386.100 C 338.500 386.000 338.400 386.100 338.500 386.100 H 346.400 C 346.455 386.100 346.500 386.055 346.500 386.000 V 370.000 C 346.500 369.945 346.455 369.900 346.400 369.900 H 338.500 C 338.400 369.900 338.500 370.000 338.500 369.900 V 354.100 C 338.500 354.000 338.400 354.100 338.500 354.100 H 346.400 C 346.455 354.100 346.500 354.055 346.500 354.000 V 338.000 C 346.500 337.945 346.455 337.900 346.400 337.900 H 338.500 C 338.400 337.900 338.500 338.000 338.500 337.900 V 322.100 C 338.500 322.000 338.400 322.100 338.500 322.100 H 346.400 C 346.455 322.100 346.500 322.055 346.500 322.000 V 299.500 V 291.500 C 346.500 291.445 346.455 291.400 346.400 291.400 H 338.400 H 314.400 C 314.345 291.400 314.300 291.445 314.300 291.500 V 299.400 C 314.300 299.500 314.400 299.400 314.300 299.400 H 298.500 C 298.400 299.400 298.500 299.500 298.500 299.400 V 291.500 C 298.500 291.445 298.455 291.400 298.400 291.400 H 282.400 C 282.345 291.400 282.300 291.445 282.300 291.500 V 299.400 C 282.300 299.500 282.400 299.400 282.300 299.400 H 266.500 C 266.400 299.400 266.500 299.500 266.500 299.400 V 291.500 C 266.500 291.445 266.455 291.400 266.400 291.400 H 250.400 C 250.345 291.400 250.300 291.445 250.300 291.500 V 299.400 C 250.300 299.500 250.400 299.400 250.300 299.400 H 234.500 C 234.400 299.400 234.500 299.500 234.500 299.400 V 291.500 C 234.500 291.445 234.455 291.400 234.400 291.400 H 218.400 C 218.345 291.400 218.300 291.445 218.300 291.500 V 299.400 C 218.300 299.500 218.400 299.400 218.300 299.400 H 202.500 C 202.400 299.400 202.500 299.500 202.500 299.400 V 291.500 C 202.500 291.445 202.455 291.400 202.400 291.400 H 186.400 C 186.345 291.400 186.300 291.445 186.300 291.500 V 299.400 C 186.300 299.500 186.400 299.400 186.300 299.400 H 170.500 C 170.400 299.400 170.500 299.500 170.500 299.400 V 291.500 C 170.500 291.445 170.455 291.400 170.400 291.400 H 154.400 C 154.345 291.400 154.300 291.445 154.300 291.500 V 299.400 C 154.300 299.500 154.400 299.400 154.300 299.400 H 138.500 C 138.400 299.400 138.500 299.500 138.500 299.400 V 291.500 C 138.500 291.445 138.455 291.400 138.400 291.400 H 122.400 C 122.345 291.400 122.300 291.445 122.300 291.500 V 299.400 C 122.300 299.500 122.400 299.400 122.300 299.400 H 106.500 C 106.400 299.400 106.500 299.500 106.500 299.400 V 291.500 C 106.500 291.445 106.455 291.400 106.400 291.400 H 90.400 C 90.345 291.400 90.300 291.445 90.300 291.500 V 299.400 C 90.300 299.500 90.400 299.400 90.300 299.400 H 74.500 C 74.400 299.400 74.500 299.500 74.500 299.400 V 291.500 C 74.500 291.445 74.455 291.400 74.400 291.400 H 58.400 C 58.345 291.400 58.300 291.445 58.300 291.500 V 299.400 C 58.300 299.500 58.400 299.400 58.300 299.400 H 42.500 C 42.400 299.400 42.500 299.500 42.500 299.400 V 291.500 C 42.500 291.445 42.455 291.400 42.400 291.400 H 18.400 H 10.400 C 10.345 291.400 10.300 291.445 10.300 291.500 V 299.500 V 322.000 C 10.300 322.055 10.345 322.100 10.400 322.100 H 18.300 C 18.400 322.100 18.300 322.000 18.300 322.100 V 337.900 C 18.300 338.000 18.400 337.900 18.300 337.900 H 10.400 C 10.345 337.900 10.300 337.945 10.300 338.000 V 354.000 C 10.300 354.055 10.345 354.100 10.400 354.100 H 18.300 C 18.400 354.100 18.300 354.000 18.300 354.100 V 369.900 C 18.300 370.000 18.400 369.900 18.300 369.900 H 10.400 C 10.345 369.900 10.300 369.945 10.300 370.000 V 386.000 C 10.300 386.055 10.345 386.100 10.400 386.100 H 18.300 C 18.400 386.100 18.300 386.000 18.300 386.100 V 401.900 C 18.300 402.000 18.400 401.900 18.300 401.900 H 10.400 C 10.345 401.900 10.300 401.945 10.300 402.000 V 424.500 C 10.300 424.555 10.345 424.600 10.400 424.600 H 18.400" stroke="rgb(0,0,0)" stroke-width="0.20" />
</g>
<g id="p-2" style="fill:none;stroke-linecap:round;stroke-linejoin:round;">
  <text transform="matrix( 1.000 0.000 0.000 1.000 408.600 360.100 )" style="font-family: sans-serif ; font-weight: normal; font-style: normal; fill: rgb(255,0,0)" font-size="4px" text-anchor="middle" dominant-baseline="hanging">Wall 2</text><path d="M 358.600 424.600 H 384.500 C 384.600 424.600 384.500 424.500 384.500 424.600 V 432.500 C 384.500 432.555 384.545 432.600 384.600 432.600 H 400.600 C 400.655 432.600 400.700 432.555 400.700 432.500 V 424.600 C 400.700 424.500 400.600 424.600 400.700 424.600 H 416.500 C 416.600 424.600 416.500 424.500 416.500 424.600 V 432.500 C 416.500 432.555 416.545 432.600 416.600 432.600 H 432.600 C 432.655 432.600 432.700 432.555 432.700 432.500 V 424.600 C 432.700 424.500 432.600 424.600 432.700 424.600 H 458.600 C 458.655 424.600 458.700 424.555 458.700 424.500 V 402.100 C 458.700 402.000 458.600 402.100 458.700 402.100 H 466.600 C 466.655 402.100 466.700 402.055 466.700 402.000 V 386.000 C 466.700 385.945 466.655 385.900 466.600 385.900 H 458.700 C 458.600 385.900 458.700 386.000 458.700 385.900 V 370.100 C 458.700 370.000 458.600 370.100 458.700 370.100 H 466.600 C 466.655 370.100 466.700 370.055 466.700 370.000 V 354.000 C 466.700 353.945 466.655 353.900 466.600 353.900 H 458.700 C 458.600 353.900 458.700 354.000 458.700 353.900 V 338.100 C 458.700 338.000 458.600 338.100 458.700 338.100 H 466.600 C 466.655 338.100 466.700 338.055 466.700 338.000 V 322.000 C 466.700 321.945 466.655 321.900 466.600 321.900 H 458.700 C 458.600 321.900 458.700 322.000 458.700 321.900 V 299.500 V 291.500 C 458.700 291.445 458.655 291.400 458.600 291.400 H 432.600 C 432.545 291.400 432.500 291.445 432.500 291.500 V 299.400 C 432.500 299.500 432.600 299.400 432.500 299.400 H 416.700 C 416.600 299.400 416.700 299.500 416.700 299.400 V 291.500 C 416.700 291.445 416.655 291.400 416.600 291.400 H 400.600 C 400.545 291.400 400.500 291.445 400.500 291.500 V 299.400 C 400.500 299.500 400.600 299.400 400.500 299.400 H 384.700 C 384.600 299.400 384.700 299.500 384.700 299.400 V 291.500 C 384.700 291.445 384.655 291.400 384.600 291.400 H 358.600 C 358.545 291.400 358.500 291.445 358.500 291.500 V 299.500 V 321.900 C 358.500 322.000 358.600 321.900 358.500 321.900 H 350.600 C 350.545 321.900 350.500 321.945 350.500 322.000 V 338.000 C 350.500 338.055 350.545 338.100 350.600 338.100 H 358.500 C 358.600 338.100 358.500 338.000 358.500 338.100 V 353.900 C 358.500 354.000 358.600 353.900 358.500 353.900 H 350.600 C 350.545 353.900 350.500 353.945 350.500 354.000 V 370.000 C 350.500 370.055 350.545 370.100 350.600 370.100 H 358.500 C 358.600 370.100 358.500 370.000 358.500 370.100 V 385.900 C 358.500 386.000 358.600 385.900 358.500 385.900 H 350.600 C 350.545 385.900 350.500 385.945 350.500 386.000 V 402.000 C 350.500 402.055 350.545 402.100 350.600 402.100 H 358.500 C 358.600 402.100 358.500 402.000 358.500 402.100 V 424.500 C 358.500 424.555 358.545 424.600 358.600 424.600" stroke="rgb(0,0,0)" stroke-width="0.20" />
</g>
<g id="p-3" style="fill:none;stroke-linecap:round;stroke-linejoin:round;">
  <text transform="matrix( 1.000 0.000 0.000 1.000 408.600 214.900 )" style="font-family: sans-serif ; font-weight: normal; font-style: normal; fill: rgb(255,0,0)" font-size="4px" text-anchor="middle" dominant-baseline="hanging">Wall 4</text><path d="M 358.600 279.400 H 384.500 C 384.600 279.400 384.500 279.300 384.500 279.400 V 287.300 C 384.500 287.355 384.545 287.400 384.600 287.400 H 400.600 C 400.655 287.400 400.700 287.355 400.700 287.300 V 279.400 C 400.700 279.300 400.600 279.400 400.700 279.400 H 416.500 C 416.600 279.400 416.500 279.300 416.500 279.400 V 287.300 C 416.500 287.355 416.545 287.400 416.600 287.400 H 432.600 C 432.655 287.400 432.700 287.355 432.700 287.300 V 279.400 C 432.700 279.300 432.600 279.400 432.700 279.400 H 458.600 C 458.655 279.400 458.700 279.355 458.700 279.300 V 256.900 C 458.700 256.800 458.600 256.900 458.700 256.900 H 466.600 C 466.655 256.900 466.700 256.855 466.700 256.800 V 240.800 C 466.700 240.745 466.655 240.700 466.600 240.700 H 458.700 C 458.600 240.700 458.700 240.800 458.700 240.700 V 224.900 C 458.700 224.800 458.600 224.900 458.700 224.900 H 466.600 C 466.655 224.900 466.700 224.855 466.700 224.800 V 208.800 C 466.700 208.745 466.655 208.700 466.600 208.700 H 458.700 C 458.600 208.700 458.700 208.800 458.700 208.700 V 192.900 C 458.700 192.800 458.600 192.900 458.700 192.900 H 466.600 C 466.655 192.900 466.700 192.855 466.700 192.800 V 176.800 C 466.700 176.745 466.655 176.700 466.600 176.700 H 458.700 C 458.600 176.700 458.700 176.800 458.700 176.700 V 154.300 V 146.300 C 458.700 146.245 458.655 146.200 458.600 146.200 H 432.600 C 432.545 146.200 432.500 146.245 432.500 146.300 V 154.200 C 432.500 154.300 432.600 154.200 432.500 154.200 H 416.700 C 416.600 154.200 416.700 154.300 416.700 154.200 V 146.300 C 416.700 146.245 416.655 146.200 416.600 146.200 H 400.600 C 400.545 146.200 400.500 146.245 400.500 146.300 V 154.200 C 400.500 154.300 400.600 154.200 400.500 154.200 H 384.700 C 384.600 154.200 384.700 154.300 384.700 154.200 V 146.300 C 384.700 146.245 384.655 146.200 384.600 146.200 H 358.600 C 358.545 146.200 358.500 146.245 358.500 146.300 V 154.300 V 176.700 C 358.500 176.800 358.600 176.700 358.500 176.700 H 350.600 C 350.545 176.700 350.500 176.745 350.500 176.800 V 192.800 C 350.500 192.855 350.545 192.900 350.600 192.900 H 358.500 C 358.600 192.900 358.500 192.800 358.500 192.900 V 208.700 C 358.500 208.800 358.600 208.700 358.500 208.700 H 350.600 C 350.545 208.700 350.500 208.745 350.500 208.800 V 224.800 C 350.500 224.855 350.545 224.900 350.600 224.900 H 358.500 C 358.600 224.900 358.500 224.800 358.500 224.900 V 240.700 C 358.500 240.800 358.600 240.700 358.500 240.700 H 350.600 C 350.545 240.700 350.500 240.745 350.500 240.800 V 256.800 C 350.500 256.855 350.545 256.900 350.600 256.900 H 358.500 C 358.600 256.900 358.500 256.800 358.500 256.900 V 279.300 C 358.500 279.355 358.545 279.400 358.600 279.400" stroke="rgb(0,0,0)" stroke-width="0.20" />
</g>
<g id="p-4" style="fill:none;stroke-linecap:round;stroke-linejoin:round;">
  <text transform="matrix( 1.000 0.000 0.000 1.000 178.400 214.900 )" style="font-family: sans-serif ; font-weight: normal; font-style: normal; fill: rgb(255,0,0)" font-size="4px" text-anchor="middle" dominant-baseline="hanging">Wall 3</text><path d="M 18.400 279.400 H 42.300 C 42.400 279.400 42.300 279.300 42.300 279.400 V 287.300 C 42.300 287.355 42.345 287.400 42.400 287.400 H 58.400 C 58.455 287.400 58.500 287.355 58.500 287.300 V 279.400 C 58.500 279.300 58.400 279.400 58.500 279.400 H 74.300 C 74.400 279.400 74.300 279.300 74.300 279.400 V 287.300 C 74.300 287.355 74.345 287.400 74.400 287.400 H 90.400 C 90.455 287.400 90.500 287.355 90.500 287.300 V 279.400 C 90.500 279.300 90.400 279.400 90.500 279.400 H 106.300 C 106.400 279.400 106.300 279.300 106.300 279.400 V 287.300 C 106.300 287.355 106.345 287.400 106.400 287.400 H 122.400 C 122.455 287.400 122.500 287.355 122.500 287.300 V 279.400 C 122.500 279.300 122.400 279.400 122.500 279.400 H 138.300 C 138.400 279.400 138.300 279.300 138.300 279.400 V 287.300 C 138.300 287.355 138.345 287.400 138.400 287.400 H 154.400 C 154.455 287.400 154.500 287.355 154.500 287.300 V 279.400 C 154.500 279.300 154.400 279.400 154.500 279.400 H 170.300 C 170.400 279.400 170.300 279.300 170.300 279.400 V 287.300 C 170.300 287.355 170.345 287.400 170.400 287.400 H 186.400 C 186.455 287.400 186.500 287.355 186.500 287.300 V 279.400 C 186.500 279.300 186.400 279.400 186.500 279.400 H 202.300 C 202.400 279.400 202.300 279.300 202.300 279.400 V 287.300 C 202.300 287.355 202.345 287.400 202.400 287.400 H 218.400 C 218.455 287.400 218.500 287.355 218.500 287.300 V 279.400 C 218.500 279.300 218.400 279.400 218.500 279.400 H 234.300 C 234.400 279.400 234.300 279.300 234.300 279.400 V 287.300 C 234.300 287.355 234.345 287.400 234.400 287.400 H 250.400 C 250.455 287.400 250.500 287.355 250.500 287.300 V 279.400 C 250.500 279.300 250.400 279.400 250.500 279.400 H 266.300 C 266.400 279.400 266.300 279.300 266.300 279.400 V 287.300 C 266.300 287.355 266.345 287.400 266.400 287.400 H 282.400 C 282.455 287.400 282.500 287.355 282.500 287.300 V 279.400 C 282.500 279.300 282.400 279.400 282.500 279.400 H 298.300 C 298.400 279.400 298.300 279.300 298.300 279.400 V 287.300 C 298.300 287.355 298.345 287.400 298.400 287.400 H 314.400 C 314.455 287.400 314.500 287.355 314.500 287.300 V 279.400 C 314.500 279.300 314.400 279.400 314.500 279.400 H 338.400 H 346.400 C 346.455 279.400 346.500 279.355 346.500 279.300 V 256.800 C 346.500 256.745 346.455 256.700 346.400 256.700 H 338.500 C 338.400 256.700 338.500 256.800 338.500 256.700 V 240.900 C 338.500 240.800 338.400 240.900 338.500 240.900 H 346.400 C 346.455 240.900 346.500 240.855 346.500 240.800 V 224.800 C 346.500 224.745 346.455 224.700 346.400 224.700 H 338.500 C 338.400 224.700 338.500 224.800 338.500 224.700 V 208.900 C 338.500 208.800 338.400 208.900 338.500 208.900 H 346.400 C 346.455 208.900 346.500 208.855 346.500 208.800 V 192.800 C 346.500 192.745 346.455 192.700 346.400 192.700 H 338.500 C 338.400 192.700 338.500 192.800 338.500 192.700 V 176.900 C 338.500 176.800 338.400 176.900 338.500 176.900 H 346.400 C 346.455 176.900 346.500 176.855 346.500 176.800 V 154.300 V 146.300 C 346.500 146.245 346.455 146.200 346.400 146.200 H 338.400 H 314.400 C 314.345 146.200 314.300 146.245 314.300 146.300 V 154.200 C 314.300 154.300 314.400 154.200 314.300 154.200 H 298.500 C 298.400 154.200 298.500 154.300 298.500 154.200 V 146.300 C 298.500 146.245 298.455 146.200 298.400 146.200 H 282.400 C 282.345 146.200 282.300 146.245 282.300 146.300 V 154.200 C 282.300 154.300 282.400 154.200 282.300 154.200 H 266.500 C 266.400 154.200 266.500 154.300 266.500 154.200 V 146.300 C 266.500 146.245 266.455 146.200 266.400 146.200 H 250.400 C 250.345 146.200 250.300 146.245 250.300 146.300 V 154.200 C 250.300 154.300 250.400 154.200 250.300 154.200 H 234.500 C 234.400 154.200 234.500 154.300 234.500 154.200 V 146.300 C 234.500 146.245 234.455 146.200 234.400 146.200 H 218.400 C 218.345 146.200 218.300 146.245 218.300 146.300 V 154.200 C 218.300 154.300 218.400 154.200 218.300 154.200 H 202.500 C 202.400 154.200 202.500 154.300 202.500 154.200 V 146.300 C 202.500 146.245 202.455 146.200 202.400 146.200 H 186.400 C 186.345 146.200 186.300 146.245 186.300 146.300 V 154.200 C 186.300 154.300 186.400 154.200 186.300 154.200 H 170.500 C 170.400 154.200 170.500 154.300 170.500 154.200 V 146.300 C 170.500 146.245 170.455 146.200 170.400 146.200 H 154.400 C 154.345 146.200 154.300 146.245 154.300 146.300 V 154.200 C 154.300 154.300 154.400 154.200 154.300 154.200 H 138.500 C 138.400 154.200 138.500 154.300 138.500 154.200 V 146.300 C 138.500 146.245 138.455 146.200 138.400 146.200 H 122.400 C 122.345 146.200 122.300 146.245 122.300 146.300 V 154.200 C 122.300 154.300 122.400 154.200 122.300 154.200 H 106.500 C 106.400 154.200 106.500 154.300 106.500 154.200 V 146.300 C 106.500 146.245 106.455 146.200 106.400 146.200 H 90.400 C 90.345 146.200 90.300 146.245 90.300 146.300 V 154.200 C 90.300 154.300 90.400 154.200 90.300 154.200 H 74.500 C 74.400 154.200 74.500 154.300 74.500 154.200 V 146.300 C 74.500 146.245 74.455 146.200 74.400 146.200 H 58.400 C 58.345 146.200 58.300 146.245 58.300 146.300 V 154.200 C 58.300 154.300 58.400 154.200 58.300 154.200 H 42.500 C 42.400 154.200 42.500 154.300 42.500 154.200 V 146.300 C 42.500 146.245 42.455 146.200 42.400 146.200 H 18.400 H 10.400 C 10.345 146.200 10.300 146.245 10.300 146.300 V 154.300 V 176.800 C 10.300 176.855 10.345 176.900 10.400 176.900 H 18.300 C 18.400 176.900 18.300 176.800 18.300 176.900 V 192.700 C 18.300 192.800 18.400 192.700 18.300 192.700 H 10.400 C 10.345 192.700 10.300 192.745 10.300 192.800 V 208.800 C 10.300 208.855 10.345 208.900 10.400 208.900 H 18.300 C 18.400 208.900 18.300 208.800 18.300 208.900 V 224.700 C 18.300 224.800 18.400 224.700 18.300 224.700 H 10.400 C 10.345 224.700 10.300 224.745 10.300 224.800 V 240.800 C 10.300 240.855 10.345 240.900 10.400 240.900 H 18.300 C 18.400 240.900 18.300 240.800 18.300 240.900 V 256.700 C 18.300 256.800 18.400 256.700 18.300 256.700 H 10.400 C 10.345 256.700 10.300 256.745 10.300 256.800 V 279.300 C 10.300 279.355 10.345 279.400 10.400 279.400 H 18.400" stroke="rgb(0,0,0)" stroke-width="0.20" />
</g>
<g id="p-5" style="fill:none;stroke-linecap:round;stroke-linejoin:round;">
  <text transform="matrix( 1.000 0.000 0.000 1.000 178.400 82.200 )" style="font-family: sans-serif ; font-weight: normal; font-style: normal; fill: rgb(255,0,0)" font-size="4px" text-anchor="middle" dominant-baseline="hanging">Top</text><path d="M 18.400 134.200 H 42.300 C 42.400 134.200 42.300 134.100 42.300 134.200 V 142.100 C 42.300 142.155 42.345 142.200 42.400 142.200 H 58.400 C 58.455 142.200 58.500 142.155 58.500 142.100 V 134.200 C 58.500 134.100 58.400 134.200 58.500 134.200 H 74.300 C 74.400 134.200 74.300 134.100 74.300 134.200 V 142.100 C 74.300 142.155 74.345 142.200 74.400 142.200 H 90.400 C 90.455 142.200 90.500 142.155 90.500 142.100 V 134.200 C 90.500 134.100 90.400 134.200 90.500 134.200 H 106.300 C 106.400 134.200 106.300 134.100 106.300 134.200 V 142.100 C 106.300 142.155 106.345 142.200 106.400 142.200 H 122.400 C 122.455 142.200 122.500 142.155 122.500 142.100 V 134.200 C 122.500 134.100 122.400 134.200 122.500 134.200 H 138.300 C 138.400 134.200 138.300 134.100 138.300 134.200 V 142.100 C 138.300 142.155 138.345 142.200 138.400 142.200 H 154.400 C 154.455 142.200 154.500 142.155 154.500 142.100 V 134.200 C 154.500 134.100 154.400 134.200 154.500 134.200 H 170.300 C 170.400 134.200 170.300 134.100 170.300 134.200 V 142.100 C 170.300 142.155 170.345 142.200 170.400 142.200 H 186.400 C 186.455 142.200 186.500 142.155 186.500 142.100 V 134.200 C 186.500 134.100 186.400 134.200 186.500 134.200 H 202.300 C 202.400 134.200 202.300 134.100 202.300 134.200 V 142.100 C 202.300 142.155 202.345 142.200 202.400 142.200 H 218.400 C 218.455 142.200 218.500 142.155 218.500 142.100 V 134.200 C 218.500 134.100 218.400 134.200 218.500 134.200 H 234.300 C 234.400 134.200 234.300 134.100 234.300 134.200 V 142.100 C 234.300 142.155 234.345 142.200 234.400 142.200 H 250.400 C 250.455 142.200 250.500 142.155 250.500 142.100 V 134.200 C 250.500 134.100 250.400 134.200 250.500 134.200 H 266.300 C 266.400 134.200 266.300 134.100 266.300 134.200 V 142.100 C 266.300 142.155 266.345 142.200 266.400 142.200 H 282.400 C 282.455 142.200 282.500 142.155 282.500 142.100 V 134.200 C 282.500 134.100 282.400 134.200 282.500 134.200 H 298.300 C 298.400 134.200 298.300 134.100 298.300 134.200 V 142.100 C 298.300 142.155 298.345 142.200 298.400 142.200 H 314.400 C 314.455 142.200 314.500 142.155 314.500 142.100 V 134.200 C 314.500 134.100 314.400 134.200 314.500 134.200 H 338.400 C 338.455 134.200 338.500 134.155 338.500 134.100 V 108.200 C 338.500 108.100 338.400 108.200 338.500 108.200 H 346.400 C 346.455 108.200 346.500 108.155 346.500 108.100 V 92.100 C 346.500 92.045 346.455 92.000 346.400 92.000 H 338.500 C 338.400 92.000 338.500 92.100 338.500 92.000 V 76.200 C 338.500 76.100 338.400 76.200 338.500 76.200 H 346.400 C 346.455 76.200 346.500 76.155 346.500 76.100 V 60.100 C 346.500 60.045 346.455 60.000 346.400 60.000 H 338.500 C 338.400 60.000 338.500 60.100 338.500 60.000 V 34.100 C 338.500 34.045 338.455 34.000 338.400 34.000 H 314.500 C 314.400 34.000 314.500 34.100 314.500 34.000 V 26.100 C 314.500 26.045 314.455 26.000 314.400 26.000 H 298.400 C 298.345 26.000 298.300 26.045 298.300 26.100 V 34.000 C 298.300 34.100 298.400 34.000 298.300 34.000 H 282.500 C 282.400 34.000 282.500 34.100 282.500 34.000 V 26.100 C 282.500 26.045 282.455 26.000 282.400 26.000 H 266.400 C 266.345 26.000 266.300 26.045 266.300 26.100 V 34.000 C 266.300 34.100 266.400 34.000 266.300 34.000 H 250.500 C 250.400 34.000 250.500 34.100 250.500 34.000 V 26.100 C 250.500 26.045 250.455 26.000 250.400 26.000 H 234.400 C 234.345 26.000 234.300 26.045 234.300 26.100 V 34.000 C 234.300 34.100 234.400 34.000 234.300 34.000 H 218.500 C 218.400 34.000 218.500 34.100 218.500 34.000 V 26.100 C 218.500 26.045 218.455 26.000 218.400 26.000 H 202.400 C 202.345 26.000 202.300 26.045 202.300 26.100 V 34.000 C 202.300 34.100 202.400 34.000 202.300 34.000 H 186.500 C 186.400 34.000 186.500 34.100 186.500 34.000 V 26.100 C 186.500 26.045 186.455 26.000 186.400 26.000 H 170.400 C 170.345 26.000 170.300 26.045 170.300 26.100 V 34.000 C 170.300 34.100 170.400 34.000 170.300 34.000 H 154.500 C 154.400 34.000 154.500 34.100 154.500 34.000 V 26.100 C 154.500 26.045 154.455 26.000 154.400 26.000 H 138.400 C 138.345 26.000 138.300 26.045 138.300 26.100 V 34.000 C 138.300 34.100 138.400 34.000 138.300 34.000 H 122.500 C 122.400 34.000 122.500 34.100 122.500 34.000 V 26.100 C 122.500 26.045 122.455 26.000 122.400 26.000 H 106.400 C 106.345 26.000 106.300 26.045 106.300 26.100 V 34.000 C 106.300 34.100 106.400 34.000 106.300 34.000 H 90.500 C 90.400 34.000 90.500 34.100 90.500 34.000 V 26.100 C 90.500 26.045 90.455 26.000 90.400 26.000 H 74.400 C 74.345 26.000 74.300 26.045 74.300 26.100 V 34.000 C 74.300 34.100 74.400 34.000 74.300 34.000 H 58.500 C 58.400 34.000 58.500 34.100 58.500 34.000 V 26.100 C 58.500 26.045 58.455 26.000 58.400 26.000 H 42.400 C 42.345 26.000 42.300 26.045 42.300 26.100 V 34.000 C 42.300 34.100 42.400 34.000 42.300 34.000 H 18.400 C 18.345 34.000 18.300 34.045 18.300 34.100 V 60.000 C 18.300 60.100 18.400 60.000 18.300 60.000 H 10.400 C 10.345 60.000 10.300 60.045 10.300 60.100 V 76.100 C 10.300 76.155 10.345 76.200 10.400 76.200 H 18.300 C 18.400 76.200 18.300 76.100 18.300 76.200 V 92.000 C 18.300 92.100 18.400 92.000 18.300 92.000 H 10.400 C 10.345 92.000 10.300 92.045 10.300 92.100 V 108.100 C 10.300 108.155 10.345 108.200 10.400 108.200 H 18.300 C 18.400 108.200 18.300 108.100 18.300 108.200 V 134.100 C 18.300 134.155 18.345 134.200 18.400 134.200" stroke="rgb(0,0,0)" stroke-width="0.20" />
</g>
<g id="p-6" style="fill:none;stroke-linecap:round;stroke-linejoin:round;">
  <path d="M 398.600 134.000 H 390.700 C 390.600 134.000 390.700 134.100 390.700 134.000 V 126.200 C 390.700 126.100 390.600 126.200 390.700 126.200 H 406.500 C 406.600 126.200 406.500 126.100 406.500 126.200 V 134.000 C 406.500 134.100 406.600 134.000 406.500 134.000 H 398.600 Z" stroke="rgb(0,0,255)" stroke-width="0.20" />
  <path d="M 430.600 134.000 H 422.700 C 422.600 134.000 422.700 134.100 422.700 134.000 V 126.200 C 422.700 126.100 422.600 126.200 422.700 126.200 H 438.500 C 438.600 126.200 438.500 126.100 438.500 126.200 V 134.000 C 438.500 134.100 438.600 134.000 438.500 134.000 H 430.600 Z" stroke="rgb(0,0,255)" stroke-width="0.20" />
  <path d="M 462.600 134.000 H 454.700 C 454.600 134.000 454.700 134.100 454.700 134.000 V 126.200 C 454.700 126.100 454.600 126.200 454.700 126.200 H 470.500 C 470.600 126.200 470.500 126.100 470.500 126.200 V 134.000 C 470.500 134.100 470.600 134.000 470.500 134.000 H 462.600 Z" stroke="rgb(0,0,255)" stroke-width="0.20" />
  <path d="M 494.600 134.000 H 486.700 C 486.600 134.000 486.700 134.100 486.700 134.000 V 126.200 C 486.700 126.100 486.600 126.200 486.700 126.200 H 502.500 C 502.600 126.200 502.500 126.100 502.500 126.200 V 134.000 C 502.500 134.100 502.600 134.000 502.500 134.000 H 494.600 Z" stroke="rgb(0,0,255)" stroke-width="0.20" />
  <path d="M 526.600 134.000 H 518.700 C 518.600 134.000 518.700 134.100 518.700 134.000 V 126.200 C 518.700 126.100 518.600 126.200 518.700 126.200 H 534.500 C 534.600 126.200 534.500 126.100 534.500 126.200 V 134.000 C 534.500 134.100 534.600 134.000 534.500 134.000 H 526.600 Z" stroke="rgb(0,0,255)" stroke-width="0.20" />
  <path d="M 558.600 134.000 H 550.700 C 550.600 134.000 550.700 134.100 550.700 134.000 V 126.200 C 550.700 126.100 550.600 126.200 550.700 126.200 H 566.500 C 566.600 126.200 566.500 126.100 566.500 126.200 V 134.000 C 566.500 134.100 566.600 134.000 566.500 134.000 H 558.600 Z" stroke="rgb(0,0,255)" stroke-width="0.20" />
  <path d="M 590.600 134.000 H 582.700 C 582.600 134.000 582.700 134.100 582.700 134.000 V 126.200 C 582.700 126.100 582.600 126.200 582.700 126.200 H 598.500 C 598.600 126.200 598.500 126.100 598.500 126.200 V 134.000 C 598.500 134.100 598.600 134.000 598.500 134.000 H 590.600 Z" stroke="rgb(0,0,255)" stroke-width="0.20" />
  <path d="M 622.600 134.000 H 614.700 C 614.600 134.000 614.700 134.100 614.700 134.000 V 126.200 C 614.700 126.100 614.600 126.200 614.700 126.200 H 630.500 C 630.600 126.200 630.500 126.100 630.500 126.200 V 134.000 C 630.500 134.100 630.600 134.000 630.500 134.000 H 622.600 Z" stroke="rgb(0,0,255)" stroke-width="0.20" />
  <path d="M 654.600 134.000 H 646.700 C 646.600 134.000 646.700 134.100 646.700 134.000 V 126.200 C 646.700 126.100 646.600 126.200 646.700 126.200 H 662.500 C 662.600 126.200 662.500 126.100 662.500 126.200 V 134.000 C 662.500 134.100 662.600 134.000 662.500 134.000 H 654.600 Z" stroke="rgb(0,0,255)" stroke-width="0.20" />
  <text transform="matrix( 1.000 0.000 0.000 1.000 526.600 74.200 )" style="font-family: sans-serif ; font-weight: normal; font-style: normal; fill: rgb(255,0,0)" font-size="4px" text-anchor="middle" dominant-baseline="hanging">Base</text><path d="M 366.600 142.200 H 686.600 H 702.600 C 702.655 142.200 702.700 142.155 702.700 142.100 V 126.100 V 26.100 V 10.100 C 702.700 10.045 702.655 10.000 702.600 10.000 H 686.600 H 366.600 H 350.600 C 350.545 10.000 350.500 10.045 350.500 10.100 V 26.100 V 126.100 V 142.100 C 350.500 142.155 350.545 142.200 350.600 142.200 H 366.600" stroke="rgb(0,0,0)" stroke-width="0.20" />
  <path d="M 694.500 92.100 V 100.000 C 694.500 100.100 694.600 100.000 694.500 100.000 H 686.700 C 686.600 100.000 686.700 100.100 686.700 100.000 V 84.200 C 686.700 84.100 686.600 84.200 686.700 84.200 H 694.500 C 694.600 84.200 694.500 84.100 694.500 84.200 V 92.100 Z" stroke="rgb(0,0,255)" stroke-width="0.20" />
  <path d="M 694.500 60.100 V 68.000 C 694.500 68.100 694.600 68.000 694.500 68.000 H 686.700 C 686.600 68.000 686.700 68.100 686.700 68.000 V 52.200 C 686.700 52.100 686.600 52.200 686.700 52.200 H 694.500 C 694.600 52.200 694.500 52.100 694.500 52.200 V 60.100 Z" stroke="rgb(0,0,255)" stroke-width="0.20" />
  <path d="M 654.600 18.200 H 662.500 C 662.600 18.200 662.500 18.100 662.500 18.200 V 26.000 C 662.500 26.100 662.600 26.000 662.500 26.000 H 646.700 C 646.600 26.000 646.700 26.100 646.700 26.000 V 18.200 C 646.700 18.100 646.600 18.200 646.700 18.200 H 654.600 Z" stroke="rgb(0,0,255)" stroke-width="0.20" />
  <path d="M 622.600 18.200 H 630.500 C 630.600 18.200 630.500 18.100 630.500 18.200 V 26.000 C 630.500 26.100 630.600 26.000 630.500 26.000 H 614.700 C 614.600 26.000 614.700 26.100 614.700 26.000 V 18.200 C 614.700 18.100 614.600 18.200 614.700 18.200 H 622.600 Z" stroke="rgb(0,0,255)" stroke-width="0.20" />
  <path d="M 590.600 18.200 H 598.500 C 598.600 18.200 598.500 18.100 598.500 18.200 V 26.000 C 598.500 26.100 598.600 26.000 598.500 26.000 H 582.700 C 582.600 26.000 582.700 26.100 582.700 26.000 V 18.200 C 582.700 18.100 582.600 18.200 582.700 18.200 H 590.600 Z" stroke="rgb(0,0,255)" stroke-width="0.20" />
  <path d="M 558.600 18.200 H 566.500 C 566.600 18.200 566.500 18.100 566.500 18.200 V 26.000 C 566.500 26.100 566.600 26.000 566.500 26.000 H 550.700 C 550.600 26.000 550.700 26.100 550.700 26.000 V 18.200 C 550.700 18.100 550.600 18.200 550.700 18.200 H 558.600 Z" stroke="rgb(0,0,255)" stroke-width="0.20" />
  <path d="M 526.600 18.200 H 534.500 C 534.600 18.200 534.500 18.100 534.500 18.200 V 26.000 C 534.500 26.100 534.600 26.000 534.500 26.000 H 518.700 C 518.600 26.000 518.700 26.100 518.700 26.000 V 18.200 C 518.700 18.100 518.600 18.200 518.700 18.200 H 526.600 Z" stroke="rgb(0,0,255)" stroke-width="0.20" />
  <path d="M 494.600 18.200 H 502.500 C 502.600 18.200 502.500 18.100 502.500 18.200 V 26.000 C 502.500 26.100 502.600 26.000 502.500 26.000 H 486.700 C 486.600 26.000 486.700 26.100 486.700 26.000 V 18.200 C 486.700 18.100 486.600 18.200 486.700 18.200 H 494.600 Z" stroke="rgb(0,0,255)" stroke-width="0.20" />
  <path d="M 462.600 18.200 H 470.500 C 470.600 18.200 470.500 18.100 470.500 18.200 V 26.000 C 470.500 26.100 470.600 26.000 470.500 26.000 H 454.700 C 454.600 26.000 454.700 26.100 454.700 26.000 V 18.200 C 454.700 18.100 454.600 18.200 454.700 18.200 H 462.600 Z" stroke="rgb(0,0,255)" stroke-width="0.20" />
  <path d="M 430.600 18.200 H 438.500 C 438.600 18.200 438.500 18.100 438.500 18.200 V 26.000 C 438.500 26.100 438.600 26.000 438.500 26.000 H 422.700 C 422.600 26.000 422.700 26.100 422.700 26.000 V 18.200 C 422.700 18.100 422.600 18.200 422.700 18.200 H 430.600 Z" stroke="rgb(0,0,255)" stroke-width="0.20" />
  <path d="M 398.600 18.200 H 406.500 C 406.600 18.200 406.500 18.100 406.500 18.200 V 26.000 C 406.500 26.100 406.600 26.000 406.500 26.000 H 390.700 C 390.600 26.000 390.700 26.100 390.700 26.000 V 18.200 C 390.700 18.100 390.600 18.200 390.700 18.200 H 398.600 Z" stroke="rgb(0,0,255)" stroke-width="0.20" />
  <path d="M 358.700 60.100 V 52.200 C 358.700 52.100 358.600 52.200 358.700 52.200 H 366.500 C 366.600 52.200 366.500 52.100 366.500 52.200 V 68.000 C 366.500 68.100 366.600 68.000 366.500 68.000 H 358.700 C 358.600 68.000 358.700 68.100 358.700 68.000 V 60.100 Z" stroke="rgb(0,0,255)" stroke-width="0.20" />
  <path d="M 358.700 92.100 V 84.200 C 358.700 84.100 358.600 84.200 358.700 84.200 H 366.500 C 366.600 84.200 366.500 84.100 366.500 84.200 V 100.000 C 366.500 100.100 366.600 100.000 366.500 100.000 H 358.700 C 358.600 100.000 358.700 100.100 358.700 100.000 V 92.100 Z" stroke="rgb(0,0,255)" stroke-width="0.20" />
</g>
</svg>