<?xml version="1.0" encoding="UTF-8" standalone="no"?><!DOCTYPE svg PUBLIC "-//W3C//DTD SVG 1.1//EN" "http://www.w3.org/Graphics/SVG/1.1/DTD/svg11.dtd"><svg width="100%" height="100%" viewBox="0 0 2384 1684" version="1.1" xmlns="http://www.w3.org/2000/svg" xmlns:xlink="http://www.w3.org/1999/xlink" xml:space="preserve" xmlns:serif="http://www.serif.com/" style="fill-rule:evenodd;clip-rule:evenodd;stroke-linecap:round;stroke-linejoin:round;"><path d="M1285.8,1110.18l-84.756,0c-0.283,0 0,0.284 0,0l0,-28.063c0,-0.156 -0.127,-0.283 -0.283,-0.283l-56.693,-0c-0.156,-0 -0.283,0.127 -0.283,0.283l-0,28.063c-0,0.284 0.283,0 -0,0l-56.126,0c-0.284,0 -0,0.284 -0,0l-0,-28.063c-0,-0.156 -0.128,-0.283 -0.284,-0.283l-56.693,-0c-0.156,-0 -0.283,0.127 -0.283,0.283l-0,28.063c-0,0.284 0.283,0 -0,0l-56.126,0c-0.284,0 -0,0.284 -0,0l-0,-28.063c-0,-0.156 -0.128,-0.283 -0.284,-0.283l-56.693,-0c-0.156,-0 -0.283,0.127 -0.283,0.283l-0,28.063c-0,0.284 0.283,0 -0,0l-56.126,0c-0.284,0 -0,0.284 -0,0l-0,-28.063c-0,-0.156 -0.128,-0.283 -0.284,-0.283l-56.692,-0c-0.156,-0 -0.284,0.127 -0.284,0.283l0,28.063c0,0.284 0.284,0 0,0l-56.126,0c-0.283,0 0,0.284 0,0l0,-28.063c0,-0.156 -0.127,-0.283 -0.283,-0.283l-56.693,-0c-0.156,-0 -0.284,0.127 -0.284,0.283l0,28.063c0,0.284 0.284,0 0,0l-56.126,0c-0.283,0 0,0.284 0,0l0,-28.063c0,-0.156 -0.127,-0.283 -0.283,-0.283l-56.693,-0c-0.156,-0 -0.284,0.127 -0.284,0.283l0,28.063c0,0.284 0.284,0 0,0l-56.126,0c-0.283,0 0,0.284 0,0l0,-28.063c0,-0.156 -0.127,-0.283 -0.283,-0.283l-56.693,-0c-0.156,-0 -0.283,0.127 -0.283,0.283l-0,28.063c-0,0.284 0.283,0 -0,0l-113.103,0c-0.156,0 -0.283,0.128 -0.283,0.284l-0,92.126c-0,0.156 0.127,0.283 0.283,0.283l28.063,0c0.284,0 0,-0.283 0,0l0,56.126c0,0.284 0.284,0 0,0l-28.063,0c-0.156,0 -0.283,0.128 -0.283,0.284l-0,56.692c-0,0.156 0.127,0.284 0.283,0.284l28.063,-0c0.284,-0 0,-0.284 0,-0l0,56.126c0,0.283 0.284,-0 0,-0l-28.063,-0c-0.156,-0 -0.283,0.127 -0.283,0.283l-0,120.473c-0,0.156 0.127,0.283 0.283,0.283l113.386,0c0.156,0 0.283,-0.127 0.283,-0.283l0,-28.063c0,-0.284 -0.283,-0 0,-0l56.126,-0c0.284,-0 0,-0.284 0,-0l0,28.063c0,0.156 0.128,0.283 0.284,0.283l56.693,0c0.156,0 0.283,-0.127 0.283,-0.283l0,-28.063c0,-0.284 -0.283,-0 0,-0l56.126,-0c0.284,-0 0,-0.284 0,-0l0,28.063c0,0.156 0.128,0.283 0.284,0.283l56.693,0c0.156,0 0.283,-0.127 0.283,-0.283l0,-28.063c0,-0.284 -0.283,-0 0,-0l56.126,-0c0.284,-0 0,-0.284 0,-0l0,28.063c0,0.156 0.128,0.283 0.284,0.283l56.693,0c0.155,0 0.283,-0.127 0.283,-0.283l-0,-28.063c-0,-0.284 -0.283,-0 -0,-0l56.126,-0c0.283,-0 -0,-0.284 -0,-0l-0,28.063c-0,0.156 0.128,0.283 0.283,0.283l56.693,0c0.156,0 0.284,-0.127 0.284,-0.283l-0,-28.063c-0,-0.284 -0.284,-0 -0,-0l56.126,-0c0.283,-0 -0,-0.284 -0,-0l-0,28.063c-0,0.156 0.127,0.283 0.283,0.283l56.693,0c0.156,0 0.284,-0.127 0.284,-0.283l-0,-28.063c-0,-0.284 -0.284,-0 -0,-0l56.126,-0c0.283,-0 -0,-0.284 -0,-0l-0,28.063c-0,0.156 0.127,0.283 0.283,0.283l56.693,0c0.156,0 0.283,-0.127 0.283,-0.283l0,-28.063c0,-0.284 -0.283,-0 0,-0l56.126,-0c0.284,-0 0,-0.284 0,-0l0,28.063c0,0.156 0.128,0.283 0.284,0.283l113.386,0c0.156,0 0.283,-0.127 0.283,-0.283l0,-120.473c0,-0.156 -0.127,-0.283 -0.283,-0.283l-28.063,-0c-0.284,-0 -0,0.283 -0,-0l-0,-56.126c-0,-0.284 -0.284,-0 -0,-0l28.063,-0c0.156,-0 0.283,-0.128 0.283,-0.284l0,-56.692c0,-0.156 -0.127,-0.284 -0.283,-0.284l-28.063,0c-0.284,0 -0,0.284 -0,0l-0,-56.126c-0,-0.283 -0.284,0 -0,0l28.063,0c0.156,0 0.283,-0.127 0.283,-0.283l0,-92.126c0,-0.156 -0.127,-0.284 -0.283,-0.284l-28.347,0" style="fill:none;fill-rule:nonzero;stroke:#000;stroke-width:2.36px;"/><path d="M1357.23,1465.08l56.41,-0c0.283,-0 -0,-0.284 -0,-0l-0,28.063c-0,0.156 0.127,0.283 0.283,0.283l56.693,0c0.156,0 0.284,-0.127 0.284,-0.283l-0,-28.063c-0,-0.284 -0.284,-0 -0,-0l56.126,-0c0.283,-0 -0,-0.284 -0,-0l-0,28.063c-0,0.156 0.127,0.283 0.283,0.283l56.693,0c0.156,0 0.283,-0.127 0.283,-0.283l0,-28.063c0,-0.284 -0.283,-0 0,-0l56.41,-0c0.156,-0 0.283,-0.128 0.283,-0.284l0,-91.842c0,-0.284 -0.283,-0 0,-0l28.063,-0c0.156,-0 0.284,-0.128 0.284,-0.284l-0,-56.693c-0,-0.155 -0.128,-0.283 -0.284,-0.283l-28.063,-0c-0.283,-0 0,0.283 0,-0l0,-56.126c0,-0.283 -0.283,-0 0,-0l28.063,-0c0.156,-0 0.284,-0.128 0.284,-0.283l-0,-56.693c-0,-0.156 -0.128,-0.284 -0.284,-0.284l-28.063,0c-0.283,0 0,0.284 0,0l0,-120.189c0,-0.156 -0.127,-0.283 -0.283,-0.283l-56.693,-0c-0.156,-0 -0.283,0.127 -0.283,0.283l-0,28.063c-0,0.284 0.283,0 -0,0l-56.126,0c-0.284,0 -0,0.284 -0,0l-0,-28.063c-0,-0.156 -0.128,-0.283 -0.284,-0.283l-56.693,-0c-0.156,-0 -0.283,0.127 -0.283,0.283l-0,28.063c-0,0.284 0.283,0 -0,0l-56.126,0c-0.284,0 -0,0.284 -0,0l-0,-28.063c-0,-0.156 -0.128,-0.283 -0.284,-0.283l-56.693,-0c-0.156,-0 -0.283,0.127 -0.283,0.283l-0,120.189c-0,0.284 0.283,0 -0,0l-28.063,0c-0.156,0 -0.284,0.128 -0.284,0.284l0,56.693c0,0.155 0.128,0.283 0.284,0.283l28.063,-0c0.283,-0 -0,-0.283 -0,-0l-0,56.126c-0,0.283 0.283,-0 -0,-0l-28.063,-0c-0.156,-0 -0.284,0.128 -0.284,0.283l0,56.693c0,0.156 0.128,0.284 0.284,0.284l28.063,-0c0.283,-0 -0,-0.284 -0,-0l-0,91.842c-0,0.156 0.127,0.284 0.283,0.284" style="fill:none;fill-rule:nonzero;stroke:#000;stroke-width:2.36px;"/><path d="M1357.23,1039.32l56.41,0c0.283,0 -0,-0.283 -0,0l-0,28.063c-0,0.156 0.127,0.283 0.283,0.283l56.693,0c0.156,0 0.284,-0.127 0.284,-0.283l-0,-28.063c-0,-0.283 -0.284,0 -0,0l56.126,0c0.283,0 -0,-0.283 -0,0l-0,28.063c-0,0.156 0.127,0.283 0.283,0.283l56.693,0c0.156,0 0.283,-0.127 0.283,-0.283l0,-28.063c0,-0.283 -0.283,0 0,0l56.41,0c0.156,0 0.283,-0.128 0.283,-0.283l0,-91.843c0,-0.283 -0.283,0 0,0l28.063,0c0.156,0 0.284,-0.128 0.284,-0.283l-0,-56.693c-0,-0.156 -0.128,-0.284 -0.284,-0.284l-28.063,0c-0.283,0 0,0.284 0,0l0,-56.126c0,-0.283 -0.283,0 0,0l28.063,0c0.156,0 0.284,-0.127 0.284,-0.283l-0,-56.693c-0,-0.156 -0.128,-0.284 -0.284,-0.284l-28.063,0c-0.283,0 0,0.284 0,0l0,-120.189c0,-0.156 -0.127,-0.283 -0.283,-0.283l-56.693,-0c-0.156,-0 -0.283,0.127 -0.283,0.283l-0,28.063c-0,0.284 0.283,0 -0,0l-56.126,0c-0.284,0 -0,0.284 -0,0l-0,-28.063c-0,-0.156 -0.128,-0.283 -0.284,-0.283l-56.693,-0c-0.156,-0 -0.283,0.127 -0.283,0.283l-0,28.063c-0,0.284 0.283,0 -0,0l-56.126,0c-0.284,0 -0,0.284 -0,0l-0,-28.063c-0,-0.156 -0.128,-0.283 -0.284,-0.283l-56.693,-0c-0.156,-0 -0.283,0.127 -0.283,0.283l-0,120.189c-0,0.284 0.283,0 -0,0l-28.063,0c-0.156,0 -0.284,0.128 -0.284,0.284l0,56.693c0,0.156 0.128,0.283 0.284,0.283l28.063,0c0.283,0 -0,-0.283 -0,0l-0,56.126c-0,0.284 0.283,0 -0,0l-28.063,0c-0.156,0 -0.284,0.128 -0.284,0.284l0,56.693c0,0.155 0.128,0.283 0.284,0.283l28.063,0c0.283,0 -0,-0.283 -0,0l-0,91.843c-0,0.155 0.127,0.283 0.283,0.283" style="fill:none;fill-rule:nonzero;stroke:#000;stroke-width:2.36px;"/><path d="M1285.8,684.419l-84.756,0c-0.283,0 0,0.284 0,0l0,-28.063c0,-0.156 -0.127,-0.283 -0.283,-0.283l-56.693,-0c-0.156,-0 -0.283,0.127 -0.283,0.283l-0,28.063c-0,0.284 0.283,0 -0,0l-56.126,0c-0.284,0 -0,0.284 -0,0l-0,-28.063c-0,-0.156 -0.128,-0.283 -0.284,-0.283l-56.693,-0c-0.156,-0 -0.283,0.127 -0.283,0.283l-0,28.063c-0,0.284 0.283,0 -0,0l-56.126,0c-0.284,0 -0,0.284 -0,0l-0,-28.063c-0,-0.156 -0.128,-0.283 -0.284,-0.283l-56.693,-0c-0.156,-0 -0.283,0.127 -0.283,0.283l-0,28.063c-0,0.284 0.283,0 -0,0l-56.126,0c-0.284,0 -0,0.284 -0,0l-0,-28.063c-0,-0.156 -0.128,-0.283 -0.284,-0.283l-56.692,-0c-0.156,-0 -0.284,0.127 -0.284,0.283l0,28.063c0,0.284 0.284,0 0,0l-56.126,0c-0.283,0 0,0.284 0,0l0,-28.063c0,-0.156 -0.127,-0.283 -0.283,-0.283l-56.693,-0c-0.156,-0 -0.284,0.127 -0.284,0.283l0,28.063c0,0.284 0.284,0 0,0l-56.126,0c-0.283,0 0,0.284 0,0l0,-28.063c0,-0.156 -0.127,-0.283 -0.283,-0.283l-56.693,-0c-0.156,-0 -0.284,0.127 -0.284,0.283l0,28.063c0,0.284 0.284,0 0,0l-56.126,0c-0.283,0 0,0.284 0,0l0,-28.063c0,-0.156 -0.127,-0.283 -0.283,-0.283l-56.693,-0c-0.156,-0 -0.283,0.127 -0.283,0.283l-0,28.063c-0,0.284 0.283,0 -0,0l-113.103,0c-0.156,0 -0.283,0.128 -0.283,0.284l-0,92.126c-0,0.156 0.127,0.283 0.283,0.283l28.063,0c0.284,0 0,-0.283 0,0l0,56.126c0,0.284 0.284,0 0,0l-28.063,0c-0.156,0 -0.283,0.128 -0.283,0.284l-0,56.693c-0,0.156 0.127,0.283 0.283,0.283l28.063,0c0.284,0 0,-0.283 0,0l0,56.126c0,0.284 0.284,0 0,0l-28.063,0c-0.156,0 -0.283,0.128 -0.283,0.284l-0,120.472c-0,0.156 0.127,0.283 0.283,0.283l113.386,0c0.156,0 0.283,-0.127 0.283,-0.283l0,-28.063c0,-0.283 -0.283,0 0,0l56.126,0c0.284,0 0,-0.283 0,0l0,28.063c0,0.156 0.128,0.283 0.284,0.283l56.693,0c0.156,0 0.283,-0.127 0.283,-0.283l0,-28.063c0,-0.283 -0.283,0 0,0l56.126,0c0.284,0 0,-0.283 0,0l0,28.063c0,0.156 0.128,0.283 0.284,0.283l56.693,0c0.156,0 0.283,-0.127 0.283,-0.283l0,-28.063c0,-0.283 -0.283,0 0,0l56.126,0c0.284,0 0,-0.283 0,0l0,28.063c0,0.156 0.128,0.283 0.284,0.283l56.693,0c0.155,0 0.283,-0.127 0.283,-0.283l-0,-28.063c-0,-0.283 -0.283,0 -0,0l56.126,0c0.283,0 -0,-0.283 -0,0l-0,28.063c-0,0.156 0.128,0.283 0.283,0.283l56.693,0c0.156,0 0.284,-0.127 0.284,-0.283l-0,-28.063c-0,-0.283 -0.284,0 -0,0l56.126,0c0.283,0 -0,-0.283 -0,0l-0,28.063c-0,0.156 0.127,0.283 0.283,0.283l56.693,0c0.156,0 0.284,-0.127 0.284,-0.283l-0,-28.063c-0,-0.283 -0.284,0 -0,0l56.126,0c0.283,0 -0,-0.283 -0,0l-0,28.063c-0,0.156 0.127,0.283 0.283,0.283l56.693,0c0.156,0 0.283,-0.127 0.283,-0.283l0,-28.063c0,-0.283 -0.283,0 0,0l56.126,0c0.284,0 0,-0.283 0,0l0,28.063c0,0.156 0.128,0.283 0.284,0.283l113.386,0c0.156,0 0.283,-0.127 0.283,-0.283l0,-120.472c0,-0.156 -0.127,-0.284 -0.283,-0.284l-28.063,0c-0.284,0 -0,0.284 -0,0l-0,-56.126c-0,-0.283 -0.284,0 -0,0l28.063,0c0.156,0 0.283,-0.127 0.283,-0.283l0,-56.693c0,-0.156 -0.127,-0.284 -0.283,-0.284l-28.063,0c-0.284,0 -0,0.284 -0,0l-0,-56.126c-0,-0.283 -0.284,0 -0,0l28.063,0c0.156,0 0.283,-0.127 0.283,-0.283l0,-92.126c0,-0.156 -0.127,-0.284 -0.283,-0.284l-28.347,0" style="fill:none;fill-rule:nonzero;stroke:#000;stroke-width:2.36px;"/><path d="M378.709,613.553l84.756,0c0.283,0 -0,-0.283 -0,0l-0,28.063c-0,0.156 0.127,0.284 0.283,0.284l56.693,-0c0.156,-0 0.283,-0.128 0.283,-0.284l0,-28.063c0,-0.283 -0.283,0 0,0l56.126,0c0.284,0 0,-0.283 0,0l0,28.063c0,0.156 0.128,0.284 0.284,0.284l56.693,-0c0.156,-0 0.283,-0.128 0.283,-0.284l0,-28.063c0,-0.283 -0.283,0 0,0l56.126,0c0.284,0 0,-0.283 0,0l0,28.063c0,0.156 0.128,0.284 0.284,0.284l56.693,-0c0.156,-0 0.283,-0.128 0.283,-0.284l0,-28.063c0,-0.283 -0.283,0 0,0l56.126,0c0.284,0 0,-0.283 0,0l0,28.063c0,0.156 0.128,0.284 0.284,0.284l56.692,-0c0.156,-0 0.284,-0.128 0.284,-0.284l-0,-28.063c-0,-0.283 -0.284,0 -0,0l56.126,0c0.283,0 -0,-0.283 -0,0l-0,28.063c-0,0.156 0.127,0.284 0.283,0.284l56.693,-0c0.156,-0 0.284,-0.128 0.284,-0.284l-0,-28.063c-0,-0.283 -0.284,0 -0,0l56.126,0c0.283,0 -0,-0.283 -0,0l-0,28.063c-0,0.156 0.127,0.284 0.283,0.284l56.693,-0c0.156,-0 0.284,-0.128 0.284,-0.284l-0,-28.063c-0,-0.283 -0.284,0 -0,0l56.126,0c0.283,0 -0,-0.283 -0,0l-0,28.063c-0,0.156 0.127,0.284 0.283,0.284l56.693,-0c0.156,-0 0.283,-0.128 0.283,-0.284l0,-28.063c0,-0.283 -0.283,0 0,0l84.756,0c0.156,0 0.284,-0.127 0.284,-0.283l-0,-56.41c-0,-0.283 -0.284,0 -0,0l28.063,0c0.156,0 0.283,-0.127 0.283,-0.283l0,-56.693c0,-0.156 -0.127,-0.284 -0.283,-0.284l-28.063,0c-0.284,0 -0,0.284 -0,0l-0,-56.125c-0,-0.284 -0.284,-0 -0,-0l28.063,-0c0.156,-0 0.283,-0.128 0.283,-0.284l0,-56.693c0,-0.156 -0.127,-0.283 -0.283,-0.283l-28.063,-0c-0.284,-0 -0,0.283 -0,-0l-0,-56.41c-0,-0.156 -0.128,-0.283 -0.284,-0.283l-84.756,-0c-0.283,-0 0,0.283 0,-0l0,-28.063c0,-0.156 -0.127,-0.284 -0.283,-0.284l-56.693,0c-0.156,0 -0.283,0.128 -0.283,0.284l-0,28.063c-0,0.283 0.283,-0 -0,-0l-56.126,-0c-0.284,-0 -0,0.283 -0,-0l-0,-28.063c-0,-0.156 -0.128,-0.284 -0.284,-0.284l-56.693,0c-0.156,0 -0.283,0.128 -0.283,0.284l-0,28.063c-0,0.283 0.283,-0 -0,-0l-56.126,-0c-0.284,-0 -0,0.283 -0,-0l-0,-28.063c-0,-0.156 -0.128,-0.284 -0.284,-0.284l-56.693,0c-0.156,0 -0.283,0.128 -0.283,0.284l-0,28.063c-0,0.283 0.283,-0 -0,-0l-56.126,-0c-0.284,-0 -0,0.283 -0,-0l-0,-28.063c-0,-0.156 -0.128,-0.284 -0.284,-0.284l-56.692,0c-0.156,0 -0.284,0.128 -0.284,0.284l0,28.063c0,0.283 0.284,-0 0,-0l-56.126,-0c-0.283,-0 0,0.283 0,-0l0,-28.063c0,-0.156 -0.127,-0.284 -0.283,-0.284l-56.693,0c-0.156,0 -0.284,0.128 -0.284,0.284l0,28.063c0,0.283 0.284,-0 0,-0l-56.126,-0c-0.283,-0 0,0.283 0,-0l0,-28.063c0,-0.156 -0.127,-0.284 -0.283,-0.284l-56.693,0c-0.156,0 -0.284,0.128 -0.284,0.284l0,28.063c0,0.283 0.284,-0 0,-0l-56.126,-0c-0.283,-0 0,0.283 0,-0l0,-28.063c0,-0.156 -0.127,-0.284 -0.283,-0.284l-56.693,0c-0.156,0 -0.283,0.128 -0.283,0.284l-0,28.063c-0,0.283 0.283,-0 -0,-0l-84.756,-0c-0.156,-0 -0.284,0.127 -0.284,0.283l0,56.41c0,0.283 0.284,-0 0,-0l-28.063,-0c-0.156,-0 -0.283,0.127 -0.283,0.283l-0,56.693c-0,0.156 0.127,0.284 0.283,0.284l28.063,-0c0.284,-0 0,-0.284 0,-0l0,56.125c0,0.284 0.284,0 0,0l-28.063,0c-0.156,0 -0.283,0.128 -0.283,0.284l-0,56.693c-0,0.156 0.127,0.283 0.283,0.283l28.063,0c0.284,0 0,-0.283 0,0l0,56.41c0,0.156 0.128,0.283 0.284,0.283" style="fill:none;fill-rule:nonzero;stroke:#000;stroke-width:2.36px;"/><path d="M1527.02,612.986l-56.126,0c-0.284,0 -0,0.284 -0,0l-0,-27.779c-0,-0.284 -0.284,-0 -0,-0l56.126,-0c0.283,-0 -0,-0.284 -0,-0l-0,27.779c-0,0.284 0.283,0 -0,0Z" style="fill:none;fill-rule:nonzero;stroke:#00f;stroke-width:2.36px;"/><path d="M1640.41,612.986l-56.126,0c-0.283,0 0,0.284 0,0l0,-27.779c0,-0.284 -0.283,-0 0,-0l56.126,-0c0.284,-0 0,-0.284 0,-0l0,27.779c0,0.284 0.284,0 0,0Z" style="fill:none;fill-rule:nonzero;stroke:#00f;stroke-width:2.36px;"/><path d="M1753.8,612.986l-56.126,0c-0.283,0 0,0.284 0,0l0,-27.779c0,-0.284 -0.283,-0 0,-0l56.126,-0c0.284,-0 0,-0.284 0,-0l0,27.779c0,0.284 0.284,0 0,0Z" style="fill:none;fill-rule:nonzero;stroke:#00f;stroke-width:2.36px;"/><path d="M1867.18,612.986l-56.126,0c-0.283,0 0,0.284 0,0l0,-27.779c0,-0.284 -0.283,-0 0,-0l56.126,-0c0.284,-0 0,-0.284 0,-0l0,27.779c0,0.284 0.284,0 0,0Z" style="fill:none;fill-rule:nonzero;stroke:#00f;stroke-width:2.36px;"/><path d="M1980.57,612.986l-56.126,0c-0.284,0 -0,0.284 -0,0l-0,-27.779c-0,-0.284 -0.284,-0 -0,-0l56.126,-0c0.283,-0 -0,-0.284 -0,-0l-0,27.779c-0,0.284 0.283,0 -0,0Z" style="fill:none;fill-rule:nonzero;stroke:#00f;stroke-width:2.36px;"/><path d="M2093.95,612.986l-56.126,0c-0.284,0 -0,0.284 -0,0l-0,-27.779c-0,-0.284 -0.284,-0 -0,-0l56.126,-0c0.283,-0 -0,-0.284 -0,-0l-0,27.779c-0,0.284 0.283,0 -0,0Z" style="fill:none;fill-rule:nonzero;stroke:#00f;stroke-width:2.36px;"/><path d="M2207.34,612.986l-56.126,0c-0.284,0 -0,0.284 -0,0l-0,-27.779c-0,-0.284 -0.284,-0 -0,-0l56.126,-0c0.283,-0 -0,-0.284 -0,-0l-0,27.779c-0,0.284 0.283,0 -0,0Z" style="fill:none;fill-rule:nonzero;stroke:#00f;stroke-width:2.36px;"/><path d="M1385.58,641.9l963.779,-0c0.156,-0 0.284,-0.128 0.284,-0.284l-0,-396.85c-0,-0.156 -0.128,-0.284 -0.284,-0.284l-1020.47,0c-0.156,0 -0.284,0.128 -0.284,0.284l0,396.85c0,0.156 0.128,0.284 0.284,0.284l56.693,-0" style="fill:none;fill-rule:nonzero;stroke:#000;stroke-width:2.36px;"/><path d="M2320.72,471.821l0,56.126c0,0.283 0.284,-0 0,-0l-27.779,-0c-0.284,-0 -0,0.283 -0,-0l-0,-56.126c-0,-0.284 -0.284,-0 -0,-0l27.779,-0c0.284,-0 0,-0.284 0,-0Z" style="fill:none;fill-rule:nonzero;stroke:#00f;stroke-width:2.36px;"/><path d="M2320.72,358.435l0,56.126c0,0.284 0.284,0 0,0l-27.779,0c-0.284,0 -0,0.284 -0,0l-0,-56.126c-0,-0.283 -0.284,0 -0,0l27.779,0c0.284,0 0,-0.283 0,0Z" style="fill:none;fill-rule:nonzero;stroke:#00f;stroke-width:2.36px;"/><path d="M2151.21,273.396l56.126,-0c0.283,-0 -0,-0.284 -0,-0l-0,27.779c-0,0.284 0.283,0 -0,0l-56.126,0c-0.284,0 -0,0.284 -0,0l-0,-27.779c-0,-0.284 -0.284,-0 -0,-0Z" style="fill:none;fill-rule:nonzero;stroke:#00f;stroke-width:2.36px;"/><path d="M2037.83,273.396l56.126,-0c0.283,-0 -0,-0.284 -0,-0l-0,27.779c-0,0.284 0.283,0 -0,0l-56.126,0c-0.284,0 -0,0.284 -0,0l-0,-27.779c-0,-0.284 -0.284,-0 -0,-0Z" style="fill:none;fill-rule:nonzero;stroke:#00f;stroke-width:2.36px;"/><path d="M1924.44,273.396l56.126,-0c0.283,-0 -0,-0.284 -0,-0l-0,27.779c-0,0.284 0.283,0 -0,0l-56.126,0c-0.284,0 -0,0.284 -0,0l-0,-27.779c-0,-0.284 -0.284,-0 -0,-0Z" style="fill:none;fill-rule:nonzero;stroke:#00f;stroke-width:2.36px;"/><path d="M1811.06,273.396l56.126,-0c0.284,-0 0,-0.284 0,-0l0,27.779c0,0.284 0.284,0 0,0l-56.126,0c-0.283,0 0,0.284 0,0l0,-27.779c0,-0.284 -0.283,-0 0,-0Z" style="fill:none;fill-rule:nonzero;stroke:#00f;stroke-width:2.36px;"/><path d="M1697.67,273.396l56.126,-0c0.284,-0 0,-0.284 0,-0l0,27.779c0,0.284 0.284,0 0,0l-56.126,0c-0.283,0 0,0.284 0,0l0,-27.779c0,-0.284 -0.283,-0 0,-0Z" style="fill:none;fill-rule:nonzero;stroke:#00f;stroke-width:2.36px;"/><path d="M1584.28,273.396l56.126,-0c0.284,-0 0,-0.284 0,-0l0,27.779c0,0.284 0.284,0 0,0l-56.126,0c-0.283,0 0,0.284 0,0l0,-27.779c0,-0.284 -0.283,-0 0,-0Z" style="fill:none;fill-rule:nonzero;stroke:#00f;stroke-width:2.36px;"/><path d="M1470.9,273.396l56.126,-0c0.283,-0 -0,-0.284 -0,-0l-0,27.779c-0,0.284 0.283,0 -0,0l-56.126,0c-0.284,0 -0,0.284 -0,0l-0,-27.779c-0,-0.284 -0.284,-0 -0,-0Z" style="fill:none;fill-rule:nonzero;stroke:#00f;stroke-width:2.36px;"/><path d="M1357.51,414.561l-0,-56.126c-0,-0.283 -0.284,0 -0,0l27.779,0c0.284,0 0,-0.283 0,0l0,56.126c0,0.284 0.284,0 0,0l-27.779,0c-0.284,0 -0,0.284 -0,0Z" style="fill:none;fill-rule:nonzero;stroke:#00f;stroke-width:2.36px;"/><path d="M1357.51,527.947l-0,-56.126c-0,-0.284 -0.284,-0 -0,-0l27.779,-0c0.284,-0 0,-0.284 0,-0l0,56.126c0,0.283 0.284,-0 0,-0l-27.779,-0c-0.284,-0 -0,0.283 -0,-0Z" style="fill:none;fill-rule:nonzero;stroke:#00f;stroke-width:2.36px;"/><circle cx="552.047" cy="861.868" r="134.646" style="fill:none;stroke:#000;stroke-width:2.4px;stroke-miterlimit:1.5;"/><circle cx="436.817" cy="746.638" r="7.087" style="fill:none;stroke:#000;stroke-width:2.4px;stroke-miterlimit:1.5;"/><circle cx="436.817" cy="977.098" r="7.087" style="fill:none;stroke:#000;stroke-width:2.4px;stroke-miterlimit:1.5;"/><circle cx="667.277" cy="977.098" r="7.087" style="fill:none;stroke:#000;stroke-width:2.4px;stroke-miterlimit:1.5;"/><circle cx="667.277" cy="746.638" r="7.087" style="fill:none;stroke:#000;stroke-width:2.4px;stroke-miterlimit:1.5;"/><circle cx="1112.17" cy="861.868" r="134.646" style="fill:none;stroke:#000;stroke-width:2.4px;stroke-miterlimit:1.5;"/><circle cx="996.943" cy="746.638" r="7.087" style="fill:none;stroke:#000;stroke-width:2.4px;stroke-miterlimit:1.5;"/><circle cx="996.943" cy="977.098" r="7.087" style="fill:none;stroke:#000;stroke-width:2.4px;stroke-miterlimit:1.5;"/><circle cx="1227.4" cy="977.098" r="7.087" style="fill:none;stroke:#000;stroke-width:2.4px;stroke-miterlimit:1.5;"/><circle cx="1227.4" cy="746.638" r="7.087" style="fill:none;stroke:#000;stroke-width:2.4px;stroke-miterlimit:1.5;"/><circle cx="725.765" cy="734.309" r="4.252" style="fill:none;stroke:#000;stroke-width:2.4px;stroke-miterlimit:1.5;"/><circle cx="938.363" cy="734.309" r="4.252" style="fill:none;stroke:#000;stroke-width:2.4px;stroke-miterlimit:1.5;"/><circle cx="938.363" cy="822.183" r="4.252" style="fill:none;stroke:#000;stroke-width:2.4px;stroke-miterlimit:1.5;"/><circle cx="725.765" cy="822.183" r="4.252" style="fill:none;stroke:#000;stroke-width:2.4px;stroke-miterlimit:1.5;"/><rect x="730.725" y="743.522" width="202.677" height="69.449" style="fill:none;stroke:#000;stroke-width:2.4px;stroke-miterlimit:1.5;"/><circle cx="831.703" cy="912.892" r="9.921" style="fill:none;stroke:#000;stroke-width:2.4px;stroke-miterlimit:1.5;"/><circle cx="914.457" cy="1162.56" r="3.543" style="fill:none;stroke:#000;stroke-width:2.4px;stroke-miterlimit:1.5;"/><circle cx="914.457" cy="1227.75" r="3.543" style="fill:none;stroke:#000;stroke-width:2.4px;stroke-miterlimit:1.5;"/><circle cx="750.047" cy="1227.75" r="3.543" style="fill:none;stroke:#000;stroke-width:2.4px;stroke-miterlimit:1.5;"/><circle cx="750.047" cy="1162.56" r="3.543" style="fill:none;stroke:#000;stroke-width:2.4px;stroke-miterlimit:1.5;"/><circle cx="1796.6" cy="442.389" r="9.921" style="fill:none;stroke:#000;stroke-width:2.4px;stroke-miterlimit:1.5;"/><circle cx="1881.64" cy="443.993" r="9.921" style="fill:none;stroke:#000;stroke-width:2.4px;stroke-miterlimit:1.5;"/><path d="M840.103,1404.92c4.629,2.702 7.74,7.723 7.74,13.465c-0,5.742 -3.111,10.763 -7.74,13.464l-15.702,0c-4.629,-2.701 -7.74,-7.722 -7.74,-13.464c0,-5.742 3.111,-10.763 7.74,-13.465l15.702,0Z" style="fill:none;stroke:#000;stroke-width:2.4px;stroke-miterlimit:1.5;"/></svg>