<?xml version="1.0" encoding="UTF-8" standalone="no"?><!DOCTYPE svg PUBLIC "-//W3C//DTD SVG 1.1//EN" "http://www.w3.org/Graphics/SVG/1.1/DTD/svg11.dtd"><svg width="100%" height="100%" viewBox="0 0 2246 3179" version="1.1" xmlns="http://www.w3.org/2000/svg" xmlns:xlink="http://www.w3.org/1999/xlink" xml:space="preserve" xmlns:serif="http://www.serif.com/" style="fill-rule:evenodd;clip-rule:evenodd;stroke-linecap:round;stroke-linejoin:round;"><g id="_6mm" serif:id="6mm"><path d="M447.034,996.451l-44.598,0c-0.378,0 -0,0.378 -0,0l-0,-21.921c-0,-0.378 -0.378,0 -0,0l44.598,0c0.378,0 0,-0.378 0,0l0,21.921c0,0.378 0.378,0 0,0Z" style="fill:none;fill-rule:nonzero;stroke:#00f;stroke-width:3.15px;"/><path d="M537.743,996.451l-44.599,0c-0.378,0 0,0.378 0,0l0,-21.921c0,-0.378 -0.378,0 0,0l44.599,0c0.378,0 -0,-0.378 -0,0l-0,21.921c-0,0.378 0.378,0 -0,0Z" style="fill:none;fill-rule:nonzero;stroke:#00f;stroke-width:3.15px;"/><path d="M628.451,996.451l-44.598,0c-0.378,0 0,0.378 0,0l0,-21.921c0,-0.378 -0.378,0 0,0l44.598,0c0.378,0 0,-0.378 0,0l0,21.921c0,0.378 0.378,0 0,0Z" style="fill:none;fill-rule:nonzero;stroke:#00f;stroke-width:3.15px;"/><path d="M719.16,996.451l-44.598,0c-0.378,0 -0,0.378 -0,0l-0,-21.921c-0,-0.378 -0.378,0 -0,0l44.598,0c0.378,0 0,-0.378 0,0l0,21.921c0,0.378 0.378,0 0,0Z" style="fill:none;fill-rule:nonzero;stroke:#00f;stroke-width:3.15px;"/><path d="M809.869,996.451l-44.599,0c-0.378,0 0,0.378 0,0l0,-21.921c0,-0.378 -0.378,0 0,0l44.599,0c0.378,0 -0,-0.378 -0,0l-0,21.921c-0,0.378 0.378,0 -0,0Z" style="fill:none;fill-rule:nonzero;stroke:#00f;stroke-width:3.15px;"/><path d="M900.577,996.451l-44.598,0c-0.378,0 0,0.378 0,0l0,-21.921c0,-0.378 -0.378,0 0,0l44.598,0c0.378,0 0,-0.378 0,0l0,21.921c0,0.378 0.378,0 0,0Z" style="fill:none;fill-rule:nonzero;stroke:#00f;stroke-width:3.15px;"/><path d="M991.286,996.451l-44.598,0c-0.378,0 -0,0.378 -0,0l-0,-21.921c-0,-0.378 -0.378,0 -0,0l44.598,0c0.378,0 0,-0.378 0,0l0,21.921c0,0.378 0.378,0 0,0Z" style="fill:none;fill-rule:nonzero;stroke:#00f;stroke-width:3.15px;"/><path d="M1082,996.451l-44.599,0c-0.378,0 0,0.378 0,0l0,-21.921c0,-0.378 -0.378,0 0,0l44.599,0c0.378,0 -0,-0.378 -0,0l-0,21.921c-0,0.378 0.378,0 -0,0Z" style="fill:none;fill-rule:nonzero;stroke:#00f;stroke-width:3.15px;"/><path d="M1172.7,996.451l-44.598,0c-0.378,0 -0,0.378 -0,0l-0,-21.921c-0,-0.378 -0.378,0 -0,0l44.598,0c0.378,0 0,-0.378 0,0l0,21.921c0,0.378 0.378,0 0,0Z" style="fill:none;fill-rule:nonzero;stroke:#00f;stroke-width:3.15px;"/><path d="M1263.41,996.451l-44.598,0c-0.378,0 -0,0.378 -0,0l-0,-21.921c-0,-0.378 -0.378,0 -0,0l44.598,0c0.378,0 0,-0.378 0,0l0,21.921c0,0.378 0.378,0 0,0Z" style="fill:none;fill-rule:nonzero;stroke:#00f;stroke-width:3.15px;"/><path d="M1354.12,996.451l-44.599,0c-0.378,0 0,0.378 0,0l0,-21.921c0,-0.378 -0.378,0 0,0l44.599,0c0.378,0 -0,-0.378 -0,0l-0,21.921c-0,0.378 0.378,0 -0,0Z" style="fill:none;fill-rule:nonzero;stroke:#00f;stroke-width:3.15px;"/><path d="M1444.83,996.451l-44.598,0c-0.378,0 -0,0.378 -0,0l-0,-21.921c-0,-0.378 -0.378,0 -0,0l44.598,0c0.378,0 0,-0.378 0,0l0,21.921c0,0.378 0.378,0 0,0Z" style="fill:none;fill-rule:nonzero;stroke:#00f;stroke-width:3.15px;"/><path d="M318.908,1019.88l1254.8,-0c0.208,-0 0.378,-0.171 0.378,-0.378l0,-468.662c0,-0.208 -0.17,-0.378 -0.378,-0.378l-1300.16,0c-0.208,0 -0.378,0.17 -0.378,0.378l-0,468.662c-0,0.207 0.17,0.378 0.378,0.378l45.354,-0" style="fill:none;fill-rule:nonzero;stroke:#000;stroke-width:3.15px;"/><path d="M1550.66,853.585l0,44.599c0,0.378 0.378,-0 0,-0l-21.921,-0c-0.378,-0 -0,0.378 -0,-0l-0,-44.599c-0,-0.378 -0.378,0 -0,0l21.921,0c0.378,0 0,-0.378 0,0Z" style="fill:none;fill-rule:nonzero;stroke:#00f;stroke-width:3.15px;"/><path d="M1550.66,762.877l0,44.598c0,0.378 0.378,0 0,0l-21.921,0c-0.378,0 -0,0.378 -0,0l-0,-44.598c-0,-0.378 -0.378,-0 -0,-0l21.921,-0c0.378,-0 0,-0.378 0,-0Z" style="fill:none;fill-rule:nonzero;stroke:#00f;stroke-width:3.15px;"/><path d="M1550.66,672.168l0,44.598c0,0.378 0.378,0 0,0l-21.921,0c-0.378,0 -0,0.378 -0,0l-0,-44.598c-0,-0.378 -0.378,-0 -0,-0l21.921,-0c0.378,-0 0,-0.378 0,-0Z" style="fill:none;fill-rule:nonzero;stroke:#00f;stroke-width:3.15px;"/><path d="M1400.23,573.9l44.598,0c0.378,0 0,-0.378 0,0l0,21.922c0,0.377 0.378,-0 0,-0l-44.598,-0c-0.378,-0 -0,0.377 -0,-0l-0,-21.922c-0,-0.378 -0.378,0 -0,0Z" style="fill:none;fill-rule:nonzero;stroke:#00f;stroke-width:3.15px;"/><path d="M1309.52,573.9l44.599,0c0.378,0 -0,-0.378 -0,0l-0,21.922c-0,0.377 0.378,-0 -0,-0l-44.599,-0c-0.378,-0 0,0.377 0,-0l0,-21.922c0,-0.378 -0.378,0 0,0Z" style="fill:none;fill-rule:nonzero;stroke:#00f;stroke-width:3.15px;"/><path d="M1218.81,573.9l44.598,0c0.378,0 0,-0.378 0,0l0,21.922c0,0.377 0.378,-0 0,-0l-44.598,-0c-0.378,-0 -0,0.377 -0,-0l-0,-21.922c-0,-0.378 -0.378,0 -0,0Z" style="fill:none;fill-rule:nonzero;stroke:#00f;stroke-width:3.15px;"/><path d="M1128.11,573.9l44.598,0c0.378,0 0,-0.378 0,0l0,21.922c0,0.377 0.378,-0 0,-0l-44.598,-0c-0.378,-0 -0,0.377 -0,-0l-0,-21.922c-0,-0.378 -0.378,0 -0,0Z" style="fill:none;fill-rule:nonzero;stroke:#00f;stroke-width:3.15px;"/><path d="M1037.4,573.9l44.599,0c0.378,0 -0,-0.378 -0,0l-0,21.922c-0,0.377 0.378,-0 -0,-0l-44.599,-0c-0.378,-0 0,0.377 0,-0l0,-21.922c0,-0.378 -0.378,0 0,0Z" style="fill:none;fill-rule:nonzero;stroke:#00f;stroke-width:3.15px;"/><path d="M946.688,573.9l44.598,0c0.378,0 0,-0.378 0,0l0,21.922c0,0.377 0.378,-0 0,-0l-44.598,-0c-0.378,-0 -0,0.377 -0,-0l-0,-21.922c-0,-0.378 -0.378,0 -0,0Z" style="fill:none;fill-rule:nonzero;stroke:#00f;stroke-width:3.15px;"/><path d="M855.979,573.9l44.598,0c0.378,0 0,-0.378 0,0l0,21.922c0,0.377 0.378,-0 0,-0l-44.598,-0c-0.378,-0 0,0.377 0,-0l0,-21.922c0,-0.378 -0.378,0 0,0Z" style="fill:none;fill-rule:nonzero;stroke:#00f;stroke-width:3.15px;"/><path d="M765.27,573.9l44.599,0c0.378,0 -0,-0.378 -0,0l-0,21.922c-0,0.377 0.378,-0 -0,-0l-44.599,-0c-0.378,-0 0,0.377 0,-0l0,-21.922c0,-0.378 -0.378,0 0,0Z" style="fill:none;fill-rule:nonzero;stroke:#00f;stroke-width:3.15px;"/><path d="M674.562,573.9l44.598,0c0.378,0 0,-0.378 0,0l0,21.922c0,0.377 0.378,-0 0,-0l-44.598,-0c-0.378,-0 -0,0.377 -0,-0l-0,-21.922c-0,-0.378 -0.378,0 -0,0Z" style="fill:none;fill-rule:nonzero;stroke:#00f;stroke-width:3.15px;"/><path d="M583.853,573.9l44.598,0c0.378,0 0,-0.378 0,0l0,21.922c0,0.377 0.378,-0 0,-0l-44.598,-0c-0.378,-0 0,0.377 0,-0l0,-21.922c0,-0.378 -0.378,0 0,0Z" style="fill:none;fill-rule:nonzero;stroke:#00f;stroke-width:3.15px;"/><path d="M493.144,573.9l44.599,0c0.378,0 -0,-0.378 -0,0l-0,21.922c-0,0.377 0.378,-0 -0,-0l-44.599,-0c-0.378,-0 0,0.377 0,-0l0,-21.922c0,-0.378 -0.378,0 0,0Z" style="fill:none;fill-rule:nonzero;stroke:#00f;stroke-width:3.15px;"/><path d="M402.436,573.9l44.598,0c0.378,0 0,-0.378 0,0l0,21.922c0,0.377 0.378,-0 0,-0l-44.598,-0c-0.378,-0 -0,0.377 -0,-0l-0,-21.922c-0,-0.378 -0.378,0 -0,0Z" style="fill:none;fill-rule:nonzero;stroke:#00f;stroke-width:3.15px;"/><path d="M296.609,716.766l-0,-44.598c-0,-0.378 -0.378,-0 -0,-0l21.921,-0c0.378,-0 0,-0.378 0,-0l0,44.598c0,0.378 0.378,0 0,0l-21.921,0c-0.378,0 -0,0.378 -0,0Z" style="fill:none;fill-rule:nonzero;stroke:#00f;stroke-width:3.15px;"/><path d="M296.609,807.475l-0,-44.598c-0,-0.378 -0.378,-0 -0,-0l21.921,-0c0.378,-0 0,-0.378 0,-0l0,44.598c0,0.378 0.378,0 0,0l-21.921,0c-0.378,0 -0,0.378 -0,0Z" style="fill:none;fill-rule:nonzero;stroke:#00f;stroke-width:3.15px;"/><path d="M296.609,898.184l-0,-44.599c-0,-0.378 -0.378,0 -0,0l21.921,0c0.378,0 0,-0.378 0,0l0,44.599c0,0.378 0.378,-0 0,-0l-21.921,-0c-0.378,-0 -0,0.378 -0,-0Z" style="fill:none;fill-rule:nonzero;stroke:#00f;stroke-width:3.15px;"/><path d="M281.197,1485.35l82.772,0c0.377,0 -0,-0.378 -0,0l-0,22.3c-0,0.207 0.17,0.377 0.377,0.377l45.355,0c0.208,0 0.378,-0.17 0.378,-0.377l-0,-22.3c-0,-0.378 -0.378,0 -0,0l44.598,0c0.378,0 0,-0.378 0,0l0,22.3c0,0.207 0.17,0.377 0.378,0.377l45.354,0c0.208,0 0.378,-0.17 0.378,-0.377l0,-22.3c0,-0.378 -0.378,0 0,0l44.599,0c0.378,0 -0,-0.378 -0,0l-0,22.3c-0,0.207 0.17,0.377 0.378,0.377l45.354,0c0.208,0 0.378,-0.17 0.378,-0.377l0,-22.3c0,-0.378 -0.378,0 0,0l44.598,0c0.378,0 0,-0.378 0,0l0,22.3c0,0.207 0.171,0.377 0.378,0.377l45.355,0c0.208,0 0.378,-0.17 0.378,-0.377l-0,-22.3c-0,-0.378 -0.378,0 -0,0l44.598,0c0.378,0 0,-0.378 0,0l0,22.3c0,0.207 0.17,0.377 0.378,0.377l45.354,0c0.208,0 0.378,-0.17 0.378,-0.377l0,-22.3c0,-0.378 -0.378,0 0,0l44.599,0c0.378,0 -0,-0.378 -0,0l-0,22.3c-0,0.207 0.17,0.377 0.378,0.377l45.354,0c0.208,0 0.378,-0.17 0.378,-0.377l0,-22.3c0,-0.378 -0.378,0 0,0l44.598,0c0.378,0 0,-0.378 0,0l0,22.3c0,0.207 0.171,0.377 0.378,0.377l45.355,0c0.208,0 0.378,-0.17 0.378,-0.377l-0,-22.3c-0,-0.378 -0.378,0 -0,0l44.598,0c0.378,0 0,-0.378 0,0l0,22.3c0,0.207 0.17,0.377 0.378,0.377l45.354,0c0.208,0 0.378,-0.17 0.378,-0.377l0,-22.3c0,-0.378 -0.378,0 0,0l44.599,0c0.378,0 -0,-0.378 -0,0l-0,22.3c-0,0.207 0.17,0.377 0.378,0.377l45.354,0c0.208,0 0.378,-0.17 0.378,-0.377l0,-22.3c0,-0.378 -0.378,0 0,0l44.598,0c0.378,0 0,-0.378 0,0l0,22.3c0,0.207 0.171,0.377 0.378,0.377l45.355,0c0.208,0 0.378,-0.17 0.378,-0.377l-0,-22.3c-0,-0.378 -0.378,0 -0,0l44.598,0c0.378,0 0,-0.378 0,0l0,22.3c0,0.207 0.17,0.377 0.378,0.377l45.354,0c0.208,0 0.378,-0.17 0.378,-0.377l0,-22.3c0,-0.378 -0.378,0 0,0l44.599,0c0.378,0 -0,-0.378 -0,0l-0,22.3c-0,0.207 0.17,0.377 0.378,0.377l45.354,0c0.208,0 0.378,-0.17 0.378,-0.377l0,-22.3c0,-0.378 -0.378,0 0,0l82.772,0c0.208,0 0.378,-0.17 0.378,-0.378l-0,-75.212c-0,-0.378 -0.378,-0 -0,-0l22.299,-0c0.208,-0 0.378,-0.17 0.378,-0.378l-0,-45.355c-0,-0.207 -0.17,-0.377 -0.378,-0.377l-22.299,-0c-0.378,-0 -0,0.377 -0,-0l-0,-44.599c-0,-0.378 -0.378,0 -0,0l22.299,0c0.208,0 0.378,-0.17 0.378,-0.378l-0,-45.354c-0,-0.208 -0.17,-0.378 -0.378,-0.378l-22.299,-0c-0.378,-0 -0,0.378 -0,-0l-0,-44.599c-0,-0.377 -0.378,0 -0,0l22.299,0c0.208,0 0.378,-0.17 0.378,-0.377l-0,-45.355c-0,-0.208 -0.17,-0.378 -0.378,-0.378l-22.299,0c-0.378,0 -0,0.378 -0,0l-0,-75.212c-0,-0.208 -0.17,-0.378 -0.378,-0.378l-82.772,-0c-0.378,-0 0,0.378 0,-0l0,-22.3c0,-0.207 -0.17,-0.377 -0.378,-0.377l-45.354,-0c-0.208,-0 -0.378,0.17 -0.378,0.377l-0,22.3c-0,0.378 0.378,-0 -0,-0l-44.599,-0c-0.378,-0 0,0.378 0,-0l0,-22.3c0,-0.207 -0.17,-0.377 -0.378,-0.377l-45.354,-0c-0.208,-0 -0.378,0.17 -0.378,0.377l0,22.3c0,0.378 0.378,-0 0,-0l-44.598,-0c-0.378,-0 -0,0.378 -0,-0l-0,-22.3c-0,-0.207 -0.17,-0.377 -0.378,-0.377l-45.355,-0c-0.207,-0 -0.378,0.17 -0.378,0.377l0,22.3c0,0.378 0.378,-0 0,-0l-44.598,-0c-0.378,-0 0,0.378 0,-0l0,-22.3c0,-0.207 -0.17,-0.377 -0.378,-0.377l-45.354,-0c-0.208,-0 -0.378,0.17 -0.378,0.377l-0,22.3c-0,0.378 0.378,-0 -0,-0l-44.599,-0c-0.378,-0 0,0.378 0,-0l0,-22.3c0,-0.207 -0.17,-0.377 -0.378,-0.377l-45.354,-0c-0.208,-0 -0.378,0.17 -0.378,0.377l0,22.3c0,0.378 0.378,-0 0,-0l-44.598,-0c-0.378,-0 -0,0.378 -0,-0l-0,-22.3c-0,-0.207 -0.17,-0.377 -0.378,-0.377l-45.355,-0c-0.207,-0 -0.378,0.17 -0.378,0.377l0,22.3c0,0.378 0.378,-0 0,-0l-44.598,-0c-0.378,-0 0,0.378 0,-0l0,-22.3c0,-0.207 -0.17,-0.377 -0.378,-0.377l-45.354,-0c-0.208,-0 -0.378,0.17 -0.378,0.377l-0,22.3c-0,0.378 0.378,-0 -0,-0l-44.599,-0c-0.378,-0 0,0.378 0,-0l0,-22.3c0,-0.207 -0.17,-0.377 -0.378,-0.377l-45.354,-0c-0.208,-0 -0.378,0.17 -0.378,0.377l0,22.3c0,0.378 0.378,-0 0,-0l-44.598,-0c-0.378,-0 -0,0.378 -0,-0l-0,-22.3c-0,-0.207 -0.17,-0.377 -0.378,-0.377l-45.355,-0c-0.207,-0 -0.378,0.17 -0.378,0.377l0,22.3c0,0.378 0.378,-0 0,-0l-44.598,-0c-0.378,-0 0,0.378 0,-0l0,-22.3c0,-0.207 -0.17,-0.377 -0.378,-0.377l-45.354,-0c-0.208,-0 -0.378,0.17 -0.378,0.377l-0,22.3c-0,0.378 0.378,-0 -0,-0l-44.599,-0c-0.378,-0 0,0.378 0,-0l0,-22.3c0,-0.207 -0.17,-0.377 -0.378,-0.377l-45.354,-0c-0.208,-0 -0.378,0.17 -0.378,0.377l0,22.3c0,0.378 0.378,-0 0,-0l-44.598,-0c-0.378,-0 -0,0.378 -0,-0l-0,-22.3c-0,-0.207 -0.17,-0.377 -0.378,-0.377l-45.355,-0c-0.207,-0 -0.377,0.17 -0.377,0.377l-0,22.3c-0,0.378 0.377,-0 -0,-0l-82.772,-0c-0.208,-0 -0.378,0.17 -0.378,0.378l-0,75.212c-0,0.378 0.378,0 -0,0l-22.299,0c-0.208,0 -0.378,0.17 -0.378,0.378l-0,45.355c-0,0.207 0.17,0.377 0.378,0.377l22.299,0c0.378,0 -0,-0.377 -0,0l-0,44.599c-0,0.378 0.378,-0 -0,-0l-22.299,-0c-0.208,-0 -0.378,0.17 -0.378,0.378l-0,45.354c-0,0.208 0.17,0.378 0.378,0.378l22.299,0c0.378,0 -0,-0.378 -0,0l-0,44.599c-0,0.377 0.378,-0 -0,-0l-22.299,-0c-0.208,-0 -0.378,0.17 -0.378,0.377l-0,45.355c-0,0.208 0.17,0.378 0.378,0.378l22.299,-0c0.378,-0 -0,-0.378 -0,-0l-0,75.212c-0,0.208 0.17,0.378 0.378,0.378" style="fill:none;fill-rule:nonzero;stroke:#000;stroke-width:3.15px;"/><path d="M1490.65,1579.84l-82.772,-0c-0.378,-0 0,0.377 0,-0l0,-22.3c0,-0.208 -0.17,-0.378 -0.378,-0.378l-45.354,0c-0.208,0 -0.378,0.17 -0.378,0.378l-0,22.3c-0,0.377 0.378,-0 -0,-0l-44.599,-0c-0.378,-0 0,0.377 0,-0l0,-22.3c0,-0.208 -0.17,-0.378 -0.378,-0.378l-45.354,0c-0.208,0 -0.378,0.17 -0.378,0.378l0,22.3c0,0.377 0.378,-0 0,-0l-44.598,-0c-0.378,-0 -0,0.377 -0,-0l-0,-22.3c-0,-0.208 -0.17,-0.378 -0.378,-0.378l-45.355,0c-0.207,0 -0.378,0.17 -0.378,0.378l0,22.3c0,0.377 0.378,-0 0,-0l-44.598,-0c-0.378,-0 0,0.377 0,-0l0,-22.3c0,-0.208 -0.17,-0.378 -0.378,-0.378l-45.354,0c-0.208,0 -0.378,0.17 -0.378,0.378l-0,22.3c-0,0.377 0.378,-0 -0,-0l-44.599,-0c-0.378,-0 0,0.377 0,-0l0,-22.3c0,-0.208 -0.17,-0.378 -0.378,-0.378l-45.354,0c-0.208,0 -0.378,0.17 -0.378,0.378l0,22.3c0,0.377 0.378,-0 0,-0l-44.598,-0c-0.378,-0 -0,0.377 -0,-0l-0,-22.3c-0,-0.208 -0.17,-0.378 -0.378,-0.378l-45.355,0c-0.207,0 -0.378,0.17 -0.378,0.378l0,22.3c0,0.377 0.378,-0 0,-0l-44.598,-0c-0.378,-0 0,0.377 0,-0l0,-22.3c0,-0.208 -0.17,-0.378 -0.378,-0.378l-45.354,0c-0.208,0 -0.378,0.17 -0.378,0.378l-0,22.3c-0,0.377 0.378,-0 -0,-0l-44.599,-0c-0.378,-0 0,0.377 0,-0l0,-22.3c0,-0.208 -0.17,-0.378 -0.378,-0.378l-45.354,0c-0.208,0 -0.378,0.17 -0.378,0.378l0,22.3c0,0.377 0.378,-0 0,-0l-44.598,-0c-0.378,-0 -0,0.377 -0,-0l-0,-22.3c-0,-0.208 -0.17,-0.378 -0.378,-0.378l-45.355,0c-0.207,0 -0.378,0.17 -0.378,0.378l0,22.3c0,0.377 0.378,-0 0,-0l-44.598,-0c-0.378,-0 0,0.377 0,-0l0,-22.3c0,-0.208 -0.17,-0.378 -0.378,-0.378l-45.354,0c-0.208,0 -0.378,0.17 -0.378,0.378l-0,22.3c-0,0.377 0.378,-0 -0,-0l-44.599,-0c-0.378,-0 0,0.377 0,-0l0,-22.3c0,-0.208 -0.17,-0.378 -0.378,-0.378l-45.354,0c-0.208,0 -0.378,0.17 -0.378,0.378l0,22.3c0,0.377 0.378,-0 0,-0l-44.598,-0c-0.378,-0 -0,0.377 -0,-0l-0,-22.3c-0,-0.208 -0.17,-0.378 -0.378,-0.378l-45.355,0c-0.207,0 -0.377,0.17 -0.377,0.378l-0,22.3c-0,0.377 0.377,-0 -0,-0l-105.449,-0c-0.208,-0 -0.378,0.17 -0.378,0.377l-0,77.481c-0,0.208 0.17,0.378 0.378,0.378l22.299,-0c0.378,-0 -0,-0.378 -0,-0l-0,44.598c-0,0.378 0.378,0 -0,0l-22.299,0c-0.208,0 -0.378,0.17 -0.378,0.378l-0,45.354c-0,0.208 0.17,0.378 0.378,0.378l22.299,0c0.378,0 -0,-0.378 -0,0l-0,44.599c-0,0.378 0.378,-0 -0,-0l-22.299,-0c-0.208,-0 -0.378,0.17 -0.378,0.378l-0,45.354c-0,0.208 0.17,0.378 0.378,0.378l22.299,0c0.378,0 -0,-0.378 -0,0l-0,44.598c-0,0.378 0.378,0 -0,0l-22.299,0c-0.208,0 -0.378,0.171 -0.378,0.378l-0,45.355c-0,0.208 0.17,0.378 0.378,0.378l22.299,-0c0.378,-0 -0,-0.378 -0,-0l-0,44.598c-0,0.378 0.378,0 -0,0l-22.299,0c-0.208,0 -0.378,0.17 -0.378,0.378l-0,100.158c-0,0.207 0.17,0.378 0.378,0.378l105.826,-0c0.208,-0 0.378,-0.171 0.378,-0.378l0,-22.3c0,-0.378 -0.378,0 0,0l44.599,0c0.378,0 -0,-0.378 -0,0l-0,22.3c-0,0.207 0.17,0.378 0.378,0.378l45.354,-0c0.208,-0 0.378,-0.171 0.378,-0.378l0,-22.3c0,-0.378 -0.378,0 0,0l44.598,0c0.378,0 0,-0.378 0,0l0,22.3c0,0.207 0.171,0.378 0.378,0.378l45.355,-0c0.208,-0 0.378,-0.171 0.378,-0.378l-0,-22.3c-0,-0.378 -0.378,0 -0,0l44.598,0c0.378,0 0,-0.378 0,0l0,22.3c0,0.207 0.17,0.378 0.378,0.378l45.354,-0c0.208,-0 0.378,-0.171 0.378,-0.378l0,-22.3c0,-0.378 -0.378,0 0,0l44.599,0c0.378,0 -0,-0.378 -0,0l-0,22.3c-0,0.207 0.17,0.378 0.378,0.378l45.354,-0c0.208,-0 0.378,-0.171 0.378,-0.378l0,-22.3c0,-0.378 -0.378,0 0,0l44.598,0c0.378,0 0,-0.378 0,0l0,22.3c0,0.207 0.171,0.378 0.378,0.378l45.355,-0c0.208,-0 0.378,-0.171 0.378,-0.378l-0,-22.3c-0,-0.378 -0.378,0 -0,0l44.598,0c0.378,0 0,-0.378 0,0l0,22.3c0,0.207 0.17,0.378 0.378,0.378l45.354,-0c0.208,-0 0.378,-0.171 0.378,-0.378l0,-22.3c0,-0.378 -0.378,0 0,0l44.599,0c0.378,0 -0,-0.378 -0,0l-0,22.3c-0,0.207 0.17,0.378 0.378,0.378l45.354,-0c0.208,-0 0.378,-0.171 0.378,-0.378l0,-22.3c0,-0.378 -0.378,0 0,0l44.598,0c0.378,0 0,-0.378 0,0l0,22.3c0,0.207 0.171,0.378 0.378,0.378l45.355,-0c0.208,-0 0.378,-0.171 0.378,-0.378l-0,-22.3c-0,-0.378 -0.378,0 -0,0l44.598,0c0.378,0 0,-0.378 0,0l0,22.3c0,0.207 0.17,0.378 0.378,0.378l45.354,-0c0.208,-0 0.378,-0.171 0.378,-0.378l0,-22.3c0,-0.378 -0.378,0 0,0l44.599,0c0.378,0 -0,-0.378 -0,0l-0,22.3c-0,0.207 0.17,0.378 0.378,0.378l45.354,-0c0.208,-0 0.378,-0.171 0.378,-0.378l0,-22.3c0,-0.378 -0.378,0 0,0l44.598,0c0.378,0 0,-0.378 0,0l0,22.3c0,0.207 0.171,0.378 0.378,0.378l45.355,-0c0.208,-0 0.378,-0.171 0.378,-0.378l-0,-22.3c-0,-0.378 -0.378,0 -0,0l44.598,0c0.378,0 0,-0.378 0,0l0,22.3c0,0.207 0.17,0.378 0.378,0.378l105.827,-0c0.208,-0 0.378,-0.171 0.378,-0.378l-0,-100.158c-0,-0.208 -0.17,-0.378 -0.378,-0.378l-22.299,0c-0.378,0 -0,0.378 -0,0l-0,-44.598c-0,-0.378 -0.378,-0 -0,-0l22.299,-0c0.208,-0 0.378,-0.17 0.378,-0.378l-0,-45.355c-0,-0.207 -0.17,-0.378 -0.378,-0.378l-22.299,0c-0.378,0 -0,0.378 -0,0l-0,-44.598c-0,-0.378 -0.378,0 -0,0l22.299,0c0.208,0 0.378,-0.17 0.378,-0.378l-0,-45.354c-0,-0.208 -0.17,-0.378 -0.378,-0.378l-22.299,-0c-0.378,-0 -0,0.378 -0,-0l-0,-44.599c-0,-0.378 -0.378,0 -0,0l22.299,0c0.208,0 0.378,-0.17 0.378,-0.378l-0,-45.354c-0,-0.208 -0.17,-0.378 -0.378,-0.378l-22.299,0c-0.378,0 -0,0.378 -0,0l-0,-44.598c-0,-0.378 -0.378,-0 -0,-0l22.299,-0c0.208,-0 0.378,-0.17 0.378,-0.378l-0,-77.481c-0,-0.207 -0.17,-0.377 -0.378,-0.377l-22.677,-0" style="fill:none;fill-rule:nonzero;stroke:#000;stroke-width:3.15px;"/><path d="M1490.65,2147.53l-82.772,-0c-0.378,-0 0,0.378 0,-0l0,-22.3c0,-0.208 -0.17,-0.378 -0.378,-0.378l-45.354,0c-0.208,0 -0.378,0.17 -0.378,0.378l-0,22.3c-0,0.378 0.378,-0 -0,-0l-44.599,-0c-0.378,-0 0,0.378 0,-0l0,-22.3c0,-0.208 -0.17,-0.378 -0.378,-0.378l-45.354,0c-0.208,0 -0.378,0.17 -0.378,0.378l0,22.3c0,0.378 0.378,-0 0,-0l-44.598,-0c-0.378,-0 -0,0.378 -0,-0l-0,-22.3c-0,-0.208 -0.17,-0.378 -0.378,-0.378l-45.355,0c-0.207,0 -0.378,0.17 -0.378,0.378l0,22.3c0,0.378 0.378,-0 0,-0l-44.598,-0c-0.378,-0 0,0.378 0,-0l0,-22.3c0,-0.208 -0.17,-0.378 -0.378,-0.378l-45.354,0c-0.208,0 -0.378,0.17 -0.378,0.378l-0,22.3c-0,0.378 0.378,-0 -0,-0l-44.599,-0c-0.378,-0 0,0.378 0,-0l0,-22.3c0,-0.208 -0.17,-0.378 -0.378,-0.378l-45.354,0c-0.208,0 -0.378,0.17 -0.378,0.378l0,22.3c0,0.378 0.378,-0 0,-0l-44.598,-0c-0.378,-0 -0,0.378 -0,-0l-0,-22.3c-0,-0.208 -0.17,-0.378 -0.378,-0.378l-45.355,0c-0.207,0 -0.378,0.17 -0.378,0.378l0,22.3c0,0.378 0.378,-0 0,-0l-44.598,-0c-0.378,-0 0,0.378 0,-0l0,-22.3c0,-0.208 -0.17,-0.378 -0.378,-0.378l-45.354,0c-0.208,0 -0.378,0.17 -0.378,0.378l-0,22.3c-0,0.378 0.378,-0 -0,-0l-44.599,-0c-0.378,-0 0,0.378 0,-0l0,-22.3c0,-0.208 -0.17,-0.378 -0.378,-0.378l-45.354,0c-0.208,0 -0.378,0.17 -0.378,0.378l0,22.3c0,0.378 0.378,-0 0,-0l-44.598,-0c-0.378,-0 -0,0.378 -0,-0l-0,-22.3c-0,-0.208 -0.17,-0.378 -0.378,-0.378l-45.355,0c-0.207,0 -0.378,0.17 -0.378,0.378l0,22.3c0,0.378 0.378,-0 0,-0l-44.598,-0c-0.378,-0 0,0.378 0,-0l0,-22.3c0,-0.208 -0.17,-0.378 -0.378,-0.378l-45.354,0c-0.208,0 -0.378,0.17 -0.378,0.378l-0,22.3c-0,0.378 0.378,-0 -0,-0l-44.599,-0c-0.378,-0 0,0.378 0,-0l0,-22.3c0,-0.208 -0.17,-0.378 -0.378,-0.378l-45.354,0c-0.208,0 -0.378,0.17 -0.378,0.378l0,22.3c0,0.378 0.378,-0 0,-0l-44.598,-0c-0.378,-0 -0,0.378 -0,-0l-0,-22.3c-0,-0.208 -0.17,-0.378 -0.378,-0.378l-45.355,0c-0.207,0 -0.377,0.17 -0.377,0.378l-0,22.3c-0,0.378 0.377,-0 -0,-0l-105.449,-0c-0.208,-0 -0.378,0.17 -0.378,0.378l-0,77.48c-0,0.208 0.17,0.378 0.378,0.378l22.299,-0c0.378,-0 -0,-0.378 -0,-0l-0,44.598c-0,0.378 0.378,0 -0,0l-22.299,0c-0.208,0 -0.378,0.17 -0.378,0.378l-0,45.354c-0,0.208 0.17,0.378 0.378,0.378l22.299,0c0.378,0 -0,-0.378 -0,0l-0,44.599c-0,0.378 0.378,-0 -0,-0l-22.299,-0c-0.208,-0 -0.378,0.17 -0.378,0.378l-0,45.354c-0,0.208 0.17,0.378 0.378,0.378l22.299,0c0.378,0 -0,-0.378 -0,0l-0,44.599c-0,0.377 0.378,-0 -0,-0l-22.299,-0c-0.208,-0 -0.378,0.17 -0.378,0.377l-0,45.355c-0,0.208 0.17,0.378 0.378,0.378l22.299,-0c0.378,-0 -0,-0.378 -0,-0l-0,44.598c-0,0.378 0.378,0 -0,0l-22.299,0c-0.208,0 -0.378,0.17 -0.378,0.378l-0,100.158c-0,0.207 0.17,0.378 0.378,0.378l105.826,-0c0.208,-0 0.378,-0.171 0.378,-0.378l0,-22.3c0,-0.378 -0.378,0 0,0l44.599,0c0.378,0 -0,-0.378 -0,0l-0,22.3c-0,0.207 0.17,0.378 0.378,0.378l45.354,-0c0.208,-0 0.378,-0.171 0.378,-0.378l0,-22.3c0,-0.378 -0.378,0 0,0l44.598,0c0.378,0 0,-0.378 0,0l0,22.3c0,0.207 0.171,0.378 0.378,0.378l45.355,-0c0.208,-0 0.378,-0.171 0.378,-0.378l-0,-22.3c-0,-0.378 -0.378,0 -0,0l44.598,0c0.378,0 0,-0.378 0,0l0,22.3c0,0.207 0.17,0.378 0.378,0.378l45.354,-0c0.208,-0 0.378,-0.171 0.378,-0.378l0,-22.3c0,-0.378 -0.378,0 0,0l44.599,0c0.378,0 -0,-0.378 -0,0l-0,22.3c-0,0.207 0.17,0.378 0.378,0.378l45.354,-0c0.208,-0 0.378,-0.171 0.378,-0.378l0,-22.3c0,-0.378 -0.378,0 0,0l44.598,0c0.378,0 0,-0.378 0,0l0,22.3c0,0.207 0.171,0.378 0.378,0.378l45.355,-0c0.208,-0 0.378,-0.171 0.378,-0.378l-0,-22.3c-0,-0.378 -0.378,0 -0,0l44.598,0c0.378,0 0,-0.378 0,0l0,22.3c0,0.207 0.17,0.378 0.378,0.378l45.354,-0c0.208,-0 0.378,-0.171 0.378,-0.378l0,-22.3c0,-0.378 -0.378,0 0,0l44.599,0c0.378,0 -0,-0.378 -0,0l-0,22.3c-0,0.207 0.17,0.378 0.378,0.378l45.354,-0c0.208,-0 0.378,-0.171 0.378,-0.378l0,-22.3c0,-0.378 -0.378,0 0,0l44.598,0c0.378,0 0,-0.378 0,0l0,22.3c0,0.207 0.171,0.378 0.378,0.378l45.355,-0c0.208,-0 0.378,-0.171 0.378,-0.378l-0,-22.3c-0,-0.378 -0.378,0 -0,0l44.598,0c0.378,0 0,-0.378 0,0l0,22.3c0,0.207 0.17,0.378 0.378,0.378l45.354,-0c0.208,-0 0.378,-0.171 0.378,-0.378l0,-22.3c0,-0.378 -0.378,0 0,0l44.599,0c0.378,0 -0,-0.378 -0,0l-0,22.3c-0,0.207 0.17,0.378 0.378,0.378l45.354,-0c0.208,-0 0.378,-0.171 0.378,-0.378l0,-22.3c0,-0.378 -0.378,0 0,0l44.598,0c0.378,0 0,-0.378 0,0l0,22.3c0,0.207 0.171,0.378 0.378,0.378l45.355,-0c0.208,-0 0.378,-0.171 0.378,-0.378l-0,-22.3c-0,-0.378 -0.378,0 -0,0l44.598,0c0.378,0 0,-0.378 0,0l0,22.3c0,0.207 0.17,0.378 0.378,0.378l105.827,-0c0.208,-0 0.378,-0.171 0.378,-0.378l-0,-100.158c-0,-0.208 -0.17,-0.378 -0.378,-0.378l-22.299,0c-0.378,0 -0,0.378 -0,0l-0,-44.598c-0,-0.378 -0.378,-0 -0,-0l22.299,-0c0.208,-0 0.378,-0.17 0.378,-0.378l-0,-45.355c-0,-0.207 -0.17,-0.377 -0.378,-0.377l-22.299,-0c-0.378,-0 -0,0.377 -0,-0l-0,-44.599c-0,-0.378 -0.378,0 -0,0l22.299,0c0.208,0 0.378,-0.17 0.378,-0.378l-0,-45.354c-0,-0.208 -0.17,-0.378 -0.378,-0.378l-22.299,-0c-0.378,-0 -0,0.378 -0,-0l-0,-44.599c-0,-0.378 -0.378,0 -0,0l22.299,0c0.208,0 0.378,-0.17 0.378,-0.378l-0,-45.354c-0,-0.208 -0.17,-0.378 -0.378,-0.378l-22.299,0c-0.378,0 -0,0.378 -0,0l-0,-44.598c-0,-0.378 -0.378,-0 -0,-0l22.299,-0c0.208,-0 0.378,-0.17 0.378,-0.378l-0,-77.48c-0,-0.208 -0.17,-0.378 -0.378,-0.378l-22.677,-0" style="fill:none;fill-rule:nonzero;stroke:#000;stroke-width:3.15px;"/><path d="M1585.89,2053.04l75.212,0c0.378,0 0,-0.378 0,0l0,22.3c0,0.207 0.17,0.378 0.378,0.378l45.355,-0c0.208,-0 0.378,-0.171 0.378,-0.378l-0,-22.3c-0,-0.378 -0.378,0 -0,0l44.598,0c0.378,0 0,-0.378 0,0l0,22.3c0,0.207 0.17,0.378 0.378,0.378l45.354,-0c0.208,-0 0.378,-0.171 0.378,-0.378l0,-22.3c0,-0.378 -0.378,0 0,0l44.599,0c0.378,0 -0,-0.378 -0,0l-0,22.3c-0,0.207 0.17,0.378 0.378,0.378l45.354,-0c0.208,-0 0.378,-0.171 0.378,-0.378l-0,-22.3c-0,-0.378 -0.378,0 -0,0l75.213,0c0.207,0 0.377,-0.17 0.377,-0.378l0,-77.102c0,-0.378 -0.377,0 0,0l22.3,0c0.208,0 0.378,-0.17 0.378,-0.378l-0,-45.354c-0,-0.208 -0.17,-0.378 -0.378,-0.378l-22.3,-0c-0.377,-0 0,0.378 0,-0l0,-44.599c0,-0.378 -0.377,0 0,0l22.3,0c0.208,0 0.378,-0.17 0.378,-0.378l-0,-45.354c-0,-0.208 -0.17,-0.378 -0.378,-0.378l-22.3,0c-0.377,0 0,0.378 0,0l0,-44.598c0,-0.378 -0.377,-0 0,-0l22.3,-0c0.208,-0 0.378,-0.17 0.378,-0.378l-0,-45.355c-0,-0.207 -0.17,-0.378 -0.378,-0.378l-22.3,0c-0.377,0 0,0.378 0,0l0,-44.598c0,-0.378 -0.377,0 0,0l22.3,0c0.208,0 0.378,-0.17 0.378,-0.378l-0,-45.354c-0,-0.208 -0.17,-0.378 -0.378,-0.378l-22.3,-0c-0.377,-0 0,0.378 0,-0l0,-99.78c0,-0.208 -0.17,-0.378 -0.377,-0.378l-75.591,0c-0.208,0 -0.378,0.17 -0.378,0.378l0,22.3c0,0.377 0.378,-0 0,-0l-44.598,-0c-0.378,-0 -0,0.377 -0,-0l-0,-22.3c-0,-0.208 -0.17,-0.378 -0.378,-0.378l-45.355,0c-0.208,0 -0.378,0.17 -0.378,0.378l0,22.3c0,0.377 0.378,-0 0,-0l-44.598,-0c-0.378,-0 -0,0.377 -0,-0l-0,-22.3c-0,-0.208 -0.17,-0.378 -0.378,-0.378l-45.354,0c-0.208,0 -0.378,0.17 -0.378,0.378l-0,22.3c-0,0.377 0.378,-0 -0,-0l-44.599,-0c-0.378,-0 0,0.377 0,-0l0,-22.3c0,-0.208 -0.17,-0.378 -0.378,-0.378l-75.59,0c-0.208,0 -0.378,0.17 -0.378,0.378l-0,99.78c-0,0.378 0.378,-0 -0,-0l-22.299,-0c-0.208,-0 -0.378,0.17 -0.378,0.378l-0,45.354c-0,0.208 0.17,0.378 0.378,0.378l22.299,0c0.378,0 -0,-0.378 -0,0l-0,44.598c-0,0.378 0.378,0 -0,0l-22.299,0c-0.208,0 -0.378,0.171 -0.378,0.378l-0,45.355c-0,0.208 0.17,0.378 0.378,0.378l22.299,-0c0.378,-0 -0,-0.378 -0,-0l-0,44.598c-0,0.378 0.378,0 -0,0l-22.299,0c-0.208,0 -0.378,0.17 -0.378,0.378l-0,45.354c-0,0.208 0.17,0.378 0.378,0.378l22.299,0c0.378,0 -0,-0.378 -0,0l-0,44.599c-0,0.378 0.378,-0 -0,-0l-22.299,-0c-0.208,-0 -0.378,0.17 -0.378,0.378l-0,45.354c-0,0.208 0.17,0.378 0.378,0.378l22.299,0c0.378,0 -0,-0.378 -0,0l-0,77.102c-0,0.208 0.17,0.378 0.378,0.378" style="fill:none;fill-rule:nonzero;stroke:#000;stroke-width:3.15px;"/><path d="M1585.89,2620.72l75.212,0c0.378,0 0,-0.378 0,0l0,22.3c0,0.207 0.17,0.378 0.378,0.378l45.355,-0c0.208,-0 0.378,-0.171 0.378,-0.378l-0,-22.3c-0,-0.378 -0.378,0 -0,0l44.598,0c0.378,0 0,-0.378 0,0l0,22.3c0,0.207 0.17,0.378 0.378,0.378l45.354,-0c0.208,-0 0.378,-0.171 0.378,-0.378l0,-22.3c0,-0.378 -0.378,0 0,0l44.599,0c0.378,0 -0,-0.378 -0,0l-0,22.3c-0,0.207 0.17,0.378 0.378,0.378l45.354,-0c0.208,-0 0.378,-0.171 0.378,-0.378l-0,-22.3c-0,-0.378 -0.378,0 -0,0l75.213,0c0.207,0 0.377,-0.17 0.377,-0.378l0,-77.102c0,-0.378 -0.377,0 0,0l22.3,0c0.208,0 0.378,-0.17 0.378,-0.378l-0,-45.354c-0,-0.208 -0.17,-0.378 -0.378,-0.378l-22.3,-0c-0.377,-0 0,0.378 0,-0l0,-44.599c0,-0.378 -0.377,0 0,0l22.3,0c0.208,0 0.378,-0.17 0.378,-0.378l-0,-45.354c-0,-0.208 -0.17,-0.378 -0.378,-0.378l-22.3,0c-0.377,0 0,0.378 0,0l0,-44.598c0,-0.378 -0.377,-0 0,-0l22.3,-0c0.208,-0 0.378,-0.17 0.378,-0.378l-0,-45.355c-0,-0.207 -0.17,-0.377 -0.378,-0.377l-22.3,-0c-0.377,-0 0,0.377 0,-0l0,-44.599c0,-0.378 -0.377,0 0,0l22.3,0c0.208,0 0.378,-0.17 0.378,-0.378l-0,-45.354c-0,-0.208 -0.17,-0.378 -0.378,-0.378l-22.3,-0c-0.377,-0 0,0.378 0,-0l0,-99.78c0,-0.208 -0.17,-0.378 -0.377,-0.378l-75.591,0c-0.208,0 -0.378,0.17 -0.378,0.378l0,22.3c0,0.378 0.378,-0 0,-0l-44.598,-0c-0.378,-0 -0,0.378 -0,-0l-0,-22.3c-0,-0.208 -0.17,-0.378 -0.378,-0.378l-45.355,0c-0.208,0 -0.378,0.17 -0.378,0.378l0,22.3c0,0.378 0.378,-0 0,-0l-44.598,-0c-0.378,-0 -0,0.378 -0,-0l-0,-22.3c-0,-0.208 -0.17,-0.378 -0.378,-0.378l-45.354,0c-0.208,0 -0.378,0.17 -0.378,0.378l-0,22.3c-0,0.378 0.378,-0 -0,-0l-44.599,-0c-0.378,-0 0,0.378 0,-0l0,-22.3c0,-0.208 -0.17,-0.378 -0.378,-0.378l-75.59,0c-0.208,0 -0.378,0.17 -0.378,0.378l-0,99.78c-0,0.378 0.378,-0 -0,-0l-22.299,-0c-0.208,-0 -0.378,0.17 -0.378,0.378l-0,45.354c-0,0.208 0.17,0.378 0.378,0.378l22.299,0c0.378,0 -0,-0.378 -0,0l-0,44.599c-0,0.377 0.378,-0 -0,-0l-22.299,-0c-0.208,-0 -0.378,0.17 -0.378,0.377l-0,45.355c-0,0.208 0.17,0.378 0.378,0.378l22.299,-0c0.378,-0 -0,-0.378 -0,-0l-0,44.598c-0,0.378 0.378,0 -0,0l-22.299,0c-0.208,0 -0.378,0.17 -0.378,0.378l-0,45.354c-0,0.208 0.17,0.378 0.378,0.378l22.299,0c0.378,0 -0,-0.378 -0,0l-0,44.599c-0,0.378 0.378,-0 -0,-0l-22.299,-0c-0.208,-0 -0.378,0.17 -0.378,0.378l-0,45.354c-0,0.208 0.17,0.378 0.378,0.378l22.299,0c0.378,0 -0,-0.378 -0,0l-0,77.102c-0,0.208 0.17,0.378 0.378,0.378" style="fill:none;fill-rule:nonzero;stroke:#000;stroke-width:3.15px;"/></g><g id="Cutouts"><circle cx="512.315" cy="1812.92" r="179.528" style="fill:none;stroke:#000;stroke-width:3.2px;stroke-miterlimit:1.5;"/><circle cx="358.675" cy="1662.8" r="9.449" style="fill:none;stroke:#000;stroke-width:3.2px;stroke-miterlimit:1.5;"/><circle cx="358.675" cy="1970.08" r="9.449" style="fill:none;stroke:#000;stroke-width:3.2px;stroke-miterlimit:1.5;"/><circle cx="665.955" cy="1970.08" r="9.449" style="fill:none;stroke:#000;stroke-width:3.2px;stroke-miterlimit:1.5;"/><circle cx="665.955" cy="1662.8" r="9.449" style="fill:none;stroke:#000;stroke-width:3.2px;stroke-miterlimit:1.5;"/><circle cx="1259.15" cy="1816.44" r="179.528" style="fill:none;stroke:#000;stroke-width:3.2px;stroke-miterlimit:1.5;"/><circle cx="1105.51" cy="1662.8" r="9.449" style="fill:none;stroke:#000;stroke-width:3.2px;stroke-miterlimit:1.5;"/><circle cx="1105.51" cy="1970.08" r="9.449" style="fill:none;stroke:#000;stroke-width:3.2px;stroke-miterlimit:1.5;"/><circle cx="1412.79" cy="1970.08" r="9.449" style="fill:none;stroke:#000;stroke-width:3.2px;stroke-miterlimit:1.5;"/><circle cx="1412.79" cy="1662.8" r="9.449" style="fill:none;stroke:#000;stroke-width:3.2px;stroke-miterlimit:1.5;"/><circle cx="743.938" cy="1646.36" r="5.669" style="fill:none;stroke:#000;stroke-width:3.2px;stroke-miterlimit:1.5;"/><circle cx="1027.4" cy="1646.36" r="5.669" style="fill:none;stroke:#000;stroke-width:3.2px;stroke-miterlimit:1.5;"/><circle cx="1027.4" cy="1763.53" r="5.669" style="fill:none;stroke:#000;stroke-width:3.2px;stroke-miterlimit:1.5;"/><circle cx="743.938" cy="1763.53" r="5.669" style="fill:none;stroke:#000;stroke-width:3.2px;stroke-miterlimit:1.5;"/><rect x="750.552" y="1658.65" width="270.236" height="92.598" style="fill:none;stroke:#000;stroke-width:3.2px;stroke-miterlimit:1.5;"/><circle cx="885.189" cy="1884.47" r="13.228" style="fill:none;stroke:#000;stroke-width:3.2px;stroke-miterlimit:1.5;"/><circle cx="995.528" cy="2217.36" r="4.724" style="fill:none;stroke:#000;stroke-width:3.2px;stroke-miterlimit:1.5;"/><circle cx="995.528" cy="2304.29" r="4.724" style="fill:none;stroke:#000;stroke-width:3.2px;stroke-miterlimit:1.5;"/><circle cx="776.315" cy="2304.29" r="4.724" style="fill:none;stroke:#000;stroke-width:3.2px;stroke-miterlimit:1.5;"/><circle cx="776.315" cy="2217.36" r="4.724" style="fill:none;stroke:#000;stroke-width:3.2px;stroke-miterlimit:1.5;"/><circle cx="867.024" cy="783.939" r="13.228" style="fill:none;stroke:#000;stroke-width:3.2px;stroke-miterlimit:1.5;"/><circle cx="980.409" cy="786.077" r="13.228" style="fill:none;stroke:#000;stroke-width:3.2px;stroke-miterlimit:1.5;"/><circle cx="1297.92" cy="786.077" r="11.339" style="fill:none;stroke:#000;stroke-width:3.2px;stroke-miterlimit:1.5;"/><path d="M896.39,2540.52c6.171,3.602 10.319,10.296 10.319,17.952c-0,7.656 -4.148,14.351 -10.319,17.953l-20.937,0c-6.171,-3.602 -10.319,-10.297 -10.319,-17.953c-0,-7.656 4.148,-14.35 10.319,-17.952l20.937,-0Z" style="fill:none;stroke:#000;stroke-width:3.2px;stroke-miterlimit:1.5;"/></g></svg>