<?xml version="1.0" encoding="UTF-8" standalone="no"?><!DOCTYPE svg PUBLIC "-//W3C//DTD SVG 1.1//EN" "http://www.w3.org/Graphics/SVG/1.1/DTD/svg11.dtd"><svg width="100%" height="100%" viewBox="0 0 1732 2097" version="1.1" xmlns="http://www.w3.org/2000/svg" xmlns:xlink="http://www.w3.org/1999/xlink" xml:space="preserve" xmlns:serif="http://www.serif.com/" style="fill-rule:evenodd;clip-rule:evenodd;stroke-linecap:round;stroke-linejoin:round;stroke-miterlimit:1.5;"><g id="Senkungen"><path d="M628.622,1358.26l22.678,0l-0,-56.693l-113.386,0l-0,11.339l68.031,-0l0,45.354" style="fill:#d7263c;stroke:#d72638;stroke-width:1.07px;"/><path d="M764.221,1184.4l18.949,-9.449l0,-37.795l-18.897,-9.449l-0,56.693" style="fill:#d7263c;stroke:#d72638;stroke-width:1.07px;"/><rect x="501.383" y="1083.3" width="158.74" height="26.457" style="fill:#d7263c;stroke:#d72638;stroke-width:1.07px;"/><path d="M605.945,1358.26l45.355,0" style="fill:none;stroke:#d72638;stroke-width:1.07px;"/><circle cx="1041.35" cy="237.185" r="18.898" style="fill:#d7263c;stroke:#d72638;stroke-width:1.07px;"/><circle cx="723.843" cy="237.185" r="18.898" style="fill:#d7263c;stroke:#d72638;stroke-width:1.07px;"/><circle cx="610.457" cy="235.046" r="18.898" style="fill:#d7263c;stroke:#d72638;stroke-width:1.07px;"/></g><g id="_6mm" serif:id="6mm"><path d="M190.467,447.559l-44.598,0c-0.378,0 -0,0.378 -0,0l-0,-21.921c-0,-0.378 -0.378,-0 -0,-0l44.598,-0c0.378,-0 0,-0.378 0,-0l0,21.921c0,0.378 0.378,0 0,0Z" style="fill:none;fill-rule:nonzero;stroke:#00f;stroke-width:3.15px;stroke-miterlimit:4;"/><path d="M281.176,447.559l-44.599,0c-0.378,0 0,0.378 0,0l0,-21.921c0,-0.378 -0.378,-0 0,-0l44.599,-0c0.378,-0 -0,-0.378 -0,-0l-0,21.921c-0,0.378 0.378,0 -0,0Z" style="fill:none;fill-rule:nonzero;stroke:#00f;stroke-width:3.15px;stroke-miterlimit:4;"/><path d="M371.885,447.559l-44.599,0c-0.378,0 0,0.378 0,0l0,-21.921c0,-0.378 -0.378,-0 0,-0l44.599,-0c0.377,-0 -0,-0.378 -0,-0l-0,21.921c-0,0.378 0.377,0 -0,0Z" style="fill:none;fill-rule:nonzero;stroke:#00f;stroke-width:3.15px;stroke-miterlimit:4;"/><path d="M462.593,447.559l-44.598,0c-0.378,0 -0,0.378 -0,0l-0,-21.921c-0,-0.378 -0.378,-0 -0,-0l44.598,-0c0.378,-0 0,-0.378 0,-0l0,21.921c0,0.378 0.378,0 0,0Z" style="fill:none;fill-rule:nonzero;stroke:#00f;stroke-width:3.15px;stroke-miterlimit:4;"/><path d="M553.302,447.559l-44.599,0c-0.378,0 0,0.378 0,0l0,-21.921c0,-0.378 -0.378,-0 0,-0l44.599,-0c0.378,-0 -0,-0.378 -0,-0l-0,21.921c-0,0.378 0.378,0 -0,0Z" style="fill:none;fill-rule:nonzero;stroke:#00f;stroke-width:3.15px;stroke-miterlimit:4;"/><path d="M644.01,447.559l-44.598,0c-0.378,0 0,0.378 0,0l0,-21.921c0,-0.378 -0.378,-0 0,-0l44.598,-0c0.378,-0 0,-0.378 0,-0l0,21.921c0,0.378 0.378,0 0,0Z" style="fill:none;fill-rule:nonzero;stroke:#00f;stroke-width:3.15px;stroke-miterlimit:4;"/><path d="M734.719,447.559l-44.598,0c-0.378,0 -0,0.378 -0,0l-0,-21.921c-0,-0.378 -0.378,-0 -0,-0l44.598,-0c0.378,-0 0,-0.378 0,-0l0,21.921c0,0.378 0.378,0 0,0Z" style="fill:none;fill-rule:nonzero;stroke:#00f;stroke-width:3.15px;stroke-miterlimit:4;"/><path d="M825.428,447.559l-44.599,0c-0.378,0 0,0.378 0,0l0,-21.921c0,-0.378 -0.378,-0 0,-0l44.599,-0c0.378,-0 -0,-0.378 -0,-0l-0,21.921c-0,0.378 0.378,0 -0,0Z" style="fill:none;fill-rule:nonzero;stroke:#00f;stroke-width:3.15px;stroke-miterlimit:4;"/><path d="M916.136,447.559l-44.598,0c-0.378,0 0,0.378 0,0l0,-21.921c0,-0.378 -0.378,-0 0,-0l44.598,-0c0.378,-0 0,-0.378 0,-0l0,21.921c0,0.378 0.378,0 0,0Z" style="fill:none;fill-rule:nonzero;stroke:#00f;stroke-width:3.15px;stroke-miterlimit:4;"/><path d="M1006.85,447.559l-44.598,0c-0.378,0 -0,0.378 -0,0l-0,-21.921c-0,-0.378 -0.378,-0 -0,-0l44.598,-0c0.378,-0 0,-0.378 0,-0l0,21.921c0,0.378 0.378,0 0,0Z" style="fill:none;fill-rule:nonzero;stroke:#00f;stroke-width:3.15px;stroke-miterlimit:4;"/><path d="M1097.55,447.559l-44.599,0c-0.378,0 0,0.378 0,0l0,-21.921c0,-0.378 -0.378,-0 0,-0l44.599,-0c0.378,-0 -0,-0.378 -0,-0l-0,21.921c-0,0.378 0.378,0 -0,0Z" style="fill:none;fill-rule:nonzero;stroke:#00f;stroke-width:3.15px;stroke-miterlimit:4;"/><path d="M1188.26,447.559l-44.598,0c-0.378,0 0,0.378 0,0l0,-21.921c0,-0.378 -0.378,-0 0,-0l44.598,-0c0.378,-0 0,-0.378 0,-0l0,21.921c0,0.378 0.378,0 0,0Z" style="fill:none;fill-rule:nonzero;stroke:#00f;stroke-width:3.15px;stroke-miterlimit:4;"/><path d="M62.341,470.992l1254.8,0c0.208,0 0.378,-0.17 0.378,-0.378l0,-468.661c0,-0.208 -0.17,-0.378 -0.378,-0.378l-1300.16,-0c-0.208,-0 -0.378,0.17 -0.378,0.378l-0,468.661c-0,0.208 0.17,0.378 0.378,0.378l45.354,0" style="fill:none;fill-rule:nonzero;stroke:#000;stroke-width:3.15px;stroke-miterlimit:4;"/><path d="M1294.09,304.693l0,44.598c0,0.378 0.378,0 0,0l-21.921,0c-0.378,0 -0,0.378 -0,0l-0,-44.598c-0,-0.378 -0.378,-0 -0,-0l21.921,-0c0.378,-0 0,-0.378 0,-0Z" style="fill:none;fill-rule:nonzero;stroke:#00f;stroke-width:3.15px;stroke-miterlimit:4;"/><path d="M1294.09,213.984l0,44.599c0,0.378 0.378,-0 0,-0l-21.921,-0c-0.378,-0 -0,0.378 -0,-0l-0,-44.599c-0,-0.378 -0.378,0 -0,0l21.921,0c0.378,0 0,-0.378 0,0Z" style="fill:none;fill-rule:nonzero;stroke:#00f;stroke-width:3.15px;stroke-miterlimit:4;"/><path d="M1294.09,123.276l0,44.598c0,0.378 0.378,0 0,0l-21.921,0c-0.378,0 -0,0.378 -0,0l-0,-44.598c-0,-0.378 -0.378,-0 -0,-0l21.921,-0c0.378,-0 0,-0.378 0,-0Z" style="fill:none;fill-rule:nonzero;stroke:#00f;stroke-width:3.15px;stroke-miterlimit:4;"/><path d="M1143.66,25.008l44.598,-0c0.378,-0 0,-0.378 0,-0l0,21.921c0,0.378 0.378,0 0,0l-44.598,0c-0.378,0 0,0.378 0,0l0,-21.921c0,-0.378 -0.378,-0 0,-0Z" style="fill:none;fill-rule:nonzero;stroke:#00f;stroke-width:3.15px;stroke-miterlimit:4;"/><path d="M1052.95,25.008l44.599,-0c0.378,-0 -0,-0.378 -0,-0l-0,21.921c-0,0.378 0.378,0 -0,0l-44.599,0c-0.378,0 0,0.378 0,0l0,-21.921c0,-0.378 -0.378,-0 0,-0Z" style="fill:none;fill-rule:nonzero;stroke:#00f;stroke-width:3.15px;stroke-miterlimit:4;"/><path d="M962.247,25.008l44.598,-0c0.378,-0 0,-0.378 0,-0l0,21.921c0,0.378 0.378,0 0,0l-44.598,0c-0.378,0 -0,0.378 -0,0l-0,-21.921c-0,-0.378 -0.378,-0 -0,-0Z" style="fill:none;fill-rule:nonzero;stroke:#00f;stroke-width:3.15px;stroke-miterlimit:4;"/><path d="M871.538,25.008l44.598,-0c0.378,-0 0,-0.378 0,-0l0,21.921c0,0.378 0.378,0 0,0l-44.598,0c-0.378,0 0,0.378 0,0l0,-21.921c0,-0.378 -0.378,-0 0,-0Z" style="fill:none;fill-rule:nonzero;stroke:#00f;stroke-width:3.15px;stroke-miterlimit:4;"/><path d="M780.829,25.008l44.599,-0c0.378,-0 -0,-0.378 -0,-0l-0,21.921c-0,0.378 0.378,0 -0,0l-44.599,0c-0.378,0 0,0.378 0,0l0,-21.921c0,-0.378 -0.378,-0 0,-0Z" style="fill:none;fill-rule:nonzero;stroke:#00f;stroke-width:3.15px;stroke-miterlimit:4;"/><path d="M690.121,25.008l44.598,-0c0.378,-0 0,-0.378 0,-0l0,21.921c0,0.378 0.378,0 0,0l-44.598,0c-0.378,0 -0,0.378 -0,0l-0,-21.921c-0,-0.378 -0.378,-0 -0,-0Z" style="fill:none;fill-rule:nonzero;stroke:#00f;stroke-width:3.15px;stroke-miterlimit:4;"/><path d="M599.412,25.008l44.598,-0c0.378,-0 0,-0.378 0,-0l0,21.921c0,0.378 0.378,0 0,0l-44.598,0c-0.378,0 0,0.378 0,0l0,-21.921c0,-0.378 -0.378,-0 0,-0Z" style="fill:none;fill-rule:nonzero;stroke:#00f;stroke-width:3.15px;stroke-miterlimit:4;"/><path d="M508.703,25.008l44.599,-0c0.378,-0 -0,-0.378 -0,-0l-0,21.921c-0,0.378 0.378,0 -0,0l-44.599,0c-0.378,0 0,0.378 0,0l0,-21.921c0,-0.378 -0.378,-0 0,-0Z" style="fill:none;fill-rule:nonzero;stroke:#00f;stroke-width:3.15px;stroke-miterlimit:4;"/><path d="M417.995,25.008l44.598,-0c0.378,-0 0,-0.378 0,-0l0,21.921c0,0.378 0.378,0 0,0l-44.598,0c-0.378,0 -0,0.378 -0,0l-0,-21.921c-0,-0.378 -0.378,-0 -0,-0Z" style="fill:none;fill-rule:nonzero;stroke:#00f;stroke-width:3.15px;stroke-miterlimit:4;"/><path d="M327.286,25.008l44.599,-0c0.377,-0 -0,-0.378 -0,-0l-0,21.921c-0,0.378 0.377,0 -0,0l-44.599,0c-0.378,0 0,0.378 0,0l0,-21.921c0,-0.378 -0.378,-0 0,-0Z" style="fill:none;fill-rule:nonzero;stroke:#00f;stroke-width:3.15px;stroke-miterlimit:4;"/><path d="M236.577,25.008l44.599,-0c0.378,-0 -0,-0.378 -0,-0l-0,21.921c-0,0.378 0.378,0 -0,0l-44.599,0c-0.378,0 0,0.378 0,0l0,-21.921c0,-0.378 -0.378,-0 0,-0Z" style="fill:none;fill-rule:nonzero;stroke:#00f;stroke-width:3.15px;stroke-miterlimit:4;"/><path d="M145.869,25.008l44.598,-0c0.378,-0 0,-0.378 0,-0l0,21.921c0,0.378 0.378,0 0,0l-44.598,0c-0.378,0 -0,0.378 -0,0l-0,-21.921c-0,-0.378 -0.378,-0 -0,-0Z" style="fill:none;fill-rule:nonzero;stroke:#00f;stroke-width:3.15px;stroke-miterlimit:4;"/><path d="M40.042,167.874l-0,-44.598c-0,-0.378 -0.378,-0 -0,-0l21.921,-0c0.378,-0 0,-0.378 0,-0l0,44.598c0,0.378 0.378,0 0,0l-21.921,0c-0.378,0 -0,0.378 -0,0Z" style="fill:none;fill-rule:nonzero;stroke:#00f;stroke-width:3.15px;stroke-miterlimit:4;"/><path d="M40.042,258.583l-0,-44.599c-0,-0.378 -0.378,0 -0,0l21.921,0c0.378,0 0,-0.378 0,0l0,44.599c0,0.378 0.378,-0 0,-0l-21.921,-0c-0.378,-0 -0,0.378 -0,-0Z" style="fill:none;fill-rule:nonzero;stroke:#00f;stroke-width:3.15px;stroke-miterlimit:4;"/><path d="M40.042,349.291l-0,-44.598c-0,-0.378 -0.378,-0 -0,-0l21.921,-0c0.378,-0 0,-0.378 0,-0l0,44.598c0,0.378 0.378,0 0,0l-21.921,0c-0.378,0 -0,0.378 -0,0Z" style="fill:none;fill-rule:nonzero;stroke:#00f;stroke-width:3.15px;stroke-miterlimit:4;"/><path d="M24.63,936.462l82.772,-0c0.378,-0 -0,-0.378 -0,-0l-0,22.299c-0,0.208 0.17,0.378 0.378,0.378l45.354,0c0.208,0 0.378,-0.17 0.378,-0.378l-0,-22.299c-0,-0.378 -0.378,-0 -0,-0l44.598,-0c0.378,-0 0,-0.378 0,-0l0,22.299c0,0.208 0.17,0.378 0.378,0.378l45.355,0c0.207,0 0.377,-0.17 0.377,-0.378l0,-22.299c0,-0.378 -0.377,-0 0,-0l44.599,-0c0.378,-0 -0,-0.378 -0,-0l-0,22.299c-0,0.208 0.17,0.378 0.378,0.378l45.354,0c0.208,0 0.378,-0.17 0.378,-0.378l0,-22.299c0,-0.378 -0.378,-0 0,-0l44.599,-0c0.378,-0 -0,-0.378 -0,-0l-0,22.299c-0,0.208 0.17,0.378 0.378,0.378l45.354,0c0.208,0 0.378,-0.17 0.378,-0.378l-0,-22.299c-0,-0.378 -0.378,-0 -0,-0l44.598,-0c0.378,-0 0,-0.378 0,-0l0,22.299c0,0.208 0.17,0.378 0.378,0.378l45.355,0c0.207,0 0.377,-0.17 0.377,-0.378l0,-22.299c0,-0.378 -0.377,-0 0,-0l44.599,-0c0.378,-0 -0,-0.378 -0,-0l-0,22.299c-0,0.208 0.17,0.378 0.378,0.378l45.354,0c0.208,0 0.378,-0.17 0.378,-0.378l0,-22.299c0,-0.378 -0.378,-0 0,-0l44.599,-0c0.377,-0 -0,-0.378 -0,-0l-0,22.299c-0,0.208 0.17,0.378 0.377,0.378l45.355,0c0.208,0 0.378,-0.17 0.378,-0.378l-0,-22.299c-0,-0.378 -0.378,-0 -0,-0l44.598,-0c0.378,-0 0,-0.378 0,-0l0,22.299c0,0.208 0.17,0.378 0.378,0.378l45.354,0c0.208,0 0.378,-0.17 0.378,-0.378l0,-22.299c0,-0.378 -0.378,-0 0,-0l44.599,-0c0.378,-0 -0,-0.378 -0,-0l-0,22.299c-0,0.208 0.17,0.378 0.378,0.378l45.354,0c0.208,0 0.378,-0.17 0.378,-0.378l0,-22.299c0,-0.378 -0.378,-0 0,-0l44.599,-0c0.377,-0 -0,-0.378 -0,-0l-0,22.299c-0,0.208 0.17,0.378 0.377,0.378l45.355,0c0.208,0 0.378,-0.17 0.378,-0.378l-0,-22.299c-0,-0.378 -0.378,-0 -0,-0l44.598,-0c0.378,-0 0,-0.378 0,-0l0,22.299c0,0.208 0.17,0.378 0.378,0.378l45.354,0c0.208,0 0.378,-0.17 0.378,-0.378l0,-22.299c0,-0.378 -0.378,-0 0,-0l44.599,-0c0.378,-0 -0,-0.378 -0,-0l-0,22.299c-0,0.208 0.17,0.378 0.378,0.378l45.354,0c0.208,0 0.378,-0.17 0.378,-0.378l0,-22.299c0,-0.378 -0.378,-0 0,-0l82.772,-0c0.208,-0 0.378,-0.17 0.378,-0.378l-0,-75.213c-0,-0.378 -0.378,0 -0,0l22.299,0c0.208,0 0.378,-0.17 0.378,-0.378l-0,-45.354c-0,-0.208 -0.17,-0.378 -0.378,-0.378l-22.299,0c-0.378,0 -0,0.378 -0,0l-0,-44.598c-0,-0.378 -0.378,-0 -0,-0l22.299,-0c0.208,-0 0.378,-0.17 0.378,-0.378l-0,-45.355c-0,-0.207 -0.17,-0.378 -0.378,-0.378l-22.299,0c-0.378,0 -0,0.378 -0,0l-0,-44.598c-0,-0.378 -0.378,0 -0,0l22.299,0c0.208,0 0.378,-0.17 0.378,-0.378l-0,-45.354c-0,-0.208 -0.17,-0.378 -0.378,-0.378l-22.299,-0c-0.378,-0 -0,0.378 -0,-0l-0,-75.213c-0,-0.208 -0.17,-0.378 -0.378,-0.378l-82.772,0c-0.378,0 0,0.378 0,0l0,-22.299c0,-0.208 -0.17,-0.378 -0.378,-0.378l-45.354,0c-0.208,0 -0.378,0.17 -0.378,0.378l-0,22.299c-0,0.378 0.378,0 -0,0l-44.599,0c-0.378,0 0,0.378 0,0l0,-22.299c0,-0.208 -0.17,-0.378 -0.378,-0.378l-45.354,0c-0.208,0 -0.378,0.17 -0.378,0.378l0,22.299c0,0.378 0.378,0 0,0l-44.598,0c-0.378,0 -0,0.378 -0,0l-0,-22.299c-0,-0.208 -0.17,-0.378 -0.378,-0.378l-45.355,0c-0.207,0 -0.377,0.17 -0.377,0.378l-0,22.299c-0,0.378 0.377,0 -0,0l-44.599,0c-0.378,0 0,0.378 0,0l0,-22.299c0,-0.208 -0.17,-0.378 -0.378,-0.378l-45.354,0c-0.208,0 -0.378,0.17 -0.378,0.378l-0,22.299c-0,0.378 0.378,0 -0,0l-44.599,0c-0.378,0 0,0.378 0,0l0,-22.299c0,-0.208 -0.17,-0.378 -0.378,-0.378l-45.354,0c-0.208,0 -0.378,0.17 -0.378,0.378l0,22.299c0,0.378 0.378,0 0,0l-44.598,0c-0.378,0 -0,0.378 -0,0l-0,-22.299c-0,-0.208 -0.17,-0.378 -0.378,-0.378l-45.355,0c-0.207,0 -0.377,0.17 -0.377,0.378l-0,22.299c-0,0.378 0.377,0 -0,0l-44.599,0c-0.378,0 0,0.378 0,0l0,-22.299c0,-0.208 -0.17,-0.378 -0.378,-0.378l-45.354,0c-0.208,0 -0.378,0.17 -0.378,0.378l-0,22.299c-0,0.378 0.378,0 -0,0l-44.599,0c-0.377,0 0,0.378 0,0l0,-22.299c0,-0.208 -0.17,-0.378 -0.377,-0.378l-45.355,0c-0.208,0 -0.378,0.17 -0.378,0.378l0,22.299c0,0.378 0.378,0 0,0l-44.598,0c-0.378,0 -0,0.378 -0,0l-0,-22.299c-0,-0.208 -0.17,-0.378 -0.378,-0.378l-45.354,0c-0.208,0 -0.378,0.17 -0.378,0.378l-0,22.299c-0,0.378 0.378,0 -0,0l-44.599,0c-0.378,0 0,0.378 0,0l0,-22.299c0,-0.208 -0.17,-0.378 -0.378,-0.378l-45.354,0c-0.208,0 -0.378,0.17 -0.378,0.378l-0,22.299c-0,0.378 0.378,0 -0,0l-44.599,0c-0.377,0 0,0.378 0,0l0,-22.299c0,-0.208 -0.17,-0.378 -0.377,-0.378l-45.355,0c-0.208,0 -0.378,0.17 -0.378,0.378l0,22.299c0,0.378 0.378,0 0,0l-44.598,0c-0.378,0 -0,0.378 -0,0l-0,-22.299c-0,-0.208 -0.17,-0.378 -0.378,-0.378l-45.354,0c-0.208,0 -0.378,0.17 -0.378,0.378l-0,22.299c-0,0.378 0.378,0 -0,0l-82.772,0c-0.208,0 -0.378,0.17 -0.378,0.378l-0,75.213c-0,0.378 0.378,-0 -0,-0l-22.299,-0c-0.208,-0 -0.378,0.17 -0.378,0.378l-0,45.354c-0,0.208 0.17,0.378 0.378,0.378l22.299,0c0.378,0 -0,-0.378 -0,0l-0,44.598c-0,0.378 0.378,0 -0,0l-22.299,0c-0.208,0 -0.378,0.171 -0.378,0.378l-0,45.355c-0,0.208 0.17,0.378 0.378,0.378l22.299,-0c0.378,-0 -0,-0.378 -0,-0l-0,44.598c-0,0.378 0.378,0 -0,0l-22.299,0c-0.208,0 -0.378,0.17 -0.378,0.378l-0,45.354c-0,0.208 0.17,0.378 0.378,0.378l22.299,0c0.378,0 -0,-0.378 -0,0l-0,75.213c-0,0.208 0.17,0.378 0.378,0.378" style="fill:none;fill-rule:nonzero;stroke:#000;stroke-width:3.15px;stroke-miterlimit:4;"/><path d="M1234.08,1030.95l-82.772,0c-0.378,0 0,0.378 0,0l0,-22.299c0,-0.208 -0.17,-0.378 -0.378,-0.378l-45.354,-0c-0.208,-0 -0.378,0.17 -0.378,0.378l-0,22.299c-0,0.378 0.378,0 -0,0l-44.599,0c-0.378,0 0,0.378 0,0l0,-22.299c0,-0.208 -0.17,-0.378 -0.378,-0.378l-45.354,-0c-0.208,-0 -0.378,0.17 -0.378,0.378l0,22.299c0,0.378 0.378,0 0,0l-44.598,0c-0.378,0 -0,0.378 -0,0l-0,-22.299c-0,-0.208 -0.17,-0.378 -0.378,-0.378l-45.355,-0c-0.207,-0 -0.377,0.17 -0.377,0.378l-0,22.299c-0,0.378 0.377,0 -0,0l-44.599,0c-0.378,0 0,0.378 0,0l0,-22.299c0,-0.208 -0.17,-0.378 -0.378,-0.378l-45.354,-0c-0.208,-0 -0.378,0.17 -0.378,0.378l-0,22.299c-0,0.378 0.378,0 -0,0l-44.599,0c-0.378,0 0,0.378 0,0l0,-22.299c0,-0.208 -0.17,-0.378 -0.378,-0.378l-45.354,-0c-0.208,-0 -0.378,0.17 -0.378,0.378l0,22.299c0,0.378 0.378,0 0,0l-44.598,0c-0.378,0 -0,0.378 -0,0l-0,-22.299c-0,-0.208 -0.17,-0.378 -0.378,-0.378l-45.355,-0c-0.207,-0 -0.377,0.17 -0.377,0.378l-0,22.299c-0,0.378 0.377,0 -0,0l-44.599,0c-0.378,0 0,0.378 0,0l0,-22.299c0,-0.208 -0.17,-0.378 -0.378,-0.378l-45.354,-0c-0.208,-0 -0.378,0.17 -0.378,0.378l-0,22.299c-0,0.378 0.378,0 -0,0l-44.599,0c-0.377,0 0,0.378 0,0l0,-22.299c0,-0.208 -0.17,-0.378 -0.377,-0.378l-45.355,-0c-0.208,-0 -0.378,0.17 -0.378,0.378l0,22.299c0,0.378 0.378,0 0,0l-44.598,0c-0.378,0 -0,0.378 -0,0l-0,-22.299c-0,-0.208 -0.17,-0.378 -0.378,-0.378l-45.354,-0c-0.208,-0 -0.378,0.17 -0.378,0.378l-0,22.299c-0,0.378 0.378,0 -0,0l-44.599,0c-0.378,0 0,0.378 0,0l0,-22.299c0,-0.208 -0.17,-0.378 -0.378,-0.378l-45.354,-0c-0.208,-0 -0.378,0.17 -0.378,0.378l-0,22.299c-0,0.378 0.378,0 -0,0l-44.599,0c-0.377,0 0,0.378 0,0l0,-22.299c0,-0.208 -0.17,-0.378 -0.377,-0.378l-45.355,-0c-0.208,-0 -0.378,0.17 -0.378,0.378l0,22.299c0,0.378 0.378,0 0,0l-44.598,0c-0.378,0 -0,0.378 -0,0l-0,-22.299c-0,-0.208 -0.17,-0.378 -0.378,-0.378l-45.354,-0c-0.208,-0 -0.378,0.17 -0.378,0.378l-0,22.299c-0,0.378 0.378,0 -0,0l-105.449,0c-0.208,0 -0.378,0.17 -0.378,0.378l-0,77.48c-0,0.208 0.17,0.378 0.378,0.378l22.299,0c0.378,0 -0,-0.378 -0,0l-0,44.599c-0,0.378 0.378,-0 -0,-0l-22.299,-0c-0.208,-0 -0.378,0.17 -0.378,0.378l-0,45.354c-0,0.208 0.17,0.378 0.378,0.378l22.299,0c0.378,0 -0,-0.378 -0,0l-0,44.598c-0,0.378 0.378,0 -0,0l-22.299,0c-0.208,0 -0.378,0.171 -0.378,0.378l-0,45.355c-0,0.208 0.17,0.378 0.378,0.378l22.299,-0c0.378,-0 -0,-0.378 -0,-0l-0,44.598c-0,0.378 0.378,0 -0,0l-22.299,0c-0.208,0 -0.378,0.17 -0.378,0.378l-0,45.354c-0,0.208 0.17,0.378 0.378,0.378l22.299,0c0.378,0 -0,-0.378 -0,0l-0,44.599c-0,0.378 0.378,-0 -0,-0l-22.299,-0c-0.208,-0 -0.378,0.17 -0.378,0.378l-0,100.157c-0,0.208 0.17,0.378 0.378,0.378l105.827,0c0.207,0 0.377,-0.17 0.377,-0.378l0,-22.299c0,-0.378 -0.377,-0 0,-0l44.599,-0c0.378,-0 -0,-0.378 -0,-0l-0,22.299c-0,0.208 0.17,0.378 0.378,0.378l45.354,0c0.208,0 0.378,-0.17 0.378,-0.378l0,-22.299c0,-0.378 -0.378,-0 0,-0l44.599,-0c0.378,-0 -0,-0.378 -0,-0l-0,22.299c-0,0.208 0.17,0.378 0.378,0.378l45.354,0c0.208,0 0.378,-0.17 0.378,-0.378l-0,-22.299c-0,-0.378 -0.378,-0 -0,-0l44.598,-0c0.378,-0 0,-0.378 0,-0l0,22.299c0,0.208 0.17,0.378 0.378,0.378l45.355,0c0.207,0 0.377,-0.17 0.377,-0.378l0,-22.299c0,-0.378 -0.377,-0 0,-0l44.599,-0c0.378,-0 -0,-0.378 -0,-0l-0,22.299c-0,0.208 0.17,0.378 0.378,0.378l45.354,0c0.208,0 0.378,-0.17 0.378,-0.378l0,-22.299c0,-0.378 -0.378,-0 0,-0l44.599,-0c0.378,-0 -0,-0.378 -0,-0l-0,22.299c-0,0.208 0.17,0.378 0.378,0.378l45.354,0c0.208,0 0.378,-0.17 0.378,-0.378l-0,-22.299c-0,-0.378 -0.378,-0 -0,-0l44.598,-0c0.378,-0 0,-0.378 0,-0l0,22.299c0,0.208 0.17,0.378 0.378,0.378l45.354,0c0.208,0 0.378,-0.17 0.378,-0.378l0,-22.299c0,-0.378 -0.378,-0 0,-0l44.599,-0c0.378,-0 -0,-0.378 -0,-0l-0,22.299c-0,0.208 0.17,0.378 0.378,0.378l45.354,0c0.208,0 0.378,-0.17 0.378,-0.378l0,-22.299c0,-0.378 -0.378,-0 0,-0l44.599,-0c0.377,-0 -0,-0.378 -0,-0l-0,22.299c-0,0.208 0.17,0.378 0.377,0.378l45.355,0c0.208,0 0.378,-0.17 0.378,-0.378l-0,-22.299c-0,-0.378 -0.378,-0 -0,-0l44.598,-0c0.378,-0 0,-0.378 0,-0l0,22.299c0,0.208 0.17,0.378 0.378,0.378l45.354,0c0.208,0 0.378,-0.17 0.378,-0.378l0,-22.299c0,-0.378 -0.378,-0 0,-0l44.599,-0c0.378,-0 -0,-0.378 -0,-0l-0,22.299c-0,0.208 0.17,0.378 0.378,0.378l45.354,0c0.208,0 0.378,-0.17 0.378,-0.378l0,-22.299c0,-0.378 -0.378,-0 0,-0l44.599,-0c0.377,-0 -0,-0.378 -0,-0l-0,22.299c-0,0.208 0.17,0.378 0.377,0.378l45.355,0c0.208,0 0.378,-0.17 0.378,-0.378l-0,-22.299c-0,-0.378 -0.378,-0 -0,-0l44.598,-0c0.378,-0 0,-0.378 0,-0l0,22.299c0,0.208 0.17,0.378 0.378,0.378l105.827,0c0.208,0 0.378,-0.17 0.378,-0.378l-0,-100.157c-0,-0.208 -0.17,-0.378 -0.378,-0.378l-22.299,-0c-0.378,-0 -0,0.378 -0,-0l-0,-44.599c-0,-0.378 -0.378,0 -0,0l22.299,0c0.208,0 0.378,-0.17 0.378,-0.378l-0,-45.354c-0,-0.208 -0.17,-0.378 -0.378,-0.378l-22.299,0c-0.378,0 -0,0.378 -0,0l-0,-44.598c-0,-0.378 -0.378,-0 -0,-0l22.299,-0c0.208,-0 0.378,-0.17 0.378,-0.378l-0,-45.355c-0,-0.207 -0.17,-0.378 -0.378,-0.378l-22.299,0c-0.378,0 -0,0.378 -0,0l-0,-44.598c-0,-0.378 -0.378,0 -0,0l22.299,0c0.208,0 0.378,-0.17 0.378,-0.378l-0,-45.354c-0,-0.208 -0.17,-0.378 -0.378,-0.378l-22.299,-0c-0.378,-0 -0,0.378 -0,-0l-0,-44.599c-0,-0.378 -0.378,0 -0,0l22.299,0c0.208,0 0.378,-0.17 0.378,-0.378l-0,-77.48c-0,-0.208 -0.17,-0.378 -0.378,-0.378l-22.677,0" style="fill:none;fill-rule:nonzero;stroke:#000;stroke-width:3.15px;stroke-miterlimit:4;"/><path d="M1234.08,1598.63l-82.772,0c-0.378,0 0,0.378 0,0l0,-22.299c0,-0.208 -0.17,-0.378 -0.378,-0.378l-45.354,0c-0.208,0 -0.378,0.17 -0.378,0.378l-0,22.299c-0,0.378 0.378,0 -0,0l-44.599,0c-0.378,0 0,0.378 0,0l0,-22.299c0,-0.208 -0.17,-0.378 -0.378,-0.378l-45.354,0c-0.208,0 -0.378,0.17 -0.378,0.378l0,22.299c0,0.378 0.378,0 0,0l-44.598,0c-0.378,0 -0,0.378 -0,0l-0,-22.299c-0,-0.208 -0.17,-0.378 -0.378,-0.378l-45.355,0c-0.207,0 -0.377,0.17 -0.377,0.378l-0,22.299c-0,0.378 0.377,0 -0,0l-44.599,0c-0.378,0 0,0.378 0,0l0,-22.299c0,-0.208 -0.17,-0.378 -0.378,-0.378l-45.354,0c-0.208,0 -0.378,0.17 -0.378,0.378l-0,22.299c-0,0.378 0.378,0 -0,0l-44.599,0c-0.378,0 0,0.378 0,0l0,-22.299c0,-0.208 -0.17,-0.378 -0.378,-0.378l-45.354,0c-0.208,0 -0.378,0.17 -0.378,0.378l0,22.299c0,0.378 0.378,0 0,0l-44.598,0c-0.378,0 -0,0.378 -0,0l-0,-22.299c-0,-0.208 -0.17,-0.378 -0.378,-0.378l-45.355,0c-0.207,0 -0.377,0.17 -0.377,0.378l-0,22.299c-0,0.378 0.377,0 -0,0l-44.599,0c-0.378,0 0,0.378 0,0l0,-22.299c0,-0.208 -0.17,-0.378 -0.378,-0.378l-45.354,0c-0.208,0 -0.378,0.17 -0.378,0.378l-0,22.299c-0,0.378 0.378,0 -0,0l-44.599,0c-0.377,0 0,0.378 0,0l0,-22.299c0,-0.208 -0.17,-0.378 -0.377,-0.378l-45.355,0c-0.208,0 -0.378,0.17 -0.378,0.378l0,22.299c0,0.378 0.378,0 0,0l-44.598,0c-0.378,0 -0,0.378 -0,0l-0,-22.299c-0,-0.208 -0.17,-0.378 -0.378,-0.378l-45.354,0c-0.208,0 -0.378,0.17 -0.378,0.378l-0,22.299c-0,0.378 0.378,0 -0,0l-44.599,0c-0.378,0 0,0.378 0,0l0,-22.299c0,-0.208 -0.17,-0.378 -0.378,-0.378l-45.354,0c-0.208,0 -0.378,0.17 -0.378,0.378l-0,22.299c-0,0.378 0.378,0 -0,0l-44.599,0c-0.377,0 0,0.378 0,0l0,-22.299c0,-0.208 -0.17,-0.378 -0.377,-0.378l-45.355,0c-0.208,0 -0.378,0.17 -0.378,0.378l0,22.299c0,0.378 0.378,0 0,0l-44.598,0c-0.378,0 -0,0.378 -0,0l-0,-22.299c-0,-0.208 -0.17,-0.378 -0.378,-0.378l-45.354,0c-0.208,0 -0.378,0.17 -0.378,0.378l-0,22.299c-0,0.378 0.378,0 -0,0l-105.449,0c-0.208,0 -0.378,0.17 -0.378,0.378l-0,77.48c-0,0.208 0.17,0.378 0.378,0.378l22.299,0c0.378,0 -0,-0.378 -0,0l-0,44.599c-0,0.378 0.378,-0 -0,-0l-22.299,-0c-0.208,-0 -0.378,0.17 -0.378,0.378l-0,45.354c-0,0.208 0.17,0.378 0.378,0.378l22.299,0c0.378,0 -0,-0.378 -0,0l-0,44.598c-0,0.378 0.378,0 -0,0l-22.299,0c-0.208,0 -0.378,0.171 -0.378,0.378l-0,45.355c-0,0.208 0.17,0.378 0.378,0.378l22.299,-0c0.378,-0 -0,-0.378 -0,-0l-0,44.598c-0,0.378 0.378,0 -0,0l-22.299,0c-0.208,0 -0.378,0.17 -0.378,0.378l-0,45.354c-0,0.208 0.17,0.378 0.378,0.378l22.299,0c0.378,0 -0,-0.378 -0,0l-0,44.599c-0,0.378 0.378,-0 -0,-0l-22.299,-0c-0.208,-0 -0.378,0.17 -0.378,0.378l-0,100.157c-0,0.208 0.17,0.378 0.378,0.378l105.827,0c0.207,0 0.377,-0.17 0.377,-0.378l0,-22.299c0,-0.378 -0.377,0 0,0l44.599,0c0.378,0 -0,-0.378 -0,0l-0,22.299c-0,0.208 0.17,0.378 0.378,0.378l45.354,0c0.208,0 0.378,-0.17 0.378,-0.378l0,-22.299c0,-0.378 -0.378,0 0,0l44.599,0c0.378,0 -0,-0.378 -0,0l-0,22.299c-0,0.208 0.17,0.378 0.378,0.378l45.354,0c0.208,0 0.378,-0.17 0.378,-0.378l-0,-22.299c-0,-0.378 -0.378,0 -0,0l44.598,0c0.378,0 0,-0.378 0,0l0,22.299c0,0.208 0.17,0.378 0.378,0.378l45.355,0c0.207,0 0.377,-0.17 0.377,-0.378l0,-22.299c0,-0.378 -0.377,0 0,0l44.599,0c0.378,0 -0,-0.378 -0,0l-0,22.299c-0,0.208 0.17,0.378 0.378,0.378l45.354,0c0.208,0 0.378,-0.17 0.378,-0.378l0,-22.299c0,-0.378 -0.378,0 0,0l44.599,0c0.378,0 -0,-0.378 -0,0l-0,22.299c-0,0.208 0.17,0.378 0.378,0.378l45.354,0c0.208,0 0.378,-0.17 0.378,-0.378l-0,-22.299c-0,-0.378 -0.378,0 -0,0l44.598,0c0.378,0 0,-0.378 0,0l0,22.299c0,0.208 0.17,0.378 0.378,0.378l45.354,0c0.208,0 0.378,-0.17 0.378,-0.378l0,-22.299c0,-0.378 -0.378,0 0,0l44.599,0c0.378,0 -0,-0.378 -0,0l-0,22.299c-0,0.208 0.17,0.378 0.378,0.378l45.354,0c0.208,0 0.378,-0.17 0.378,-0.378l0,-22.299c0,-0.378 -0.378,0 0,0l44.599,0c0.377,0 -0,-0.378 -0,0l-0,22.299c-0,0.208 0.17,0.378 0.377,0.378l45.355,0c0.208,0 0.378,-0.17 0.378,-0.378l-0,-22.299c-0,-0.378 -0.378,0 -0,0l44.598,0c0.378,0 0,-0.378 0,0l0,22.299c0,0.208 0.17,0.378 0.378,0.378l45.354,0c0.208,0 0.378,-0.17 0.378,-0.378l0,-22.299c0,-0.378 -0.378,0 0,0l44.599,0c0.378,0 -0,-0.378 -0,0l-0,22.299c-0,0.208 0.17,0.378 0.378,0.378l45.354,0c0.208,0 0.378,-0.17 0.378,-0.378l0,-22.299c0,-0.378 -0.378,0 0,0l44.599,0c0.377,0 -0,-0.378 -0,0l-0,22.299c-0,0.208 0.17,0.378 0.377,0.378l45.355,0c0.208,0 0.378,-0.17 0.378,-0.378l-0,-22.299c-0,-0.378 -0.378,0 -0,0l44.598,0c0.378,0 0,-0.378 0,0l0,22.299c0,0.208 0.17,0.378 0.378,0.378l105.827,0c0.208,0 0.378,-0.17 0.378,-0.378l-0,-100.157c-0,-0.208 -0.17,-0.378 -0.378,-0.378l-22.299,-0c-0.378,-0 -0,0.378 -0,-0l-0,-44.599c-0,-0.378 -0.378,0 -0,0l22.299,0c0.208,0 0.378,-0.17 0.378,-0.378l-0,-45.354c-0,-0.208 -0.17,-0.378 -0.378,-0.378l-22.299,0c-0.378,0 -0,0.378 -0,0l-0,-44.598c-0,-0.378 -0.378,-0 -0,-0l22.299,-0c0.208,-0 0.378,-0.17 0.378,-0.378l-0,-45.355c-0,-0.207 -0.17,-0.378 -0.378,-0.378l-22.299,0c-0.378,0 -0,0.378 -0,0l-0,-44.598c-0,-0.378 -0.378,0 -0,0l22.299,0c0.208,0 0.378,-0.17 0.378,-0.378l-0,-45.354c-0,-0.208 -0.17,-0.378 -0.378,-0.378l-22.299,-0c-0.378,-0 -0,0.378 -0,-0l-0,-44.599c-0,-0.378 -0.378,0 -0,0l22.299,0c0.208,0 0.378,-0.17 0.378,-0.378l-0,-77.48c-0,-0.208 -0.17,-0.378 -0.378,-0.378l-22.677,0" style="fill:none;fill-rule:nonzero;stroke:#000;stroke-width:3.15px;stroke-miterlimit:4;"/><path d="M1329.32,1504.15l75.212,-0c0.378,-0 0,-0.378 0,-0l0,22.299c0,0.208 0.171,0.378 0.378,0.378l45.355,0c0.208,0 0.378,-0.17 0.378,-0.378l-0,-22.299c-0,-0.378 -0.378,-0 -0,-0l44.598,-0c0.378,-0 0,-0.378 0,-0l0,22.299c0,0.208 0.17,0.378 0.378,0.378l45.354,0c0.208,0 0.378,-0.17 0.378,-0.378l0,-22.299c0,-0.378 -0.378,-0 0,-0l44.599,-0c0.378,-0 -0,-0.378 -0,-0l-0,22.299c-0,0.208 0.17,0.378 0.378,0.378l45.354,0c0.208,0 0.378,-0.17 0.378,-0.378l-0,-22.299c-0,-0.378 -0.378,-0 -0,-0l75.213,-0c0.207,-0 0.378,-0.17 0.378,-0.378l-0,-77.102c-0,-0.378 -0.378,-0 -0,-0l22.299,-0c0.208,-0 0.378,-0.17 0.378,-0.378l-0,-45.355c-0,-0.207 -0.17,-0.378 -0.378,-0.378l-22.299,0c-0.378,0 -0,0.378 -0,0l-0,-44.598c-0,-0.378 -0.378,0 -0,0l22.299,0c0.208,0 0.378,-0.17 0.378,-0.378l-0,-45.354c-0,-0.208 -0.17,-0.378 -0.378,-0.378l-22.299,-0c-0.378,-0 -0,0.378 -0,-0l-0,-44.599c-0,-0.378 -0.378,0 -0,0l22.299,0c0.208,0 0.378,-0.17 0.378,-0.378l-0,-45.354c-0,-0.208 -0.17,-0.378 -0.378,-0.378l-22.299,0c-0.378,0 -0,0.378 -0,0l-0,-44.598c-0,-0.378 -0.378,-0 -0,-0l22.299,-0c0.208,-0 0.378,-0.17 0.378,-0.378l-0,-45.355c-0,-0.207 -0.17,-0.378 -0.378,-0.378l-22.299,0c-0.378,0 -0,0.378 -0,0l-0,-99.779c-0,-0.208 -0.171,-0.378 -0.378,-0.378l-75.591,-0c-0.208,-0 -0.378,0.17 -0.378,0.378l0,22.299c0,0.378 0.378,0 0,0l-44.598,0c-0.378,0 -0,0.378 -0,0l-0,-22.299c-0,-0.208 -0.17,-0.378 -0.378,-0.378l-45.355,-0c-0.207,-0 -0.378,0.17 -0.378,0.378l0,22.299c0,0.378 0.378,0 0,0l-44.598,0c-0.378,0 0,0.378 0,0l0,-22.299c0,-0.208 -0.17,-0.378 -0.378,-0.378l-45.354,-0c-0.208,-0 -0.378,0.17 -0.378,0.378l-0,22.299c-0,0.378 0.378,0 -0,0l-44.599,0c-0.378,0 0,0.378 0,0l0,-22.299c0,-0.208 -0.17,-0.378 -0.378,-0.378l-75.59,-0c-0.208,-0 -0.378,0.17 -0.378,0.378l-0,99.779c-0,0.378 0.378,0 -0,0l-22.299,0c-0.208,0 -0.378,0.171 -0.378,0.378l-0,45.355c-0,0.208 0.17,0.378 0.378,0.378l22.299,-0c0.378,-0 -0,-0.378 -0,-0l-0,44.598c-0,0.378 0.378,0 -0,0l-22.299,0c-0.208,0 -0.378,0.17 -0.378,0.378l-0,45.354c-0,0.208 0.17,0.378 0.378,0.378l22.299,0c0.378,0 -0,-0.378 -0,0l-0,44.599c-0,0.378 0.378,-0 -0,-0l-22.299,-0c-0.208,-0 -0.378,0.17 -0.378,0.378l-0,45.354c-0,0.208 0.17,0.378 0.378,0.378l22.299,0c0.378,0 -0,-0.378 -0,0l-0,44.598c-0,0.378 0.378,0 -0,0l-22.299,0c-0.208,0 -0.378,0.171 -0.378,0.378l-0,45.355c-0,0.208 0.17,0.378 0.378,0.378l22.299,-0c0.378,-0 -0,-0.378 -0,-0l-0,77.102c-0,0.208 0.17,0.378 0.378,0.378" style="fill:none;fill-rule:nonzero;stroke:#000;stroke-width:3.15px;stroke-miterlimit:4;"/><path d="M1329.32,2071.83l75.212,0c0.378,0 0,-0.378 0,0l0,22.299c0,0.208 0.171,0.378 0.378,0.378l45.355,0c0.208,0 0.378,-0.17 0.378,-0.378l-0,-22.299c-0,-0.378 -0.378,0 -0,0l44.598,0c0.378,0 0,-0.378 0,0l0,22.299c0,0.208 0.17,0.378 0.378,0.378l45.354,0c0.208,0 0.378,-0.17 0.378,-0.378l0,-22.299c0,-0.378 -0.378,0 0,0l44.599,0c0.378,0 -0,-0.378 -0,0l-0,22.299c-0,0.208 0.17,0.378 0.378,0.378l45.354,0c0.208,0 0.378,-0.17 0.378,-0.378l-0,-22.299c-0,-0.378 -0.378,0 -0,0l75.213,0c0.207,0 0.378,-0.17 0.378,-0.378l-0,-77.102c-0,-0.378 -0.378,-0 -0,-0l22.299,-0c0.208,-0 0.378,-0.17 0.378,-0.378l-0,-45.355c-0,-0.207 -0.17,-0.378 -0.378,-0.378l-22.299,0c-0.378,0 -0,0.378 -0,0l-0,-44.598c-0,-0.378 -0.378,0 -0,0l22.299,0c0.208,0 0.378,-0.17 0.378,-0.378l-0,-45.354c-0,-0.208 -0.17,-0.378 -0.378,-0.378l-22.299,-0c-0.378,-0 -0,0.378 -0,-0l-0,-44.599c-0,-0.378 -0.378,0 -0,0l22.299,0c0.208,0 0.378,-0.17 0.378,-0.378l-0,-45.354c-0,-0.208 -0.17,-0.378 -0.378,-0.378l-22.299,0c-0.378,0 -0,0.378 -0,0l-0,-44.598c-0,-0.378 -0.378,-0 -0,-0l22.299,-0c0.208,-0 0.378,-0.17 0.378,-0.378l-0,-45.355c-0,-0.207 -0.17,-0.378 -0.378,-0.378l-22.299,0c-0.378,0 -0,0.378 -0,0l-0,-99.779c-0,-0.208 -0.171,-0.378 -0.378,-0.378l-75.591,0c-0.208,0 -0.378,0.17 -0.378,0.378l0,22.299c0,0.378 0.378,0 0,0l-44.598,0c-0.378,0 -0,0.378 -0,0l-0,-22.299c-0,-0.208 -0.17,-0.378 -0.378,-0.378l-45.355,0c-0.207,0 -0.378,0.17 -0.378,0.378l0,22.299c0,0.378 0.378,0 0,0l-44.598,0c-0.378,0 0,0.378 0,0l0,-22.299c0,-0.208 -0.17,-0.378 -0.378,-0.378l-45.354,0c-0.208,0 -0.378,0.17 -0.378,0.378l-0,22.299c-0,0.378 0.378,0 -0,0l-44.599,0c-0.378,0 0,0.378 0,0l0,-22.299c0,-0.208 -0.17,-0.378 -0.378,-0.378l-75.59,0c-0.208,0 -0.378,0.17 -0.378,0.378l-0,99.779c-0,0.378 0.378,0 -0,0l-22.299,0c-0.208,0 -0.378,0.171 -0.378,0.378l-0,45.355c-0,0.208 0.17,0.378 0.378,0.378l22.299,-0c0.378,-0 -0,-0.378 -0,-0l-0,44.598c-0,0.378 0.378,0 -0,0l-22.299,0c-0.208,0 -0.378,0.17 -0.378,0.378l-0,45.354c-0,0.208 0.17,0.378 0.378,0.378l22.299,0c0.378,0 -0,-0.378 -0,0l-0,44.599c-0,0.378 0.378,-0 -0,-0l-22.299,-0c-0.208,-0 -0.378,0.17 -0.378,0.378l-0,45.354c-0,0.208 0.17,0.378 0.378,0.378l22.299,0c0.378,0 -0,-0.378 -0,0l-0,44.598c-0,0.378 0.378,0 -0,0l-22.299,0c-0.208,0 -0.378,0.171 -0.378,0.378l-0,45.355c-0,0.208 0.17,0.378 0.378,0.378l22.299,-0c0.378,-0 -0,-0.378 -0,-0l-0,77.102c-0,0.208 0.17,0.378 0.378,0.378" style="fill:none;fill-rule:nonzero;stroke:#000;stroke-width:3.15px;stroke-miterlimit:4;"/></g><g id="Cutouts"><circle cx="255.748" cy="1264.03" r="179.528" style="fill:none;stroke:#000;stroke-width:3.2px;"/><circle cx="102.108" cy="1113.91" r="9.449" style="fill:none;stroke:#000;stroke-width:3.2px;"/><circle cx="102.108" cy="1421.19" r="9.449" style="fill:none;stroke:#000;stroke-width:3.2px;"/><circle cx="409.388" cy="1421.19" r="9.449" style="fill:none;stroke:#000;stroke-width:3.2px;"/><circle cx="409.388" cy="1113.91" r="9.449" style="fill:none;stroke:#000;stroke-width:3.2px;"/><circle cx="1002.58" cy="1267.55" r="179.528" style="fill:none;stroke:#000;stroke-width:3.2px;"/><circle cx="848.942" cy="1113.91" r="9.449" style="fill:none;stroke:#000;stroke-width:3.2px;"/><circle cx="848.942" cy="1421.19" r="9.449" style="fill:none;stroke:#000;stroke-width:3.2px;"/><circle cx="1156.22" cy="1421.19" r="9.449" style="fill:none;stroke:#000;stroke-width:3.2px;"/><circle cx="1156.22" cy="1113.91" r="9.449" style="fill:none;stroke:#000;stroke-width:3.2px;"/><circle cx="487.371" cy="1097.47" r="5.669" style="fill:none;stroke:#000;stroke-width:3.2px;"/><circle cx="770.836" cy="1097.47" r="5.669" style="fill:none;stroke:#000;stroke-width:3.2px;"/><circle cx="770.836" cy="1214.63" r="5.669" style="fill:none;stroke:#000;stroke-width:3.2px;"/><circle cx="487.371" cy="1214.63" r="5.669" style="fill:none;stroke:#000;stroke-width:3.2px;"/><rect x="493.985" y="1109.75" width="270.236" height="92.598" style="fill:none;stroke:#000;stroke-width:3.2px;"/><circle cx="628.622" cy="1335.58" r="13.228" style="fill:none;stroke:#000;stroke-width:3.2px;"/><circle cx="738.961" cy="1668.47" r="4.724" style="fill:none;stroke:#000;stroke-width:3.2px;"/><circle cx="738.961" cy="1755.39" r="4.724" style="fill:none;stroke:#000;stroke-width:3.2px;"/><circle cx="519.748" cy="1755.39" r="4.724" style="fill:none;stroke:#000;stroke-width:3.2px;"/><circle cx="519.748" cy="1668.47" r="4.724" style="fill:none;stroke:#000;stroke-width:3.2px;"/><circle cx="610.457" cy="235.046" r="13.228" style="fill:none;stroke:#000;stroke-width:3.2px;"/><circle cx="723.843" cy="237.185" r="13.228" style="fill:none;stroke:#000;stroke-width:3.2px;"/><circle cx="1041.35" cy="237.185" r="11.339" style="fill:none;stroke:#000;stroke-width:3.2px;"/><path d="M639.823,1991.62c6.171,3.602 10.319,10.297 10.319,17.953c-0,7.656 -4.148,14.351 -10.319,17.953l-20.937,-0c-6.171,-3.602 -10.319,-10.297 -10.319,-17.953c-0,-7.656 4.148,-14.351 10.319,-17.953l20.937,0Z" style="fill:none;stroke:#000;stroke-width:3.2px;"/></g></svg>